# Blender 5.0.1
# www.blender.org
mtllib bearcub.mtl
o Torso
v -0.525000 0.340000 0.575000
v -0.525000 1.220000 0.575000
v -0.525000 0.340000 -0.575000
v -0.525000 1.220000 -0.575000
v 0.525000 0.340000 0.575000
v 0.525000 1.220000 0.575000
v 0.525000 0.340000 -0.575000
v 0.525000 1.220000 -0.575000
v -0.410000 0.320000 0.475000
v -0.410000 0.760000 0.475000
v -0.410000 0.320000 -0.475000
v -0.410000 0.760000 -0.475000
v 0.410000 0.320000 0.475000
v 0.410000 0.760000 0.475000
v 0.410000 0.320000 -0.475000
v 0.410000 0.760000 -0.475000
vn -1.0000 -0.0000 -0.0000
vn -0.0000 -0.0000 -1.0000
vn 1.0000 -0.0000 -0.0000
vn -0.0000 -0.0000 1.0000
vn -0.0000 -1.0000 -0.0000
vn -0.0000 1.0000 -0.0000
vt 0.062500 0.937500
vt 0.187500 0.937500
s 0
usemtl GamePalette
f 1/1/1 2/1/1 4/1/1 3/1/1
f 3/1/2 4/1/2 8/1/2 7/1/2
f 7/1/3 8/1/3 6/1/3 5/1/3
f 5/1/4 6/1/4 2/1/4 1/1/4
f 3/1/5 7/1/5 5/1/5 1/1/5
f 8/1/6 4/1/6 2/1/6 6/1/6
f 9/2/1 10/2/1 12/2/1 11/2/1
f 11/2/2 12/2/2 16/2/2 15/2/2
f 15/2/3 16/2/3 14/2/3 13/2/3
f 13/2/4 14/2/4 10/2/4 9/2/4
f 11/2/5 15/2/5 13/2/5 9/2/5
f 16/2/6 12/2/6 10/2/6 14/2/6
o Collar
v -0.460000 1.267439 0.917795
v -0.460000 1.420087 0.822409
v -0.460000 0.779913 0.137591
v -0.460000 0.932562 0.042205
v 0.460000 1.267439 0.917795
v 0.460000 1.420087 0.822409
v 0.460000 0.779913 0.137591
v 0.460000 0.932562 0.042205
v 0.000000 0.800000 0.720000
v 0.115776 0.888446 0.804115
v -0.044222 0.888446 0.856102
v -0.143108 0.888446 0.720000
v -0.044222 0.888446 0.583898
v 0.115776 0.888446 0.635885
v 0.044222 1.031554 0.856102
v -0.115776 1.031554 0.804115
v -0.115776 1.031554 0.635885
v 0.044222 1.031554 0.583898
v 0.143108 1.031554 0.720000
v 0.000000 1.120000 0.720000
vn -1.0000 -0.0000 -0.0000
vn -0.0000 -0.5299 -0.8480
vn 1.0000 -0.0000 -0.0000
vn -0.0000 0.5299 0.8480
vn -0.0000 -0.8480 0.5299
vn -0.0000 0.8480 -0.5299
vn 0.1876 -0.7947 0.5774
vn 0.6071 -0.7947 -0.0000
vn -0.4911 -0.7947 0.3568
vn -0.4911 -0.7947 -0.3568
vn 0.1876 -0.7947 -0.5774
vn 0.9822 -0.1876 -0.0000
vn 0.3035 -0.1876 0.9342
vn -0.7946 -0.1876 0.5774
vn -0.7946 -0.1876 -0.5774
vn 0.3035 -0.1876 -0.9342
vn 0.7946 0.1876 0.5774
vn -0.3035 0.1876 0.9342
vn -0.9822 0.1876 -0.0000
vn -0.3035 0.1876 -0.9342
vn 0.7946 0.1876 -0.5774
vn 0.4911 0.7947 0.3568
vn -0.1876 0.7947 0.5774
vn -0.6071 0.7947 -0.0000
vn -0.1876 0.7947 -0.5774
vn 0.4911 0.7947 -0.3568
vt 0.437500 0.937500
vt 0.312500 0.312500
s 0
usemtl GamePalette
f 17/3/7 18/3/7 20/3/7 19/3/7
f 19/3/8 20/3/8 24/3/8 23/3/8
f 23/3/9 24/3/9 22/3/9 21/3/9
f 21/3/10 22/3/10 18/3/10 17/3/10
f 19/3/11 23/3/11 21/3/11 17/3/11
f 24/3/12 20/3/12 18/3/12 22/3/12
f 25/4/13 26/4/13 27/4/13
f 26/4/14 25/4/14 30/4/14
f 25/4/15 27/4/15 28/4/15
f 25/4/16 28/4/16 29/4/16
f 25/4/17 29/4/17 30/4/17
f 26/4/18 30/4/18 35/4/18
f 27/4/19 26/4/19 31/4/19
f 28/4/20 27/4/20 32/4/20
f 29/4/21 28/4/21 33/4/21
f 30/4/22 29/4/22 34/4/22
f 26/4/23 35/4/23 31/4/23
f 27/4/24 31/4/24 32/4/24
f 28/4/25 32/4/25 33/4/25
f 29/4/26 33/4/26 34/4/26
f 30/4/27 34/4/27 35/4/27
f 31/4/28 35/4/28 36/4/28
f 32/4/29 31/4/29 36/4/29
f 33/4/30 32/4/30 36/4/30
f 34/4/31 33/4/31 36/4/31
f 35/4/32 34/4/32 36/4/32
o Head
v -0.540000 0.940000 1.190000
v -0.540000 1.900000 1.190000
v -0.540000 0.940000 0.210000
v -0.540000 1.900000 0.210000
v 0.540000 0.940000 1.190000
v 0.540000 1.900000 1.190000
v 0.540000 0.940000 0.210000
v 0.540000 1.900000 0.210000
v -0.650000 1.080000 0.940000
v -0.650000 1.520000 0.940000
v -0.650000 1.080000 0.500000
v -0.650000 1.520000 0.500000
v -0.390000 1.080000 0.940000
v -0.390000 1.520000 0.940000
v -0.390000 1.080000 0.500000
v -0.390000 1.520000 0.500000
v 0.390000 1.080000 0.940000
v 0.390000 1.520000 0.940000
v 0.390000 1.080000 0.500000
v 0.390000 1.520000 0.500000
v 0.650000 1.080000 0.940000
v 0.650000 1.520000 0.940000
v 0.650000 1.080000 0.500000
v 0.650000 1.520000 0.500000
vn -1.0000 -0.0000 -0.0000
vn -0.0000 -0.0000 -1.0000
vn 1.0000 -0.0000 -0.0000
vn -0.0000 -0.0000 1.0000
vn -0.0000 -1.0000 -0.0000
vn -0.0000 1.0000 -0.0000
vt 0.062500 0.937500
s 0
usemtl GamePalette
f 37/5/33 38/5/33 40/5/33 39/5/33
f 39/5/34 40/5/34 44/5/34 43/5/34
f 43/5/35 44/5/35 42/5/35 41/5/35
f 41/5/36 42/5/36 38/5/36 37/5/36
f 39/5/37 43/5/37 41/5/37 37/5/37
f 44/5/38 40/5/38 38/5/38 42/5/38
f 45/5/33 46/5/33 48/5/33 47/5/33
f 47/5/34 48/5/34 52/5/34 51/5/34
f 51/5/35 52/5/35 50/5/35 49/5/35
f 49/5/36 50/5/36 46/5/36 45/5/36
f 47/5/37 51/5/37 49/5/37 45/5/37
f 52/5/38 48/5/38 46/5/38 50/5/38
f 53/5/33 54/5/33 56/5/33 55/5/33
f 55/5/34 56/5/34 60/5/34 59/5/34
f 59/5/35 60/5/35 58/5/35 57/5/35
f 57/5/36 58/5/36 54/5/36 53/5/36
f 55/5/37 59/5/37 57/5/37 53/5/37
f 60/5/38 56/5/38 54/5/38 58/5/38
o Muzzle
v -0.280000 1.030000 1.400000
v -0.280000 1.470000 1.400000
v -0.280000 1.030000 0.960000
v -0.280000 1.470000 0.960000
v 0.280000 1.030000 1.400000
v 0.280000 1.470000 1.400000
v 0.280000 1.030000 0.960000
v 0.280000 1.470000 0.960000
v -0.120000 1.290000 1.480000
v -0.120000 1.470000 1.480000
v -0.120000 1.290000 1.320000
v -0.120000 1.470000 1.320000
v 0.120000 1.290000 1.480000
v 0.120000 1.470000 1.480000
v 0.120000 1.290000 1.320000
v 0.120000 1.470000 1.320000
vn -1.0000 -0.0000 -0.0000
vn -0.0000 -0.0000 -1.0000
vn 1.0000 -0.0000 -0.0000
vn -0.0000 -0.0000 1.0000
vn -0.0000 -1.0000 -0.0000
vn -0.0000 1.0000 -0.0000
vt 0.062500 0.937500
vt 0.937500 0.812500
s 0
usemtl GamePalette
f 61/6/39 62/6/39 64/6/39 63/6/39
f 63/6/40 64/6/40 68/6/40 67/6/40
f 67/6/41 68/6/41 66/6/41 65/6/41
f 65/6/42 66/6/42 62/6/42 61/6/42
f 63/6/43 67/6/43 65/6/43 61/6/43
f 68/6/44 64/6/44 62/6/44 66/6/44
f 69/7/39 70/7/39 72/7/39 71/7/39
f 71/7/40 72/7/40 76/7/40 75/7/40
f 75/7/41 76/7/41 74/7/41 73/7/41
f 73/7/42 74/7/42 70/7/42 69/7/42
f 71/7/43 75/7/43 73/7/43 69/7/43
f 76/7/44 72/7/44 70/7/44 74/7/44
o Ears
v -0.460000 1.600000 0.600000
v -0.257392 1.754780 0.747202
v -0.537388 1.754780 0.838179
v -0.710439 1.754780 0.600000
v -0.537388 1.754780 0.361821
v -0.257392 1.754780 0.452798
v -0.382612 2.005220 0.838179
v -0.662608 2.005220 0.747202
v -0.662608 2.005220 0.452798
v -0.382612 2.005220 0.361821
v -0.209561 2.005220 0.600000
v -0.460000 2.160000 0.600000
v -0.560000 1.770000 0.770000
v -0.560000 1.990000 0.770000
v -0.560000 1.770000 0.710000
v -0.560000 1.990000 0.710000
v -0.360000 1.770000 0.770000
v -0.360000 1.990000 0.770000
v -0.360000 1.770000 0.710000
v -0.360000 1.990000 0.710000
v 0.460000 1.600000 0.600000
v 0.662608 1.754780 0.747202
v 0.382612 1.754780 0.838179
v 0.209561 1.754780 0.600000
v 0.382612 1.754780 0.361821
v 0.662608 1.754780 0.452798
v 0.537388 2.005220 0.838179
v 0.257392 2.005220 0.747202
v 0.257392 2.005220 0.452798
v 0.537388 2.005220 0.361821
v 0.710439 2.005220 0.600000
v 0.460000 2.160000 0.600000
v 0.360000 1.770000 0.770000
v 0.360000 1.990000 0.770000
v 0.360000 1.770000 0.710000
v 0.360000 1.990000 0.710000
v 0.560000 1.770000 0.770000
v 0.560000 1.990000 0.770000
v 0.560000 1.770000 0.710000
v 0.560000 1.990000 0.710000
vn 0.1876 -0.7947 0.5774
vn 0.6071 -0.7947 -0.0000
vn -0.4911 -0.7947 0.3568
vn -0.4911 -0.7947 -0.3568
vn 0.1876 -0.7947 -0.5774
vn 0.9822 -0.1876 -0.0000
vn 0.3035 -0.1876 0.9342
vn -0.7946 -0.1876 0.5774
vn -0.7946 -0.1876 -0.5774
vn 0.3035 -0.1876 -0.9342
vn 0.7946 0.1876 0.5774
vn -0.3035 0.1876 0.9342
vn -0.9822 0.1876 -0.0000
vn -0.3035 0.1876 -0.9342
vn 0.7946 0.1876 -0.5774
vn 0.4911 0.7947 0.3568
vn -0.1876 0.7947 0.5774
vn -0.6071 0.7947 -0.0000
vn -0.1876 0.7947 -0.5774
vn 0.4911 0.7947 -0.3568
vn -1.0000 -0.0000 -0.0000
vn -0.0000 -0.0000 -1.0000
vn 1.0000 -0.0000 -0.0000
vn -0.0000 -0.0000 1.0000
vn -0.0000 -1.0000 -0.0000
vn -0.0000 1.0000 -0.0000
vt 0.062500 0.937500
vt 0.062500 0.187500
s 0
usemtl GamePalette
f 77/8/45 78/8/45 79/8/45
f 78/8/46 77/8/46 82/8/46
f 77/8/47 79/8/47 80/8/47
f 77/8/48 80/8/48 81/8/48
f 77/8/49 81/8/49 82/8/49
f 78/8/50 82/8/50 87/8/50
f 79/8/51 78/8/51 83/8/51
f 80/8/52 79/8/52 84/8/52
f 81/8/53 80/8/53 85/8/53
f 82/8/54 81/8/54 86/8/54
f 78/8/55 87/8/55 83/8/55
f 79/8/56 83/8/56 84/8/56
f 80/8/57 84/8/57 85/8/57
f 81/8/58 85/8/58 86/8/58
f 82/8/59 86/8/59 87/8/59
f 83/8/60 87/8/60 88/8/60
f 84/8/61 83/8/61 88/8/61
f 85/8/62 84/8/62 88/8/62
f 86/8/63 85/8/63 88/8/63
f 87/8/64 86/8/64 88/8/64
f 89/9/65 90/9/65 92/9/65 91/9/65
f 91/9/66 92/9/66 96/9/66 95/9/66
f 95/9/67 96/9/67 94/9/67 93/9/67
f 93/9/68 94/9/68 90/9/68 89/9/68
f 91/9/69 95/9/69 93/9/69 89/9/69
f 96/9/70 92/9/70 90/9/70 94/9/70
f 97/8/45 98/8/45 99/8/45
f 98/8/46 97/8/46 102/8/46
f 97/8/47 99/8/47 100/8/47
f 97/8/48 100/8/48 101/8/48
f 97/8/49 101/8/49 102/8/49
f 98/8/50 102/8/50 107/8/50
f 99/8/51 98/8/51 103/8/51
f 100/8/52 99/8/52 104/8/52
f 101/8/53 100/8/53 105/8/53
f 102/8/54 101/8/54 106/8/54
f 98/8/55 107/8/55 103/8/55
f 99/8/56 103/8/56 104/8/56
f 100/8/57 104/8/57 105/8/57
f 101/8/58 105/8/58 106/8/58
f 102/8/59 106/8/59 107/8/59
f 103/8/60 107/8/60 108/8/60
f 104/8/61 103/8/61 108/8/61
f 105/8/62 104/8/62 108/8/62
f 106/8/63 105/8/63 108/8/63
f 107/8/64 106/8/64 108/8/64
f 109/9/65 110/9/65 112/9/65 111/9/65
f 111/9/66 112/9/66 116/9/66 115/9/66
f 115/9/67 116/9/67 114/9/67 113/9/67
f 113/9/68 114/9/68 110/9/68 109/9/68
f 111/9/69 115/9/69 113/9/69 109/9/69
f 116/9/70 112/9/70 110/9/70 114/9/70
o Eyes
v -0.380000 1.370000 1.180000
v -0.380000 1.590000 1.180000
v -0.380000 1.370000 1.100000
v -0.380000 1.590000 1.100000
v -0.180000 1.370000 1.180000
v -0.180000 1.590000 1.180000
v -0.180000 1.370000 1.100000
v -0.180000 1.590000 1.100000
v -0.330000 1.410000 1.200000
v -0.330000 1.550000 1.200000
v -0.330000 1.410000 1.160000
v -0.330000 1.550000 1.160000
v -0.210000 1.410000 1.200000
v -0.210000 1.550000 1.200000
v -0.210000 1.410000 1.160000
v -0.210000 1.550000 1.160000
v -0.260000 1.510000 1.215000
v -0.260000 1.570000 1.215000
v -0.260000 1.510000 1.185000
v -0.260000 1.570000 1.185000
v -0.200000 1.510000 1.215000
v -0.200000 1.570000 1.215000
v -0.200000 1.510000 1.185000
v -0.200000 1.570000 1.185000
v 0.180000 1.370000 1.180000
v 0.180000 1.590000 1.180000
v 0.180000 1.370000 1.100000
v 0.180000 1.590000 1.100000
v 0.380000 1.370000 1.180000
v 0.380000 1.590000 1.180000
v 0.380000 1.370000 1.100000
v 0.380000 1.590000 1.100000
v 0.210000 1.410000 1.200000
v 0.210000 1.550000 1.200000
v 0.210000 1.410000 1.160000
v 0.210000 1.550000 1.160000
v 0.330000 1.410000 1.200000
v 0.330000 1.550000 1.200000
v 0.330000 1.410000 1.160000
v 0.330000 1.550000 1.160000
v 0.200000 1.510000 1.215000
v 0.200000 1.570000 1.215000
v 0.200000 1.510000 1.185000
v 0.200000 1.570000 1.185000
v 0.260000 1.510000 1.215000
v 0.260000 1.570000 1.215000
v 0.260000 1.510000 1.185000
v 0.260000 1.570000 1.185000
vn -1.0000 -0.0000 -0.0000
vn -0.0000 -0.0000 -1.0000
vn 1.0000 -0.0000 -0.0000
vn -0.0000 -0.0000 1.0000
vn -0.0000 -1.0000 -0.0000
vn -0.0000 1.0000 -0.0000
vt 0.562500 0.937500
vt 0.937500 0.812500
vt 0.062500 0.937500
s 0
usemtl GamePalette
f 117/10/71 118/10/71 120/10/71 119/10/71
f 119/10/72 120/10/72 124/10/72 123/10/72
f 123/10/73 124/10/73 122/10/73 121/10/73
f 121/10/74 122/10/74 118/10/74 117/10/74
f 119/10/75 123/10/75 121/10/75 117/10/75
f 124/10/76 120/10/76 118/10/76 122/10/76
f 125/11/71 126/11/71 128/11/71 127/11/71
f 127/11/72 128/11/72 132/11/72 131/11/72
f 131/11/73 132/11/73 130/11/73 129/11/73
f 129/11/74 130/11/74 126/11/74 125/11/74
f 127/11/75 131/11/75 129/11/75 125/11/75
f 132/11/76 128/11/76 126/11/76 130/11/76
f 133/12/71 134/12/71 136/12/71 135/12/71
f 135/12/72 136/12/72 140/12/72 139/12/72
f 139/12/73 140/12/73 138/12/73 137/12/73
f 137/12/74 138/12/74 134/12/74 133/12/74
f 135/12/75 139/12/75 137/12/75 133/12/75
f 140/12/76 136/12/76 134/12/76 138/12/76
f 141/10/71 142/10/71 144/10/71 143/10/71
f 143/10/72 144/10/72 148/10/72 147/10/72
f 147/10/73 148/10/73 146/10/73 145/10/73
f 145/10/74 146/10/74 142/10/74 141/10/74
f 143/10/75 147/10/75 145/10/75 141/10/75
f 148/10/76 144/10/76 142/10/76 146/10/76
f 149/11/71 150/11/71 152/11/71 151/11/71
f 151/11/72 152/11/72 156/11/72 155/11/72
f 155/11/73 156/11/73 154/11/73 153/11/73
f 153/11/74 154/11/74 150/11/74 149/11/74
f 151/11/75 155/11/75 153/11/75 149/11/75
f 156/11/76 152/11/76 150/11/76 154/11/76
f 157/12/71 158/12/71 160/12/71 159/12/71
f 159/12/72 160/12/72 164/12/72 163/12/72
f 163/12/73 164/12/73 162/12/73 161/12/73
f 161/12/74 162/12/74 158/12/74 157/12/74
f 159/12/75 163/12/75 161/12/75 157/12/75
f 164/12/76 160/12/76 158/12/76 162/12/76
o Leg_FL
v -0.570000 0.220000 0.530000
v -0.570000 0.660000 0.530000
v -0.570000 0.220000 0.110000
v -0.570000 0.660000 0.110000
v -0.190000 0.220000 0.530000
v -0.190000 0.660000 0.530000
v -0.190000 0.220000 0.110000
v -0.190000 0.660000 0.110000
v -0.590000 0.030000 0.590000
v -0.590000 0.270000 0.590000
v -0.590000 0.030000 0.130000
v -0.590000 0.270000 0.130000
v -0.170000 0.030000 0.590000
v -0.170000 0.270000 0.590000
v -0.170000 0.030000 0.130000
v -0.170000 0.270000 0.130000
v -0.510000 0.020000 0.530000
v -0.510000 0.060000 0.530000
v -0.510000 0.020000 0.230000
v -0.510000 0.060000 0.230000
v -0.250000 0.020000 0.530000
v -0.250000 0.060000 0.530000
v -0.250000 0.020000 0.230000
v -0.250000 0.060000 0.230000
vn -1.0000 -0.0000 -0.0000
vn -0.0000 -0.0000 -1.0000
vn 1.0000 -0.0000 -0.0000
vn -0.0000 -0.0000 1.0000
vn -0.0000 -1.0000 -0.0000
vn -0.0000 1.0000 -0.0000
vt 0.062500 0.937500
vt 0.437500 0.812500
s 0
usemtl GamePalette
f 165/13/77 166/13/77 168/13/77 167/13/77
f 167/13/78 168/13/78 172/13/78 171/13/78
f 171/13/79 172/13/79 170/13/79 169/13/79
f 169/13/80 170/13/80 166/13/80 165/13/80
f 167/13/81 171/13/81 169/13/81 165/13/81
f 172/13/82 168/13/82 166/13/82 170/13/82
f 173/13/77 174/13/77 176/13/77 175/13/77
f 175/13/78 176/13/78 180/13/78 179/13/78
f 179/13/79 180/13/79 178/13/79 177/13/79
f 177/13/80 178/13/80 174/13/80 173/13/80
f 175/13/81 179/13/81 177/13/81 173/13/81
f 180/13/82 176/13/82 174/13/82 178/13/82
f 181/14/77 182/14/77 184/14/77 183/14/77
f 183/14/78 184/14/78 188/14/78 187/14/78
f 187/14/79 188/14/79 186/14/79 185/14/79
f 185/14/80 186/14/80 182/14/80 181/14/80
f 183/14/81 187/14/81 185/14/81 181/14/81
f 188/14/82 184/14/82 182/14/82 186/14/82
o Leg_FR
v 0.190000 0.220000 0.530000
v 0.190000 0.660000 0.530000
v 0.190000 0.220000 0.110000
v 0.190000 0.660000 0.110000
v 0.570000 0.220000 0.530000
v 0.570000 0.660000 0.530000
v 0.570000 0.220000 0.110000
v 0.570000 0.660000 0.110000
v 0.170000 0.030000 0.590000
v 0.170000 0.270000 0.590000
v 0.170000 0.030000 0.130000
v 0.170000 0.270000 0.130000
v 0.590000 0.030000 0.590000
v 0.590000 0.270000 0.590000
v 0.590000 0.030000 0.130000
v 0.590000 0.270000 0.130000
v 0.250000 0.020000 0.530000
v 0.250000 0.060000 0.530000
v 0.250000 0.020000 0.230000
v 0.250000 0.060000 0.230000
v 0.510000 0.020000 0.530000
v 0.510000 0.060000 0.530000
v 0.510000 0.020000 0.230000
v 0.510000 0.060000 0.230000
vn -1.0000 -0.0000 -0.0000
vn -0.0000 -0.0000 -1.0000
vn 1.0000 -0.0000 -0.0000
vn -0.0000 -0.0000 1.0000
vn -0.0000 -1.0000 -0.0000
vn -0.0000 1.0000 -0.0000
vt 0.062500 0.937500
vt 0.437500 0.812500
s 0
usemtl GamePalette
f 189/15/83 190/15/83 192/15/83 191/15/83
f 191/15/84 192/15/84 196/15/84 195/15/84
f 195/15/85 196/15/85 194/15/85 193/15/85
f 193/15/86 194/15/86 190/15/86 189/15/86
f 191/15/87 195/15/87 193/15/87 189/15/87
f 196/15/88 192/15/88 190/15/88 194/15/88
f 197/15/83 198/15/83 200/15/83 199/15/83
f 199/15/84 200/15/84 204/15/84 203/15/84
f 203/15/85 204/15/85 202/15/85 201/15/85
f 201/15/86 202/15/86 198/15/86 197/15/86
f 199/15/87 203/15/87 201/15/87 197/15/87
f 204/15/88 200/15/88 198/15/88 202/15/88
f 205/16/83 206/16/83 208/16/83 207/16/83
f 207/16/84 208/16/84 212/16/84 211/16/84
f 211/16/85 212/16/85 210/16/85 209/16/85
f 209/16/86 210/16/86 206/16/86 205/16/86
f 207/16/87 211/16/87 209/16/87 205/16/87
f 212/16/88 208/16/88 206/16/88 210/16/88
o Leg_BL
v -0.570000 0.220000 -0.110000
v -0.570000 0.660000 -0.110000
v -0.570000 0.220000 -0.530000
v -0.570000 0.660000 -0.530000
v -0.190000 0.220000 -0.110000
v -0.190000 0.660000 -0.110000
v -0.190000 0.220000 -0.530000
v -0.190000 0.660000 -0.530000
v -0.590000 0.030000 -0.050000
v -0.590000 0.270000 -0.050000
v -0.590000 0.030000 -0.510000
v -0.590000 0.270000 -0.510000
v -0.170000 0.030000 -0.050000
v -0.170000 0.270000 -0.050000
v -0.170000 0.030000 -0.510000
v -0.170000 0.270000 -0.510000
v -0.510000 0.020000 -0.110000
v -0.510000 0.060000 -0.110000
v -0.510000 0.020000 -0.410000
v -0.510000 0.060000 -0.410000
v -0.250000 0.020000 -0.110000
v -0.250000 0.060000 -0.110000
v -0.250000 0.020000 -0.410000
v -0.250000 0.060000 -0.410000
vn -1.0000 -0.0000 -0.0000
vn -0.0000 -0.0000 -1.0000
vn 1.0000 -0.0000 -0.0000
vn -0.0000 -0.0000 1.0000
vn -0.0000 -1.0000 -0.0000
vn -0.0000 1.0000 -0.0000
vt 0.062500 0.937500
vt 0.437500 0.812500
s 0
usemtl GamePalette
f 213/17/89 214/17/89 216/17/89 215/17/89
f 215/17/90 216/17/90 220/17/90 219/17/90
f 219/17/91 220/17/91 218/17/91 217/17/91
f 217/17/92 218/17/92 214/17/92 213/17/92
f 215/17/93 219/17/93 217/17/93 213/17/93
f 220/17/94 216/17/94 214/17/94 218/17/94
f 221/17/89 222/17/89 224/17/89 223/17/89
f 223/17/90 224/17/90 228/17/90 227/17/90
f 227/17/91 228/17/91 226/17/91 225/17/91
f 225/17/92 226/17/92 222/17/92 221/17/92
f 223/17/93 227/17/93 225/17/93 221/17/93
f 228/17/94 224/17/94 222/17/94 226/17/94
f 229/18/89 230/18/89 232/18/89 231/18/89
f 231/18/90 232/18/90 236/18/90 235/18/90
f 235/18/91 236/18/91 234/18/91 233/18/91
f 233/18/92 234/18/92 230/18/92 229/18/92
f 231/18/93 235/18/93 233/18/93 229/18/93
f 236/18/94 232/18/94 230/18/94 234/18/94
o Leg_BR
v 0.190000 0.220000 -0.110000
v 0.190000 0.660000 -0.110000
v 0.190000 0.220000 -0.530000
v 0.190000 0.660000 -0.530000
v 0.570000 0.220000 -0.110000
v 0.570000 0.660000 -0.110000
v 0.570000 0.220000 -0.530000
v 0.570000 0.660000 -0.530000
v 0.170000 0.030000 -0.050000
v 0.170000 0.270000 -0.050000
v 0.170000 0.030000 -0.510000
v 0.170000 0.270000 -0.510000
v 0.590000 0.030000 -0.050000
v 0.590000 0.270000 -0.050000
v 0.590000 0.030000 -0.510000
v 0.590000 0.270000 -0.510000
v 0.250000 0.020000 -0.110000
v 0.250000 0.060000 -0.110000
v 0.250000 0.020000 -0.410000
v 0.250000 0.060000 -0.410000
v 0.510000 0.020000 -0.110000
v 0.510000 0.060000 -0.110000
v 0.510000 0.020000 -0.410000
v 0.510000 0.060000 -0.410000
vn -1.0000 -0.0000 -0.0000
vn -0.0000 -0.0000 -1.0000
vn 1.0000 -0.0000 -0.0000
vn -0.0000 -0.0000 1.0000
vn -0.0000 -1.0000 -0.0000
vn -0.0000 1.0000 -0.0000
vt 0.062500 0.937500
vt 0.437500 0.812500
s 0
usemtl GamePalette
f 237/19/95 238/19/95 240/19/95 239/19/95
f 239/19/96 240/19/96 244/19/96 243/19/96
f 243/19/97 244/19/97 242/19/97 241/19/97
f 241/19/98 242/19/98 238/19/98 237/19/98
f 239/19/99 243/19/99 241/19/99 237/19/99
f 244/19/100 240/19/100 238/19/100 242/19/100
f 245/19/95 246/19/95 248/19/95 247/19/95
f 247/19/96 248/19/96 252/19/96 251/19/96
f 251/19/97 252/19/97 250/19/97 249/19/97
f 249/19/98 250/19/98 246/19/98 245/19/98
f 247/19/99 251/19/99 249/19/99 245/19/99
f 252/19/100 248/19/100 246/19/100 250/19/100
f 253/20/95 254/20/95 256/20/95 255/20/95
f 255/20/96 256/20/96 260/20/96 259/20/96
f 259/20/97 260/20/97 258/20/97 257/20/97
f 257/20/98 258/20/98 254/20/98 253/20/98
f 255/20/99 259/20/99 257/20/99 253/20/99
f 260/20/100 256/20/100 254/20/100 258/20/100
o Tail
v 0.000000 0.540000 -0.620000
v 0.159192 0.661613 -0.504342
v -0.060805 0.661613 -0.432859
v -0.196773 0.661613 -0.620000
v -0.060805 0.661613 -0.807141
v 0.159192 0.661613 -0.735658
v 0.060805 0.858387 -0.432859
v -0.159192 0.858387 -0.504342
v -0.159192 0.858387 -0.735658
v 0.060805 0.858387 -0.807141
v 0.196773 0.858387 -0.620000
v 0.000000 0.980000 -0.620000
vn 0.1876 -0.7947 0.5774
vn 0.6071 -0.7947 -0.0000
vn -0.4911 -0.7947 0.3568
vn -0.4911 -0.7947 -0.3568
vn 0.1876 -0.7947 -0.5774
vn 0.9822 -0.1876 -0.0000
vn 0.3035 -0.1876 0.9342
vn -0.7946 -0.1876 0.5774
vn -0.7946 -0.1876 -0.5774
vn 0.3035 -0.1876 -0.9342
vn 0.7946 0.1876 0.5774
vn -0.3035 0.1876 0.9342
vn -0.9822 0.1876 -0.0000
vn -0.3035 0.1876 -0.9342
vn 0.7946 0.1876 -0.5774
vn 0.4911 0.7947 0.3568
vn -0.1876 0.7947 0.5774
vn -0.6071 0.7947 -0.0000
vn -0.1876 0.7947 -0.5774
vn 0.4911 0.7947 -0.3568
vt 0.062500 0.937500
s 0
usemtl GamePalette
f 261/21/101 262/21/101 263/21/101
f 262/21/102 261/21/102 266/21/102
f 261/21/103 263/21/103 264/21/103
f 261/21/104 264/21/104 265/21/104
f 261/21/105 265/21/105 266/21/105
f 262/21/106 266/21/106 271/21/106
f 263/21/107 262/21/107 267/21/107
f 264/21/108 263/21/108 268/21/108
f 265/21/109 264/21/109 269/21/109
f 266/21/110 265/21/110 270/21/110
f 262/21/111 271/21/111 267/21/111
f 263/21/112 267/21/112 268/21/112
f 264/21/113 268/21/113 269/21/113
f 265/21/114 269/21/114 270/21/114
f 266/21/115 270/21/115 271/21/115
f 267/21/116 271/21/116 272/21/116
f 268/21/117 267/21/117 272/21/117
f 269/21/118 268/21/118 272/21/118
f 270/21/119 269/21/119 272/21/119
f 271/21/120 270/21/120 272/21/120
