# Blender 5.0.1
# www.blender.org
mtllib bread.mtl
o BreadLoaf
v -0.350000 0.075000 0.600000
v -0.350000 0.525000 0.600000
v -0.350000 0.075000 -0.600000
v -0.350000 0.525000 -0.600000
v 0.350000 0.075000 0.600000
v 0.350000 0.525000 0.600000
v 0.350000 0.075000 -0.600000
v 0.350000 0.525000 -0.600000
vn -1.0000 -0.0000 -0.0000
vn -0.0000 -0.0000 -1.0000
vn 1.0000 -0.0000 -0.0000
vn -0.0000 -0.0000 1.0000
vn -0.0000 -1.0000 -0.0000
vn -0.0000 1.0000 -0.0000
vt 0.812500 0.312500
s 0
usemtl GamePalette
f 1/1/1 2/1/1 4/1/1 3/1/1
f 3/1/2 4/1/2 8/1/2 7/1/2
f 7/1/3 8/1/3 6/1/3 5/1/3
f 5/1/4 6/1/4 2/1/4 1/1/4
f 3/1/5 7/1/5 5/1/5 1/1/5
f 8/1/6 4/1/6 2/1/6 6/1/6
