# Blender 5.0.1
# www.blender.org
mtllib campfire.mtl
o Campfire
v 0.769070 0.000000 0.011397
v 1.289070 0.000000 0.011397
v 1.289070 0.000000 -0.428603
v 0.769070 0.000000 -0.428603
v 0.769070 0.360000 0.011397
v 1.289070 0.360000 0.011397
v 1.289070 0.360000 -0.428603
v 0.769070 0.360000 -0.428603
v 0.073880 0.000000 -0.775502
v 0.593880 0.000000 -0.775502
v 0.593880 0.000000 -1.215502
v 0.073880 0.000000 -1.215502
v 0.073880 0.360000 -0.775502
v 0.593880 0.360000 -0.775502
v 0.593880 0.360000 -1.215502
v 0.073880 0.360000 -1.215502
v -0.955190 0.000000 -0.566899
v -0.435190 0.000000 -0.566899
v -0.435190 0.000000 -1.006899
v -0.955190 0.000000 -1.006899
v -0.955190 0.360000 -0.566899
v -0.435190 0.360000 -0.566899
v -0.435190 0.360000 -1.006899
v -0.955190 0.360000 -1.006899
v -1.289070 0.000000 0.428603
v -0.769070 0.000000 0.428603
v -0.769070 0.000000 -0.011397
v -1.289070 0.000000 -0.011397
v -1.289070 0.360000 0.428603
v -0.769070 0.360000 0.428603
v -0.769070 0.360000 -0.011397
v -1.289070 0.360000 -0.011397
v -0.593880 0.000000 1.215502
v -0.073880 0.000000 1.215502
v -0.073880 0.000000 0.775502
v -0.593880 0.000000 0.775502
v -0.593880 0.360000 1.215502
v -0.073880 0.360000 1.215502
v -0.073880 0.360000 0.775502
v -0.593880 0.360000 0.775502
v 0.435190 0.000000 1.006899
v 0.955190 0.000000 1.006899
v 0.955190 0.000000 0.566899
v 0.435190 0.000000 0.566899
v 0.435190 0.360000 1.006899
v 0.955190 0.360000 1.006899
v 0.955190 0.360000 0.566899
v 0.435190 0.360000 0.566899
v 0.740066 0.080000 -0.432322
v 0.825738 0.080000 -0.229689
v 0.740066 0.278000 -0.432322
v 0.825738 0.278000 -0.229689
v 0.057837 0.450000 -0.119995
v 0.126375 0.450000 0.042112
v 0.057837 0.604000 -0.119995
v 0.126375 0.604000 0.042112
v -0.432322 0.080000 -0.740066
v -0.229689 0.080000 -0.825738
v -0.432322 0.278000 -0.740066
v -0.229689 0.278000 -0.825738
v -0.119995 0.450000 -0.057837
v 0.042112 0.450000 -0.126375
v -0.119995 0.604000 -0.057837
v 0.042112 0.604000 -0.126375
v -0.740066 0.080000 0.432322
v -0.825738 0.080000 0.229689
v -0.740066 0.278000 0.432322
v -0.825738 0.278000 0.229689
v -0.057837 0.450000 0.119995
v -0.126375 0.450000 -0.042112
v -0.057837 0.604000 0.119995
v -0.126375 0.604000 -0.042112
v 0.432322 0.080000 0.740066
v 0.229689 0.080000 0.825738
v 0.432322 0.278000 0.740066
v 0.229689 0.278000 0.825738
v 0.119995 0.450000 0.057837
v -0.042112 0.450000 0.126375
v 0.119995 0.604000 0.057837
v -0.042112 0.604000 0.126375
v -0.450000 0.020000 0.450000
v 0.450000 0.020000 0.450000
v 0.450000 0.020000 -0.450000
v -0.450000 0.020000 -0.450000
v -0.450000 0.180000 0.450000
v 0.450000 0.180000 0.450000
v 0.450000 0.180000 -0.450000
v -0.450000 0.180000 -0.450000
v -0.280000 0.050000 0.280000
v 0.280000 0.050000 0.280000
v 0.280000 0.050000 -0.280000
v -0.280000 0.050000 -0.280000
v -0.280000 0.220000 0.280000
v 0.280000 0.220000 0.280000
v 0.280000 0.220000 -0.280000
v -0.280000 0.220000 -0.280000
v 0.000000 1.250000 0.000000
v 0.280000 0.500000 0.000000
v 0.140000 0.500000 -0.242487
v -0.140000 0.500000 -0.242487
v -0.280000 0.500000 -0.000000
v -0.140000 0.500000 0.242487
v 0.140000 0.500000 0.242487
v 0.343921 0.200000 -0.106387
v 0.079826 0.200000 -0.351038
v -0.264095 0.200000 -0.244651
v -0.343921 0.200000 0.106387
v -0.079826 0.200000 0.351038
v 0.264095 0.200000 0.244651
vn -0.0000 1.0000 -0.0000
vn -0.0000 -1.0000 -0.0000
vn -0.0000 -0.0000 -1.0000
vn -0.0000 -0.0000 1.0000
vn 1.0000 -0.0000 -0.0000
vn -1.0000 -0.0000 -0.0000
vn -0.4075 -0.8968 0.1723
vn 0.3672 0.9171 -0.1552
vn -0.4163 -0.0000 -0.9092
vn 0.3622 -0.0000 0.9321
vn 0.9211 -0.0000 -0.3894
vn -0.9211 -0.0000 0.3894
vn 0.1723 -0.8968 0.4075
vn -0.1552 0.9171 -0.3672
vn -0.9092 -0.0000 0.4163
vn 0.9321 -0.0000 -0.3622
vn -0.3894 -0.0000 -0.9211
vn 0.3894 -0.0000 0.9211
vn 0.4075 -0.8968 -0.1723
vn -0.3672 0.9171 0.1552
vn 0.4163 -0.0000 0.9092
vn -0.3622 -0.0000 -0.9321
vn -0.1723 -0.8968 -0.4075
vn 0.1552 0.9171 0.3672
vn 0.9092 -0.0000 -0.4163
vn -0.9321 -0.0000 0.3622
vn 0.8240 0.3076 -0.4758
vn 0.8144 0.3402 -0.4702
vn -0.0000 0.3076 -0.9515
vn -0.0000 0.3402 -0.9403
vn -0.8240 0.3076 -0.4758
vn -0.8144 0.3402 -0.4702
vn -0.8240 0.3076 0.4758
vn -0.8144 0.3402 0.4702
vn -0.0000 0.3076 0.9515
vn -0.0000 0.3402 0.9403
vn 0.8240 0.3076 0.4758
vn 0.8144 0.3402 0.4702
vn 0.6740 0.1281 -0.7276
vn -0.2931 0.1281 -0.9475
vn -0.9671 0.1281 -0.2199
vn -0.6740 0.1281 0.7276
vn 0.2931 0.1281 0.9475
vn 0.9671 0.1281 0.2199
vt 0.312500 0.812500
vt 0.437500 0.812500
vt 0.062500 0.812500
vt 0.437500 0.687500
vt 0.187500 0.687500
vt 0.312500 0.687500
vt 0.687500 0.312500
vt 0.062500 0.312500
vt 0.437500 0.312500
vt 0.562500 0.312500
s 0
usemtl GamePalette
f 2/1/1 4/1/1 1/1/1
f 8/1/2 6/1/2 5/1/2
f 5/1/3 2/1/3 1/1/3
f 7/1/4 4/1/4 3/1/4
f 8/1/5 1/1/5 4/1/5
f 6/1/6 3/1/6 2/1/6
f 10/2/1 12/2/1 9/2/1
f 16/2/2 14/2/2 13/2/2
f 13/2/3 10/2/3 9/2/3
f 15/2/4 12/2/4 11/2/4
f 16/2/5 9/2/5 12/2/5
f 14/2/6 11/2/6 10/2/6
f 18/3/1 20/3/1 17/3/1
f 24/3/2 22/3/2 21/3/2
f 21/3/3 18/3/3 17/3/3
f 23/3/4 20/3/4 19/3/4
f 24/3/5 17/3/5 20/3/5
f 22/3/6 19/3/6 18/3/6
f 26/1/1 28/1/1 25/1/1
f 32/1/2 30/1/2 29/1/2
f 29/1/3 26/1/3 25/1/3
f 31/1/4 28/1/4 27/1/4
f 32/1/5 25/1/5 28/1/5
f 30/1/6 27/1/6 26/1/6
f 34/2/1 36/2/1 33/2/1
f 40/2/2 38/2/2 37/2/2
f 37/2/3 34/2/3 33/2/3
f 39/2/4 36/2/4 35/2/4
f 40/2/5 33/2/5 36/2/5
f 38/2/6 35/2/6 34/2/6
f 42/3/1 44/3/1 41/3/1
f 48/3/2 46/3/2 45/3/2
f 45/3/3 42/3/3 41/3/3
f 47/3/4 44/3/4 43/3/4
f 48/3/5 41/3/5 44/3/5
f 46/3/6 43/3/6 42/3/6
f 49/4/7 54/4/7 53/4/7
f 55/4/8 52/4/8 51/4/8
f 53/4/9 51/4/9 49/4/9
f 52/4/10 54/4/10 50/4/10
f 51/5/11 50/5/11 49/5/11
f 54/5/12 55/5/12 53/5/12
f 57/6/13 62/6/13 61/6/13
f 63/6/14 60/6/14 59/6/14
f 61/6/15 59/6/15 57/6/15
f 60/6/16 62/6/16 58/6/16
f 59/5/17 58/5/17 57/5/17
f 62/5/18 63/5/18 61/5/18
f 65/4/19 70/4/19 69/4/19
f 71/4/20 68/4/20 67/4/20
f 69/4/21 67/4/21 65/4/21
f 68/4/22 70/4/22 66/4/22
f 67/5/12 66/5/12 65/5/12
f 70/5/11 71/5/11 69/5/11
f 73/6/23 78/6/23 77/6/23
f 79/6/24 76/6/24 75/6/24
f 77/6/25 75/6/25 73/6/25
f 76/6/26 78/6/26 74/6/26
f 75/5/18 74/5/18 73/5/18
f 78/5/17 79/5/17 77/5/17
f 82/7/1 84/7/1 81/7/1
f 88/7/2 86/7/2 85/7/2
f 85/7/3 82/7/3 81/7/3
f 87/7/4 84/7/4 83/7/4
f 88/7/5 81/7/5 84/7/5
f 86/7/6 83/7/6 82/7/6
f 90/8/1 92/8/1 89/8/1
f 96/8/2 94/8/2 93/8/2
f 93/8/3 90/8/3 89/8/3
f 95/8/4 92/8/4 91/8/4
f 96/8/5 89/8/5 92/8/5
f 94/8/6 91/8/6 90/8/6
f 97/9/27 98/9/27 99/9/27
f 104/10/28 99/10/28 98/10/28
f 97/9/29 99/9/29 100/9/29
f 105/10/30 100/10/30 99/10/30
f 97/9/31 100/9/31 101/9/31
f 106/10/32 101/10/32 100/10/32
f 97/9/33 101/9/33 102/9/33
f 107/10/34 102/10/34 101/10/34
f 97/9/35 102/9/35 103/9/35
f 108/10/36 103/10/36 102/10/36
f 97/9/37 103/9/37 98/9/37
f 109/10/38 98/10/38 103/10/38
f 108/8/2 106/8/2 104/8/2
f 2/1/1 3/1/1 4/1/1
f 8/1/2 7/1/2 6/1/2
f 5/1/3 6/1/3 2/1/3
f 7/1/4 8/1/4 4/1/4
f 8/1/5 5/1/5 1/1/5
f 6/1/6 7/1/6 3/1/6
f 10/2/1 11/2/1 12/2/1
f 16/2/2 15/2/2 14/2/2
f 13/2/3 14/2/3 10/2/3
f 15/2/4 16/2/4 12/2/4
f 16/2/5 13/2/5 9/2/5
f 14/2/6 15/2/6 11/2/6
f 18/3/1 19/3/1 20/3/1
f 24/3/2 23/3/2 22/3/2
f 21/3/3 22/3/3 18/3/3
f 23/3/4 24/3/4 20/3/4
f 24/3/5 21/3/5 17/3/5
f 22/3/6 23/3/6 19/3/6
f 26/1/1 27/1/1 28/1/1
f 32/1/2 31/1/2 30/1/2
f 29/1/3 30/1/3 26/1/3
f 31/1/4 32/1/4 28/1/4
f 32/1/5 29/1/5 25/1/5
f 30/1/6 31/1/6 27/1/6
f 34/2/1 35/2/1 36/2/1
f 40/2/2 39/2/2 38/2/2
f 37/2/3 38/2/3 34/2/3
f 39/2/4 40/2/4 36/2/4
f 40/2/5 37/2/5 33/2/5
f 38/2/6 39/2/6 35/2/6
f 42/3/1 43/3/1 44/3/1
f 48/3/2 47/3/2 46/3/2
f 45/3/3 46/3/3 42/3/3
f 47/3/4 48/3/4 44/3/4
f 48/3/5 45/3/5 41/3/5
f 46/3/6 47/3/6 43/3/6
f 49/4/7 50/4/7 54/4/7
f 55/4/8 56/4/8 52/4/8
f 53/4/9 55/4/9 51/4/9
f 52/4/10 56/4/10 54/4/10
f 51/5/11 52/5/11 50/5/11
f 54/5/12 56/5/12 55/5/12
f 57/6/13 58/6/13 62/6/13
f 63/6/14 64/6/14 60/6/14
f 61/6/15 63/6/15 59/6/15
f 60/6/16 64/6/16 62/6/16
f 59/5/17 60/5/17 58/5/17
f 62/5/18 64/5/18 63/5/18
f 65/4/19 66/4/19 70/4/19
f 71/4/20 72/4/20 68/4/20
f 69/4/21 71/4/21 67/4/21
f 68/4/22 72/4/22 70/4/22
f 67/5/12 68/5/12 66/5/12
f 70/5/11 72/5/11 71/5/11
f 73/6/23 74/6/23 78/6/23
f 79/6/24 80/6/24 76/6/24
f 77/6/25 79/6/25 75/6/25
f 76/6/26 80/6/26 78/6/26
f 75/5/18 76/5/18 74/5/18
f 78/5/17 80/5/17 79/5/17
f 82/7/1 83/7/1 84/7/1
f 88/7/2 87/7/2 86/7/2
f 85/7/3 86/7/3 82/7/3
f 87/7/4 88/7/4 84/7/4
f 88/7/5 85/7/5 81/7/5
f 86/7/6 87/7/6 83/7/6
f 90/8/1 91/8/1 92/8/1
f 96/8/2 95/8/2 94/8/2
f 93/8/3 94/8/3 90/8/3
f 95/8/4 96/8/4 92/8/4
f 96/8/5 93/8/5 89/8/5
f 94/8/6 95/8/6 91/8/6
f 104/10/39 105/10/39 99/10/39
f 105/10/40 106/10/40 100/10/40
f 106/10/41 107/10/41 101/10/41
f 107/10/42 108/10/42 102/10/42
f 108/10/43 109/10/43 103/10/43
f 109/10/44 104/10/44 98/10/44
f 104/8/2 109/8/2 108/8/2
f 108/8/2 107/8/2 106/8/2
f 106/8/2 105/8/2 104/8/2
