# Blender 5.0.1
# www.blender.org
mtllib chest.mtl
o SupplyChest
v -0.900000 0.350000 0.600000
v -0.900000 1.050000 0.600000
v -0.900000 0.350000 -0.600000
v -0.900000 1.050000 -0.600000
v 0.900000 0.350000 0.600000
v 0.900000 1.050000 0.600000
v 0.900000 0.350000 -0.600000
v 0.900000 1.050000 -0.600000
v -0.950000 1.450000 0.650000
v -0.950000 1.750000 0.650000
v -0.950000 1.450000 -0.650000
v -0.950000 1.750000 -0.650000
v 0.950000 1.450000 0.650000
v 0.950000 1.750000 0.650000
v 0.950000 1.450000 -0.650000
v 0.950000 1.750000 -0.650000
v -0.120000 1.080000 0.695000
v -0.120000 1.320000 0.695000
v -0.120000 1.080000 0.605000
v -0.120000 1.320000 0.605000
v 0.120000 1.080000 0.695000
v 0.120000 1.320000 0.695000
v 0.120000 1.080000 0.605000
v 0.120000 1.320000 0.605000
vn -1.0000 -0.0000 -0.0000
vn -0.0000 -0.0000 -1.0000
vn 1.0000 -0.0000 -0.0000
vn -0.0000 -0.0000 1.0000
vn -0.0000 -1.0000 -0.0000
vn -0.0000 1.0000 -0.0000
vt 0.312500 0.687500
vt 0.437500 0.687500
vt 0.312500 0.312500
s 0
usemtl GamePalette
f 1/1/1 2/1/1 4/1/1 3/1/1
f 3/1/2 4/1/2 8/1/2 7/1/2
f 7/1/3 8/1/3 6/1/3 5/1/3
f 5/1/4 6/1/4 2/1/4 1/1/4
f 3/1/5 7/1/5 5/1/5 1/1/5
f 8/1/6 4/1/6 2/1/6 6/1/6
f 9/2/1 10/2/1 12/2/1 11/2/1
f 11/2/2 12/2/2 16/2/2 15/2/2
f 15/2/3 16/2/3 14/2/3 13/2/3
f 13/2/4 14/2/4 10/2/4 9/2/4
f 11/2/5 15/2/5 13/2/5 9/2/5
f 16/2/6 12/2/6 10/2/6 14/2/6
f 17/3/1 18/3/1 20/3/1 19/3/1
f 19/3/2 20/3/2 24/3/2 23/3/2
f 23/3/3 24/3/3 22/3/3 21/3/3
f 21/3/4 22/3/4 18/3/4 17/3/4
f 19/3/5 23/3/5 21/3/5 17/3/5
f 24/3/6 20/3/6 18/3/6 22/3/6
