# Blender 5.0.1
# www.blender.org
mtllib chips.mtl
o Chips
v -0.420000 0.150000 0.220000
v 0.420000 0.150000 0.220000
v 0.420000 0.150000 -0.220000
v -0.420000 0.150000 -0.220000
v -0.420000 0.750000 0.220000
v 0.420000 0.750000 0.220000
v 0.420000 0.750000 -0.220000
v -0.420000 0.750000 -0.220000
v -0.440000 0.750000 0.040000
v 0.440000 0.750000 0.040000
v 0.440000 0.750000 -0.040000
v -0.440000 0.750000 -0.040000
v -0.440000 0.880000 0.040000
v 0.440000 0.880000 0.040000
v 0.440000 0.880000 -0.040000
v -0.440000 0.880000 -0.040000
v -0.440000 0.000000 0.040000
v 0.440000 0.000000 0.040000
v 0.440000 0.000000 -0.040000
v -0.440000 0.000000 -0.040000
v -0.440000 0.150000 0.040000
v 0.440000 0.150000 0.040000
v 0.440000 0.150000 -0.040000
v -0.440000 0.150000 -0.040000
v -0.320000 0.350000 0.250000
v 0.320000 0.350000 0.250000
v 0.320000 0.350000 0.200000
v -0.320000 0.350000 0.200000
v -0.320000 0.580000 0.250000
v 0.320000 0.580000 0.250000
v 0.320000 0.580000 0.200000
v -0.320000 0.580000 0.200000
vn -0.0000 1.0000 -0.0000
vn -0.0000 -1.0000 -0.0000
vn -0.0000 -0.0000 -1.0000
vn -0.0000 -0.0000 1.0000
vn 1.0000 -0.0000 -0.0000
vn -1.0000 -0.0000 -0.0000
vt 0.187500 0.312500
vt 0.562500 0.312500
vt 0.437500 0.187500
s 0
usemtl GamePalette
f 1/1/1 2/1/1 3/1/1 4/1/1
f 5/1/2 8/1/2 7/1/2 6/1/2
f 1/1/3 5/1/3 6/1/3 2/1/3
f 3/1/4 7/1/4 8/1/4 4/1/4
f 4/1/5 8/1/5 5/1/5 1/1/5
f 2/1/6 6/1/6 7/1/6 3/1/6
f 9/2/1 10/2/1 11/2/1 12/2/1
f 13/2/2 16/2/2 15/2/2 14/2/2
f 9/2/3 13/2/3 14/2/3 10/2/3
f 11/2/4 15/2/4 16/2/4 12/2/4
f 12/2/5 16/2/5 13/2/5 9/2/5
f 10/2/6 14/2/6 15/2/6 11/2/6
f 17/2/1 18/2/1 19/2/1 20/2/1
f 21/2/2 24/2/2 23/2/2 22/2/2
f 17/2/3 21/2/3 22/2/3 18/2/3
f 19/2/4 23/2/4 24/2/4 20/2/4
f 20/2/5 24/2/5 21/2/5 17/2/5
f 18/2/6 22/2/6 23/2/6 19/2/6
f 25/3/1 26/3/1 27/3/1 28/3/1
f 29/3/2 32/3/2 31/3/2 30/3/2
f 25/3/3 29/3/3 30/3/3 26/3/3
f 27/3/4 31/3/4 32/3/4 28/3/4
f 28/3/5 32/3/5 29/3/5 25/3/5
f 26/3/6 30/3/6 31/3/6 27/3/6
