# Blender 5.0.1
# www.blender.org
mtllib fiber.mtl
o Stem_Center
v -0.030000 -0.849222 -0.054991
v 0.000303 -0.850284 -0.037511
v 0.000303 -0.851062 -0.002519
v -0.030000 -0.850778 0.014991
v -0.060303 -0.849716 -0.002489
v -0.060303 -0.848938 -0.037481
v -0.020000 -0.399247 -0.041991
v 0.007696 -0.400601 -0.026019
v 0.007696 -0.401353 0.005973
v -0.020000 -0.400753 0.021991
v -0.047696 -0.399399 0.006019
v -0.047696 -0.398647 -0.025973
v 0.000000 0.000000 -0.030000
v 0.025952 -0.001221 -0.015000
v 0.025952 -0.001221 0.015000
v 0.000000 -0.000000 0.030000
v -0.025952 0.001221 0.015000
v -0.025952 0.001221 -0.015000
v 0.020000 0.449012 -0.037983
v 0.044222 0.448368 -0.023951
v 0.044222 0.449355 0.004031
v 0.020000 0.450988 0.017983
v -0.004222 0.451632 0.003951
v -0.004222 0.450645 -0.024031
v 0.040000 0.848752 -0.054969
v 0.061624 0.848297 -0.042430
v 0.061624 0.849546 -0.017462
v 0.040000 0.851248 -0.005031
v 0.018376 0.851703 -0.017570
v 0.018376 0.850454 -0.042538
v -0.030000 -0.850000 -0.020000
v 0.040000 0.850000 -0.030000
vn -0.0222 -0.9995 -0.0222
vn -0.5000 -0.0139 0.8659
vn -0.9999 0.0164 0.0004
vn -0.5001 0.0246 -0.8656
vn 0.4997 0.0024 -0.8662
vn 0.9996 -0.0280 -0.0006
vn 0.4997 -0.0361 0.8654
vn -0.5000 -0.0010 0.8660
vn -0.9990 0.0456 0.0006
vn -0.4990 0.0422 -0.8656
vn 0.4997 -0.0077 -0.8662
vn 0.9985 -0.0542 -0.0007
vn 0.4986 -0.0509 0.8653
vn -0.4994 0.0376 0.8655
vn -0.9992 0.0405 -0.0007
vn -0.4998 -0.0009 -0.8661
vn 0.4990 -0.0452 -0.8654
vn 0.9988 -0.0482 0.0008
vn 0.4995 -0.0068 0.8663
vn -0.4994 0.0617 0.8642
vn -0.9991 0.0434 -0.0018
vn -0.5000 -0.0248 -0.8657
vn 0.4987 -0.0746 -0.8636
vn 0.9984 -0.0563 0.0024
vn 0.4994 0.0119 0.8663
vn 0.0499 0.9975 -0.0499
vt 0.062500 0.562500
s 0
usemtl GamePalette
f 31/1/1 1/1/1 2/1/1
f 31/1/1 2/1/1 3/1/1
f 31/1/1 3/1/1 4/1/1
f 31/1/1 4/1/1 5/1/1
f 31/1/1 5/1/1 6/1/1
f 31/1/1 6/1/1 1/1/1
f 1/1/2 2/1/2 8/1/2 7/1/2
f 2/1/3 3/1/3 9/1/3 8/1/3
f 3/1/4 4/1/4 10/1/4 9/1/4
f 4/1/5 5/1/5 11/1/5 10/1/5
f 5/1/6 6/1/6 12/1/6 11/1/6
f 6/1/7 1/1/7 7/1/7 12/1/7
f 7/1/8 8/1/8 14/1/8 13/1/8
f 8/1/9 9/1/9 15/1/9 14/1/9
f 9/1/10 10/1/10 16/1/10 15/1/10
f 10/1/11 11/1/11 17/1/11 16/1/11
f 11/1/12 12/1/12 18/1/12 17/1/12
f 12/1/13 7/1/13 13/1/13 18/1/13
f 13/1/14 14/1/14 20/1/14 19/1/14
f 14/1/15 15/1/15 21/1/15 20/1/15
f 15/1/16 16/1/16 22/1/16 21/1/16
f 16/1/17 17/1/17 23/1/17 22/1/17
f 17/1/18 18/1/18 24/1/18 23/1/18
f 18/1/19 13/1/19 19/1/19 24/1/19
f 19/1/20 20/1/20 26/1/20 25/1/20
f 20/1/21 21/1/21 27/1/21 26/1/21
f 21/1/22 22/1/22 28/1/22 27/1/22
f 22/1/23 23/1/23 29/1/23 28/1/23
f 23/1/24 24/1/24 30/1/24 29/1/24
f 24/1/25 19/1/25 25/1/25 30/1/25
f 32/1/26 26/1/26 25/1/26
f 32/1/26 27/1/26 26/1/26
f 32/1/26 28/1/26 27/1/26
f 32/1/26 29/1/26 28/1/26
f 32/1/26 30/1/26 29/1/26
f 32/1/26 25/1/26 30/1/26
o Head_Center
v 0.024526 0.438838 -0.048234
v 0.053718 0.438224 -0.031307
v 0.053718 0.439910 0.002401
v 0.024526 0.442208 0.019182
v -0.004666 0.442822 0.002255
v -0.004666 0.441136 -0.031453
v 0.027040 0.487052 -0.091946
v 0.091911 0.485689 -0.054331
v 0.091911 0.489435 0.020575
v 0.027040 0.494543 0.057867
v -0.037831 0.495906 0.020252
v -0.037831 0.492160 -0.054655
v 0.035000 0.646067 -0.103652
v 0.103115 0.644636 -0.064156
v 0.103115 0.648569 0.014496
v 0.035000 0.653933 0.053652
v -0.033115 0.655364 0.014156
v -0.033115 0.651431 -0.064496
v 0.042960 0.805644 -0.104121
v 0.104588 0.804350 -0.068387
v 0.104588 0.807908 0.002774
v 0.042960 0.812760 0.038201
v -0.018667 0.814055 0.002467
v -0.018667 0.810497 -0.068694
v 0.045474 0.858166 -0.061691
v 0.068179 0.857689 -0.048526
v 0.068179 0.859000 -0.022309
v 0.045474 0.860788 -0.009257
v 0.022769 0.861265 -0.022422
v 0.022769 0.859954 -0.048639
v 0.049663 0.942519 -0.054645
v 0.062638 0.942246 -0.047122
v 0.062638 0.942995 -0.032140
v 0.049663 0.944017 -0.024682
v 0.036689 0.944289 -0.032205
v 0.036689 0.943540 -0.047186
v 0.024526 0.440523 -0.014526
v 0.049663 0.943268 -0.039663
vn -0.0499 -0.9975 0.0499
vn -0.3786 0.6324 0.6758
vn -0.7860 0.6175 -0.0309
vn -0.3786 0.5619 -0.7355
vn 0.4363 0.5212 -0.7335
vn 0.8437 0.5362 -0.0268
vn 0.4363 0.5918 0.6778
vn -0.4983 0.0884 0.8625
vn -0.9975 0.0701 -0.0035
vn -0.4983 0.0020 -0.8670
vn 0.5003 -0.0478 -0.8645
vn 0.9996 -0.0295 0.0015
vn 0.5003 0.0386 0.8650
vn -0.5010 0.0275 0.8650
vn -1.0000 0.0092 -0.0005
vn -0.5010 -0.0589 -0.8634
vn 0.4969 -0.1087 -0.8610
vn 0.9959 -0.0903 0.0045
vn 0.4969 -0.0222 0.8675
vn -0.4256 -0.5563 0.7138
vn -0.8206 -0.5708 0.0285
vn -0.4256 -0.6247 -0.6547
vn 0.3645 -0.6641 -0.6528
vn 0.7596 -0.6496 0.0325
vn 0.3645 -0.5957 0.7157
vn -0.5018 -0.0472 0.8637
vn -0.9979 -0.0654 0.0033
vn -0.5018 -0.1331 -0.8547
vn 0.4903 -0.1826 -0.8522
vn 0.9864 -0.1644 0.0082
vn 0.4903 -0.0967 0.8662
vn 0.0499 0.9975 -0.0499
vt 0.562500 0.687500
s 0
usemtl GamePalette
f 69/2/27 33/2/27 34/2/27
f 69/2/27 34/2/27 35/2/27
f 69/2/27 35/2/27 36/2/27
f 69/2/27 36/2/27 37/2/27
f 69/2/27 37/2/27 38/2/27
f 69/2/27 38/2/27 33/2/27
f 33/2/28 34/2/28 40/2/28 39/2/28
f 34/2/29 35/2/29 41/2/29 40/2/29
f 35/2/30 36/2/30 42/2/30 41/2/30
f 36/2/31 37/2/31 43/2/31 42/2/31
f 37/2/32 38/2/32 44/2/32 43/2/32
f 38/2/33 33/2/33 39/2/33 44/2/33
f 39/2/34 40/2/34 46/2/34 45/2/34
f 40/2/35 41/2/35 47/2/35 46/2/35
f 41/2/36 42/2/36 48/2/36 47/2/36
f 42/2/37 43/2/37 49/2/37 48/2/37
f 43/2/38 44/2/38 50/2/38 49/2/38
f 44/2/39 39/2/39 45/2/39 50/2/39
f 45/2/40 46/2/40 52/2/40 51/2/40
f 46/2/41 47/2/41 53/2/41 52/2/41
f 47/2/42 48/2/42 54/2/42 53/2/42
f 48/2/43 49/2/43 55/2/43 54/2/43
f 49/2/44 50/2/44 56/2/44 55/2/44
f 50/2/45 45/2/45 51/2/45 56/2/45
f 51/2/46 52/2/46 58/2/46 57/2/46
f 52/2/47 53/2/47 59/2/47 58/2/47
f 53/2/48 54/2/48 60/2/48 59/2/48
f 54/2/49 55/2/49 61/2/49 60/2/49
f 55/2/50 56/2/50 62/2/50 61/2/50
f 56/2/51 51/2/51 57/2/51 62/2/51
f 57/2/52 58/2/52 64/2/52 63/2/52
f 58/2/53 59/2/53 65/2/53 64/2/53
f 59/2/54 60/2/54 66/2/54 65/2/54
f 60/2/55 61/2/55 67/2/55 66/2/55
f 61/2/56 62/2/56 68/2/56 67/2/56
f 62/2/57 57/2/57 63/2/57 68/2/57
f 70/2/58 64/2/58 63/2/58
f 70/2/58 65/2/58 64/2/58
f 70/2/58 66/2/58 65/2/58
f 70/2/58 67/2/58 66/2/58
f 70/2/58 68/2/58 67/2/58
f 70/2/58 63/2/58 68/2/58
o Stem_Right
v 0.040000 -0.820681 -0.001993
v 0.067707 -0.819751 0.013991
v 0.067707 -0.819070 0.045984
v 0.040000 -0.819319 0.061993
v 0.012293 -0.820249 0.046009
v 0.012293 -0.820930 0.014016
v 0.030000 -0.350731 -0.009991
v 0.055973 -0.349733 0.004989
v 0.055973 -0.349001 0.034980
v 0.030000 -0.349268 0.049991
v 0.004027 -0.350267 0.035011
v 0.004027 -0.350999 0.005020
v 0.020000 0.000000 -0.018000
v 0.044229 -0.000969 -0.004000
v 0.044229 -0.000969 0.024000
v 0.020000 -0.000000 0.038000
v -0.004229 0.000969 0.024000
v -0.004229 0.000969 -0.004000
v 0.060000 0.400999 -0.005981
v 0.082399 0.398206 0.006921
v 0.082399 0.397206 0.032902
v 0.060000 0.399001 0.045981
v 0.037601 0.401794 0.033079
v 0.037601 0.402794 0.007098
v 0.100000 0.781156 0.018030
v 0.118948 0.778589 0.028911
v 0.118948 0.777433 0.050880
v 0.100000 0.778844 0.061970
v 0.081052 0.781411 0.051089
v 0.081052 0.782567 0.029120
v 0.040000 -0.820000 0.030000
v 0.100000 0.780000 0.040000
vn 0.0213 -0.9995 0.0213
vn -0.4998 0.0041 0.8661
vn -0.9997 -0.0249 0.0006
vn -0.4998 -0.0327 -0.8655
vn 0.4999 -0.0115 -0.8660
vn 0.9998 0.0176 -0.0004
vn 0.5000 0.0254 0.8657
vn -0.4999 0.0055 0.8660
vn -0.9994 -0.0337 0.0004
vn -0.5003 -0.0441 -0.8647
vn 0.4999 -0.0154 -0.8660
vn 0.9997 0.0235 -0.0003
vn 0.5004 0.0340 0.8651
vn -0.4982 0.0238 0.8668
vn -0.9955 0.0953 0.0018
vn -0.4981 0.0672 -0.8645
vn 0.4975 -0.0324 -0.8669
vn 0.9946 -0.1036 -0.0019
vn 0.4974 -0.0756 0.8642
vn -0.4988 -0.0022 0.8667
vn -0.9954 0.0954 0.0043
vn -0.4975 0.0887 -0.8629
vn 0.4970 -0.0158 -0.8676
vn 0.9935 -0.1134 -0.0051
vn 0.4956 -0.1066 0.8620
vn 0.1045 0.9931 0.0523
vt 0.187500 0.562500
s 0
usemtl GamePalette
f 101/3/59 71/3/59 72/3/59
f 101/3/59 72/3/59 73/3/59
f 101/3/59 73/3/59 74/3/59
f 101/3/59 74/3/59 75/3/59
f 101/3/59 75/3/59 76/3/59
f 101/3/59 76/3/59 71/3/59
f 71/3/60 72/3/60 78/3/60 77/3/60
f 72/3/61 73/3/61 79/3/61 78/3/61
f 73/3/62 74/3/62 80/3/62 79/3/62
f 74/3/63 75/3/63 81/3/63 80/3/63
f 75/3/64 76/3/64 82/3/64 81/3/64
f 76/3/65 71/3/65 77/3/65 82/3/65
f 77/3/66 78/3/66 84/3/66 83/3/66
f 78/3/67 79/3/67 85/3/67 84/3/67
f 79/3/68 80/3/68 86/3/68 85/3/68
f 80/3/69 81/3/69 87/3/69 86/3/69
f 81/3/70 82/3/70 88/3/70 87/3/70
f 82/3/71 77/3/71 83/3/71 88/3/71
f 83/3/72 84/3/72 90/3/72 89/3/72
f 84/3/73 85/3/73 91/3/73 90/3/73
f 85/3/74 86/3/74 92/3/74 91/3/74
f 86/3/75 87/3/75 93/3/75 92/3/75
f 87/3/76 88/3/76 94/3/76 93/3/76
f 88/3/77 83/3/77 89/3/77 94/3/77
f 89/3/78 90/3/78 96/3/78 95/3/78
f 90/3/79 91/3/79 97/3/79 96/3/79
f 91/3/80 92/3/80 98/3/80 97/3/80
f 92/3/81 93/3/81 99/3/81 98/3/81
f 93/3/82 94/3/82 100/3/82 99/3/82
f 94/3/83 89/3/83 95/3/83 100/3/83
f 102/3/84 96/3/84 95/3/84
f 102/3/84 97/3/84 96/3/84
f 102/3/84 98/3/84 97/3/84
f 102/3/84 99/3/84 98/3/84
f 102/3/84 100/3/84 99/3/84
f 102/3/84 95/3/84 100/3/84
o Head_Right
v 0.060137 0.392958 -0.011388
v 0.087267 0.389282 0.004190
v 0.087267 0.387626 0.035647
v 0.060137 0.389647 0.051525
v 0.033007 0.393322 0.035947
v 0.033007 0.394978 0.004490
v 0.064904 0.440269 -0.047451
v 0.125194 0.432101 -0.012833
v 0.125194 0.428421 0.057071
v 0.064904 0.432911 0.092355
v 0.004615 0.441079 0.057737
v 0.004615 0.444758 -0.012166
v 0.080000 0.583863 -0.043398
v 0.143304 0.575286 -0.007049
v 0.143304 0.571423 0.066349
v 0.080000 0.576137 0.103398
v 0.016696 0.584714 0.067049
v 0.016696 0.588577 -0.006349
v 0.095096 0.726905 -0.028860
v 0.152371 0.719146 0.004027
v 0.152371 0.715650 0.070436
v 0.095096 0.719915 0.103956
v 0.037821 0.727675 0.071068
v 0.037821 0.731170 0.004660
v 0.099863 0.769985 0.015465
v 0.120964 0.767127 0.027582
v 0.120964 0.765839 0.052048
v 0.099863 0.767410 0.064398
v 0.078762 0.770269 0.052281
v 0.078762 0.771557 0.027815
v 0.107808 0.844965 0.028925
v 0.120727 0.843215 0.036343
v 0.120727 0.842426 0.051322
v 0.107808 0.843388 0.058883
v 0.094889 0.845139 0.051465
v 0.094889 0.845927 0.036486
v 0.060137 0.391302 0.020069
v 0.107808 0.844177 0.043904
vn -0.1045 -0.9931 -0.0523
vn -0.3397 0.5916 0.7312
vn -0.7411 0.6705 0.0353
vn -0.3397 0.6651 -0.6650
vn 0.4631 0.5808 -0.6695
vn 0.8645 0.5019 0.0264
vn 0.4631 0.5073 0.7268
vn -0.4950 0.0275 0.8685
vn -0.9921 0.1252 0.0066
vn -0.4950 0.1185 -0.8608
vn 0.4993 0.0142 -0.8663
vn 0.9965 -0.0835 -0.0044
vn 0.4993 -0.0769 0.8630
vn -0.5012 -0.0350 0.8646
vn -0.9980 0.0626 0.0033
vn -0.5012 0.0560 -0.8635
vn 0.4924 -0.0483 -0.8690
vn 0.9893 -0.1460 -0.0077
vn 0.4924 -0.1393 0.8591
vn -0.4539 -0.6141 0.6456
vn -0.8427 -0.5377 -0.0283
vn -0.4539 -0.5429 -0.7065
vn 0.3236 -0.6245 -0.7108
vn 0.7123 -0.7009 -0.0369
vn 0.3235 -0.6957 0.6413
vn -0.5056 -0.1002 0.8569
vn -1.0000 -0.0031 -0.0002
vn -0.5056 -0.0097 -0.8627
vn 0.4831 -0.1135 -0.8682
vn 0.9775 -0.2107 -0.0111
vn 0.4831 -0.2040 0.8514
vn 0.1045 0.9931 0.0523
vn 0.1046 0.9931 0.0523
vt 0.687500 0.562500
s 0
usemtl GamePalette
f 139/4/85 103/4/85 104/4/85
f 139/4/85 104/4/85 105/4/85
f 139/4/85 105/4/85 106/4/85
f 139/4/85 106/4/85 107/4/85
f 139/4/85 107/4/85 108/4/85
f 139/4/85 108/4/85 103/4/85
f 103/4/86 104/4/86 110/4/86 109/4/86
f 104/4/87 105/4/87 111/4/87 110/4/87
f 105/4/88 106/4/88 112/4/88 111/4/88
f 106/4/89 107/4/89 113/4/89 112/4/89
f 107/4/90 108/4/90 114/4/90 113/4/90
f 108/4/91 103/4/91 109/4/91 114/4/91
f 109/4/92 110/4/92 116/4/92 115/4/92
f 110/4/93 111/4/93 117/4/93 116/4/93
f 111/4/94 112/4/94 118/4/94 117/4/94
f 112/4/95 113/4/95 119/4/95 118/4/95
f 113/4/96 114/4/96 120/4/96 119/4/96
f 114/4/97 109/4/97 115/4/97 120/4/97
f 115/4/98 116/4/98 122/4/98 121/4/98
f 116/4/99 117/4/99 123/4/99 122/4/99
f 117/4/100 118/4/100 124/4/100 123/4/100
f 118/4/101 119/4/101 125/4/101 124/4/101
f 119/4/102 120/4/102 126/4/102 125/4/102
f 120/4/103 115/4/103 121/4/103 126/4/103
f 121/4/104 122/4/104 128/4/104 127/4/104
f 122/4/105 123/4/105 129/4/105 128/4/105
f 123/4/106 124/4/106 130/4/106 129/4/106
f 124/4/107 125/4/107 131/4/107 130/4/107
f 125/4/108 126/4/108 132/4/108 131/4/108
f 126/4/109 121/4/109 127/4/109 132/4/109
f 127/4/110 128/4/110 134/4/110 133/4/110
f 128/4/111 129/4/111 135/4/111 134/4/111
f 129/4/112 130/4/112 136/4/112 135/4/112
f 130/4/113 131/4/113 137/4/113 136/4/113
f 131/4/114 132/4/114 138/4/114 137/4/114
f 132/4/115 127/4/115 133/4/115 138/4/115
f 140/4/116 134/4/116 133/4/116
f 140/4/116 135/4/116 134/4/116
f 140/4/117 136/4/117 135/4/117
f 140/4/116 137/4/116 136/4/116
f 140/4/116 138/4/116 137/4/116
f 140/4/116 133/4/116 138/4/116
o Stem_Left
v -0.040000 -0.880708 -0.013993
v -0.010562 -0.880967 0.003016
v -0.010562 -0.880259 0.037009
v -0.040000 -0.879292 0.053993
v -0.069438 -0.879033 0.036984
v -0.069438 -0.879741 0.002991
v -0.030000 -0.400727 -0.021992
v -0.002294 -0.400993 -0.005982
v -0.002294 -0.400266 0.026010
v -0.030000 -0.399273 0.041992
v -0.057706 -0.399007 0.025982
v -0.057706 -0.399734 -0.006010
v -0.020000 -0.001097 -0.029980
v 0.005973 0.000084 -0.015013
v 0.005973 0.001181 0.014967
v -0.020000 0.001097 0.029980
v -0.045973 -0.000084 0.015013
v -0.045973 -0.001181 -0.014967
v -0.050000 0.418684 -0.046968
v -0.026680 0.421045 -0.033567
v -0.026680 0.422360 -0.006599
v -0.050000 0.421315 0.006968
v -0.073320 0.418955 -0.006433
v -0.073320 0.417640 -0.033401
v -0.080000 0.818851 -0.062971
v -0.060137 0.820912 -0.051560
v -0.060137 0.822060 -0.028589
v -0.080000 0.821149 -0.017029
v -0.099863 0.819088 -0.028440
v -0.099863 0.817940 -0.051411
v -0.040000 -0.880000 0.020000
v -0.080000 0.820000 -0.040000
vn -0.0208 -0.9996 0.0208
vn -0.5000 0.0248 0.8657
vn -0.9999 0.0172 -0.0004
vn -0.4999 -0.0112 -0.8660
vn 0.4998 -0.0321 -0.8655
vn 0.9997 -0.0244 0.0005
vn 0.4998 0.0040 0.8661
vn -0.5000 0.0298 0.8655
vn -0.9998 0.0206 -0.0006
vn -0.5002 -0.0135 -0.8658
vn 0.4999 -0.0385 -0.8652
vn 0.9996 -0.0294 0.0009
vn 0.5001 0.0048 0.8660
vn -0.4988 -0.0005 0.8667
vn -0.9970 -0.0772 0.0033
vn -0.4984 -0.0828 -0.8630
vn 0.4994 -0.0118 -0.8663
vn 0.9979 0.0650 -0.0028
vn 0.4991 0.0706 0.8636
vn -0.4980 -0.0027 0.8672
vn -0.9965 -0.0832 0.0041
vn -0.4979 -0.0891 -0.8626
vn 0.4993 -0.0145 -0.8663
vn 0.9978 0.0660 -0.0033
vn 0.4992 0.0720 0.8635
vn -0.0747 0.9960 -0.0498
vt 0.187500 0.562500
s 0
usemtl GamePalette
f 171/5/118 141/5/118 142/5/118
f 171/5/118 142/5/118 143/5/118
f 171/5/118 143/5/118 144/5/118
f 171/5/118 144/5/118 145/5/118
f 171/5/118 145/5/118 146/5/118
f 171/5/118 146/5/118 141/5/118
f 141/5/119 142/5/119 148/5/119 147/5/119
f 142/5/120 143/5/120 149/5/120 148/5/120
f 143/5/121 144/5/121 150/5/121 149/5/121
f 144/5/122 145/5/122 151/5/122 150/5/122
f 145/5/123 146/5/123 152/5/123 151/5/123
f 146/5/124 141/5/124 147/5/124 152/5/124
f 147/5/125 148/5/125 154/5/125 153/5/125
f 148/5/126 149/5/126 155/5/126 154/5/126
f 149/5/127 150/5/127 156/5/127 155/5/127
f 150/5/128 151/5/128 157/5/128 156/5/128
f 151/5/129 152/5/129 158/5/129 157/5/129
f 152/5/130 147/5/130 153/5/130 158/5/130
f 153/5/131 154/5/131 160/5/131 159/5/131
f 154/5/132 155/5/132 161/5/132 160/5/132
f 155/5/133 156/5/133 162/5/133 161/5/133
f 156/5/134 157/5/134 163/5/134 162/5/134
f 157/5/135 158/5/135 164/5/135 163/5/135
f 158/5/136 153/5/136 159/5/136 164/5/136
f 159/5/137 160/5/137 166/5/137 165/5/137
f 160/5/138 161/5/138 167/5/138 166/5/138
f 161/5/139 162/5/139 168/5/139 167/5/139
f 162/5/140 163/5/140 169/5/140 168/5/140
f 163/5/141 164/5/141 170/5/141 169/5/141
f 164/5/142 159/5/142 165/5/142 170/5/142
f 172/5/143 166/5/143 165/5/143
f 172/5/143 167/5/143 166/5/143
f 172/5/143 168/5/143 167/5/143
f 172/5/143 169/5/143 168/5/143
f 172/5/143 170/5/143 169/5/143
f 172/5/143 165/5/143 170/5/143
o Head_Left
v -0.050061 0.419190 -0.052400
v -0.022080 0.422092 -0.036325
v -0.022080 0.423710 -0.003965
v -0.050061 0.422426 0.012319
v -0.078041 0.419523 -0.003756
v -0.078041 0.417905 -0.036115
v -0.053646 0.465018 -0.094341
v 0.008534 0.471468 -0.058618
v 0.008534 0.475063 0.013292
v -0.053646 0.472209 0.049479
v -0.115826 0.465760 0.013757
v -0.115826 0.462164 -0.058153
v -0.065000 0.616225 -0.105506
v 0.000289 0.622997 -0.067997
v 0.000289 0.626772 0.007509
v -0.065000 0.623775 0.045506
v -0.130289 0.617003 0.007997
v -0.130289 0.613228 -0.067509
v -0.076354 0.767971 -0.105884
v -0.017283 0.774098 -0.071948
v -0.017283 0.777513 -0.003633
v -0.076354 0.774802 0.030745
v -0.135425 0.768675 -0.003191
v -0.135425 0.765259 -0.071506
v -0.079939 0.817934 -0.065128
v -0.058177 0.820191 -0.052625
v -0.058177 0.821450 -0.027457
v -0.079939 0.820451 -0.014791
v -0.101702 0.818193 -0.027294
v -0.101702 0.816935 -0.052462
v -0.085915 0.898120 -0.058925
v -0.072961 0.899464 -0.051483
v -0.072961 0.900213 -0.036501
v -0.085915 0.899618 -0.028962
v -0.098869 0.898275 -0.036404
v -0.098869 0.897526 -0.051386
v -0.050061 0.420808 -0.020040
v -0.085915 0.898869 -0.043943
vn 0.0747 -0.9960 0.0498
vn -0.4491 0.5838 0.6763
vn -0.8548 0.5183 -0.0259
vn -0.4491 0.5135 -0.7312
vn 0.3623 0.5742 -0.7342
vn 0.7680 0.6397 -0.0320
vn 0.3623 0.6445 0.6733
vn -0.5000 0.0264 0.8656
vn -0.9985 -0.0542 0.0027
vn -0.5000 -0.0601 -0.8639
vn 0.4970 0.0145 -0.8676
vn 0.9955 0.0950 -0.0048
vn 0.4970 0.1010 0.8619
vn -0.4951 -0.0349 0.8681
vn -0.9933 -0.1154 0.0058
vn -0.4951 -0.1213 -0.8603
vn 0.5012 -0.0468 -0.8640
vn 0.9994 0.0337 -0.0017
vn 0.5012 0.0397 0.8644
vn -0.3473 -0.6076 0.7143
vn -0.7406 -0.6711 0.0336
vn -0.3473 -0.6758 -0.6501
vn 0.4392 -0.6170 -0.6531
vn 0.8324 -0.5534 0.0277
vn 0.4392 -0.5487 0.7113
vn -0.4874 -0.1034 0.8670
vn -0.9830 -0.1835 0.0092
vn -0.4874 -0.1894 -0.8524
vn 0.5038 -0.1152 -0.8561
vn 0.9994 -0.0352 0.0018
vn 0.5038 -0.0292 0.8633
vn -0.0747 0.9960 -0.0498
vt 0.562500 0.687500
s 0
usemtl GamePalette
f 209/6/144 173/6/144 174/6/144
f 209/6/144 174/6/144 175/6/144
f 209/6/144 175/6/144 176/6/144
f 209/6/144 176/6/144 177/6/144
f 209/6/144 177/6/144 178/6/144
f 209/6/144 178/6/144 173/6/144
f 173/6/145 174/6/145 180/6/145 179/6/145
f 174/6/146 175/6/146 181/6/146 180/6/146
f 175/6/147 176/6/147 182/6/147 181/6/147
f 176/6/148 177/6/148 183/6/148 182/6/148
f 177/6/149 178/6/149 184/6/149 183/6/149
f 178/6/150 173/6/150 179/6/150 184/6/150
f 179/6/151 180/6/151 186/6/151 185/6/151
f 180/6/152 181/6/152 187/6/152 186/6/152
f 181/6/153 182/6/153 188/6/153 187/6/153
f 182/6/154 183/6/154 189/6/154 188/6/154
f 183/6/155 184/6/155 190/6/155 189/6/155
f 184/6/156 179/6/156 185/6/156 190/6/156
f 185/6/157 186/6/157 192/6/157 191/6/157
f 186/6/158 187/6/158 193/6/158 192/6/158
f 187/6/159 188/6/159 194/6/159 193/6/159
f 188/6/160 189/6/160 195/6/160 194/6/160
f 189/6/161 190/6/161 196/6/161 195/6/161
f 190/6/162 185/6/162 191/6/162 196/6/162
f 191/6/163 192/6/163 198/6/163 197/6/163
f 192/6/164 193/6/164 199/6/164 198/6/164
f 193/6/165 194/6/165 200/6/165 199/6/165
f 194/6/166 195/6/166 201/6/166 200/6/166
f 195/6/167 196/6/167 202/6/167 201/6/167
f 196/6/168 191/6/168 197/6/168 202/6/168
f 197/6/169 198/6/169 204/6/169 203/6/169
f 198/6/170 199/6/170 205/6/170 204/6/170
f 199/6/171 200/6/171 206/6/171 205/6/171
f 200/6/172 201/6/172 207/6/172 206/6/172
f 201/6/173 202/6/173 208/6/173 207/6/173
f 202/6/174 197/6/174 203/6/174 208/6/174
f 210/6/175 204/6/175 203/6/175
f 210/6/175 205/6/175 204/6/175
f 210/6/175 206/6/175 205/6/175
f 210/6/175 207/6/175 206/6/175
f 210/6/175 208/6/175 207/6/175
f 210/6/175 203/6/175 208/6/175
o Leaf_1
v -0.008993 -0.799041 -0.010013
v -0.008993 -0.800240 -0.070001
v 0.008993 -0.800959 -0.069987
v 0.008993 -0.799760 -0.009999
v 0.008015 -0.298401 -0.010027
v 0.008015 -0.300401 -0.090002
v 0.031985 -0.301599 -0.089973
v 0.031985 -0.299599 -0.009998
v 0.028044 0.002736 -0.020081
v 0.028044 -0.000690 -0.100007
v 0.051956 -0.002736 -0.099919
v 0.051956 0.000690 -0.019993
v 0.071085 0.403721 -0.050206
v 0.071085 0.398738 -0.109999
v 0.088915 0.396279 -0.109794
v 0.088915 0.401262 -0.050001
v 0.138525 0.720892 -0.115073
v 0.138525 0.719652 -0.124995
v 0.141475 0.719108 -0.124927
v 0.141475 0.720348 -0.115005
vn 0.9994 -0.0340 0.0008
vn 0.0008 0.0400 0.9992
vn -0.9989 0.0459 -0.0010
vn 0.0011 -0.0001 -1.0000
vn 0.9978 -0.0664 0.0023
vn -0.0002 0.0333 0.9994
vn -0.9978 0.0664 -0.0023
vn 0.0002 -0.0333 -0.9994
vn 0.9943 -0.1066 0.0064
vn -0.0043 0.0253 0.9997
vn -0.9958 0.0918 -0.0055
vn -0.0011 -0.0747 -0.9972
vn 0.9787 -0.2046 0.0183
vn -0.0062 0.0479 0.9988
vn -0.9870 0.1599 -0.0143
vn -0.0156 -0.1971 -0.9803
vn 0.0400 0.9990 -0.0200
vn -0.1829 -0.9755 0.1219
vt 0.187500 0.562500
s 0
usemtl GamePalette
f 211/7/176 212/7/176 216/7/176 215/7/176
f 212/7/177 213/7/177 217/7/177 216/7/177
f 213/7/178 214/7/178 218/7/178 217/7/178
f 214/7/179 211/7/179 215/7/179 218/7/179
f 215/7/180 216/7/180 220/7/180 219/7/180
f 216/7/181 217/7/181 221/7/181 220/7/181
f 217/7/182 218/7/182 222/7/182 221/7/182
f 218/7/183 215/7/183 219/7/183 222/7/183
f 219/7/184 220/7/184 224/7/184 223/7/184
f 220/7/185 221/7/185 225/7/185 224/7/185
f 221/7/186 222/7/186 226/7/186 225/7/186
f 222/7/187 219/7/187 223/7/187 226/7/187
f 223/7/188 224/7/188 228/7/188 227/7/188
f 224/7/189 225/7/189 229/7/189 228/7/189
f 225/7/190 226/7/190 230/7/190 229/7/190
f 226/7/191 223/7/191 227/7/191 230/7/191
f 214/7/192 213/7/192 212/7/192 211/7/192
f 227/7/193 228/7/193 229/7/193 230/7/193
o Leaf_2
v -0.027994 -0.850820 0.074989
v -0.027994 -0.849820 0.024999
v -0.012006 -0.849181 0.025011
v -0.012006 -0.850180 0.075001
v -0.051993 -0.350864 0.097492
v -0.051993 -0.349982 0.022498
v -0.028007 -0.349136 0.022508
v -0.028007 -0.350018 0.097502
v -0.061960 -0.002009 0.097459
v -0.061960 0.000045 0.022487
v -0.038040 0.002009 0.022541
v -0.038040 -0.000045 0.097513
v -0.108687 0.376985 0.107370
v -0.108687 0.380214 0.052465
v -0.091313 0.383015 0.052630
v -0.091313 0.379786 0.107535
v -0.161569 0.679355 0.104968
v -0.161569 0.680020 0.094990
v -0.158431 0.680645 0.095032
v -0.158431 0.679980 0.105010
vn 0.9988 0.0479 0.0007
vn -0.0008 0.0050 1.0000
vn -0.9995 -0.0320 -0.0005
vn -0.0011 0.0449 -0.9990
vn 0.9996 0.0285 0.0006
vn -0.0013 -0.0001 1.0000
vn -0.9996 -0.0286 -0.0006
vn 0.0013 -0.0000 -1.0000
vn 0.9925 0.1219 0.0050
vn 0.0037 -0.0782 0.9969
vn -0.9904 -0.1384 -0.0056
vn 0.0022 0.0266 -0.9996
vn 0.9850 0.1723 0.0103
vn 0.0131 -0.1381 0.9903
vn -0.9758 -0.2182 -0.0131
vn 0.0111 -0.0060 -0.9999
vn -0.0400 0.9990 0.0200
vn 0.1957 -0.9785 -0.0652
vt 0.062500 0.562500
s 0
usemtl GamePalette
f 231/8/194 232/8/194 236/8/194 235/8/194
f 232/8/195 233/8/195 237/8/195 236/8/195
f 233/8/196 234/8/196 238/8/196 237/8/196
f 234/8/197 231/8/197 235/8/197 238/8/197
f 235/8/198 236/8/198 240/8/198 239/8/198
f 236/8/199 237/8/199 241/8/199 240/8/199
f 237/8/200 238/8/200 242/8/200 241/8/200
f 238/8/201 235/8/201 239/8/201 242/8/201
f 239/8/202 240/8/202 244/8/202 243/8/202
f 240/8/203 241/8/203 245/8/203 244/8/203
f 241/8/204 242/8/204 246/8/204 245/8/204
f 242/8/205 239/8/205 243/8/205 246/8/205
f 243/8/206 244/8/206 248/8/206 247/8/206
f 244/8/207 245/8/207 249/8/207 248/8/207
f 245/8/208 246/8/208 250/8/208 249/8/208
f 246/8/209 243/8/209 247/8/209 250/8/209
f 234/8/210 233/8/210 232/8/210 231/8/210
f 247/8/211 248/8/211 249/8/211 250/8/211
o Leaf_3
v 0.041430 -0.779367 0.014993
v 0.041430 -0.780310 -0.034999
v 0.058570 -0.780633 -0.034993
v 0.058570 -0.779690 0.014999
v 0.048001 -0.249398 0.014995
v 0.048001 -0.250295 -0.054999
v 0.071999 -0.250602 -0.054995
v 0.071999 -0.249705 0.014999
v 0.048015 0.001182 0.014985
v 0.048015 0.000016 -0.055005
v 0.071985 -0.001182 -0.054985
v 0.071985 -0.000016 0.015005
v 0.081509 0.352326 -0.005081
v 0.081509 0.350020 -0.055028
v 0.098491 0.347674 -0.054919
v 0.098491 0.349979 -0.004972
v 0.148319 0.650667 -0.045033
v 0.148319 0.650002 -0.055011
v 0.151681 0.649333 -0.054967
v 0.151681 0.649998 -0.044989
vn 0.9999 -0.0124 0.0002
vn 0.0003 0.0377 0.9993
vn -0.9997 0.0253 -0.0004
vn 0.0002 -0.0000 -1.0000
vn 1.0000 -0.0001 -0.0000
vn -0.0005 -0.0000 1.0000
vn -1.0000 -0.0001 -0.0000
vn 0.0005 -0.0000 -1.0000
vn 0.9955 -0.0950 0.0028
vn -0.0031 0.0002 1.0000
vn -0.9971 0.0756 -0.0022
vn -0.0018 -0.0569 -0.9984
vn 0.9761 -0.2173 0.0108
vn -0.0073 0.0015 1.0000
vn -0.9848 0.1735 -0.0086
vn -0.0118 -0.1301 -0.9914
vn 0.0189 0.9996 -0.0189
vn -0.1957 -0.9785 0.0652
vt 0.062500 0.437500
s 0
usemtl GamePalette
f 251/9/212 252/9/212 256/9/212 255/9/212
f 252/9/213 253/9/213 257/9/213 256/9/213
f 253/9/214 254/9/214 258/9/214 257/9/214
f 254/9/215 251/9/215 255/9/215 258/9/215
f 255/9/216 256/9/216 260/9/216 259/9/216
f 256/9/217 257/9/217 261/9/217 260/9/217
f 257/9/218 258/9/218 262/9/218 261/9/218
f 258/9/219 255/9/219 259/9/219 262/9/219
f 259/9/220 260/9/220 264/9/220 263/9/220
f 260/9/221 261/9/221 265/9/221 264/9/221
f 261/9/222 262/9/222 266/9/222 265/9/222
f 262/9/223 259/9/223 263/9/223 266/9/223
f 263/9/224 264/9/224 268/9/224 267/9/224
f 264/9/225 265/9/225 269/9/225 268/9/225
f 265/9/226 266/9/226 270/9/226 269/9/226
f 266/9/227 263/9/227 267/9/227 270/9/227
f 254/9/228 253/9/228 252/9/228 251/9/228
f 267/9/229 268/9/229 269/9/229 270/9/229
o TwineBand
v 0.140000 -0.050000 0.000000
v 0.140000 0.050000 0.000000
v 0.121244 -0.050000 -0.065000
v 0.121244 0.050000 -0.065000
v 0.070000 -0.050000 -0.112583
v 0.070000 0.050000 -0.112583
v 0.000000 -0.050000 -0.130000
v 0.000000 0.050000 -0.130000
v -0.070000 -0.050000 -0.112583
v -0.070000 0.050000 -0.112583
v -0.121244 -0.050000 -0.065000
v -0.121244 0.050000 -0.065000
v -0.140000 -0.050000 -0.000000
v -0.140000 0.050000 -0.000000
v -0.121244 -0.050000 0.065000
v -0.121244 0.050000 0.065000
v -0.070000 -0.050000 0.112583
v -0.070000 0.050000 0.112583
v -0.000000 -0.050000 0.130000
v -0.000000 0.050000 0.130000
v 0.070000 -0.050000 0.112583
v 0.070000 0.050000 0.112583
v 0.121244 -0.050000 0.065000
v 0.121244 0.050000 0.065000
v 0.000000 -0.038000 -0.145000
v 0.027497 -0.016994 -0.125023
v -0.010503 -0.016994 -0.112676
v -0.033988 -0.016994 -0.145000
v -0.010503 -0.016994 -0.177324
v 0.027497 -0.016994 -0.164977
v 0.010503 0.016994 -0.112676
v -0.027497 0.016994 -0.125023
v -0.027497 0.016994 -0.164977
v 0.010503 0.016994 -0.177324
v 0.033988 0.016994 -0.145000
v 0.000000 0.038000 -0.145000
v 0.030000 -0.010000 -0.135000
v 0.051708 0.006584 -0.119228
v 0.021708 0.006584 -0.109481
v 0.003167 0.006584 -0.135000
v 0.021708 0.006584 -0.160519
v 0.051708 0.006584 -0.150772
v 0.038292 0.033416 -0.109481
v 0.008292 0.033416 -0.119228
v 0.008292 0.033416 -0.150772
v 0.038292 0.033416 -0.160519
v 0.056833 0.033416 -0.135000
v 0.030000 0.050000 -0.135000
vn 0.9608 -0.0000 -0.2772
vn 0.6805 -0.0000 -0.7328
vn 0.2414 -0.0000 -0.9704
vn -0.2414 -0.0000 -0.9704
vn -0.6805 -0.0000 -0.7328
vn -0.9608 -0.0000 -0.2772
vn -0.9608 -0.0000 0.2772
vn -0.6805 -0.0000 0.7328
vn -0.2414 -0.0000 0.9704
vn 0.2414 -0.0000 0.9704
vn 0.6805 -0.0000 0.7328
vn 0.9608 -0.0000 0.2772
vn 0.1876 -0.7947 0.5774
vn 0.6071 -0.7947 -0.0000
vn -0.4911 -0.7947 0.3568
vn -0.4911 -0.7947 -0.3568
vn 0.1876 -0.7947 -0.5774
vn 0.9822 -0.1876 -0.0000
vn 0.3035 -0.1876 0.9342
vn -0.7946 -0.1876 0.5774
vn -0.7946 -0.1876 -0.5774
vn 0.3035 -0.1876 -0.9342
vn 0.7946 0.1876 0.5774
vn -0.3035 0.1876 0.9342
vn -0.9822 0.1876 -0.0000
vn -0.3035 0.1876 -0.9342
vn 0.7946 0.1876 -0.5774
vn 0.4911 0.7947 0.3568
vn -0.1876 0.7947 0.5774
vn -0.6071 0.7947 -0.0000
vn -0.1876 0.7947 -0.5774
vn 0.4911 0.7947 -0.3568
vt 0.312500 0.562500
s 0
usemtl GamePalette
f 271/10/230 273/10/230 274/10/230 272/10/230
f 273/10/231 275/10/231 276/10/231 274/10/231
f 275/10/232 277/10/232 278/10/232 276/10/232
f 277/10/233 279/10/233 280/10/233 278/10/233
f 279/10/234 281/10/234 282/10/234 280/10/234
f 281/10/235 283/10/235 284/10/235 282/10/235
f 283/10/236 285/10/236 286/10/236 284/10/236
f 285/10/237 287/10/237 288/10/237 286/10/237
f 287/10/238 289/10/238 290/10/238 288/10/238
f 289/10/239 291/10/239 292/10/239 290/10/239
f 291/10/240 293/10/240 294/10/240 292/10/240
f 293/10/241 271/10/241 272/10/241 294/10/241
f 295/10/242 296/10/242 297/10/242
f 296/10/243 295/10/243 300/10/243
f 295/10/244 297/10/244 298/10/244
f 295/10/245 298/10/245 299/10/245
f 295/10/246 299/10/246 300/10/246
f 296/10/247 300/10/247 305/10/247
f 297/10/248 296/10/248 301/10/248
f 298/10/249 297/10/249 302/10/249
f 299/10/250 298/10/250 303/10/250
f 300/10/251 299/10/251 304/10/251
f 296/10/252 305/10/252 301/10/252
f 297/10/253 301/10/253 302/10/253
f 298/10/254 302/10/254 303/10/254
f 299/10/255 303/10/255 304/10/255
f 300/10/256 304/10/256 305/10/256
f 301/10/257 305/10/257 306/10/257
f 302/10/258 301/10/258 306/10/258
f 303/10/259 302/10/259 306/10/259
f 304/10/260 303/10/260 306/10/260
f 305/10/261 304/10/261 306/10/261
f 307/10/242 308/10/242 309/10/242
f 308/10/243 307/10/243 312/10/243
f 307/10/244 309/10/244 310/10/244
f 307/10/245 310/10/245 311/10/245
f 307/10/246 311/10/246 312/10/246
f 308/10/247 312/10/247 317/10/247
f 309/10/248 308/10/248 313/10/248
f 310/10/249 309/10/249 314/10/249
f 311/10/250 310/10/250 315/10/250
f 312/10/251 311/10/251 316/10/251
f 308/10/252 317/10/252 313/10/252
f 309/10/253 313/10/253 314/10/253
f 310/10/254 314/10/254 315/10/254
f 311/10/255 315/10/255 316/10/255
f 312/10/256 316/10/256 317/10/256
f 313/10/257 317/10/257 318/10/257
f 314/10/258 313/10/258 318/10/258
f 315/10/259 314/10/259 318/10/259
f 316/10/260 315/10/260 318/10/260
f 317/10/261 316/10/261 318/10/261
