# Blender 5.0.1
# www.blender.org
mtllib pepper.mtl
o Pepper
v -0.180000 0.700000 0.180000
v 0.180000 0.700000 0.180000
v 0.000000 0.350000 0.220000
v -0.180000 0.700000 -0.180000
v 0.180000 0.700000 -0.180000
v 0.000000 0.350000 -0.220000
v -0.140000 0.350000 0.140000
v 0.140000 0.350000 0.140000
v 0.000000 0.000000 0.050000
v -0.140000 0.350000 -0.140000
v 0.140000 0.350000 -0.140000
v 0.000000 0.000000 -0.150000
v -0.160000 0.700000 0.160000
v 0.160000 0.700000 0.160000
v 0.160000 0.700000 -0.160000
v -0.160000 0.700000 -0.160000
v -0.160000 0.780000 0.160000
v 0.160000 0.780000 0.160000
v 0.160000 0.780000 -0.160000
v -0.160000 0.780000 -0.160000
v -0.050000 0.780000 0.050000
v 0.050000 0.780000 0.050000
v 0.050000 0.780000 -0.050000
v -0.050000 0.780000 -0.050000
v -0.050000 0.980000 0.050000
v 0.050000 0.980000 0.050000
v 0.050000 0.980000 -0.050000
v -0.050000 0.980000 -0.050000
vn -0.0000 -0.1135 -0.9935
vn -0.0000 -0.1135 0.9935
vn -0.0000 -1.0000 -0.0000
vn -0.8893 0.4573 -0.0000
vn 0.8893 0.4573 -0.0000
vn -0.0000 0.2490 -0.9685
vn -0.0000 -0.0286 0.9996
vn -0.9285 0.3714 -0.0000
vn 0.9285 0.3714 -0.0000
vn -0.0000 1.0000 -0.0000
vn -0.0000 -0.0000 -1.0000
vn -0.0000 -0.0000 1.0000
vn 1.0000 -0.0000 -0.0000
vn -1.0000 -0.0000 -0.0000
vt 0.937500 0.187500
vt 0.437500 0.187500
vt 0.312500 0.437500
vt 0.437500 0.437500
s 0
usemtl GamePalette
f 1/1/1 2/1/1 3/1/1
f 4/1/2 6/1/2 5/1/2
f 1/1/3 4/1/3 5/1/3 2/1/3
f 2/1/4 5/1/4 6/1/4 3/1/4
f 3/1/5 6/1/5 4/1/5 1/1/5
f 7/2/6 8/2/6 9/2/6
f 10/2/7 12/2/7 11/2/7
f 7/2/3 10/2/3 11/2/3 8/2/3
f 8/2/8 11/2/8 12/2/8 9/2/8
f 9/2/9 12/2/9 10/2/9 7/2/9
f 13/3/10 14/3/10 15/3/10 16/3/10
f 17/3/3 20/3/3 19/3/3 18/3/3
f 13/3/11 17/3/11 18/3/11 14/3/11
f 15/3/12 19/3/12 20/3/12 16/3/12
f 16/3/13 20/3/13 17/3/13 13/3/13
f 14/3/14 18/3/14 19/3/14 15/3/14
f 21/4/10 22/4/10 23/4/10 24/4/10
f 25/4/3 28/4/3 27/4/3 26/4/3
f 21/4/11 25/4/11 26/4/11 22/4/11
f 23/4/12 27/4/12 28/4/12 24/4/12
f 24/4/13 28/4/13 25/4/13 21/4/13
f 22/4/14 26/4/14 27/4/14 23/4/14
