# Blender 5.0.1
# www.blender.org
mtllib rabbit_trap.mtl
o RabbitTrap
v -0.750000 0.174225 0.806325
v 0.750000 0.174225 0.806325
v 0.750000 0.661213 -0.399014
v -0.750000 0.661213 -0.399014
v -0.750000 0.248399 0.836294
v 0.750000 0.248399 0.836294
v 0.750000 0.735388 -0.369045
v -0.750000 0.735388 -0.369045
v -0.750000 -0.446989 0.555339
v -0.680000 -0.446989 0.555339
v -0.680000 0.040000 -0.650000
v -0.750000 0.040000 -0.650000
v -0.750000 0.174225 0.806325
v -0.680000 0.174225 0.806325
v -0.680000 0.661213 -0.399014
v -0.750000 0.661213 -0.399014
v 0.680000 -0.446989 0.555339
v 0.750000 -0.446989 0.555339
v 0.750000 0.040000 -0.650000
v 0.680000 0.040000 -0.650000
v 0.680000 0.174225 0.806325
v 0.750000 0.174225 0.806325
v 0.750000 0.661213 -0.399014
v 0.680000 0.661213 -0.399014
v -0.680000 0.013778 -0.585097
v 0.680000 0.013778 -0.585097
v 0.680000 0.040000 -0.650000
v -0.680000 0.040000 -0.650000
v -0.680000 0.634991 -0.334111
v 0.680000 0.634991 -0.334111
v 0.680000 0.661213 -0.399014
v -0.680000 0.661213 -0.399014
v -0.680000 -0.446989 0.555339
v 0.680000 -0.446989 0.555339
v 0.680000 -0.420766 0.490436
v -0.680000 -0.420766 0.490436
v -0.680000 0.174225 0.806325
v 0.680000 0.174225 0.806325
v 0.680000 0.200447 0.741423
v -0.680000 0.200447 0.741423
v -0.040000 0.000000 0.595339
v 0.040000 0.000000 0.595339
v 0.040000 0.000000 0.515339
v -0.040000 0.000000 0.515339
v -0.040000 -0.396989 0.595339
v 0.040000 -0.396989 0.595339
v 0.040000 -0.396989 0.515339
v -0.040000 -0.396989 0.515339
v 0.280000 0.050000 0.000000
v -0.180000 0.080000 -0.090000
v -0.180000 0.157942 -0.045000
v -0.180000 0.157942 0.045000
v -0.180000 0.080000 0.090000
v -0.180000 0.002058 0.045000
v -0.180000 0.002058 -0.045000
v -0.320000 0.050000 0.080000
v -0.180000 0.050000 0.080000
v -0.180000 0.050000 -0.080000
v -0.320000 0.050000 -0.080000
v -0.320000 0.160000 0.080000
v -0.180000 0.160000 0.080000
v -0.180000 0.160000 -0.080000
v -0.320000 0.160000 -0.080000
v -0.360000 0.120000 0.040000
v -0.220000 0.120000 0.040000
v -0.220000 0.120000 -0.040000
v -0.360000 0.120000 -0.040000
v -0.360000 0.220000 0.040000
v -0.220000 0.220000 0.040000
v -0.220000 0.220000 -0.040000
v -0.360000 0.220000 -0.040000
vn -0.0000 0.9272 0.3746
vn -0.0000 -0.9272 -0.3746
vn -0.0000 0.3746 -0.9272
vn -0.0000 -0.3746 0.9272
vn 1.0000 -0.0000 -0.0000
vn -1.0000 -0.0000 -0.0000
vn -0.0000 1.0000 -0.0000
vn -0.0000 -1.0000 -0.0000
vn -0.0000 -0.0000 1.0000
vn -0.0000 -0.0000 -1.0000
vn 0.1980 0.4901 -0.8489
vn 0.2285 0.9736 -0.0000
vn 0.1980 0.4901 0.8489
vn 0.1356 -0.4954 0.8580
vn 0.1037 -0.9946 -0.0000
vn 0.1356 -0.4954 -0.8580
vt 0.312500 0.687500
vt 0.437500 0.687500
vt 0.062500 0.687500
vt 0.562500 0.312500
vt 0.312500 0.437500
vt 0.187500 0.437500
s 0
usemtl GamePalette
f 2/1/1 4/1/1 1/1/1
f 8/1/2 6/1/2 5/1/2
f 5/1/3 2/1/3 1/1/3
f 7/1/4 4/1/4 3/1/4
f 4/1/5 5/1/5 1/1/5
f 6/1/6 3/1/6 2/1/6
f 10/2/1 12/2/1 9/2/1
f 16/2/2 14/2/2 13/2/2
f 13/2/3 10/2/3 9/2/3
f 15/2/4 12/2/4 11/2/4
f 16/2/5 9/2/5 12/2/5
f 14/2/6 11/2/6 10/2/6
f 18/2/1 20/2/1 17/2/1
f 24/2/2 22/2/2 21/2/2
f 21/2/3 18/2/3 17/2/3
f 23/2/4 20/2/4 19/2/4
f 24/2/5 17/2/5 20/2/5
f 22/2/6 19/2/6 18/2/6
f 26/1/1 28/1/1 25/1/1
f 32/1/2 30/1/2 29/1/2
f 29/1/3 26/1/3 25/1/3
f 31/1/4 28/1/4 27/1/4
f 28/1/5 29/1/5 25/1/5
f 30/1/6 27/1/6 26/1/6
f 34/1/1 36/1/1 33/1/1
f 40/1/2 38/1/2 37/1/2
f 37/1/3 34/1/3 33/1/3
f 39/1/4 36/1/4 35/1/4
f 40/1/5 33/1/5 36/1/5
f 34/1/6 39/1/6 35/1/6
f 42/3/7 44/3/7 41/3/7
f 48/3/8 46/3/8 45/3/8
f 45/3/9 42/3/9 41/3/9
f 47/3/10 44/3/10 43/3/10
f 48/3/6 41/3/6 44/3/6
f 46/3/5 43/3/5 42/3/5
f 49/4/11 50/4/11 51/4/11
f 49/4/12 51/4/12 52/4/12
f 49/4/13 52/4/13 53/4/13
f 49/4/14 53/4/14 54/4/14
f 49/4/15 54/4/15 55/4/15
f 49/4/16 55/4/16 50/4/16
f 54/4/6 52/4/6 50/4/6
f 57/5/7 59/5/7 56/5/7
f 63/5/8 61/5/8 60/5/8
f 60/5/10 57/5/10 56/5/10
f 62/5/9 59/5/9 58/5/9
f 63/5/5 56/5/5 59/5/5
f 61/5/6 58/5/6 57/5/6
f 65/6/7 67/6/7 64/6/7
f 71/6/8 69/6/8 68/6/8
f 68/6/10 65/6/10 64/6/10
f 70/6/9 67/6/9 66/6/9
f 71/6/5 64/6/5 67/6/5
f 69/6/6 66/6/6 65/6/6
f 2/1/1 3/1/1 4/1/1
f 8/1/2 7/1/2 6/1/2
f 5/1/3 6/1/3 2/1/3
f 7/1/4 8/1/4 4/1/4
f 4/1/5 8/1/5 5/1/5
f 6/1/6 7/1/6 3/1/6
f 10/2/1 11/2/1 12/2/1
f 16/2/2 15/2/2 14/2/2
f 13/2/3 14/2/3 10/2/3
f 15/2/4 16/2/4 12/2/4
f 16/2/5 13/2/5 9/2/5
f 14/2/6 15/2/6 11/2/6
f 18/2/1 19/2/1 20/2/1
f 24/2/2 23/2/2 22/2/2
f 21/2/3 22/2/3 18/2/3
f 23/2/4 24/2/4 20/2/4
f 24/2/5 21/2/5 17/2/5
f 22/2/6 23/2/6 19/2/6
f 26/1/1 27/1/1 28/1/1
f 32/1/2 31/1/2 30/1/2
f 29/1/3 30/1/3 26/1/3
f 31/1/4 32/1/4 28/1/4
f 28/1/5 32/1/5 29/1/5
f 30/1/6 31/1/6 27/1/6
f 34/1/1 35/1/1 36/1/1
f 40/1/2 39/1/2 38/1/2
f 37/1/3 38/1/3 34/1/3
f 39/1/4 40/1/4 36/1/4
f 40/1/5 37/1/5 33/1/5
f 34/1/6 38/1/6 39/1/6
f 42/3/7 43/3/7 44/3/7
f 48/3/8 47/3/8 46/3/8
f 45/3/9 46/3/9 42/3/9
f 47/3/10 48/3/10 44/3/10
f 48/3/6 45/3/6 41/3/6
f 46/3/5 47/3/5 43/3/5
f 50/4/6 55/4/6 54/4/6
f 54/4/6 53/4/6 52/4/6
f 52/4/6 51/4/6 50/4/6
f 57/5/7 58/5/7 59/5/7
f 63/5/8 62/5/8 61/5/8
f 60/5/10 61/5/10 57/5/10
f 62/5/9 63/5/9 59/5/9
f 63/5/5 60/5/5 56/5/5
f 61/5/6 62/5/6 58/5/6
f 65/6/7 66/6/7 67/6/7
f 71/6/8 70/6/8 69/6/8
f 68/6/10 69/6/10 65/6/10
f 70/6/9 71/6/9 67/6/9
f 71/6/5 68/6/5 64/6/5
f 69/6/6 70/6/6 66/6/6
