# Blender 5.0.1
# www.blender.org
mtllib spear-2.mtl
o Spear
v 0.000000 -1.150000 0.000000
v 0.022000 -0.960000 0.000000
v 0.011000 -0.960000 -0.019053
v -0.011000 -0.960000 -0.019053
v -0.022000 -0.960000 -0.000000
v -0.011000 -0.960000 0.019053
v 0.011000 -0.960000 0.019053
v 0.038000 -0.850000 0.000000
v 0.019000 -0.850000 -0.032909
v -0.019000 -0.850000 -0.032909
v -0.038000 -0.850000 -0.000000
v -0.019000 -0.850000 0.032909
v 0.019000 -0.850000 0.032909
v 0.050000 -0.800000 0.000000
v 0.025000 -0.800000 -0.043301
v -0.025000 -0.800000 -0.043301
v -0.050000 -0.800000 -0.000000
v -0.025000 -0.800000 0.043301
v 0.025000 -0.800000 0.043301
v 0.042000 -0.750000 0.000000
v 0.021000 -0.750000 -0.036373
v -0.021000 -0.750000 -0.036373
v -0.042000 -0.750000 -0.000000
v -0.021000 -0.750000 0.036373
v 0.021000 -0.750000 0.036373
v 0.042000 -0.520000 0.000000
v 0.021000 -0.520000 -0.036373
v -0.021000 -0.520000 -0.036373
v -0.042000 -0.520000 -0.000000
v -0.021000 -0.520000 0.036373
v 0.021000 -0.520000 0.036373
v 0.052000 -0.480000 0.000000
v 0.026000 -0.480000 -0.045033
v -0.026000 -0.480000 -0.045033
v -0.052000 -0.480000 -0.000000
v -0.026000 -0.480000 0.045033
v 0.026000 -0.480000 0.045033
v 0.046000 -0.440000 0.000000
v 0.023000 -0.440000 -0.039837
v -0.023000 -0.440000 -0.039837
v -0.046000 -0.440000 -0.000000
v -0.023000 -0.440000 0.039837
v 0.023000 -0.440000 0.039837
v 0.047330 -0.220000 -0.012682
v 0.012682 -0.220000 -0.047330
v -0.034648 -0.220000 -0.034648
v -0.047330 -0.220000 0.012682
v -0.012682 -0.220000 0.047330
v 0.034648 -0.220000 0.034648
v 0.047000 0.000000 0.000000
v 0.023500 0.000000 -0.040703
v -0.023500 0.000000 -0.040703
v -0.047000 0.000000 -0.000000
v -0.023500 0.000000 0.040703
v 0.023500 0.000000 0.040703
v 0.047330 0.220000 -0.012682
v 0.012682 0.220000 -0.047330
v -0.034648 0.220000 -0.034648
v -0.047330 0.220000 0.012682
v -0.012682 0.220000 0.047330
v 0.034648 0.220000 0.034648
v 0.046000 0.440000 0.000000
v 0.023000 0.440000 -0.039837
v -0.023000 0.440000 -0.039837
v -0.046000 0.440000 -0.000000
v -0.023000 0.440000 0.039837
v 0.023000 0.440000 0.039837
v 0.052000 0.480000 0.000000
v 0.026000 0.480000 -0.045033
v -0.026000 0.480000 -0.045033
v -0.052000 0.480000 -0.000000
v -0.026000 0.480000 0.045033
v 0.026000 0.480000 0.045033
v 0.042000 0.520000 0.000000
v 0.021000 0.520000 -0.036373
v -0.021000 0.520000 -0.036373
v -0.042000 0.520000 -0.000000
v -0.021000 0.520000 0.036373
v 0.021000 0.520000 0.036373
v 0.040000 1.400000 0.000000
v 0.020000 1.400000 -0.034641
v -0.020000 1.400000 -0.034641
v -0.040000 1.400000 -0.000000
v -0.020000 1.400000 0.034641
v 0.020000 1.400000 0.034641
v 0.038000 2.200000 0.000000
v 0.019000 2.200000 -0.032909
v -0.019000 2.200000 -0.032909
v -0.038000 2.200000 -0.000000
v -0.019000 2.200000 0.032909
v 0.019000 2.200000 0.032909
v 0.036000 2.800000 0.000000
v 0.018000 2.800000 -0.031177
v -0.018000 2.800000 -0.031177
v -0.036000 2.800000 -0.000000
v -0.018000 2.800000 0.031177
v 0.018000 2.800000 0.031177
v 0.045399 2.920000 -0.012164
v 0.012164 2.920000 -0.045399
v -0.033234 2.920000 -0.033234
v -0.045399 2.920000 0.012164
v -0.012164 2.920000 0.045399
v 0.033234 2.920000 0.033234
v 0.049000 3.040000 0.000000
v 0.024500 3.040000 -0.042435
v -0.024500 3.040000 -0.042435
v -0.049000 3.040000 -0.000000
v -0.024500 3.040000 0.042435
v 0.024500 3.040000 0.042435
v 0.043467 3.150000 -0.011647
v 0.011647 3.150000 -0.043467
v -0.031820 3.150000 -0.031820
v -0.043467 3.150000 0.011647
v -0.011647 3.150000 0.043467
v 0.031820 3.150000 0.031820
v 0.054000 3.220000 0.000000
v 0.027000 3.220000 -0.046765
v -0.027000 3.220000 -0.046765
v -0.054000 3.220000 -0.000000
v -0.027000 3.220000 0.046765
v 0.027000 3.220000 0.046765
v 0.050000 3.340000 0.000000
v 0.025000 3.340000 -0.043301
v -0.025000 3.340000 -0.043301
v -0.050000 3.340000 -0.000000
v -0.025000 3.340000 0.043301
v 0.025000 3.340000 0.043301
v 0.042000 3.450000 0.000000
v 0.021000 3.450000 -0.036373
v -0.021000 3.450000 -0.036373
v -0.042000 3.450000 -0.000000
v -0.021000 3.450000 0.036373
v 0.021000 3.450000 0.036373
v -0.042000 3.240000 -0.010000
v -0.130000 3.300000 -0.006000
v -0.160000 3.380000 0.000000
v -0.070000 3.420000 0.000000
v -0.042000 3.240000 0.010000
v -0.130000 3.300000 0.006000
v 0.042000 3.240000 -0.010000
v 0.130000 3.300000 -0.006000
v 0.160000 3.380000 0.000000
v 0.070000 3.420000 0.000000
v 0.042000 3.240000 0.010000
v 0.130000 3.300000 0.006000
v 0.000000 3.450000 -0.032000
v 0.000000 3.450000 0.032000
v -0.038000 3.450000 0.000000
v 0.038000 3.450000 0.000000
v 0.000000 3.650000 -0.042000
v 0.000000 3.650000 0.042000
v -0.100000 3.650000 0.000000
v 0.100000 3.650000 0.000000
v 0.000000 3.880000 -0.040000
v 0.000000 3.880000 0.040000
v -0.088000 3.880000 0.000000
v 0.088000 3.880000 0.000000
v 0.000000 4.220000 -0.036000
v 0.000000 4.220000 0.036000
v -0.165000 4.220000 0.000000
v 0.165000 4.220000 0.000000
v 0.000000 4.600000 -0.022000
v 0.000000 4.600000 0.022000
v -0.075000 4.600000 0.000000
v 0.075000 4.600000 0.000000
v 0.000000 4.920000 0.000000
vn 0.8617 -0.0998 -0.4975
vn -0.0000 -0.0998 -0.9950
vn -0.8617 -0.0998 -0.4975
vn -0.8617 -0.0998 0.4975
vn -0.0000 -0.0998 0.9950
vn 0.8617 -0.0998 0.4975
vn 0.8592 -0.1250 -0.4961
vn -0.0000 -0.1250 -0.9922
vn -0.8592 -0.1250 -0.4961
vn -0.8592 -0.1250 0.4961
vn -0.0000 -0.1250 0.9922
vn 0.8592 -0.1250 0.4961
vn 0.8479 -0.2035 -0.4895
vn -0.0000 -0.2035 -0.9791
vn -0.8479 -0.2035 -0.4895
vn -0.8479 -0.2035 0.4895
vn -0.0000 -0.2035 0.9791
vn 0.8479 -0.2035 0.4895
vn 0.8578 0.1373 -0.4953
vn -0.0000 0.1373 -0.9905
vn -0.8578 0.1373 -0.4953
vn -0.8578 0.1373 0.4953
vn -0.0000 0.1373 0.9905
vn 0.8578 0.1373 0.4953
vn 0.8660 -0.0000 -0.5000
vn -0.0000 -0.0000 -1.0000
vn -0.8660 -0.0000 -0.5000
vn -0.8660 -0.0000 0.5000
vn -0.0000 -0.0000 1.0000
vn 0.8660 -0.0000 0.5000
vn 0.8464 -0.2116 -0.4887
vn -0.0000 -0.2116 -0.9774
vn -0.8464 -0.2116 -0.4887
vn -0.8464 -0.2116 0.4887
vn -0.0000 -0.2116 0.9774
vn 0.8464 -0.2116 0.4887
vn 0.8588 0.1288 -0.4958
vn -0.0000 0.1288 -0.9917
vn -0.8588 0.1288 -0.4958
vn -0.8588 0.1288 0.4958
vn -0.0000 0.1288 0.9917
vn 0.8588 0.1288 0.4958
vn 0.7908 -0.0119 -0.6120
vn -0.1346 -0.0119 -0.9908
vn -0.9254 -0.0119 -0.3788
vn -0.7908 -0.0119 0.6120
vn 0.1346 -0.0119 0.9908
vn 0.9254 -0.0119 0.3788
vn 0.7917 0.0079 -0.6109
vn -0.1332 0.0079 -0.9911
vn -0.9249 0.0079 -0.3801
vn -0.7917 0.0079 0.6109
vn 0.1332 0.0079 0.9911
vn 0.9249 0.0079 0.3801
vn 0.7917 -0.0079 -0.6109
vn -0.1332 -0.0079 -0.9911
vn -0.9249 -0.0079 -0.3801
vn -0.7917 -0.0079 0.6109
vn 0.1332 -0.0079 0.9911
vn 0.9249 -0.0079 0.3801
vn 0.7908 0.0119 -0.6120
vn -0.1346 0.0119 -0.9908
vn -0.9254 0.0119 -0.3788
vn -0.7908 0.0119 0.6120
vn 0.1346 0.0119 0.9908
vn 0.9254 0.0119 0.3788
vn 0.8588 -0.1288 -0.4958
vn -0.0000 -0.1288 -0.9917
vn -0.8588 -0.1288 -0.4958
vn -0.8588 -0.1288 0.4958
vn -0.0000 -0.1288 0.9917
vn 0.8588 -0.1288 0.4958
vn 0.8464 0.2116 -0.4887
vn -0.0000 0.2116 -0.9774
vn -0.8464 0.2116 -0.4887
vn -0.8464 0.2116 0.4887
vn -0.0000 0.2116 0.9774
vn 0.8464 0.2116 0.4887
vn 0.8660 0.0020 -0.5000
vn -0.0000 0.0020 -1.0000
vn -0.8660 0.0020 -0.5000
vn -0.8660 0.0020 0.5000
vn -0.0000 0.0020 1.0000
vn 0.8660 0.0020 0.5000
vn 0.8660 0.0022 -0.5000
vn -0.0000 0.0022 -1.0000
vn -0.8660 0.0022 -0.5000
vn -0.8660 0.0022 0.5000
vn -0.0000 0.0022 1.0000
vn 0.8660 0.0022 0.5000
vn 0.8660 0.0029 -0.5000
vn -0.0000 0.0029 -1.0000
vn -0.8660 0.0029 -0.5000
vn -0.8660 0.0029 0.5000
vn -0.0000 0.0029 1.0000
vn 0.8660 0.0029 0.5000
vn 0.7801 -0.0798 -0.6205
vn -0.1473 -0.0798 -0.9859
vn -0.9274 -0.0798 -0.3653
vn -0.7801 -0.0798 0.6205
vn 0.1473 -0.0798 0.9859
vn 0.9274 -0.0798 0.3653
vn 0.7949 -0.0146 -0.6065
vn -0.1278 -0.0146 -0.9917
vn -0.9227 -0.0146 -0.3852
vn -0.7949 -0.0146 0.6065
vn 0.1278 -0.0146 0.9917
vn 0.9227 -0.0146 0.3852
vn 0.7964 0.0317 -0.6040
vn -0.1249 0.0317 -0.9917
vn -0.9213 0.0317 -0.3877
vn -0.7964 0.0317 0.6040
vn 0.1249 0.0317 0.9917
vn 0.9213 0.0317 0.3877
vn 0.7956 -0.1116 -0.5955
vn -0.1179 -0.1116 -0.9867
vn -0.9135 -0.1116 -0.3913
vn -0.7956 -0.1116 0.5955
vn 0.1179 -0.1116 0.9867
vn 0.9135 -0.1116 0.3913
vn 0.8657 0.0289 -0.4998
vn -0.0000 0.0289 -0.9996
vn -0.8657 0.0289 -0.4998
vn -0.8657 0.0289 0.4998
vn -0.0000 0.0289 0.9996
vn 0.8657 0.0289 0.4998
vn 0.8643 0.0629 -0.4990
vn -0.0000 0.0629 -0.9980
vn -0.8643 0.0629 -0.4990
vn -0.8643 0.0629 0.4990
vn -0.0000 0.0629 0.9980
vn 0.8643 0.0629 0.4990
vn -0.0159 0.0579 -0.9982
vn -0.0159 0.0579 0.9982
vn -0.5633 -0.8262 -0.0000
vn 0.0159 0.0579 -0.9982
vn 0.0159 0.0579 0.9982
vn 0.5633 -0.8262 -0.0000
vn -0.4704 -0.0949 -0.8773
vn 0.4704 -0.0949 -0.8773
vn -0.3998 0.0144 -0.9165
vn 0.3998 0.0144 -0.9165
vn -0.2876 -0.0269 -0.9574
vn 0.2876 -0.0269 -0.9574
vn -0.2347 0.0457 -0.9710
vn 0.2347 0.0457 -0.9710
vn -0.2809 0.0658 -0.9575
vn 0.2809 0.0658 -0.9575
vn -0.4704 -0.0949 0.8773
vn 0.4704 -0.0949 0.8773
vn -0.3998 0.0144 0.9165
vn 0.3998 0.0144 0.9165
vn -0.2876 -0.0269 0.9574
vn 0.2876 -0.0269 0.9574
vn -0.2347 0.0457 0.9710
vn 0.2347 0.0457 0.9710
vn -0.2809 0.0658 0.9575
vn 0.2809 0.0658 0.9575
vn -0.0000 1.0000 -0.0000
vt 0.062500 0.812500
vt 0.562500 0.812500
vt 0.312500 0.687500
vt 0.812500 0.312500
vt 0.562500 0.562500
vt 0.062500 0.562500
vt 0.187500 0.812500
s 0
usemtl GamePalette
f 1/1/1 3/1/1 2/1/1
f 1/1/2 4/1/2 3/1/2
f 1/1/3 5/1/3 4/1/3
f 1/1/4 6/1/4 5/1/4
f 1/1/5 7/1/5 6/1/5
f 1/1/6 2/1/6 7/1/6
f 2/1/7 3/1/7 9/1/7 8/1/7
f 3/1/8 4/1/8 10/1/8 9/1/8
f 4/1/9 5/1/9 11/1/9 10/1/9
f 5/1/10 6/1/10 12/1/10 11/1/10
f 6/1/11 7/1/11 13/1/11 12/1/11
f 7/1/12 2/1/12 8/1/12 13/1/12
f 8/2/13 9/2/13 15/2/13 14/2/13
f 9/2/14 10/2/14 16/2/14 15/2/14
f 10/2/15 11/2/15 17/2/15 16/2/15
f 11/2/16 12/2/16 18/2/16 17/2/16
f 12/2/17 13/2/17 19/2/17 18/2/17
f 13/2/18 8/2/18 14/2/18 19/2/18
f 14/2/19 15/2/19 21/2/19 20/2/19
f 15/2/20 16/2/20 22/2/20 21/2/20
f 16/2/21 17/2/21 23/2/21 22/2/21
f 17/2/22 18/2/22 24/2/22 23/2/22
f 18/2/23 19/2/23 25/2/23 24/2/23
f 19/2/24 14/2/24 20/2/24 25/2/24
f 20/3/25 21/3/25 27/3/25 26/3/25
f 21/3/26 22/3/26 28/3/26 27/3/26
f 22/3/27 23/3/27 29/3/27 28/3/27
f 23/3/28 24/3/28 30/3/28 29/3/28
f 24/3/29 25/3/29 31/3/29 30/3/29
f 25/3/30 20/3/30 26/3/30 31/3/30
f 26/4/31 27/4/31 33/4/31 32/4/31
f 27/4/32 28/4/32 34/4/32 33/4/32
f 28/4/33 29/4/33 35/4/33 34/4/33
f 29/4/34 30/4/34 36/4/34 35/4/34
f 30/4/35 31/4/35 37/4/35 36/4/35
f 31/4/36 26/4/36 32/4/36 37/4/36
f 32/4/37 33/4/37 39/4/37 38/4/37
f 33/4/38 34/4/38 40/4/38 39/4/38
f 34/4/39 35/4/39 41/4/39 40/4/39
f 35/4/40 36/4/40 42/4/40 41/4/40
f 36/4/41 37/4/41 43/4/41 42/4/41
f 37/4/42 32/4/42 38/4/42 43/4/42
f 38/5/43 39/5/43 45/5/43 44/5/43
f 39/5/44 40/5/44 46/5/44 45/5/44
f 40/5/45 41/5/45 47/5/45 46/5/45
f 41/5/46 42/5/46 48/5/46 47/5/46
f 42/5/47 43/5/47 49/5/47 48/5/47
f 43/5/48 38/5/48 44/5/48 49/5/48
f 44/5/49 45/5/49 51/5/49 50/5/49
f 45/5/50 46/5/50 52/5/50 51/5/50
f 46/5/51 47/5/51 53/5/51 52/5/51
f 47/5/52 48/5/52 54/5/52 53/5/52
f 48/5/53 49/5/53 55/5/53 54/5/53
f 49/5/54 44/5/54 50/5/54 55/5/54
f 50/5/55 51/5/55 57/5/55 56/5/55
f 51/5/56 52/5/56 58/5/56 57/5/56
f 52/5/57 53/5/57 59/5/57 58/5/57
f 53/5/58 54/5/58 60/5/58 59/5/58
f 54/5/59 55/5/59 61/5/59 60/5/59
f 55/5/60 50/5/60 56/5/60 61/5/60
f 56/5/61 57/5/61 63/5/61 62/5/61
f 57/5/62 58/5/62 64/5/62 63/5/62
f 58/5/63 59/5/63 65/5/63 64/5/63
f 59/5/64 60/5/64 66/5/64 65/5/64
f 60/5/65 61/5/65 67/5/65 66/5/65
f 61/5/66 56/5/66 62/5/66 67/5/66
f 62/4/67 63/4/67 69/4/67 68/4/67
f 63/4/68 64/4/68 70/4/68 69/4/68
f 64/4/69 65/4/69 71/4/69 70/4/69
f 65/4/70 66/4/70 72/4/70 71/4/70
f 66/4/71 67/4/71 73/4/71 72/4/71
f 67/4/72 62/4/72 68/4/72 73/4/72
f 68/4/73 69/4/73 75/4/73 74/4/73
f 69/4/74 70/4/74 76/4/74 75/4/74
f 70/4/75 71/4/75 77/4/75 76/4/75
f 71/4/76 72/4/76 78/4/76 77/4/76
f 72/4/77 73/4/77 79/4/77 78/4/77
f 73/4/78 68/4/78 74/4/78 79/4/78
f 74/3/79 75/3/79 81/3/79 80/3/79
f 75/3/80 76/3/80 82/3/80 81/3/80
f 76/3/81 77/3/81 83/3/81 82/3/81
f 77/3/82 78/3/82 84/3/82 83/3/82
f 78/3/83 79/3/83 85/3/83 84/3/83
f 79/3/84 74/3/84 80/3/84 85/3/84
f 80/3/85 81/3/85 87/3/85 86/3/85
f 81/3/86 82/3/86 88/3/86 87/3/86
f 82/3/87 83/3/87 89/3/87 88/3/87
f 83/3/88 84/3/88 90/3/88 89/3/88
f 84/3/89 85/3/89 91/3/89 90/3/89
f 85/3/90 80/3/90 86/3/90 91/3/90
f 86/3/91 87/3/91 93/3/91 92/3/91
f 87/3/92 88/3/92 94/3/92 93/3/92
f 88/3/93 89/3/93 95/3/93 94/3/93
f 89/3/94 90/3/94 96/3/94 95/3/94
f 90/3/95 91/3/95 97/3/95 96/3/95
f 91/3/96 86/3/96 92/3/96 97/3/96
f 92/6/97 93/6/97 99/6/97 98/6/97
f 93/6/98 94/6/98 100/6/98 99/6/98
f 94/6/99 95/6/99 101/6/99 100/6/99
f 95/6/100 96/6/100 102/6/100 101/6/100
f 96/6/101 97/6/101 103/6/101 102/6/101
f 97/6/102 92/6/102 98/6/102 103/6/102
f 98/6/103 99/6/103 105/6/103 104/6/103
f 99/6/104 100/6/104 106/6/104 105/6/104
f 100/6/105 101/6/105 107/6/105 106/6/105
f 101/6/106 102/6/106 108/6/106 107/6/106
f 102/6/107 103/6/107 109/6/107 108/6/107
f 103/6/108 98/6/108 104/6/108 109/6/108
f 104/6/109 105/6/109 111/6/109 110/6/109
f 105/6/110 106/6/110 112/6/110 111/6/110
f 106/6/111 107/6/111 113/6/111 112/6/111
f 107/6/112 108/6/112 114/6/112 113/6/112
f 108/6/113 109/6/113 115/6/113 114/6/113
f 109/6/114 104/6/114 110/6/114 115/6/114
f 110/2/115 111/2/115 117/2/115 116/2/115
f 111/2/116 112/2/116 118/2/116 117/2/116
f 112/2/117 113/2/117 119/2/117 118/2/117
f 113/2/118 114/2/118 120/2/118 119/2/118
f 114/2/119 115/2/119 121/2/119 120/2/119
f 115/2/120 110/2/120 116/2/120 121/2/120
f 116/2/121 117/2/121 123/2/121 122/2/121
f 117/2/122 118/2/122 124/2/122 123/2/122
f 118/2/123 119/2/123 125/2/123 124/2/123
f 119/2/124 120/2/124 126/2/124 125/2/124
f 120/2/125 121/2/125 127/2/125 126/2/125
f 121/2/126 116/2/126 122/2/126 127/2/126
f 122/2/127 123/2/127 129/2/127 128/2/127
f 123/2/128 124/2/128 130/2/128 129/2/128
f 124/2/129 125/2/129 131/2/129 130/2/129
f 125/2/130 126/2/130 132/2/130 131/2/130
f 126/2/131 127/2/131 133/2/131 132/2/131
f 127/2/132 122/2/132 128/2/132 133/2/132
f 134/4/133 135/4/133 136/4/133 137/4/133
f 137/4/134 136/4/134 139/4/134 138/4/134
f 134/4/135 138/4/135 139/4/135 135/4/135
f 143/4/136 142/4/136 141/4/136 140/4/136
f 144/4/137 145/4/137 142/4/137 143/4/137
f 141/4/138 145/4/138 144/4/138 140/4/138
f 146/1/139 148/1/139 152/1/139 150/1/139
f 146/7/140 150/7/140 153/7/140 149/7/140
f 150/1/141 152/1/141 156/1/141 154/1/141
f 150/7/142 154/7/142 157/7/142 153/7/142
f 154/1/143 156/1/143 160/1/143 158/1/143
f 154/7/144 158/7/144 161/7/144 157/7/144
f 158/1/145 160/1/145 164/1/145 162/1/145
f 158/7/146 162/7/146 165/7/146 161/7/146
f 162/1/147 164/1/147 166/1/147
f 162/7/148 166/7/148 165/7/148
f 147/1/149 151/1/149 152/1/149 148/1/149
f 147/7/150 149/7/150 153/7/150 151/7/150
f 151/1/151 155/1/151 156/1/151 152/1/151
f 151/7/152 153/7/152 157/7/152 155/7/152
f 155/1/153 159/1/153 160/1/153 156/1/153
f 155/7/154 157/7/154 161/7/154 159/7/154
f 159/1/155 163/1/155 164/1/155 160/1/155
f 159/7/156 161/7/156 165/7/156 163/7/156
f 163/1/157 166/1/157 164/1/157
f 163/7/158 165/7/158 166/7/158
f 128/2/159 129/2/159 146/2/159 148/2/159
f 129/2/159 130/2/159 149/2/159 146/2/159
f 130/2/159 131/2/159 147/2/159 149/2/159
f 131/2/159 132/2/159 148/2/159 147/2/159
f 132/2/159 133/2/159 146/2/159 148/2/159
f 133/2/159 128/2/159 149/2/159 146/2/159
