# Blender 5.0.1
# www.blender.org
mtllib spear.mtl
o HuntingSpear
v 0.000000 -1.400000 -0.048000
v 0.000000 2.400000 -0.048000
v 0.033941 -1.400000 -0.033941
v 0.033941 2.400000 -0.033941
v 0.048000 -1.400000 0.000000
v 0.048000 2.400000 0.000000
v 0.033941 -1.400000 0.033941
v 0.033941 2.400000 0.033941
v 0.000000 -1.400000 0.048000
v 0.000000 2.400000 0.048000
v -0.033941 -1.400000 0.033941
v -0.033941 2.400000 0.033941
v -0.048000 -1.400000 0.000000
v -0.048000 2.400000 0.000000
v -0.033941 -1.400000 -0.033941
v -0.033941 2.400000 -0.033941
v 0.000000 -0.375000 -0.058000
v 0.000000 0.375000 -0.058000
v 0.041012 -0.375000 -0.041012
v 0.041012 0.375000 -0.041012
v 0.058000 -0.375000 0.000000
v 0.058000 0.375000 0.000000
v 0.041012 -0.375000 0.041012
v 0.041012 0.375000 0.041012
v 0.000000 -0.375000 0.058000
v 0.000000 0.375000 0.058000
v -0.041012 -0.375000 0.041012
v -0.041012 0.375000 0.041012
v -0.058000 -0.375000 0.000000
v -0.058000 0.375000 0.000000
v -0.041012 -0.375000 -0.041012
v -0.041012 0.375000 -0.041012
v 0.074000 -0.350000 0.000000
v 0.062000 -0.338000 0.000000
v 0.050000 -0.350000 0.000000
v 0.062000 -0.362000 0.000000
v 0.052326 -0.350000 -0.052326
v 0.043841 -0.338000 -0.043841
v 0.035355 -0.350000 -0.035355
v 0.043841 -0.362000 -0.043841
v 0.000000 -0.350000 -0.074000
v 0.000000 -0.338000 -0.062000
v 0.000000 -0.350000 -0.050000
v 0.000000 -0.362000 -0.062000
v -0.052326 -0.350000 -0.052326
v -0.043841 -0.338000 -0.043841
v -0.035355 -0.350000 -0.035355
v -0.043841 -0.362000 -0.043841
v -0.074000 -0.350000 -0.000000
v -0.062000 -0.338000 -0.000000
v -0.050000 -0.350000 -0.000000
v -0.062000 -0.362000 -0.000000
v -0.052326 -0.350000 0.052326
v -0.043841 -0.338000 0.043841
v -0.035355 -0.350000 0.035355
v -0.043841 -0.362000 0.043841
v 0.000000 -0.350000 0.074000
v 0.000000 -0.338000 0.062000
v 0.000000 -0.350000 0.050000
v 0.000000 -0.362000 0.062000
v 0.052326 -0.350000 0.052326
v 0.043841 -0.338000 0.043841
v 0.035355 -0.350000 0.035355
v 0.043841 -0.362000 0.043841
v 0.074000 0.350000 0.000000
v 0.062000 0.362000 0.000000
v 0.050000 0.350000 0.000000
v 0.062000 0.338000 0.000000
v 0.052326 0.350000 -0.052326
v 0.043841 0.362000 -0.043841
v 0.035355 0.350000 -0.035355
v 0.043841 0.338000 -0.043841
v 0.000000 0.350000 -0.074000
v 0.000000 0.362000 -0.062000
v 0.000000 0.350000 -0.050000
v 0.000000 0.338000 -0.062000
v -0.052326 0.350000 -0.052326
v -0.043841 0.362000 -0.043841
v -0.035355 0.350000 -0.035355
v -0.043841 0.338000 -0.043841
v -0.074000 0.350000 -0.000000
v -0.062000 0.362000 -0.000000
v -0.050000 0.350000 -0.000000
v -0.062000 0.338000 -0.000000
v -0.052326 0.350000 0.052326
v -0.043841 0.362000 0.043841
v -0.035355 0.350000 0.035355
v -0.043841 0.338000 0.043841
v 0.000000 0.350000 0.074000
v 0.000000 0.362000 0.062000
v 0.000000 0.350000 0.050000
v 0.000000 0.338000 0.062000
v 0.052326 0.350000 0.052326
v 0.043841 0.362000 0.043841
v 0.035355 0.350000 0.035355
v 0.043841 0.338000 0.043841
v 0.000000 2.175000 -0.062000
v 0.000000 2.525000 -0.062000
v 0.043841 2.175000 -0.043841
v 0.043841 2.525000 -0.043841
v 0.062000 2.175000 0.000000
v 0.062000 2.525000 0.000000
v 0.043841 2.175000 0.043841
v 0.043841 2.525000 0.043841
v 0.000000 2.175000 0.062000
v 0.000000 2.525000 0.062000
v -0.043841 2.175000 0.043841
v -0.043841 2.525000 0.043841
v -0.062000 2.175000 0.000000
v -0.062000 2.525000 0.000000
v -0.043841 2.175000 -0.043841
v -0.043841 2.525000 -0.043841
v 0.000000 3.750000 0.000000
v -0.240000 2.950000 0.000000
v 0.240000 2.950000 0.000000
v 0.000000 2.950000 -0.045000
v 0.000000 2.950000 0.045000
v -0.120000 2.450000 0.000000
v 0.120000 2.450000 0.000000
v 0.000000 2.450000 -0.035000
v 0.000000 2.450000 0.035000
v 0.000000 2.350000 0.000000
v 0.000000 -1.450000 -0.055000
v 0.000000 -1.250000 -0.055000
v 0.038891 -1.450000 -0.038891
v 0.038891 -1.250000 -0.038891
v 0.055000 -1.450000 0.000000
v 0.055000 -1.250000 0.000000
v 0.038891 -1.450000 0.038891
v 0.038891 -1.250000 0.038891
v 0.000000 -1.450000 0.055000
v 0.000000 -1.250000 0.055000
v -0.038891 -1.450000 0.038891
v -0.038891 -1.250000 0.038891
v -0.055000 -1.450000 0.000000
v -0.055000 -1.250000 0.000000
v -0.038891 -1.450000 -0.038891
v -0.038891 -1.250000 -0.038891
vn 0.3827 -0.0000 -0.9239
vn 0.9239 -0.0000 -0.3827
vn 0.9239 -0.0000 0.3827
vn 0.3827 -0.0000 0.9239
vn -0.3827 -0.0000 0.9239
vn -0.9239 -0.0000 0.3827
vn -0.0000 1.0000 -0.0000
vn -0.9239 -0.0000 -0.3827
vn -0.3827 -0.0000 -0.9239
vn -0.0000 -1.0000 -0.0000
vn 0.6786 0.6786 -0.2811
vn -0.6786 0.6786 0.2811
vn -0.6786 -0.6786 0.2811
vn 0.6786 -0.6786 -0.2811
vn 0.2811 0.6786 -0.6786
vn -0.2811 0.6786 0.6786
vn -0.2811 -0.6786 0.6786
vn 0.2811 -0.6786 -0.6786
vn -0.2811 0.6786 -0.6786
vn 0.2811 0.6786 0.6786
vn 0.2811 -0.6786 0.6786
vn -0.2811 -0.6786 -0.6786
vn -0.6786 0.6786 -0.2811
vn 0.6786 0.6786 0.2811
vn 0.6786 -0.6786 0.2811
vn -0.6786 -0.6786 -0.2811
vn 0.1840 -0.0552 0.9814
vn -0.1840 -0.0552 0.9814
vn -0.1840 -0.0552 -0.9814
vn 0.1840 -0.0552 -0.9814
vn 0.2168 0.0358 0.9756
vn -0.2168 0.0358 0.9756
vn -0.2168 0.0358 -0.9756
vn 0.2168 0.0358 -0.9756
vn 0.2654 0.3185 0.9100
vn -0.2654 0.3185 0.9100
vn -0.2654 0.3185 -0.9100
vn 0.2654 0.3185 -0.9100
vt 1.000000 0.500000
vt 1.000000 1.000000
vt 0.875000 1.000000
vt 0.875000 0.500000
vt 0.750000 1.000000
vt 0.750000 0.500000
vt 0.625000 1.000000
vt 0.625000 0.500000
vt 0.500000 1.000000
vt 0.500000 0.500000
vt 0.375000 1.000000
vt 0.375000 0.500000
vt 0.250000 1.000000
vt 0.250000 0.500000
vt 0.419706 0.419706
vt 0.250000 0.490000
vt 0.080294 0.419706
vt 0.010000 0.250000
vt 0.080294 0.080294
vt 0.250000 0.010000
vt 0.419706 0.080294
vt 0.490000 0.250000
vt 0.125000 1.000000
vt 0.125000 0.500000
vt 0.000000 1.000000
vt 0.000000 0.500000
vt 0.750000 0.490000
vt 0.919706 0.419706
vt 0.990000 0.250000
vt 0.919706 0.080294
vt 0.750000 0.010000
vt 0.580294 0.080294
vt 0.510000 0.250000
vt 0.580294 0.419706
vt 0.250000 0.490000
vt 0.010000 0.250000
vt 0.250000 0.010000
vt 0.490000 0.250000
vt 0.750000 0.490000
vt 0.750000 0.010000
vt 0.625000 0.750000
vt 0.500000 0.750000
vt 0.500000 0.000000
vt 0.625000 0.000000
vt 0.625000 0.250000
vt 0.500000 0.250000
vt 0.750000 0.750000
vt 0.750000 0.000000
vt 0.750000 0.250000
vt 0.875000 0.750000
vt 0.875000 0.000000
vt 0.875000 0.250000
vt 1.000000 0.750000
vt 1.000000 0.000000
vt 1.000000 0.250000
vt 0.125000 0.750000
vt 0.000000 0.750000
vt 0.000000 0.000000
vt 0.125000 0.000000
vt 0.125000 0.250000
vt 0.000000 0.250000
vt 0.250000 0.750000
vt 0.250000 0.000000
vt 0.250000 0.250000
vt 0.375000 0.750000
vt 0.375000 0.000000
vt 0.375000 0.250000
vt 0.080294 0.419706
vt 0.010000 0.250000
vt 0.080294 0.080294
vt 0.250000 0.010000
vt 0.419706 0.080294
vt 0.919706 0.080294
vt 0.750000 0.010000
vt 0.580294 0.080294
s 0
usemtl Mat_SpearWood
f 1/1/1 2/2/1 4/3/1 3/4/1
f 3/4/2 4/3/2 6/5/2 5/6/2
f 5/6/3 6/5/3 8/7/3 7/8/3
f 7/8/4 8/7/4 10/9/4 9/10/4
f 9/10/5 10/9/5 12/11/5 11/12/5
f 11/12/6 12/11/6 14/13/6 13/14/6
f 4/15/7 2/16/7 16/17/7 14/18/7 12/19/7 10/20/7 8/21/7 6/22/7
f 13/14/8 14/13/8 16/23/8 15/24/8
f 15/24/9 16/23/9 2/25/9 1/26/9
f 1/27/10 3/28/10 5/29/10 7/30/10 9/31/10 11/32/10 13/33/10 15/34/10
usemtl Mat_SpearLeather
f 17/1/1 18/2/1 20/3/1 19/4/1
f 19/4/2 20/3/2 22/5/2 21/6/2
f 21/6/3 22/5/3 24/7/3 23/8/3
f 23/8/4 24/7/4 26/9/4 25/10/4
f 25/10/5 26/9/5 28/11/5 27/12/5
f 27/12/6 28/11/6 30/13/6 29/14/6
f 20/15/7 18/35/7 32/17/7 30/36/7 28/19/7 26/37/7 24/21/7 22/38/7
f 29/14/8 30/13/8 32/23/8 31/24/8
f 31/24/9 32/23/9 18/25/9 17/26/9
f 17/39/10 19/28/10 21/29/10 23/30/10 25/40/10 27/32/10 29/33/10 31/34/10
f 33/10/11 37/8/11 38/41/11 34/42/11
f 34/42/12 38/41/12 39/7/12 35/9/12
f 35/43/13 39/44/13 40/45/13 36/46/13
f 36/46/14 40/45/14 37/8/14 33/10/14
f 37/8/15 41/6/15 42/47/15 38/41/15
f 38/41/16 42/47/16 43/5/16 39/7/16
f 39/44/17 43/48/17 44/49/17 40/45/17
f 40/45/18 44/49/18 41/6/18 37/8/18
f 41/6/19 45/4/19 46/50/19 42/47/19
f 42/47/20 46/50/20 47/3/20 43/5/20
f 43/48/21 47/51/21 48/52/21 44/49/21
f 44/49/22 48/52/22 45/4/22 41/6/22
f 45/4/23 49/1/23 50/53/23 46/50/23
f 46/50/24 50/53/24 51/2/24 47/3/24
f 47/51/25 51/54/25 52/55/25 48/52/25
f 48/52/26 52/55/26 49/1/26 45/4/26
f 49/26/12 53/24/12 54/56/12 50/57/12
f 50/57/11 54/56/11 55/23/11 51/25/11
f 51/58/14 55/59/14 56/60/14 52/61/14
f 52/61/13 56/60/13 53/24/13 49/26/13
f 53/24/16 57/14/16 58/62/16 54/56/16
f 54/56/15 58/62/15 59/13/15 55/23/15
f 55/59/18 59/63/18 60/64/18 56/60/18
f 56/60/17 60/64/17 57/14/17 53/24/17
f 57/14/20 61/12/20 62/65/20 58/62/20
f 58/62/19 62/65/19 63/11/19 59/13/19
f 59/63/22 63/66/22 64/67/22 60/64/22
f 60/64/21 64/67/21 61/12/21 57/14/21
f 61/12/24 33/10/24 34/42/24 62/65/24
f 62/65/23 34/42/23 35/9/23 63/11/23
f 63/66/26 35/43/26 36/46/26 64/67/26
f 64/67/25 36/46/25 33/10/25 61/12/25
f 65/10/11 69/8/11 70/41/11 66/42/11
f 66/42/12 70/41/12 71/7/12 67/9/12
f 67/43/13 71/44/13 72/45/13 68/46/13
f 68/46/14 72/45/14 69/8/14 65/10/14
f 69/8/15 73/6/15 74/47/15 70/41/15
f 70/41/16 74/47/16 75/5/16 71/7/16
f 71/44/17 75/48/17 76/49/17 72/45/17
f 72/45/18 76/49/18 73/6/18 69/8/18
f 73/6/19 77/4/19 78/50/19 74/47/19
f 74/47/20 78/50/20 79/3/20 75/5/20
f 75/48/21 79/51/21 80/52/21 76/49/21
f 76/49/22 80/52/22 77/4/22 73/6/22
f 77/4/23 81/1/23 82/53/23 78/50/23
f 78/50/24 82/53/24 83/2/24 79/3/24
f 79/51/25 83/54/25 84/55/25 80/52/25
f 80/52/26 84/55/26 81/1/26 77/4/26
f 81/26/12 85/24/12 86/56/12 82/57/12
f 82/57/11 86/56/11 87/23/11 83/25/11
f 83/58/14 87/59/14 88/60/14 84/61/14
f 84/61/13 88/60/13 85/24/13 81/26/13
f 85/24/16 89/14/16 90/62/16 86/56/16
f 86/56/15 90/62/15 91/13/15 87/23/15
f 87/59/18 91/63/18 92/64/18 88/60/18
f 88/60/17 92/64/17 89/14/17 85/24/17
f 89/14/20 93/12/20 94/65/20 90/62/20
f 90/62/19 94/65/19 95/11/19 91/13/19
f 91/63/22 95/66/22 96/67/22 92/64/22
f 92/64/21 96/67/21 93/12/21 89/14/21
f 93/12/24 65/10/24 66/42/24 94/65/24
f 94/65/23 66/42/23 67/9/23 95/11/23
f 95/66/26 67/43/26 68/46/26 96/67/26
f 96/67/25 68/46/25 65/10/25 93/12/25
f 123/1/1 124/2/1 126/3/1 125/4/1
f 125/4/2 126/3/2 128/5/2 127/6/2
f 127/6/3 128/5/3 130/7/3 129/8/3
f 129/8/4 130/7/4 132/9/4 131/10/4
f 131/10/5 132/9/5 134/11/5 133/12/5
f 133/12/6 134/11/6 136/13/6 135/14/6
f 126/15/7 124/16/7 138/68/7 136/18/7 134/70/7 132/20/7 130/72/7 128/22/7
f 135/14/8 136/13/8 138/23/8 137/24/8
f 137/24/9 138/23/9 124/25/9 123/26/9
f 123/27/10 125/28/10 127/29/10 129/73/10 131/31/10 133/75/10 135/33/10 137/34/10
usemtl Mat_SpearCord
f 97/1/1 98/2/1 100/3/1 99/4/1
f 99/4/2 100/3/2 102/5/2 101/6/2
f 101/6/3 102/5/3 104/7/3 103/8/3
f 103/8/4 104/7/4 106/9/4 105/10/4
f 105/10/5 106/9/5 108/11/5 107/12/5
f 107/12/6 108/11/6 110/13/6 109/14/6
f 100/15/7 98/16/7 112/68/7 110/69/7 108/70/7 106/71/7 104/72/7 102/22/7
f 109/14/8 110/13/8 112/23/8 111/24/8
f 111/24/9 112/23/9 98/25/9 97/26/9
f 97/27/10 99/28/10 101/29/10 103/73/10 105/74/10 107/75/10 109/33/10 111/34/10
usemtl Mat_SpearBlade
f 113/58/27 114/58/27 116/58/27
f 113/58/28 116/58/28 115/58/28
f 113/58/29 115/58/29 117/58/29
f 113/58/30 117/58/30 114/58/30
f 114/58/31 118/58/31 120/58/31 116/58/31
f 116/58/32 120/58/32 119/58/32 115/58/32
f 115/58/33 119/58/33 121/58/33 117/58/33
f 117/58/34 121/58/34 118/58/34 114/58/34
f 118/58/35 122/58/35 120/58/35
f 120/58/36 122/58/36 119/58/36
f 119/58/37 122/58/37 121/58/37
f 121/58/38 122/58/38 118/58/38
