# Blender 5.0.1
# www.blender.org
mtllib stone.mtl
o Stone
v 0.000000 -0.357000 0.000000
v 0.304027 -0.159716 0.159038
v -0.119932 -0.164952 0.265767
v -0.390372 -0.165909 0.000000
v -0.119932 -0.164952 -0.265767
v 0.304027 -0.159716 -0.159038
v 0.112233 0.154363 0.248706
v -0.303803 0.159599 0.158921
v -0.303803 0.159599 -0.158921
v 0.112233 0.154363 -0.248706
v 0.360946 0.153403 0.000000
v 0.000000 0.357000 0.000000
v -0.068114 -0.303162 0.150939
v 0.182204 -0.309750 0.095312
v 0.107115 -0.182096 0.237356
v 0.344253 -0.180848 0.000000
v 0.182204 -0.309750 -0.095312
v -0.216635 -0.297945 0.000000
v -0.289258 -0.187829 0.151313
v -0.068114 -0.303162 -0.150939
v -0.289258 -0.187829 -0.151313
v 0.107115 -0.182096 -0.237356
v 0.389980 0.000000 0.091231
v 0.389980 0.000000 -0.091231
v 0.000000 0.000000 0.302400
v 0.245519 0.000000 0.243307
v -0.408908 0.000000 0.095659
v -0.248221 0.000000 0.245986
v -0.248221 0.000000 -0.245986
v -0.408908 0.000000 -0.095659
v 0.245519 0.000000 -0.243307
v 0.000000 0.000000 -0.302400
v 0.288821 0.187546 0.151085
v -0.113694 0.193280 0.251934
v -0.370291 0.194527 0.000000
v -0.113694 0.193280 -0.251934
v 0.288821 0.187546 -0.151085
v 0.068348 0.304205 0.151458
v 0.224978 0.309420 0.000000
v -0.175067 0.297617 0.091578
v -0.175067 0.297617 -0.091578
v 0.068348 0.304205 -0.151458
vn 0.0549 -0.9324 0.3573
vn 0.6908 -0.6731 0.2642
vn -0.2566 -0.9412 0.2199
vn -0.2566 -0.9412 -0.2199
vn 0.0549 -0.9324 -0.3573
vn 0.8907 -0.3632 0.2735
vn 0.0980 -0.2831 0.9541
vn -0.7974 -0.3658 0.4799
vn -0.5068 -0.2971 -0.8092
vn 0.3814 -0.3182 -0.8679
vn 0.7216 -0.0973 0.6855
vn -0.2213 -0.0553 0.9736
vn -0.9938 -0.1110 -0.0000
vn -0.2213 -0.0553 -0.9736
vn 0.7216 -0.0973 -0.6855
vn 0.3080 0.5798 0.7543
vn -0.4155 0.6815 0.6024
vn -0.5671 0.7222 -0.3960
vn 0.1087 0.5634 -0.8190
vn 0.7376 0.6428 -0.2068
vn 0.2008 0.9497 -0.2404
vn 0.4164 0.7856 -0.4577
vn 0.3080 0.5798 -0.7543
vn -0.1168 0.9203 -0.3735
vn -0.1646 0.7968 -0.5814
vn -0.4155 0.6815 -0.6024
vn -0.3212 0.9470 -0.0000
vn -0.4670 0.8843 -0.0000
vn -0.5671 0.7222 0.3960
vn -0.1168 0.9203 0.3735
vn -0.1646 0.7968 0.5814
vn 0.1087 0.5634 0.8190
vn 0.2008 0.9497 0.2404
vn 0.4164 0.7856 0.4577
vn 0.7376 0.6428 0.2068
vn 0.8701 0.3629 -0.3334
vn 0.7146 0.1688 -0.6788
vn 0.4102 0.3244 -0.8523
vn 0.0630 0.2867 -0.9559
vn -0.2199 0.1233 -0.9677
vn -0.4616 0.2955 -0.8364
vn -0.8237 0.3734 -0.4267
vn -0.9809 0.1947 -0.0000
vn -0.8237 0.3734 0.4267
vn -0.4616 0.2955 0.8364
vn -0.2199 0.1233 0.9677
vn 0.0630 0.2867 0.9559
vn 0.4102 0.3244 0.8523
vn 0.7146 0.1688 0.6788
vn 0.8701 0.3629 0.3334
vn 0.2308 0.1657 -0.9588
vn 0.2290 -0.2052 -0.9516
vn 0.0980 -0.2831 -0.9541
vn -0.6745 0.1584 -0.7210
vn -0.6674 -0.2138 -0.7134
vn -0.7974 -0.3658 -0.4799
vn -0.6745 0.1584 0.7210
vn -0.6674 -0.2138 0.7134
vn -0.5068 -0.2971 0.8092
vn 0.2308 0.1657 0.9588
vn 0.2290 -0.2052 0.9516
vn 0.3814 -0.3182 0.8679
vn 0.9826 0.1860 -0.0000
vn 0.9695 -0.2451 -0.0000
vn 0.8907 -0.3632 -0.2735
vn 0.3546 -0.5945 -0.7217
vn 0.1374 -0.6995 -0.7013
vn 0.0499 -0.6271 -0.7773
vn -0.3498 -0.6728 -0.6519
vn -0.4252 -0.8166 -0.3902
vn -0.5813 -0.7649 -0.2776
vn -0.5813 -0.7649 0.2776
vn -0.4252 -0.8166 0.3902
vn -0.3498 -0.6728 0.6519
vn 0.6908 -0.6731 -0.2642
vn 0.6225 -0.7826 -0.0000
vn 0.2510 -0.9680 -0.0000
vn 0.0499 -0.6271 0.7773
vn 0.1374 -0.6995 0.7013
vn 0.3546 -0.5945 0.7217
vt 0.312500 0.812500
s 0
usemtl GamePalette
f 1/1/1 14/1/1 13/1/1
f 2/1/2 14/1/2 16/1/2
f 1/1/3 13/1/3 18/1/3
f 1/1/4 18/1/4 20/1/4
f 1/1/5 20/1/5 17/1/5
f 2/1/6 16/1/6 23/1/6
f 3/1/7 15/1/7 25/1/7
f 4/1/8 19/1/8 27/1/8
f 5/1/9 21/1/9 29/1/9
f 6/1/10 22/1/10 31/1/10
f 2/1/11 23/1/11 26/1/11
f 3/1/12 25/1/12 28/1/12
f 4/1/13 27/1/13 30/1/13
f 5/1/14 29/1/14 32/1/14
f 6/1/15 31/1/15 24/1/15
f 7/1/16 33/1/16 38/1/16
f 8/1/17 34/1/17 40/1/17
f 9/1/18 35/1/18 41/1/18
f 10/1/19 36/1/19 42/1/19
f 11/1/20 37/1/20 39/1/20
f 39/1/21 42/1/21 12/1/21
f 39/1/22 37/1/22 42/1/22
f 37/1/23 10/1/23 42/1/23
f 42/1/24 41/1/24 12/1/24
f 42/1/25 36/1/25 41/1/25
f 36/1/26 9/1/26 41/1/26
f 41/1/27 40/1/27 12/1/27
f 41/1/28 35/1/28 40/1/28
f 35/1/29 8/1/29 40/1/29
f 40/1/30 38/1/30 12/1/30
f 40/1/31 34/1/31 38/1/31
f 34/1/32 7/1/32 38/1/32
f 38/1/33 39/1/33 12/1/33
f 38/1/34 33/1/34 39/1/34
f 33/1/35 11/1/35 39/1/35
f 24/1/36 37/1/36 11/1/36
f 24/1/37 31/1/37 37/1/37
f 31/1/38 10/1/38 37/1/38
f 32/1/39 36/1/39 10/1/39
f 32/1/40 29/1/40 36/1/40
f 29/1/41 9/1/41 36/1/41
f 30/1/42 35/1/42 9/1/42
f 30/1/43 27/1/43 35/1/43
f 27/1/44 8/1/44 35/1/44
f 28/1/45 34/1/45 8/1/45
f 28/1/46 25/1/46 34/1/46
f 25/1/47 7/1/47 34/1/47
f 26/1/48 33/1/48 7/1/48
f 26/1/49 23/1/49 33/1/49
f 23/1/50 11/1/50 33/1/50
f 31/1/51 32/1/51 10/1/51
f 31/1/52 22/1/52 32/1/52
f 22/1/53 5/1/53 32/1/53
f 29/1/54 30/1/54 9/1/54
f 29/1/55 21/1/55 30/1/55
f 21/1/56 4/1/56 30/1/56
f 27/1/57 28/1/57 8/1/57
f 27/1/58 19/1/58 28/1/58
f 19/1/59 3/1/59 28/1/59
f 25/1/60 26/1/60 7/1/60
f 25/1/61 15/1/61 26/1/61
f 15/1/62 2/1/62 26/1/62
f 23/1/63 24/1/63 11/1/63
f 23/1/64 16/1/64 24/1/64
f 16/1/65 6/1/65 24/1/65
f 17/1/66 22/1/66 6/1/66
f 17/1/67 20/1/67 22/1/67
f 20/1/68 5/1/68 22/1/68
f 20/1/69 21/1/69 5/1/69
f 20/1/70 18/1/70 21/1/70
f 18/1/71 4/1/71 21/1/71
f 18/1/72 19/1/72 4/1/72
f 18/1/73 13/1/73 19/1/73
f 13/1/74 3/1/74 19/1/74
f 16/1/75 17/1/75 6/1/75
f 16/1/76 14/1/76 17/1/76
f 14/1/77 1/1/77 17/1/77
f 13/1/78 15/1/78 3/1/78
f 13/1/79 14/1/79 15/1/79
f 14/1/80 2/1/80 15/1/80
