# Blender 5.0.1
# www.blender.org
mtllib torch.mtl
o Torch
v 0.000000 -0.400000 -0.080000
v 0.000000 2.000000 -0.080000
v 0.056569 -0.400000 -0.056569
v 0.056569 2.000000 -0.056569
v 0.080000 -0.400000 0.000000
v 0.080000 2.000000 0.000000
v 0.056569 -0.400000 0.056569
v 0.056569 2.000000 0.056569
v 0.000000 -0.400000 0.080000
v 0.000000 2.000000 0.080000
v -0.056569 -0.400000 0.056569
v -0.056569 2.000000 0.056569
v -0.080000 -0.400000 0.000000
v -0.080000 2.000000 0.000000
v -0.056569 -0.400000 -0.056569
v -0.056569 2.000000 -0.056569
v 0.000000 1.600000 -0.180000
v 0.000000 2.200000 -0.180000
v 0.127279 1.600000 -0.127279
v 0.127279 2.200000 -0.127279
v 0.180000 1.600000 0.000000
v 0.180000 2.200000 0.000000
v 0.127279 1.600000 0.127279
v 0.127279 2.200000 0.127279
v 0.000000 1.600000 0.180000
v 0.000000 2.200000 0.180000
v -0.127279 1.600000 0.127279
v -0.127279 2.200000 0.127279
v -0.180000 1.600000 0.000000
v -0.180000 2.200000 0.000000
v -0.127279 1.600000 -0.127279
v -0.127279 2.200000 -0.127279
v 0.000000 2.100000 -0.220000
v 0.000000 2.900000 -0.020000
v 0.190526 2.100000 -0.110000
v 0.017321 2.900000 -0.010000
v 0.190526 2.100000 0.110000
v 0.017321 2.900000 0.010000
v 0.000000 2.100000 0.220000
v 0.000000 2.900000 0.020000
v -0.190526 2.100000 0.110000
v -0.017321 2.900000 0.010000
v -0.190526 2.100000 -0.110000
v -0.017321 2.900000 -0.010000
vn 0.3827 -0.0000 -0.9239
vn 0.9239 -0.0000 -0.3827
vn 0.9239 -0.0000 0.3827
vn 0.3827 -0.0000 0.9239
vn -0.3827 -0.0000 0.9239
vn -0.9239 -0.0000 0.3827
vn -0.0000 1.0000 -0.0000
vn -0.9239 -0.0000 -0.3827
vn -0.3827 -0.0000 -0.9239
vn -0.0000 -1.0000 -0.0000
vn 0.4887 0.2116 -0.8464
vn 0.9774 0.2116 -0.0000
vn 0.4887 0.2116 0.8464
vn -0.4887 0.2116 0.8464
vn -0.9774 0.2116 -0.0000
vn -0.4887 0.2116 -0.8464
vt 0.437500 0.687500
vt 0.062500 0.562500
vt 0.562500 0.312500
s 0
usemtl GamePalette
f 1/1/1 2/1/1 4/1/1 3/1/1
f 3/1/2 4/1/2 6/1/2 5/1/2
f 5/1/3 6/1/3 8/1/3 7/1/3
f 7/1/4 8/1/4 10/1/4 9/1/4
f 9/1/5 10/1/5 12/1/5 11/1/5
f 11/1/6 12/1/6 14/1/6 13/1/6
f 4/1/7 2/1/7 16/1/7 14/1/7 12/1/7 10/1/7 8/1/7 6/1/7
f 13/1/8 14/1/8 16/1/8 15/1/8
f 15/1/9 16/1/9 2/1/9 1/1/9
f 1/1/10 3/1/10 5/1/10 7/1/10 9/1/10 11/1/10 13/1/10 15/1/10
f 17/2/1 18/2/1 20/2/1 19/2/1
f 19/2/2 20/2/2 22/2/2 21/2/2
f 21/2/3 22/2/3 24/2/3 23/2/3
f 23/2/4 24/2/4 26/2/4 25/2/4
f 25/2/5 26/2/5 28/2/5 27/2/5
f 27/2/6 28/2/6 30/2/6 29/2/6
f 20/2/7 18/2/7 32/2/7 30/2/7 28/2/7 26/2/7 24/2/7 22/2/7
f 29/2/8 30/2/8 32/2/8 31/2/8
f 31/2/9 32/2/9 18/2/9 17/2/9
f 17/2/10 19/2/10 21/2/10 23/2/10 25/2/10 27/2/10 29/2/10 31/2/10
f 33/3/11 34/3/11 36/3/11 35/3/11
f 35/3/12 36/3/12 38/3/12 37/3/12
f 37/3/13 38/3/13 40/3/13 39/3/13
f 39/3/14 40/3/14 42/3/14 41/3/14
f 36/3/7 34/3/7 44/3/7 42/3/7 40/3/7 38/3/7
f 41/3/15 42/3/15 44/3/15 43/3/15
f 43/3/16 44/3/16 34/3/16 33/3/16
f 33/3/10 35/3/10 37/3/10 39/3/10 41/3/10 43/3/10
