# Blender 5.0.1
# www.blender.org
mtllib wolf.mtl
o Wolf
v -0.340000 0.550000 0.100000
v 0.340000 0.550000 0.100000
v 0.340000 0.550000 -0.650000
v -0.340000 0.550000 -0.650000
v -0.340000 1.250000 0.100000
v 0.340000 1.250000 0.100000
v 0.340000 1.250000 -0.650000
v -0.340000 1.250000 -0.650000
v -0.260000 0.480000 -0.150000
v 0.260000 0.480000 -0.150000
v 0.260000 0.480000 -0.680000
v -0.260000 0.480000 -0.680000
v -0.260000 0.850000 -0.150000
v 0.260000 0.850000 -0.150000
v 0.260000 0.850000 -0.680000
v -0.260000 0.850000 -0.680000
v -0.280000 0.580000 0.720000
v 0.280000 0.580000 0.720000
v 0.280000 0.580000 0.100000
v -0.280000 0.580000 0.100000
v -0.280000 1.150000 0.720000
v 0.280000 1.150000 0.720000
v 0.280000 1.150000 0.100000
v -0.280000 1.150000 0.100000
v -0.250000 0.850000 -0.580000
v 0.250000 0.850000 -0.580000
v 0.250000 0.850000 -1.050000
v -0.250000 0.850000 -1.050000
v -0.250000 1.380000 -0.580000
v 0.250000 1.380000 -0.580000
v 0.250000 1.380000 -1.050000
v -0.250000 1.380000 -1.050000
v -0.340000 0.820000 -0.620000
v -0.250000 0.820000 -0.620000
v -0.250000 0.820000 -0.950000
v -0.340000 0.820000 -0.950000
v -0.340000 1.150000 -0.620000
v -0.250000 1.150000 -0.620000
v -0.250000 1.150000 -0.950000
v -0.340000 1.150000 -0.950000
v 0.250000 0.820000 -0.620000
v 0.340000 0.820000 -0.620000
v 0.340000 0.820000 -0.950000
v 0.250000 0.820000 -0.950000
v 0.250000 1.150000 -0.620000
v 0.340000 1.150000 -0.620000
v 0.340000 1.150000 -0.950000
v 0.250000 1.150000 -0.950000
v -0.150000 0.820000 -1.050000
v 0.150000 0.820000 -1.050000
v 0.150000 0.820000 -1.520000
v -0.150000 0.820000 -1.520000
v -0.150000 1.080000 -1.050000
v 0.150000 1.080000 -1.050000
v 0.150000 1.080000 -1.520000
v -0.150000 1.080000 -1.520000
v -0.060000 0.980000 -1.500000
v 0.060000 0.980000 -1.500000
v 0.060000 0.980000 -1.580000
v -0.060000 0.980000 -1.580000
v -0.060000 1.080000 -1.500000
v 0.060000 1.080000 -1.500000
v 0.060000 1.080000 -1.580000
v -0.060000 1.080000 -1.580000
v -0.120000 0.700000 -1.020000
v 0.120000 0.700000 -1.020000
v 0.120000 0.700000 -1.450000
v -0.120000 0.700000 -1.450000
v -0.120000 0.820000 -1.020000
v 0.120000 0.820000 -1.020000
v 0.120000 0.820000 -1.450000
v -0.120000 0.820000 -1.450000
v -0.240000 1.380000 -0.700000
v -0.080000 1.380000 -0.700000
v -0.080000 1.380000 -0.920000
v -0.240000 1.380000 -0.920000
v -0.160000 1.720000 -0.780000
v 0.080000 1.380000 -0.700000
v 0.240000 1.380000 -0.700000
v 0.240000 1.380000 -0.920000
v 0.080000 1.380000 -0.920000
v 0.160000 1.720000 -0.780000
v -0.320000 0.000000 -0.350000
v -0.160000 0.000000 -0.350000
v -0.160000 0.000000 -0.550000
v -0.320000 0.000000 -0.550000
v -0.320000 0.650000 -0.350000
v -0.160000 0.650000 -0.350000
v -0.160000 0.650000 -0.550000
v -0.320000 0.650000 -0.550000
v -0.340000 0.000000 -0.420000
v -0.140000 0.000000 -0.420000
v -0.140000 0.000000 -0.620000
v -0.340000 0.000000 -0.620000
v -0.340000 0.120000 -0.420000
v -0.140000 0.120000 -0.420000
v -0.140000 0.120000 -0.620000
v -0.340000 0.120000 -0.620000
v 0.160000 0.000000 -0.350000
v 0.320000 0.000000 -0.350000
v 0.320000 0.000000 -0.550000
v 0.160000 0.000000 -0.550000
v 0.160000 0.650000 -0.350000
v 0.320000 0.650000 -0.350000
v 0.320000 0.650000 -0.550000
v 0.160000 0.650000 -0.550000
v 0.140000 0.000000 -0.420000
v 0.340000 0.000000 -0.420000
v 0.340000 0.000000 -0.620000
v 0.140000 0.000000 -0.620000
v 0.140000 0.120000 -0.420000
v 0.340000 0.120000 -0.420000
v 0.340000 0.120000 -0.620000
v 0.140000 0.120000 -0.620000
v -0.300000 0.000000 0.680000
v -0.140000 0.000000 0.680000
v -0.140000 0.000000 0.450000
v -0.300000 0.000000 0.450000
v -0.300000 0.680000 0.680000
v -0.140000 0.680000 0.680000
v -0.140000 0.680000 0.450000
v -0.300000 0.680000 0.450000
v -0.320000 0.000000 0.620000
v -0.120000 0.000000 0.620000
v -0.120000 0.000000 0.380000
v -0.320000 0.000000 0.380000
v -0.320000 0.120000 0.620000
v -0.120000 0.120000 0.620000
v -0.120000 0.120000 0.380000
v -0.320000 0.120000 0.380000
v 0.140000 0.000000 0.680000
v 0.300000 0.000000 0.680000
v 0.300000 0.000000 0.450000
v 0.140000 0.000000 0.450000
v 0.140000 0.680000 0.680000
v 0.300000 0.680000 0.680000
v 0.300000 0.680000 0.450000
v 0.140000 0.680000 0.450000
v 0.120000 0.000000 0.620000
v 0.320000 0.000000 0.620000
v 0.320000 0.000000 0.380000
v 0.120000 0.000000 0.380000
v 0.120000 0.120000 0.620000
v 0.320000 0.120000 0.620000
v 0.320000 0.120000 0.380000
v 0.120000 0.120000 0.380000
v -0.120000 0.750000 1.050000
v 0.120000 0.750000 1.050000
v 0.120000 0.750000 0.680000
v -0.120000 0.750000 0.680000
v -0.120000 1.050000 1.050000
v 0.120000 1.050000 1.050000
v 0.120000 1.050000 0.680000
v -0.120000 1.050000 0.680000
v -0.100000 0.850000 1.350000
v 0.100000 0.850000 1.350000
v 0.100000 0.850000 1.050000
v -0.100000 0.850000 1.050000
v -0.100000 1.150000 1.350000
v 0.100000 1.150000 1.350000
v 0.100000 1.150000 1.050000
v -0.100000 1.150000 1.050000
v -0.220000 1.120000 -0.960000
v -0.120000 1.120000 -0.960000
v -0.120000 1.120000 -1.080000
v -0.220000 1.120000 -1.080000
v -0.220000 1.220000 -0.960000
v -0.120000 1.220000 -0.960000
v -0.120000 1.220000 -1.080000
v -0.220000 1.220000 -1.080000
v 0.120000 1.120000 -0.960000
v 0.220000 1.120000 -0.960000
v 0.220000 1.120000 -1.080000
v 0.120000 1.120000 -1.080000
v 0.120000 1.220000 -0.960000
v 0.220000 1.220000 -0.960000
v 0.220000 1.220000 -1.080000
v 0.120000 1.220000 -1.080000
vn -0.0000 1.0000 -0.0000
vn -0.0000 -1.0000 -0.0000
vn -0.0000 -0.0000 -1.0000
vn -0.0000 -0.0000 1.0000
vn 1.0000 -0.0000 -0.0000
vn -1.0000 -0.0000 -0.0000
vn -0.0000 0.2290 0.9734
vn 0.9734 0.2290 -0.0000
vn -0.0000 0.3807 -0.9247
vn -0.9734 0.2290 -0.0000
vt 0.437500 0.812500
vt 0.062500 0.812500
vt 0.937500 0.812500
vt 0.062500 0.187500
vt 0.687500 0.812500
vt 0.812500 0.187500
s 0
usemtl GamePalette
f 2/1/1 4/1/1 1/1/1
f 8/1/2 6/1/2 5/1/2
f 5/1/3 2/1/3 1/1/3
f 7/1/4 4/1/4 3/1/4
f 8/1/5 1/1/5 4/1/5
f 6/1/6 3/1/6 2/1/6
f 10/2/1 12/2/1 9/2/1
f 16/2/2 14/2/2 13/2/2
f 13/2/3 10/2/3 9/2/3
f 15/2/4 12/2/4 11/2/4
f 16/2/5 9/2/5 12/2/5
f 14/2/6 11/2/6 10/2/6
f 18/1/1 20/1/1 17/1/1
f 24/1/2 22/1/2 21/1/2
f 21/1/3 18/1/3 17/1/3
f 23/1/4 20/1/4 19/1/4
f 24/1/5 17/1/5 20/1/5
f 22/1/6 19/1/6 18/1/6
f 26/1/1 28/1/1 25/1/1
f 32/1/2 30/1/2 29/1/2
f 29/1/3 26/1/3 25/1/3
f 31/1/4 28/1/4 27/1/4
f 32/1/5 25/1/5 28/1/5
f 30/1/6 27/1/6 26/1/6
f 34/2/1 36/2/1 33/2/1
f 40/2/2 38/2/2 37/2/2
f 37/2/3 34/2/3 33/2/3
f 39/2/4 36/2/4 35/2/4
f 40/2/5 33/2/5 36/2/5
f 38/2/6 35/2/6 34/2/6
f 42/2/1 44/2/1 41/2/1
f 48/2/2 46/2/2 45/2/2
f 45/2/3 42/2/3 41/2/3
f 47/2/4 44/2/4 43/2/4
f 48/2/5 41/2/5 44/2/5
f 46/2/6 43/2/6 42/2/6
f 50/1/1 52/1/1 49/1/1
f 56/1/2 54/1/2 53/1/2
f 53/1/3 50/1/3 49/1/3
f 55/1/4 52/1/4 51/1/4
f 56/1/5 49/1/5 52/1/5
f 54/1/6 51/1/6 50/1/6
f 58/3/1 60/3/1 57/3/1
f 64/3/2 62/3/2 61/3/2
f 61/3/3 58/3/3 57/3/3
f 63/3/4 60/3/4 59/3/4
f 64/3/5 57/3/5 60/3/5
f 62/3/6 59/3/6 58/3/6
f 66/2/1 68/2/1 65/2/1
f 72/2/2 70/2/2 69/2/2
f 69/2/3 66/2/3 65/2/3
f 71/2/4 68/2/4 67/2/4
f 72/2/5 65/2/5 68/2/5
f 70/2/6 67/2/6 66/2/6
f 73/4/7 74/4/7 77/4/7
f 74/1/8 75/1/8 77/1/8
f 75/1/9 76/1/9 77/1/9
f 76/1/10 73/1/10 77/1/10
f 78/4/7 79/4/7 82/4/7
f 79/1/8 80/1/8 82/1/8
f 80/1/9 81/1/9 82/1/9
f 81/1/10 78/1/10 82/1/10
f 84/1/1 86/1/1 83/1/1
f 90/1/2 88/1/2 87/1/2
f 87/1/3 84/1/3 83/1/3
f 89/1/4 86/1/4 85/1/4
f 90/1/5 83/1/5 86/1/5
f 88/1/6 85/1/6 84/1/6
f 92/5/1 94/5/1 91/5/1
f 98/5/2 96/5/2 95/5/2
f 95/5/3 92/5/3 91/5/3
f 97/5/4 94/5/4 93/5/4
f 98/5/5 91/5/5 94/5/5
f 96/5/6 93/5/6 92/5/6
f 100/1/1 102/1/1 99/1/1
f 106/1/2 104/1/2 103/1/2
f 103/1/3 100/1/3 99/1/3
f 105/1/4 102/1/4 101/1/4
f 106/1/5 99/1/5 102/1/5
f 104/1/6 101/1/6 100/1/6
f 108/5/1 110/5/1 107/5/1
f 114/5/2 112/5/2 111/5/2
f 111/5/3 108/5/3 107/5/3
f 113/5/4 110/5/4 109/5/4
f 114/5/5 107/5/5 110/5/5
f 112/5/6 109/5/6 108/5/6
f 116/1/1 118/1/1 115/1/1
f 122/1/2 120/1/2 119/1/2
f 119/1/3 116/1/3 115/1/3
f 121/1/4 118/1/4 117/1/4
f 122/1/5 115/1/5 118/1/5
f 120/1/6 117/1/6 116/1/6
f 124/5/1 126/5/1 123/5/1
f 130/5/2 128/5/2 127/5/2
f 127/5/3 124/5/3 123/5/3
f 129/5/4 126/5/4 125/5/4
f 130/5/5 123/5/5 126/5/5
f 128/5/6 125/5/6 124/5/6
f 132/1/1 134/1/1 131/1/1
f 138/1/2 136/1/2 135/1/2
f 135/1/3 132/1/3 131/1/3
f 137/1/4 134/1/4 133/1/4
f 138/1/5 131/1/5 134/1/5
f 136/1/6 133/1/6 132/1/6
f 140/5/1 142/5/1 139/5/1
f 146/5/2 144/5/2 143/5/2
f 143/5/3 140/5/3 139/5/3
f 145/5/4 142/5/4 141/5/4
f 146/5/5 139/5/5 142/5/5
f 144/5/6 141/5/6 140/5/6
f 148/1/1 150/1/1 147/1/1
f 154/1/2 152/1/2 151/1/2
f 151/1/3 148/1/3 147/1/3
f 153/1/4 150/1/4 149/1/4
f 154/1/5 147/1/5 150/1/5
f 152/1/6 149/1/6 148/1/6
f 156/2/1 158/2/1 155/2/1
f 162/2/2 160/2/2 159/2/2
f 159/2/3 156/2/3 155/2/3
f 161/2/4 158/2/4 157/2/4
f 162/2/5 155/2/5 158/2/5
f 160/2/6 157/2/6 156/2/6
f 164/6/1 166/6/1 163/6/1
f 170/6/2 168/6/2 167/6/2
f 167/6/3 164/6/3 163/6/3
f 169/6/4 166/6/4 165/6/4
f 170/6/5 163/6/5 166/6/5
f 168/6/6 165/6/6 164/6/6
f 172/6/1 174/6/1 171/6/1
f 178/6/2 176/6/2 175/6/2
f 175/6/3 172/6/3 171/6/3
f 177/6/4 174/6/4 173/6/4
f 178/6/5 171/6/5 174/6/5
f 176/6/6 173/6/6 172/6/6
f 2/1/1 3/1/1 4/1/1
f 8/1/2 7/1/2 6/1/2
f 5/1/3 6/1/3 2/1/3
f 7/1/4 8/1/4 4/1/4
f 8/1/5 5/1/5 1/1/5
f 6/1/6 7/1/6 3/1/6
f 10/2/1 11/2/1 12/2/1
f 16/2/2 15/2/2 14/2/2
f 13/2/3 14/2/3 10/2/3
f 15/2/4 16/2/4 12/2/4
f 16/2/5 13/2/5 9/2/5
f 14/2/6 15/2/6 11/2/6
f 18/1/1 19/1/1 20/1/1
f 24/1/2 23/1/2 22/1/2
f 21/1/3 22/1/3 18/1/3
f 23/1/4 24/1/4 20/1/4
f 24/1/5 21/1/5 17/1/5
f 22/1/6 23/1/6 19/1/6
f 26/1/1 27/1/1 28/1/1
f 32/1/2 31/1/2 30/1/2
f 29/1/3 30/1/3 26/1/3
f 31/1/4 32/1/4 28/1/4
f 32/1/5 29/1/5 25/1/5
f 30/1/6 31/1/6 27/1/6
f 34/2/1 35/2/1 36/2/1
f 40/2/2 39/2/2 38/2/2
f 37/2/3 38/2/3 34/2/3
f 39/2/4 40/2/4 36/2/4
f 40/2/5 37/2/5 33/2/5
f 38/2/6 39/2/6 35/2/6
f 42/2/1 43/2/1 44/2/1
f 48/2/2 47/2/2 46/2/2
f 45/2/3 46/2/3 42/2/3
f 47/2/4 48/2/4 44/2/4
f 48/2/5 45/2/5 41/2/5
f 46/2/6 47/2/6 43/2/6
f 50/1/1 51/1/1 52/1/1
f 56/1/2 55/1/2 54/1/2
f 53/1/3 54/1/3 50/1/3
f 55/1/4 56/1/4 52/1/4
f 56/1/5 53/1/5 49/1/5
f 54/1/6 55/1/6 51/1/6
f 58/3/1 59/3/1 60/3/1
f 64/3/2 63/3/2 62/3/2
f 61/3/3 62/3/3 58/3/3
f 63/3/4 64/3/4 60/3/4
f 64/3/5 61/3/5 57/3/5
f 62/3/6 63/3/6 59/3/6
f 66/2/1 67/2/1 68/2/1
f 72/2/2 71/2/2 70/2/2
f 69/2/3 70/2/3 66/2/3
f 71/2/4 72/2/4 68/2/4
f 72/2/5 69/2/5 65/2/5
f 70/2/6 71/2/6 67/2/6
f 84/1/1 85/1/1 86/1/1
f 90/1/2 89/1/2 88/1/2
f 87/1/3 88/1/3 84/1/3
f 89/1/4 90/1/4 86/1/4
f 90/1/5 87/1/5 83/1/5
f 88/1/6 89/1/6 85/1/6
f 92/5/1 93/5/1 94/5/1
f 98/5/2 97/5/2 96/5/2
f 95/5/3 96/5/3 92/5/3
f 97/5/4 98/5/4 94/5/4
f 98/5/5 95/5/5 91/5/5
f 96/5/6 97/5/6 93/5/6
f 100/1/1 101/1/1 102/1/1
f 106/1/2 105/1/2 104/1/2
f 103/1/3 104/1/3 100/1/3
f 105/1/4 106/1/4 102/1/4
f 106/1/5 103/1/5 99/1/5
f 104/1/6 105/1/6 101/1/6
f 108/5/1 109/5/1 110/5/1
f 114/5/2 113/5/2 112/5/2
f 111/5/3 112/5/3 108/5/3
f 113/5/4 114/5/4 110/5/4
f 114/5/5 111/5/5 107/5/5
f 112/5/6 113/5/6 109/5/6
f 116/1/1 117/1/1 118/1/1
f 122/1/2 121/1/2 120/1/2
f 119/1/3 120/1/3 116/1/3
f 121/1/4 122/1/4 118/1/4
f 122/1/5 119/1/5 115/1/5
f 120/1/6 121/1/6 117/1/6
f 124/5/1 125/5/1 126/5/1
f 130/5/2 129/5/2 128/5/2
f 127/5/3 128/5/3 124/5/3
f 129/5/4 130/5/4 126/5/4
f 130/5/5 127/5/5 123/5/5
f 128/5/6 129/5/6 125/5/6
f 132/1/1 133/1/1 134/1/1
f 138/1/2 137/1/2 136/1/2
f 135/1/3 136/1/3 132/1/3
f 137/1/4 138/1/4 134/1/4
f 138/1/5 135/1/5 131/1/5
f 136/1/6 137/1/6 133/1/6
f 140/5/1 141/5/1 142/5/1
f 146/5/2 145/5/2 144/5/2
f 143/5/3 144/5/3 140/5/3
f 145/5/4 146/5/4 142/5/4
f 146/5/5 143/5/5 139/5/5
f 144/5/6 145/5/6 141/5/6
f 148/1/1 149/1/1 150/1/1
f 154/1/2 153/1/2 152/1/2
f 151/1/3 152/1/3 148/1/3
f 153/1/4 154/1/4 150/1/4
f 154/1/5 151/1/5 147/1/5
f 152/1/6 153/1/6 149/1/6
f 156/2/1 157/2/1 158/2/1
f 162/2/2 161/2/2 160/2/2
f 159/2/3 160/2/3 156/2/3
f 161/2/4 162/2/4 158/2/4
f 162/2/5 159/2/5 155/2/5
f 160/2/6 161/2/6 157/2/6
f 164/6/1 165/6/1 166/6/1
f 170/6/2 169/6/2 168/6/2
f 167/6/3 168/6/3 164/6/3
f 169/6/4 170/6/4 166/6/4
f 170/6/5 167/6/5 163/6/5
f 168/6/6 169/6/6 165/6/6
f 172/6/1 173/6/1 174/6/1
f 178/6/2 177/6/2 176/6/2
f 175/6/3 176/6/3 172/6/3
f 177/6/4 178/6/4 174/6/4
f 178/6/5 175/6/5 171/6/5
f 176/6/6 177/6/6 173/6/6
