# Blender 5.0.1
# www.blender.org
mtllib bar.mtl
o Bar
v -0.320000 0.000000 0.650000
v 0.320000 0.000000 0.650000
v 0.320000 0.000000 -0.150000
v -0.320000 0.000000 -0.150000
v -0.320000 0.280000 0.650000
v 0.320000 0.280000 0.650000
v 0.320000 0.280000 -0.150000
v -0.320000 0.280000 -0.150000
v -0.350000 0.080000 0.750000
v 0.350000 0.080000 0.750000
v 0.350000 0.080000 0.650000
v -0.350000 0.080000 0.650000
v -0.350000 0.200000 0.750000
v 0.350000 0.200000 0.750000
v 0.350000 0.200000 0.650000
v -0.350000 0.200000 0.650000
v -0.350000 0.080000 -0.150000
v 0.350000 0.080000 -0.150000
v 0.350000 0.080000 -0.220000
v -0.350000 0.080000 -0.220000
v -0.350000 0.200000 -0.150000
v 0.350000 0.200000 -0.150000
v 0.350000 0.200000 -0.220000
v -0.350000 0.200000 -0.220000
v -0.260000 0.040000 -0.220000
v 0.260000 0.040000 -0.220000
v 0.260000 0.040000 -0.650000
v -0.260000 0.040000 -0.650000
v -0.260000 0.240000 -0.220000
v 0.260000 0.240000 -0.220000
v 0.260000 0.240000 -0.650000
v -0.260000 0.240000 -0.650000
v -0.220000 0.240000 -0.260000
v -0.040000 0.240000 -0.260000
v -0.040000 0.240000 -0.420000
v -0.220000 0.240000 -0.420000
v -0.220000 0.280000 -0.260000
v -0.040000 0.280000 -0.260000
v -0.040000 0.280000 -0.420000
v -0.220000 0.280000 -0.420000
v 0.040000 0.240000 -0.260000
v 0.220000 0.240000 -0.260000
v 0.220000 0.240000 -0.420000
v 0.040000 0.240000 -0.420000
v 0.040000 0.280000 -0.260000
v 0.220000 0.280000 -0.260000
v 0.220000 0.280000 -0.420000
v 0.040000 0.280000 -0.420000
v -0.220000 0.240000 -0.460000
v -0.040000 0.240000 -0.460000
v -0.040000 0.240000 -0.620000
v -0.220000 0.240000 -0.620000
v -0.220000 0.280000 -0.460000
v -0.040000 0.280000 -0.460000
v -0.040000 0.280000 -0.620000
v -0.220000 0.280000 -0.620000
v 0.040000 0.240000 -0.460000
v 0.220000 0.240000 -0.460000
v 0.220000 0.240000 -0.620000
v 0.040000 0.240000 -0.620000
v 0.040000 0.280000 -0.460000
v 0.220000 0.280000 -0.460000
v 0.220000 0.280000 -0.620000
v 0.040000 0.280000 -0.620000
vn -0.0000 1.0000 -0.0000
vn -0.0000 -1.0000 -0.0000
vn -0.0000 -0.0000 -1.0000
vn -0.0000 -0.0000 1.0000
vn 1.0000 -0.0000 -0.0000
vn -1.0000 -0.0000 -0.0000
vt 0.187500 0.562500
vt 0.812500 0.062500
vt 0.562500 0.687500
vt 0.937500 0.562500
s 0
usemtl GamePalette
f 1/1/1 2/1/1 3/1/1 4/1/1
f 5/1/2 8/1/2 7/1/2 6/1/2
f 1/1/3 5/1/3 6/1/3 2/1/3
f 3/1/4 7/1/4 8/1/4 4/1/4
f 4/1/5 8/1/5 5/1/5 1/1/5
f 2/1/6 6/1/6 7/1/6 3/1/6
f 9/2/1 10/2/1 11/2/1 12/2/1
f 13/2/2 16/2/2 15/2/2 14/2/2
f 9/2/3 13/2/3 14/2/3 10/2/3
f 11/2/4 15/2/4 16/2/4 12/2/4
f 12/2/5 16/2/5 13/2/5 9/2/5
f 10/2/6 14/2/6 15/2/6 11/2/6
f 17/2/1 18/2/1 19/2/1 20/2/1
f 21/2/2 24/2/2 23/2/2 22/2/2
f 17/2/3 21/2/3 22/2/3 18/2/3
f 19/2/4 23/2/4 24/2/4 20/2/4
f 20/2/5 24/2/5 21/2/5 17/2/5
f 18/2/6 22/2/6 23/2/6 19/2/6
f 25/3/1 26/3/1 27/3/1 28/3/1
f 29/3/2 32/3/2 31/3/2 30/3/2
f 25/3/3 29/3/3 30/3/3 26/3/3
f 27/3/4 31/3/4 32/3/4 28/3/4
f 28/3/5 32/3/5 29/3/5 25/3/5
f 26/3/6 30/3/6 31/3/6 27/3/6
f 33/4/1 34/4/1 35/4/1 36/4/1
f 37/4/2 40/4/2 39/4/2 38/4/2
f 33/4/3 37/4/3 38/4/3 34/4/3
f 35/4/4 39/4/4 40/4/4 36/4/4
f 36/4/5 40/4/5 37/4/5 33/4/5
f 34/4/6 38/4/6 39/4/6 35/4/6
f 41/4/1 42/4/1 43/4/1 44/4/1
f 45/4/2 48/4/2 47/4/2 46/4/2
f 41/4/3 45/4/3 46/4/3 42/4/3
f 43/4/4 47/4/4 48/4/4 44/4/4
f 44/4/5 48/4/5 45/4/5 41/4/5
f 42/4/6 46/4/6 47/4/6 43/4/6
f 49/4/1 50/4/1 51/4/1 52/4/1
f 53/4/2 56/4/2 55/4/2 54/4/2
f 49/4/3 53/4/3 54/4/3 50/4/3
f 51/4/4 55/4/4 56/4/4 52/4/4
f 52/4/5 56/4/5 53/4/5 49/4/5
f 50/4/6 54/4/6 55/4/6 51/4/6
f 57/4/1 58/4/1 59/4/1 60/4/1
f 61/4/2 64/4/2 63/4/2 62/4/2
f 57/4/3 61/4/3 62/4/3 58/4/3
f 59/4/4 63/4/4 64/4/4 60/4/4
f 60/4/5 64/4/5 61/4/5 57/4/5
f 58/4/6 62/4/6 63/4/6 59/4/6
