# Blender 5.0.1
# www.blender.org
mtllib bread.mtl
o Bread
v -0.450000 0.000000 0.700000
v 0.450000 0.000000 0.700000
v 0.450000 0.000000 -0.700000
v -0.450000 0.000000 -0.700000
v -0.450000 0.350000 0.700000
v 0.450000 0.350000 0.700000
v 0.450000 0.350000 -0.700000
v -0.450000 0.350000 -0.700000
v -0.480000 0.350000 0.720000
v 0.480000 0.350000 0.720000
v 0.000000 0.680000 0.720000
v -0.480000 0.350000 -0.720000
v 0.480000 0.350000 -0.720000
v 0.000000 0.680000 -0.720000
v -0.320000 0.520000 0.400000
v 0.320000 0.520000 0.400000
v 0.320000 0.520000 0.300000
v -0.320000 0.520000 0.300000
v -0.320000 0.700000 0.400000
v 0.320000 0.700000 0.400000
v 0.320000 0.700000 0.300000
v -0.320000 0.700000 0.300000
v -0.320000 0.520000 0.050000
v 0.320000 0.520000 0.050000
v 0.320000 0.520000 -0.050000
v -0.320000 0.520000 -0.050000
v -0.320000 0.700000 0.050000
v 0.320000 0.700000 0.050000
v 0.320000 0.700000 -0.050000
v -0.320000 0.700000 -0.050000
v -0.320000 0.520000 -0.300000
v 0.320000 0.520000 -0.300000
v 0.320000 0.520000 -0.400000
v -0.320000 0.520000 -0.400000
v -0.320000 0.700000 -0.300000
v 0.320000 0.700000 -0.300000
v 0.320000 0.700000 -0.400000
v -0.320000 0.700000 -0.400000
vn -0.0000 1.0000 -0.0000
vn -0.0000 -1.0000 -0.0000
vn -0.0000 -0.0000 -1.0000
vn -0.0000 -0.0000 1.0000
vn 1.0000 -0.0000 -0.0000
vn -1.0000 -0.0000 -0.0000
vn 0.5665 0.8240 -0.0000
vn -0.5665 0.8240 -0.0000
vt 0.437500 0.687500
vt 0.312500 0.687500
vt 0.062500 0.312500
s 0
usemtl GamePalette
f 1/1/1 2/1/1 3/1/1 4/1/1
f 5/1/2 8/1/2 7/1/2 6/1/2
f 1/1/3 5/1/3 6/1/3 2/1/3
f 3/1/4 7/1/4 8/1/4 4/1/4
f 4/1/5 8/1/5 5/1/5 1/1/5
f 2/1/6 6/1/6 7/1/6 3/1/6
f 9/2/4 10/2/4 11/2/4
f 12/2/3 14/2/3 13/2/3
f 9/2/2 12/2/2 13/2/2 10/2/2
f 10/2/7 13/2/7 14/2/7 11/2/7
f 11/2/8 14/2/8 12/2/8 9/2/8
f 15/3/1 16/3/1 17/3/1 18/3/1
f 19/3/2 22/3/2 21/3/2 20/3/2
f 15/3/3 19/3/3 20/3/3 16/3/3
f 17/3/4 21/3/4 22/3/4 18/3/4
f 18/3/5 22/3/5 19/3/5 15/3/5
f 16/3/6 20/3/6 21/3/6 17/3/6
f 23/3/1 24/3/1 25/3/1 26/3/1
f 27/3/2 30/3/2 29/3/2 28/3/2
f 23/3/3 27/3/3 28/3/3 24/3/3
f 25/3/4 29/3/4 30/3/4 26/3/4
f 26/3/5 30/3/5 27/3/5 23/3/5
f 24/3/6 28/3/6 29/3/6 25/3/6
f 31/3/1 32/3/1 33/3/1 34/3/1
f 35/3/2 38/3/2 37/3/2 36/3/2
f 31/3/3 35/3/3 36/3/3 32/3/3
f 33/3/4 37/3/4 38/3/4 34/3/4
f 34/3/5 38/3/5 35/3/5 31/3/5
f 32/3/6 36/3/6 37/3/6 33/3/6
