# Blender 5.0.1
# www.blender.org
mtllib coffee.mtl
o Coffee
v 0.280000 0.000000 0.000000
v 0.380000 0.750000 0.000000
v 0.226525 0.000000 -0.164580
v 0.307426 0.750000 -0.223358
v 0.086525 0.000000 -0.266296
v 0.117426 0.750000 -0.361401
v -0.086525 0.000000 -0.266296
v -0.117426 0.750000 -0.361401
v -0.226525 0.000000 -0.164580
v -0.307426 0.750000 -0.223358
v -0.280000 0.000000 -0.000000
v -0.380000 0.750000 -0.000000
v -0.226525 0.000000 0.164580
v -0.307426 0.750000 0.223358
v -0.086525 0.000000 0.266296
v -0.117426 0.750000 0.361401
v 0.086525 0.000000 0.266296
v 0.117426 0.750000 0.361401
v 0.226525 0.000000 0.164580
v 0.307426 0.750000 0.223358
v 0.320000 0.250000 0.000000
v 0.360000 0.550000 0.000000
v 0.258885 0.250000 -0.188091
v 0.291246 0.550000 -0.211603
v 0.098885 0.250000 -0.304338
v 0.111246 0.550000 -0.342380
v -0.098885 0.250000 -0.304338
v -0.111246 0.550000 -0.342380
v -0.258885 0.250000 -0.188091
v -0.291246 0.550000 -0.211603
v -0.320000 0.250000 -0.000000
v -0.360000 0.550000 -0.000000
v -0.258885 0.250000 0.188091
v -0.291246 0.550000 0.211603
v -0.098885 0.250000 0.304338
v -0.111246 0.550000 0.342380
v 0.098885 0.250000 0.304338
v 0.111246 0.550000 0.342380
v 0.258885 0.250000 0.188091
v 0.291246 0.550000 0.211603
v 0.400000 0.750000 0.000000
v 0.400000 0.850000 0.000000
v 0.323607 0.750000 -0.235114
v 0.323607 0.850000 -0.235114
v 0.123607 0.750000 -0.380423
v 0.123607 0.850000 -0.380423
v -0.123607 0.750000 -0.380423
v -0.123607 0.850000 -0.380423
v -0.323607 0.750000 -0.235114
v -0.323607 0.850000 -0.235114
v -0.400000 0.750000 -0.000000
v -0.400000 0.850000 -0.000000
v -0.323607 0.750000 0.235114
v -0.323607 0.850000 0.235114
v -0.123607 0.750000 0.380423
v -0.123607 0.850000 0.380423
v 0.123607 0.750000 0.380423
v 0.123607 0.850000 0.380423
v 0.323607 0.750000 0.235114
v 0.323607 0.850000 0.235114
vn 0.9435 -0.1258 -0.3066
vn 0.5831 -0.1258 -0.8026
vn -0.0000 -0.1258 -0.9921
vn -0.5831 -0.1258 -0.8026
vn -0.9435 -0.1258 -0.3066
vn -0.9435 -0.1258 0.3066
vn -0.5831 -0.1258 0.8026
vn -0.0000 -0.1258 0.9921
vn 0.5831 -0.1258 0.8026
vn 0.9435 -0.1258 0.3066
vn -0.0000 -1.0000 -0.0000
vn 0.9511 -0.0000 -0.3090
vn 0.5878 -0.0000 -0.8090
vn -0.0000 -0.0000 -1.0000
vn -0.5878 -0.0000 -0.8090
vn -0.9511 -0.0000 -0.3090
vn -0.9511 -0.0000 0.3090
vn -0.5878 -0.0000 0.8090
vn -0.0000 -0.0000 1.0000
vn 0.5878 -0.0000 0.8090
vn 0.9511 -0.0000 0.3090
vn -0.0000 1.0000 -0.0000
vt 0.187500 0.937500
vt 0.062500 0.812500
vt 0.312500 0.687500
vt 0.812500 0.812500
vt 0.687500 0.812500
s 0
usemtl GamePalette
f 1/1/1 3/1/1 4/1/1 2/1/1
f 3/1/2 5/1/2 6/1/2 4/1/2
f 5/1/3 7/1/3 8/1/3 6/1/3
f 7/1/4 9/1/4 10/1/4 8/1/4
f 9/1/5 11/1/5 12/1/5 10/1/5
f 11/1/6 13/1/6 14/1/6 12/1/6
f 13/1/7 15/1/7 16/1/7 14/1/7
f 15/1/8 17/1/8 18/1/8 16/1/8
f 17/1/9 19/1/9 20/1/9 18/1/9
f 19/1/10 1/1/10 2/1/10 20/1/10
f 19/2/11 17/2/11 15/2/11 13/2/11 11/2/11 9/2/11 7/2/11 5/2/11 3/2/11 1/2/11
f 21/3/1 23/3/1 24/3/1 22/3/1
f 23/3/2 25/3/2 26/3/2 24/3/2
f 25/3/3 27/3/3 28/3/3 26/3/3
f 27/3/4 29/3/4 30/3/4 28/3/4
f 29/3/5 31/3/5 32/3/5 30/3/5
f 31/3/6 33/3/6 34/3/6 32/3/6
f 33/3/7 35/3/7 36/3/7 34/3/7
f 35/3/8 37/3/8 38/3/8 36/3/8
f 37/3/9 39/3/9 40/3/9 38/3/9
f 39/3/10 21/3/10 22/3/10 40/3/10
f 41/4/12 43/4/12 44/4/12 42/4/12
f 43/4/13 45/4/13 46/4/13 44/4/13
f 45/4/14 47/4/14 48/4/14 46/4/14
f 47/4/15 49/4/15 50/4/15 48/4/15
f 49/4/16 51/4/16 52/4/16 50/4/16
f 51/4/17 53/4/17 54/4/17 52/4/17
f 53/4/18 55/4/18 56/4/18 54/4/18
f 55/4/19 57/4/19 58/4/19 56/4/19
f 57/4/20 59/4/20 60/4/20 58/4/20
f 59/4/21 41/4/21 42/4/21 60/4/21
f 42/5/22 44/5/22 46/5/22 48/5/22 50/5/22 52/5/22 54/5/22 56/5/22 58/5/22 60/5/22
