# Blender 5.0.1
# www.blender.org
mtllib soup.mtl
o Soup
v 0.380000 0.000000 0.000000
v 0.380000 0.100000 0.000000
v 0.307426 0.000000 -0.223358
v 0.307426 0.100000 -0.223358
v 0.117426 0.000000 -0.361401
v 0.117426 0.100000 -0.361401
v -0.117426 0.000000 -0.361401
v -0.117426 0.100000 -0.361401
v -0.307426 0.000000 -0.223358
v -0.307426 0.100000 -0.223358
v -0.380000 0.000000 -0.000000
v -0.380000 0.100000 -0.000000
v -0.307426 0.000000 0.223358
v -0.307426 0.100000 0.223358
v -0.117426 0.000000 0.361401
v -0.117426 0.100000 0.361401
v 0.117426 0.000000 0.361401
v 0.117426 0.100000 0.361401
v 0.307426 0.000000 0.223358
v 0.307426 0.100000 0.223358
v 0.390000 0.100000 0.000000
v 0.390000 0.700000 0.000000
v 0.315517 0.100000 -0.229236
v 0.315517 0.700000 -0.229236
v 0.120517 0.100000 -0.370912
v 0.120517 0.700000 -0.370912
v -0.120517 0.100000 -0.370912
v -0.120517 0.700000 -0.370912
v -0.315517 0.100000 -0.229236
v -0.315517 0.700000 -0.229236
v -0.390000 0.100000 -0.000000
v -0.390000 0.700000 -0.000000
v -0.315517 0.100000 0.229236
v -0.315517 0.700000 0.229236
v -0.120517 0.100000 0.370912
v -0.120517 0.700000 0.370912
v 0.120517 0.100000 0.370912
v 0.120517 0.700000 0.370912
v 0.315517 0.100000 0.229236
v 0.315517 0.700000 0.229236
v 0.380000 0.700000 0.000000
v 0.380000 0.800000 0.000000
v 0.307426 0.700000 -0.223358
v 0.307426 0.800000 -0.223358
v 0.117426 0.700000 -0.361401
v 0.117426 0.800000 -0.361401
v -0.117426 0.700000 -0.361401
v -0.117426 0.800000 -0.361401
v -0.307426 0.700000 -0.223358
v -0.307426 0.800000 -0.223358
v -0.380000 0.700000 -0.000000
v -0.380000 0.800000 -0.000000
v -0.307426 0.700000 0.223358
v -0.307426 0.800000 0.223358
v -0.117426 0.700000 0.361401
v -0.117426 0.800000 0.361401
v 0.117426 0.700000 0.361401
v 0.117426 0.800000 0.361401
v 0.307426 0.700000 0.223358
v 0.307426 0.800000 0.223358
v -0.120000 0.800000 0.160000
v 0.120000 0.800000 0.160000
v 0.120000 0.800000 -0.160000
v -0.120000 0.800000 -0.160000
v -0.120000 0.840000 0.160000
v 0.120000 0.840000 0.160000
v 0.120000 0.840000 -0.160000
v -0.120000 0.840000 -0.160000
vn 0.9511 -0.0000 -0.3090
vn 0.5878 -0.0000 -0.8090
vn -0.0000 -0.0000 -1.0000
vn -0.5878 -0.0000 -0.8090
vn -0.9511 -0.0000 -0.3090
vn -0.9511 -0.0000 0.3090
vn -0.5878 -0.0000 0.8090
vn -0.0000 -0.0000 1.0000
vn 0.5878 -0.0000 0.8090
vn 0.9511 -0.0000 0.3090
vn -0.0000 -1.0000 -0.0000
vn -0.0000 1.0000 -0.0000
vn 1.0000 -0.0000 -0.0000
vn -1.0000 -0.0000 -0.0000
vt 0.187500 0.812500
vt 0.062500 0.812500
vt 0.437500 0.187500
s 0
usemtl GamePalette
f 1/1/1 3/1/1 4/1/1 2/1/1
f 3/1/2 5/1/2 6/1/2 4/1/2
f 5/1/3 7/1/3 8/1/3 6/1/3
f 7/1/4 9/1/4 10/1/4 8/1/4
f 9/1/5 11/1/5 12/1/5 10/1/5
f 11/1/6 13/1/6 14/1/6 12/1/6
f 13/1/7 15/1/7 16/1/7 14/1/7
f 15/1/8 17/1/8 18/1/8 16/1/8
f 17/1/9 19/1/9 20/1/9 18/1/9
f 19/1/10 1/1/10 2/1/10 20/1/10
f 19/2/11 17/2/11 15/2/11 13/2/11 11/2/11 9/2/11 7/2/11 5/2/11 3/2/11 1/2/11
f 21/3/1 23/3/1 24/3/1 22/3/1
f 23/3/2 25/3/2 26/3/2 24/3/2
f 25/3/3 27/3/3 28/3/3 26/3/3
f 27/3/4 29/3/4 30/3/4 28/3/4
f 29/3/5 31/3/5 32/3/5 30/3/5
f 31/3/6 33/3/6 34/3/6 32/3/6
f 33/3/7 35/3/7 36/3/7 34/3/7
f 35/3/8 37/3/8 38/3/8 36/3/8
f 37/3/9 39/3/9 40/3/9 38/3/9
f 39/3/10 21/3/10 22/3/10 40/3/10
f 41/1/1 43/1/1 44/1/1 42/1/1
f 43/1/2 45/1/2 46/1/2 44/1/2
f 45/1/3 47/1/3 48/1/3 46/1/3
f 47/1/4 49/1/4 50/1/4 48/1/4
f 49/1/5 51/1/5 52/1/5 50/1/5
f 51/1/6 53/1/6 54/1/6 52/1/6
f 53/1/7 55/1/7 56/1/7 54/1/7
f 55/1/8 57/1/8 58/1/8 56/1/8
f 57/1/9 59/1/9 60/1/9 58/1/9
f 59/1/10 41/1/10 42/1/10 60/1/10
f 42/2/12 44/2/12 46/2/12 48/2/12 50/2/12 52/2/12 54/2/12 56/2/12 58/2/12 60/2/12
f 61/1/12 62/1/12 63/1/12 64/1/12
f 65/1/11 68/1/11 67/1/11 66/1/11
f 61/1/3 65/1/3 66/1/3 62/1/3
f 63/1/8 67/1/8 68/1/8 64/1/8
f 64/1/13 68/1/13 65/1/13 61/1/13
f 62/1/14 66/1/14 67/1/14 63/1/14
