# Blender 5.0.1
# www.blender.org
mtllib steak.mtl
o Steak
v -0.550000 0.000000 0.450000
v 0.550000 0.000000 0.450000
v 0.550000 0.000000 -0.450000
v -0.550000 0.000000 -0.450000
v -0.550000 0.280000 0.450000
v 0.550000 0.280000 0.450000
v 0.550000 0.280000 -0.450000
v -0.550000 0.280000 -0.450000
v -0.450000 0.280000 0.420000
v -0.250000 0.280000 0.420000
v -0.250000 0.280000 -0.420000
v -0.450000 0.280000 -0.420000
v -0.450000 0.310000 0.420000
v -0.250000 0.310000 0.420000
v -0.250000 0.310000 -0.420000
v -0.450000 0.310000 -0.420000
v -0.100000 0.280000 0.420000
v 0.100000 0.280000 0.420000
v 0.100000 0.280000 -0.420000
v -0.100000 0.280000 -0.420000
v -0.100000 0.310000 0.420000
v 0.100000 0.310000 0.420000
v 0.100000 0.310000 -0.420000
v -0.100000 0.310000 -0.420000
v 0.250000 0.280000 0.420000
v 0.450000 0.280000 0.420000
v 0.450000 0.280000 -0.420000
v 0.250000 0.280000 -0.420000
v 0.250000 0.310000 0.420000
v 0.450000 0.310000 0.420000
v 0.450000 0.310000 -0.420000
v 0.250000 0.310000 -0.420000
v 0.120000 0.000000 0.000000
v 0.120000 0.300000 0.000000
v 0.084853 0.000000 -0.084853
v 0.084853 0.300000 -0.084853
v 0.000000 0.000000 -0.120000
v 0.000000 0.300000 -0.120000
v -0.084853 0.000000 -0.084853
v -0.084853 0.300000 -0.084853
v -0.120000 0.000000 -0.000000
v -0.120000 0.300000 -0.000000
v -0.084853 0.000000 0.084853
v -0.084853 0.300000 0.084853
v -0.000000 0.000000 0.120000
v -0.000000 0.300000 0.120000
v 0.084853 0.000000 0.084853
v 0.084853 0.300000 0.084853
vn -0.0000 1.0000 -0.0000
vn -0.0000 -1.0000 -0.0000
vn -0.0000 -0.0000 -1.0000
vn -0.0000 -0.0000 1.0000
vn 1.0000 -0.0000 -0.0000
vn -1.0000 -0.0000 -0.0000
vn 0.9239 -0.0000 -0.3827
vn 0.3827 -0.0000 -0.9239
vn -0.3827 -0.0000 -0.9239
vn -0.9239 -0.0000 -0.3827
vn -0.9239 -0.0000 0.3827
vn -0.3827 -0.0000 0.9239
vn 0.3827 -0.0000 0.9239
vn 0.9239 -0.0000 0.3827
vt 0.312500 0.187500
vt 0.937500 0.687500
vt 0.062500 0.937500
s 0
usemtl GamePalette
f 1/1/1 2/1/1 3/1/1 4/1/1
f 5/1/2 8/1/2 7/1/2 6/1/2
f 1/1/3 5/1/3 6/1/3 2/1/3
f 3/1/4 7/1/4 8/1/4 4/1/4
f 4/1/5 8/1/5 5/1/5 1/1/5
f 2/1/6 6/1/6 7/1/6 3/1/6
f 9/2/1 10/2/1 11/2/1 12/2/1
f 13/2/2 16/2/2 15/2/2 14/2/2
f 9/2/3 13/2/3 14/2/3 10/2/3
f 11/2/4 15/2/4 16/2/4 12/2/4
f 12/2/5 16/2/5 13/2/5 9/2/5
f 10/2/6 14/2/6 15/2/6 11/2/6
f 17/2/1 18/2/1 19/2/1 20/2/1
f 21/2/2 24/2/2 23/2/2 22/2/2
f 17/2/3 21/2/3 22/2/3 18/2/3
f 19/2/4 23/2/4 24/2/4 20/2/4
f 20/2/5 24/2/5 21/2/5 17/2/5
f 18/2/6 22/2/6 23/2/6 19/2/6
f 25/2/1 26/2/1 27/2/1 28/2/1
f 29/2/2 32/2/2 31/2/2 30/2/2
f 25/2/3 29/2/3 30/2/3 26/2/3
f 27/2/4 31/2/4 32/2/4 28/2/4
f 28/2/5 32/2/5 29/2/5 25/2/5
f 26/2/6 30/2/6 31/2/6 27/2/6
f 33/3/7 35/3/7 36/3/7 34/3/7
f 35/3/8 37/3/8 38/3/8 36/3/8
f 37/3/9 39/3/9 40/3/9 38/3/9
f 39/3/10 41/3/10 42/3/10 40/3/10
f 41/3/11 43/3/11 44/3/11 42/3/11
f 43/3/12 45/3/12 46/3/12 44/3/12
f 45/3/13 47/3/13 48/3/13 46/3/13
f 47/3/14 33/3/14 34/3/14 48/3/14
f 47/3/2 45/3/2 43/3/2 41/3/2 39/3/2 37/3/2 35/3/2 33/3/2
f 34/3/1 36/3/1 38/3/1 40/3/1 42/3/1 44/3/1 46/3/1 48/3/1
