# Blender 5.0.1
# www.blender.org
mtllib branches_bush.mtl
o Branch_Center
v -0.119850 0.005993 0.000000
v -0.060119 -0.000888 -0.103850
v 0.059731 -0.006881 -0.103850
v 0.119850 -0.005993 -0.000000
v 0.060119 0.000888 0.103850
v -0.059731 0.006881 0.103850
v -0.059992 0.801250 -0.030000
v -0.010050 0.796301 -0.116494
v 0.089942 0.795051 -0.116494
v 0.139992 0.798750 -0.030000
v 0.090050 0.803699 0.056494
v -0.009942 0.804949 0.056494
v -0.049933 1.596940 -0.080000
v -0.014818 1.595072 -0.140526
v 0.055115 1.598132 -0.140526
v 0.089933 1.603060 -0.080000
v 0.054818 1.604928 -0.019474
v -0.015115 1.601868 -0.019474
v -0.059942 2.398129 -0.120000
v -0.044890 2.397772 -0.145948
v -0.014948 2.399643 -0.145948
v -0.000058 2.401871 -0.120000
v -0.015110 2.402228 -0.094052
v -0.045052 2.400357 -0.094052
v 0.000000 0.000000 0.000000
v -0.030000 2.400000 -0.120000
v -0.036453 1.420323 -0.080000
v -0.010525 1.403777 -0.131517
v 0.045928 1.383454 -0.131517
v 0.076453 1.379677 -0.080000
v 0.050525 1.396223 -0.028483
v -0.005928 1.416546 -0.028483
v 0.162547 1.914045 -0.150000
v 0.179307 1.901778 -0.184185
v 0.216760 1.887733 -0.184185
v 0.237453 1.885955 -0.150000
v 0.220693 1.898222 -0.115815
v 0.183240 1.912267 -0.115815
v 0.296788 2.209285 -0.220000
v 0.306692 2.200386 -0.241160
v 0.329903 2.191101 -0.241160
v 0.343212 2.190715 -0.220000
v 0.333308 2.199614 -0.198840
v 0.310097 2.208899 -0.198840
v 0.020000 1.400000 -0.080000
v 0.320000 2.200000 -0.220000
v -0.016099 0.980638 -0.050000
v 0.003910 0.997559 -0.092583
v 0.050009 1.016920 -0.092583
v 0.076099 1.019362 -0.050000
v 0.056090 1.002441 -0.007417
v 0.009991 0.983080 -0.007417
v -0.212635 1.487354 0.050000
v -0.198204 1.498544 0.020142
v -0.165568 1.511191 0.020142
v -0.147365 1.512646 0.050000
v -0.161796 1.501456 0.079858
v -0.194432 1.488809 0.079858
v -0.298974 1.793675 0.100000
v -0.290342 1.799404 0.082892
v -0.271369 1.805728 0.082892
v -0.261026 1.806324 0.100000
v -0.269658 1.800596 0.117108
v -0.288631 1.794271 0.117108
v 0.030000 1.000000 -0.050000
v -0.280000 1.800000 0.100000
vn -0.0499 -0.9981 0.0374
vn 0.8643 -0.0462 0.5009
vn 0.0005 0.0158 0.9999
vn -0.8652 0.0404 0.4998
vn -0.8664 0.0030 -0.4994
vn -0.0019 -0.0590 -0.9983
vn 0.8633 -0.0836 -0.4977
vn 0.8658 0.0203 0.5000
vn -0.0003 0.0300 0.9996
vn -0.8653 -0.0226 0.5008
vn -0.8642 -0.0848 -0.4960
vn 0.0010 -0.0946 -0.9955
vn 0.8664 -0.0420 -0.4976
vn 0.8648 0.0358 0.5008
vn -0.0003 0.0067 1.0000
vn -0.8621 -0.0720 0.5015
vn -0.8599 -0.1217 -0.4957
vn 0.0046 -0.0928 -0.9957
vn 0.8674 -0.0140 -0.4974
vn -0.0623 0.9968 -0.0498
vn -0.3358 -0.9328 0.1306
vn 0.8258 -0.2620 0.4994
vn 0.0338 0.0924 0.9951
vn -0.8026 0.3243 0.5007
vn -0.8479 0.2020 -0.4902
vn -0.0559 -0.1526 -0.9867
vn 0.7812 -0.3847 -0.4918
vn 0.8280 -0.2584 0.4977
vn 0.0621 0.1616 0.9849
vn -0.7800 0.3839 0.4942
vn -0.8554 0.1862 -0.4833
vn -0.0896 -0.2330 -0.9683
vn 0.7507 -0.4550 -0.4790
vn 0.3630 0.9074 -0.2117
vn 0.3808 -0.9067 -0.1813
vn 0.8414 0.2296 0.4891
vn 0.0770 -0.1894 0.9789
vn -0.7553 -0.4403 0.4855
vn -0.8237 -0.2725 -0.4973
vn -0.0596 0.1465 -0.9874
vn 0.7731 0.3976 -0.4941
vn 0.8609 0.1636 0.4817
vn 0.0677 -0.1842 0.9806
vn -0.7809 -0.3856 0.4915
vn -0.8348 -0.2389 -0.4960
vn -0.0401 0.1090 -0.9932
vn 0.8064 0.3098 -0.5037
vn -0.3123 0.9370 0.1562
vt 0.687500 0.687500
s 0
usemtl GamePalette
f 25/1/1 1/1/1 2/1/1
f 25/1/1 2/1/1 3/1/1
f 25/1/1 3/1/1 4/1/1
f 25/1/1 4/1/1 5/1/1
f 25/1/1 5/1/1 6/1/1
f 25/1/1 6/1/1 1/1/1
f 1/1/2 2/1/2 8/1/2 7/1/2
f 2/1/3 3/1/3 9/1/3 8/1/3
f 3/1/4 4/1/4 10/1/4 9/1/4
f 4/1/5 5/1/5 11/1/5 10/1/5
f 5/1/6 6/1/6 12/1/6 11/1/6
f 6/1/7 1/1/7 7/1/7 12/1/7
f 7/1/8 8/1/8 14/1/8 13/1/8
f 8/1/9 9/1/9 15/1/9 14/1/9
f 9/1/10 10/1/10 16/1/10 15/1/10
f 10/1/11 11/1/11 17/1/11 16/1/11
f 11/1/12 12/1/12 18/1/12 17/1/12
f 12/1/13 7/1/13 13/1/13 18/1/13
f 13/1/14 14/1/14 20/1/14 19/1/14
f 14/1/15 15/1/15 21/1/15 20/1/15
f 15/1/16 16/1/16 22/1/16 21/1/16
f 16/1/17 17/1/17 23/1/17 22/1/17
f 17/1/18 18/1/18 24/1/18 23/1/18
f 18/1/19 13/1/19 19/1/19 24/1/19
f 26/1/20 20/1/20 19/1/20
f 26/1/20 21/1/20 20/1/20
f 26/1/20 22/1/20 21/1/20
f 26/1/20 23/1/20 22/1/20
f 26/1/20 24/1/20 23/1/20
f 26/1/20 19/1/20 24/1/20
f 45/1/21 27/1/21 28/1/21
f 45/1/21 28/1/21 29/1/21
f 45/1/21 29/1/21 30/1/21
f 45/1/21 30/1/21 31/1/21
f 45/1/21 31/1/21 32/1/21
f 45/1/21 32/1/21 27/1/21
f 27/1/22 28/1/22 34/1/22 33/1/22
f 28/1/23 29/1/23 35/1/23 34/1/23
f 29/1/24 30/1/24 36/1/24 35/1/24
f 30/1/25 31/1/25 37/1/25 36/1/25
f 31/1/26 32/1/26 38/1/26 37/1/26
f 32/1/27 27/1/27 33/1/27 38/1/27
f 33/1/28 34/1/28 40/1/28 39/1/28
f 34/1/29 35/1/29 41/1/29 40/1/29
f 35/1/30 36/1/30 42/1/30 41/1/30
f 36/1/31 37/1/31 43/1/31 42/1/31
f 37/1/32 38/1/32 44/1/32 43/1/32
f 38/1/33 33/1/33 39/1/33 44/1/33
f 46/1/34 40/1/34 39/1/34
f 46/1/34 41/1/34 40/1/34
f 46/1/34 42/1/34 41/1/34
f 46/1/34 43/1/34 42/1/34
f 46/1/34 44/1/34 43/1/34
f 46/1/34 39/1/34 44/1/34
f 65/1/35 47/1/35 48/1/35
f 65/1/35 48/1/35 49/1/35
f 65/1/35 49/1/35 50/1/35
f 65/1/35 50/1/35 51/1/35
f 65/1/35 51/1/35 52/1/35
f 65/1/35 52/1/35 47/1/35
f 47/1/36 48/1/36 54/1/36 53/1/36
f 48/1/37 49/1/37 55/1/37 54/1/37
f 49/1/38 50/1/38 56/1/38 55/1/38
f 50/1/39 51/1/39 57/1/39 56/1/39
f 51/1/40 52/1/40 58/1/40 57/1/40
f 52/1/41 47/1/41 53/1/41 58/1/41
f 53/1/42 54/1/42 60/1/42 59/1/42
f 54/1/43 55/1/43 61/1/43 60/1/43
f 55/1/44 56/1/44 62/1/44 61/1/44
f 56/1/45 57/1/45 63/1/45 62/1/45
f 57/1/46 58/1/46 64/1/46 63/1/46
f 58/1/47 53/1/47 59/1/47 64/1/47
f 66/1/48 60/1/48 59/1/48
f 66/1/48 61/1/48 60/1/48
f 66/1/48 62/1/48 61/1/48
f 66/1/48 63/1/48 62/1/48
f 66/1/48 64/1/48 63/1/48
f 66/1/48 59/1/48 64/1/48
o Branch_Right_Main
v -0.055768 0.030219 0.020000
v -0.007140 0.000212 -0.073994
v 0.098627 -0.030007 -0.073994
v 0.155768 -0.030219 0.020000
v 0.107140 -0.000212 0.113994
v 0.001373 0.030007 0.113994
v 0.165243 0.730270 -0.100000
v 0.203444 0.703437 -0.176946
v 0.288200 0.673166 -0.176946
v 0.334757 0.669730 -0.100000
v 0.296556 0.696563 -0.023054
v 0.211800 0.726834 -0.023054
v 0.494155 1.421939 -0.220000
v 0.518962 1.403040 -0.271258
v 0.574807 1.381101 -0.271258
v 0.605845 1.378061 -0.220000
v 0.581038 1.396960 -0.168742
v 0.525193 1.418899 -0.168742
v 0.771748 2.110090 -0.350000
v 0.784368 2.100830 -0.375592
v 0.812621 2.090740 -0.375592
v 0.828252 2.089910 -0.350000
v 0.815632 2.099170 -0.324408
v 0.787379 2.109260 -0.324408
v 0.050000 0.000000 0.020000
v 0.800000 2.100000 -0.350000
v 0.505025 1.421845 -0.220000
v 0.533917 1.424109 -0.260744
v 0.578893 1.402264 -0.260744
v 0.594975 1.378155 -0.220000
v 0.566083 1.375891 -0.179256
v 0.521107 1.397736 -0.179256
v 0.689768 1.767635 -0.080000
v 0.709872 1.767368 -0.108649
v 0.740104 1.749732 -0.108649
v 0.750232 1.732365 -0.080000
v 0.730129 1.732632 -0.051351
v 0.699896 1.750268 -0.051351
v 0.883769 2.011686 0.020000
v 0.895009 2.010183 0.003526
v 0.911240 1.998497 0.003526
v 0.916231 1.988314 0.020000
v 0.904991 1.989817 0.036474
v 0.888760 2.001503 0.036474
v 0.550000 1.400000 -0.220000
v 0.900000 2.000000 0.020000
vn -0.2711 -0.9487 0.1626
vn 0.8505 -0.1833 0.4930
vn 0.0422 0.1330 0.9902
vn -0.8145 0.2935 0.5004
vn -0.8636 0.1386 -0.4847
vn -0.0562 -0.1771 -0.9826
vn 0.8014 -0.3383 -0.4933
vn 0.8105 -0.2977 0.5045
vn 0.0426 0.1148 0.9925
vn -0.7818 0.3824 0.4925
vn -0.8360 0.2363 -0.4952
vn -0.0658 -0.1772 -0.9820
vn 0.7567 -0.4435 -0.4804
vn 0.8341 -0.2430 0.4953
vn 0.0492 0.1292 0.9904
vn -0.7960 0.3402 0.5005
vn -0.8570 0.1794 -0.4831
vn -0.0734 -0.1926 -0.9785
vn 0.7727 -0.4040 -0.4896
vn 0.3313 0.9277 -0.1723
vn -0.4111 -0.8464 -0.3386
vn 0.6857 -0.5574 0.4681
vn -0.1711 -0.3259 0.9298
vn -0.8691 0.2044 0.4505
vn -0.7123 0.5040 -0.4885
vn 0.1436 0.2736 -0.9511
vn 0.8429 -0.2576 -0.4724
vn 0.6025 -0.6629 0.4445
vn -0.1853 -0.2937 0.9378
vn -0.8097 0.3396 0.4786
vn -0.6451 0.6012 -0.4717
vn 0.1446 0.2291 -0.9626
vn 0.7659 -0.4017 -0.5019
vn 0.5557 0.7719 0.3088
vn 0.5558 0.7719 0.3088
vt 0.437500 0.687500
s 0
usemtl GamePalette
f 91/2/49 67/2/49 68/2/49
f 91/2/49 68/2/49 69/2/49
f 91/2/49 69/2/49 70/2/49
f 91/2/49 70/2/49 71/2/49
f 91/2/49 71/2/49 72/2/49
f 91/2/49 72/2/49 67/2/49
f 67/2/50 68/2/50 74/2/50 73/2/50
f 68/2/51 69/2/51 75/2/51 74/2/51
f 69/2/52 70/2/52 76/2/52 75/2/52
f 70/2/53 71/2/53 77/2/53 76/2/53
f 71/2/54 72/2/54 78/2/54 77/2/54
f 72/2/55 67/2/55 73/2/55 78/2/55
f 73/2/56 74/2/56 80/2/56 79/2/56
f 74/2/57 75/2/57 81/2/57 80/2/57
f 75/2/58 76/2/58 82/2/58 81/2/58
f 76/2/59 77/2/59 83/2/59 82/2/59
f 77/2/60 78/2/60 84/2/60 83/2/60
f 78/2/61 73/2/61 79/2/61 84/2/61
f 79/2/62 80/2/62 86/2/62 85/2/62
f 80/2/63 81/2/63 87/2/63 86/2/63
f 81/2/64 82/2/64 88/2/64 87/2/64
f 82/2/65 83/2/65 89/2/65 88/2/65
f 83/2/66 84/2/66 90/2/66 89/2/66
f 84/2/67 79/2/67 85/2/67 90/2/67
f 92/2/68 86/2/68 85/2/68
f 92/2/68 87/2/68 86/2/68
f 92/2/68 88/2/68 87/2/68
f 92/2/68 89/2/68 88/2/68
f 92/2/68 90/2/68 89/2/68
f 92/2/68 85/2/68 90/2/68
f 111/2/69 93/2/69 94/2/69
f 111/2/69 94/2/69 95/2/69
f 111/2/69 95/2/69 96/2/69
f 111/2/69 96/2/69 97/2/69
f 111/2/69 97/2/69 98/2/69
f 111/2/69 98/2/69 93/2/69
f 93/2/70 94/2/70 100/2/70 99/2/70
f 94/2/71 95/2/71 101/2/71 100/2/71
f 95/2/72 96/2/72 102/2/72 101/2/72
f 96/2/73 97/2/73 103/2/73 102/2/73
f 97/2/74 98/2/74 104/2/74 103/2/74
f 98/2/75 93/2/75 99/2/75 104/2/75
f 99/2/76 100/2/76 106/2/76 105/2/76
f 100/2/77 101/2/77 107/2/77 106/2/77
f 101/2/78 102/2/78 108/2/78 107/2/78
f 102/2/79 103/2/79 109/2/79 108/2/79
f 103/2/80 104/2/80 110/2/80 109/2/80
f 104/2/81 99/2/81 105/2/81 110/2/81
f 112/2/82 106/2/82 105/2/82
f 112/2/82 107/2/82 106/2/82
f 112/2/83 108/2/83 107/2/83
f 112/2/83 109/2/83 108/2/83
f 112/2/82 110/2/82 109/2/82
f 112/2/83 105/2/83 110/2/83
o Branch_Left_Main
v -0.134722 -0.032060 -0.030000
v -0.086552 -0.018420 -0.116566
v 0.008170 0.013640 -0.116566
v 0.054722 0.032060 -0.030000
v 0.006552 0.018420 0.056566
v -0.088170 -0.013640 0.056566
v -0.339738 0.620558 -0.050000
v -0.298217 0.630804 -0.123457
v -0.218478 0.660245 -0.123457
v -0.180262 0.679442 -0.050000
v -0.221783 0.669196 0.023457
v -0.301522 0.639754 0.023457
v -0.575861 1.278102 -0.120000
v -0.545825 1.283680 -0.171640
v -0.489964 1.305577 -0.171640
v -0.464139 1.321898 -0.120000
v -0.494175 1.316320 -0.068360
v -0.550036 1.294423 -0.068360
v -0.776145 1.889978 -0.200000
v -0.762000 1.892192 -0.224063
v -0.735855 1.902214 -0.224063
v -0.723855 1.910022 -0.200000
v -0.738000 1.907808 -0.175937
v -0.764145 1.897786 -0.175937
v -0.040000 0.000000 -0.030000
v -0.750000 1.900000 -0.200000
v -0.564464 1.277133 -0.120000
v -0.534774 1.274064 -0.160113
v -0.490310 1.296932 -0.160113
v -0.475536 1.322867 -0.120000
v -0.505226 1.325935 -0.079887
v -0.549690 1.303068 -0.079887
v -0.722232 1.638566 -0.280000
v -0.707387 1.637032 -0.300057
v -0.685155 1.648466 -0.300057
v -0.677768 1.661434 -0.280000
v -0.692613 1.662968 -0.259943
v -0.714845 1.651534 -0.259943
v -0.520000 1.300000 -0.120000
v -0.700000 1.650000 -0.280000
vn 0.3205 -0.9468 0.0291
vn 0.8212 0.2732 0.5010
vn -0.0034 0.0095 0.9999
vn -0.8189 -0.2818 0.5000
vn -0.8091 -0.3092 -0.4997
vn 0.0160 -0.0453 -0.9988
vn 0.8314 0.2461 -0.4982
vn 0.7974 0.3394 0.4990
vn -0.0244 0.0643 0.9976
vn -0.8104 -0.3035 0.5011
vn -0.7746 -0.3960 -0.4932
vn 0.0460 -0.1215 -0.9915
vn 0.8326 0.2463 -0.4961
vn 0.8009 0.3277 0.5011
vn -0.0294 0.0755 0.9967
vn -0.8151 -0.2919 0.5003
vn -0.7701 -0.4069 -0.4913
vn 0.0601 -0.1545 -0.9862
vn 0.8453 0.2126 -0.4901
vn -0.3552 0.9266 -0.1235
vn 0.4237 -0.8238 0.3766
vn 0.7047 0.5209 0.4818
vn -0.1505 0.2925 0.9443
vn -0.8336 -0.2703 0.4818
vn -0.6616 -0.6047 -0.4434
vn 0.1936 -0.3764 -0.9060
vn 0.8767 0.1864 -0.4434
vn -0.4237 0.8238 -0.3766
vt 0.562500 0.687500
s 0
usemtl GamePalette
f 137/3/84 113/3/84 114/3/84
f 137/3/84 114/3/84 115/3/84
f 137/3/84 115/3/84 116/3/84
f 137/3/84 116/3/84 117/3/84
f 137/3/84 117/3/84 118/3/84
f 137/3/84 118/3/84 113/3/84
f 113/3/85 114/3/85 120/3/85 119/3/85
f 114/3/86 115/3/86 121/3/86 120/3/86
f 115/3/87 116/3/87 122/3/87 121/3/87
f 116/3/88 117/3/88 123/3/88 122/3/88
f 117/3/89 118/3/89 124/3/89 123/3/89
f 118/3/90 113/3/90 119/3/90 124/3/90
f 119/3/91 120/3/91 126/3/91 125/3/91
f 120/3/92 121/3/92 127/3/92 126/3/92
f 121/3/93 122/3/93 128/3/93 127/3/93
f 122/3/94 123/3/94 129/3/94 128/3/94
f 123/3/95 124/3/95 130/3/95 129/3/95
f 124/3/96 119/3/96 125/3/96 130/3/96
f 125/3/97 126/3/97 132/3/97 131/3/97
f 126/3/98 127/3/98 133/3/98 132/3/98
f 127/3/99 128/3/99 134/3/99 133/3/99
f 128/3/100 129/3/100 135/3/100 134/3/100
f 129/3/101 130/3/101 136/3/101 135/3/101
f 130/3/102 125/3/102 131/3/102 136/3/102
f 138/3/103 132/3/103 131/3/103
f 138/3/103 133/3/103 132/3/103
f 138/3/103 134/3/103 133/3/103
f 138/3/103 135/3/103 134/3/103
f 138/3/103 136/3/103 135/3/103
f 138/3/103 131/3/103 136/3/103
f 151/3/104 139/3/104 140/3/104
f 151/3/104 140/3/104 141/3/104
f 151/3/104 141/3/104 142/3/104
f 151/3/104 142/3/104 143/3/104
f 151/3/104 143/3/104 144/3/104
f 151/3/104 144/3/104 139/3/104
f 139/3/105 140/3/105 146/3/105 145/3/105
f 140/3/106 141/3/106 147/3/106 146/3/106
f 141/3/107 142/3/107 148/3/107 147/3/107
f 142/3/108 143/3/108 149/3/108 148/3/108
f 143/3/109 144/3/109 150/3/109 149/3/109
f 144/3/110 139/3/110 145/3/110 150/3/110
f 152/3/111 146/3/111 145/3/111
f 152/3/111 147/3/111 146/3/111
f 152/3/111 148/3/111 147/3/111
f 152/3/111 149/3/111 148/3/111
f 152/3/111 150/3/111 149/3/111
f 152/3/111 145/3/111 150/3/111
o Branch_Back_Tall
v -0.099353 -0.011355 0.050000
v -0.052965 0.023096 -0.031617
v 0.046388 0.034450 -0.031617
v 0.099353 0.011355 0.050000
v 0.052965 -0.023096 0.131617
v -0.046388 -0.034450 0.131617
v -0.159545 0.691477 0.300000
v -0.122373 0.720007 0.235159
v -0.042828 0.728530 0.235159
v -0.000455 0.708523 0.300000
v -0.037627 0.679993 0.364841
v -0.117172 0.671470 0.364841
v -0.204707 1.394327 0.580000
v -0.179111 1.414114 0.535521
v -0.124404 1.419787 0.535521
v -0.095293 1.405673 0.580000
v -0.120889 1.385886 0.624479
v -0.175596 1.380213 0.624479
v -0.244856 2.047323 0.820000
v -0.233227 2.056080 0.799676
v -0.208371 2.058757 0.799676
v -0.195144 2.052677 0.820000
v -0.206773 2.043920 0.840324
v -0.231629 2.041243 0.840324
v 0.000000 0.000000 0.050000
v -0.220000 2.050000 0.820000
v -0.189821 1.420959 0.580000
v -0.163230 1.423173 0.543765
v -0.123408 1.402215 0.543765
v -0.110179 1.379041 0.580000
v -0.136770 1.376827 0.616235
v -0.176592 1.397785 0.616235
v 0.032302 1.789315 0.750000
v 0.044120 1.790299 0.733896
v 0.061819 1.780984 0.733896
v 0.067698 1.770685 0.750000
v 0.055880 1.769701 0.766104
v 0.038181 1.779016 0.766104
v -0.150000 1.400000 0.580000
v 0.050000 1.780000 0.750000
vn 0.1070 -0.9363 -0.3344
vn 0.8812 -0.0898 0.4642
vn 0.0393 -0.3539 0.9344
vn -0.8394 -0.2858 0.4623
vn -0.8761 0.0465 -0.4799
vn -0.0345 0.3105 -0.9499
vn 0.8441 0.2425 -0.4781
vn 0.8832 -0.1236 0.4525
vn 0.0417 -0.3940 0.9182
vn -0.8390 -0.2972 0.4559
vn -0.8782 0.0705 -0.4731
vn -0.0361 0.3412 -0.9393
vn 0.8448 0.2440 -0.4762
vn 0.8823 -0.1136 0.4568
vn 0.0396 -0.3773 0.9252
vn -0.8389 -0.2984 0.4551
vn -0.8746 0.0442 -0.4829
vn -0.0323 0.3077 -0.9509
vn 0.8461 0.2289 -0.4814
vn -0.1005 0.9333 0.3446
vn -0.4330 -0.8228 -0.3681
vn 0.6596 -0.6041 0.4471
vn -0.1915 -0.3639 0.9115
vn -0.8714 0.2017 0.4471
vn -0.7002 0.5271 -0.4816
vn 0.1510 0.2868 -0.9460
vn 0.8309 -0.2787 -0.4816
vn 0.4331 0.8228 0.3681
vn 0.4330 0.8228 0.3681
vt 0.187500 0.687500
s 0
usemtl GamePalette
f 177/4/112 153/4/112 154/4/112
f 177/4/112 154/4/112 155/4/112
f 177/4/112 155/4/112 156/4/112
f 177/4/112 156/4/112 157/4/112
f 177/4/112 157/4/112 158/4/112
f 177/4/112 158/4/112 153/4/112
f 153/4/113 154/4/113 160/4/113 159/4/113
f 154/4/114 155/4/114 161/4/114 160/4/114
f 155/4/115 156/4/115 162/4/115 161/4/115
f 156/4/116 157/4/116 163/4/116 162/4/116
f 157/4/117 158/4/117 164/4/117 163/4/117
f 158/4/118 153/4/118 159/4/118 164/4/118
f 159/4/119 160/4/119 166/4/119 165/4/119
f 160/4/120 161/4/120 167/4/120 166/4/120
f 161/4/121 162/4/121 168/4/121 167/4/121
f 162/4/122 163/4/122 169/4/122 168/4/122
f 163/4/123 164/4/123 170/4/123 169/4/123
f 164/4/124 159/4/124 165/4/124 170/4/124
f 165/4/125 166/4/125 172/4/125 171/4/125
f 166/4/126 167/4/126 173/4/126 172/4/126
f 167/4/127 168/4/127 174/4/127 173/4/127
f 168/4/128 169/4/128 175/4/128 174/4/128
f 169/4/129 170/4/129 176/4/129 175/4/129
f 170/4/130 165/4/130 171/4/130 176/4/130
f 178/4/131 172/4/131 171/4/131
f 178/4/131 173/4/131 172/4/131
f 178/4/131 174/4/131 173/4/131
f 178/4/131 175/4/131 174/4/131
f 178/4/131 176/4/131 175/4/131
f 178/4/131 171/4/131 176/4/131
f 191/4/132 179/4/132 180/4/132
f 191/4/132 180/4/132 181/4/132
f 191/4/132 181/4/132 182/4/132
f 191/4/132 182/4/132 183/4/132
f 191/4/132 183/4/132 184/4/132
f 191/4/132 184/4/132 179/4/132
f 179/4/133 180/4/133 186/4/133 185/4/133
f 180/4/134 181/4/134 187/4/134 186/4/134
f 181/4/135 182/4/135 188/4/135 187/4/135
f 182/4/136 183/4/136 189/4/136 188/4/136
f 183/4/137 184/4/137 190/4/137 189/4/137
f 184/4/138 179/4/138 185/4/138 190/4/138
f 192/4/139 186/4/139 185/4/139
f 192/4/139 187/4/139 186/4/139
f 192/4/140 188/4/140 187/4/140
f 192/4/139 189/4/139 188/4/139
f 192/4/140 190/4/140 189/4/140
f 192/4/140 185/4/140 190/4/140
o Branch_Front_Low
v -0.067104 0.022647 -0.060000
v -0.032369 -0.022588 -0.129622
v 0.054735 -0.045235 -0.129622
v 0.107104 -0.022647 -0.060000
v 0.072369 0.022588 0.009622
v -0.014735 0.045235 0.009622
v 0.082856 0.519790 -0.320000
v 0.108224 0.482059 -0.373225
v 0.175368 0.462269 -0.373225
v 0.217144 0.480210 -0.320000
v 0.191776 0.517941 -0.266775
v 0.124632 0.537731 -0.266775
v 0.256714 0.962302 -0.600000
v 0.273319 0.938425 -0.634339
v 0.316605 0.926123 -0.634339
v 0.343286 0.937698 -0.600000
v 0.326681 0.961575 -0.565661
v 0.283395 0.973877 -0.565661
v 0.398607 1.455134 -0.850000
v 0.407360 1.444466 -0.867135
v 0.428752 1.439332 -0.867135
v 0.441393 1.444866 -0.850000
v 0.432640 1.455534 -0.832865
v 0.411248 1.460668 -0.832865
v 0.020000 0.000000 -0.060000
v 0.420000 1.450000 -0.850000
vn -0.2248 -0.8645 0.4495
vn 0.8899 -0.0293 0.4552
vn 0.1121 0.4074 0.9064
vn -0.7840 0.4109 0.4653
vn -0.9038 -0.0219 -0.4274
vn -0.1263 -0.4590 -0.8794
vn 0.7707 -0.4627 -0.4380
vn 0.8847 -0.0550 0.4628
vn 0.1324 0.4555 0.8803
vn -0.7631 0.4773 0.4357
vn -0.9048 -0.0114 -0.4257
vn -0.1513 -0.5205 -0.8404
vn 0.7410 -0.5418 -0.3967
vn 0.8898 -0.0256 0.4556
vn 0.1057 0.3919 0.9139
vn -0.7902 0.3875 0.4748
vn -0.9054 -0.0341 -0.4232
vn -0.1219 -0.4523 -0.8835
vn 0.7760 -0.4480 -0.4439
vn 0.2099 0.8745 -0.4373
vn 0.2099 0.8745 -0.4372
vt 0.812500 0.687500
s 0
usemtl GamePalette
f 217/5/141 193/5/141 194/5/141
f 217/5/141 194/5/141 195/5/141
f 217/5/141 195/5/141 196/5/141
f 217/5/141 196/5/141 197/5/141
f 217/5/141 197/5/141 198/5/141
f 217/5/141 198/5/141 193/5/141
f 193/5/142 194/5/142 200/5/142 199/5/142
f 194/5/143 195/5/143 201/5/143 200/5/143
f 195/5/144 196/5/144 202/5/144 201/5/144
f 196/5/145 197/5/145 203/5/145 202/5/145
f 197/5/146 198/5/146 204/5/146 203/5/146
f 198/5/147 193/5/147 199/5/147 204/5/147
f 199/5/148 200/5/148 206/5/148 205/5/148
f 200/5/149 201/5/149 207/5/149 206/5/149
f 201/5/150 202/5/150 208/5/150 207/5/150
f 202/5/151 203/5/151 209/5/151 208/5/151
f 203/5/152 204/5/152 210/5/152 209/5/152
f 204/5/153 199/5/153 205/5/153 210/5/153
f 205/5/154 206/5/154 212/5/154 211/5/154
f 206/5/155 207/5/155 213/5/155 212/5/155
f 207/5/156 208/5/156 214/5/156 213/5/156
f 208/5/157 209/5/157 215/5/157 214/5/157
f 209/5/158 210/5/158 216/5/158 215/5/158
f 210/5/159 205/5/159 211/5/159 216/5/159
f 218/5/160 212/5/160 211/5/160
f 218/5/160 213/5/160 212/5/160
f 218/5/160 214/5/160 213/5/160
f 218/5/160 215/5/160 214/5/160
f 218/5/160 216/5/160 215/5/160
f 218/5/161 211/5/161 216/5/161
o Branch_Left_Low
v -0.120724 -0.047150 0.020000
v -0.094905 -0.009260 -0.051574
v -0.024181 0.037889 -0.051574
v 0.020724 0.047150 0.020000
v -0.005095 0.009260 0.091574
v -0.075819 -0.037889 0.091574
v -0.402852 0.412163 0.150000
v -0.384080 0.441773 0.095266
v -0.331228 0.479610 0.095266
v -0.297148 0.487837 0.150000
v -0.315920 0.458227 0.204734
v -0.368772 0.420390 0.204734
v -0.714946 0.856703 0.280000
v -0.702016 0.875166 0.244561
v -0.667070 0.898464 0.244561
v -0.645054 0.903297 0.280000
v -0.657984 0.884834 0.315439
v -0.692930 0.861536 0.315439
v -0.967342 1.340038 0.400000
v -0.960536 1.348265 0.383089
v -0.943194 1.358228 0.383089
v -0.932658 1.359962 0.400000
v -0.939464 1.351735 0.416911
v -0.956806 1.341772 0.416911
v -0.050000 0.000000 0.020000
v -0.950000 1.350000 0.400000
vn 0.5393 -0.8090 -0.2337
vn 0.8030 0.3593 0.4755
vn 0.1495 -0.2174 0.9646
vn -0.6368 -0.6021 0.4816
vn -0.7692 -0.4096 -0.4904
vn -0.1152 0.1676 -0.9791
vn 0.6707 0.5517 -0.4958
vn 0.7756 0.4017 0.4869
vn 0.1532 -0.2200 0.9634
vn -0.6005 -0.6487 0.4675
vn -0.7338 -0.4578 -0.5020
vn -0.1135 0.1630 -0.9801
vn 0.6422 0.5933 -0.4854
vn 0.8248 0.3134 0.4707
vn 0.1341 -0.2108 0.9683
vn -0.6747 -0.5529 0.4889
vn -0.7909 -0.3705 -0.4871
vn -0.0981 0.1542 -0.9832
vn 0.7086 0.4952 -0.5027
vn -0.4863 0.8466 0.2162
vn -0.4864 0.8466 0.2162
vt 0.437500 0.687500
s 0
usemtl GamePalette
f 243/6/162 219/6/162 220/6/162
f 243/6/162 220/6/162 221/6/162
f 243/6/162 221/6/162 222/6/162
f 243/6/162 222/6/162 223/6/162
f 243/6/162 223/6/162 224/6/162
f 243/6/162 224/6/162 219/6/162
f 219/6/163 220/6/163 226/6/163 225/6/163
f 220/6/164 221/6/164 227/6/164 226/6/164
f 221/6/165 222/6/165 228/6/165 227/6/165
f 222/6/166 223/6/166 229/6/166 228/6/166
f 223/6/167 224/6/167 230/6/167 229/6/167
f 224/6/168 219/6/168 225/6/168 230/6/168
f 225/6/169 226/6/169 232/6/169 231/6/169
f 226/6/170 227/6/170 233/6/170 232/6/170
f 227/6/171 228/6/171 234/6/171 233/6/171
f 228/6/172 229/6/172 235/6/172 234/6/172
f 229/6/173 230/6/173 236/6/173 235/6/173
f 230/6/174 225/6/174 231/6/174 236/6/174
f 231/6/175 232/6/175 238/6/175 237/6/175
f 232/6/176 233/6/176 239/6/176 238/6/176
f 233/6/177 234/6/177 240/6/177 239/6/177
f 234/6/178 235/6/178 241/6/178 240/6/178
f 235/6/179 236/6/179 242/6/179 241/6/179
f 236/6/180 231/6/180 237/6/180 242/6/180
f 244/6/181 238/6/181 237/6/181
f 244/6/182 239/6/182 238/6/182
f 244/6/181 240/6/181 239/6/181
f 244/6/181 241/6/181 240/6/181
f 244/6/181 242/6/181 241/6/181
f 244/6/181 237/6/181 242/6/181
o Branch_Right_Low
v -0.018389 0.050477 0.040000
v 0.028616 0.042595 -0.030380
v 0.097005 -0.007883 -0.030380
v 0.118389 -0.050477 0.040000
v 0.071384 -0.042595 0.110380
v 0.002995 0.007883 0.110380
v 0.308456 0.459601 0.200000
v 0.344940 0.453743 0.146525
v 0.396484 0.414142 0.146525
v 0.411544 0.380399 0.200000
v 0.375060 0.386257 0.253475
v 0.323516 0.425858 0.253475
v 0.647583 0.843434 0.380000
v 0.669844 0.840089 0.346935
v 0.702261 0.816656 0.346935
v 0.712417 0.796566 0.380000
v 0.690156 0.799910 0.413065
v 0.657739 0.823344 0.413065
v 0.943240 1.260913 0.520000
v 0.954108 1.259277 0.503290
v 0.970868 1.248364 0.503290
v 0.976760 1.239087 0.520000
v 0.965892 1.240723 0.536710
v 0.949132 1.251636 0.536710
v 0.050000 0.000000 0.040000
v 0.960000 1.250000 0.520000
vn -0.5678 -0.7693 -0.2930
vn 0.5901 -0.6560 0.4706
vn -0.1941 -0.2584 0.9463
vn -0.8021 0.3733 0.4661
vn -0.6260 0.6071 -0.4894
vn 0.1576 0.2099 -0.9649
vn 0.7660 -0.4217 -0.4853
vn 0.5540 -0.7001 0.4505
vn -0.2216 -0.2951 0.9294
vn -0.8003 0.3760 0.4671
vn -0.6014 0.6414 -0.4764
vn 0.1764 0.2349 -0.9559
vn 0.7540 -0.4363 -0.4911
vn 0.6315 -0.6081 0.4811
vn -0.1687 -0.2416 0.9556
vn -0.8173 0.3408 0.4646
vn -0.6654 0.5556 -0.4985
vn 0.1328 0.1901 -0.9727
vn 0.7824 -0.3923 -0.4837
vn 0.5264 0.8084 0.2632
vt 0.562500 0.687500
s 0
usemtl GamePalette
f 269/7/183 245/7/183 246/7/183
f 269/7/183 246/7/183 247/7/183
f 269/7/183 247/7/183 248/7/183
f 269/7/183 248/7/183 249/7/183
f 269/7/183 249/7/183 250/7/183
f 269/7/183 250/7/183 245/7/183
f 245/7/184 246/7/184 252/7/184 251/7/184
f 246/7/185 247/7/185 253/7/185 252/7/185
f 247/7/186 248/7/186 254/7/186 253/7/186
f 248/7/187 249/7/187 255/7/187 254/7/187
f 249/7/188 250/7/188 256/7/188 255/7/188
f 250/7/189 245/7/189 251/7/189 256/7/189
f 251/7/190 252/7/190 258/7/190 257/7/190
f 252/7/191 253/7/191 259/7/191 258/7/191
f 253/7/192 254/7/192 260/7/192 259/7/192
f 254/7/193 255/7/193 261/7/193 260/7/193
f 255/7/194 256/7/194 262/7/194 261/7/194
f 256/7/195 251/7/195 257/7/195 262/7/195
f 257/7/196 258/7/196 264/7/196 263/7/196
f 258/7/197 259/7/197 265/7/197 264/7/197
f 259/7/198 260/7/198 266/7/198 265/7/198
f 260/7/199 261/7/199 267/7/199 266/7/199
f 261/7/200 262/7/200 268/7/200 267/7/200
f 262/7/201 257/7/201 263/7/201 268/7/201
f 270/7/202 264/7/202 263/7/202
f 270/7/202 265/7/202 264/7/202
f 270/7/202 266/7/202 265/7/202
f 270/7/202 267/7/202 266/7/202
f 270/7/202 268/7/202 267/7/202
f 270/7/202 263/7/202 268/7/202
o Branch_Front_Small
v -0.089123 -0.029104 -0.050000
v -0.042282 -0.043715 -0.106723
v 0.026840 -0.014610 -0.106723
v 0.049123 0.029104 -0.050000
v 0.002282 0.043715 0.006723
v -0.066840 0.014610 0.006723
v -0.231066 0.359574 -0.280000
v -0.196924 0.348264 -0.321610
v -0.145858 0.368691 -0.321610
v -0.128934 0.400426 -0.280000
v -0.163076 0.411736 -0.238390
v -0.214142 0.391309 -0.238390
v -0.352919 0.738112 -0.500000
v -0.331692 0.730853 -0.526864
v -0.298773 0.742741 -0.526864
v -0.287081 0.761888 -0.500000
v -0.308308 0.769147 -0.473136
v -0.341227 0.757259 -0.473136
v -0.457027 1.094162 -0.680000
v -0.446302 1.090630 -0.694018
v -0.429275 1.096468 -0.694018
v -0.422973 1.105838 -0.680000
v -0.433698 1.109370 -0.665982
v -0.450725 1.103532 -0.665982
v -0.020000 0.000000 -0.050000
v -0.440000 1.100000 -0.680000
vn 0.3389 -0.8049 0.4872
vn 0.7178 0.5300 0.4515
vn -0.1733 0.4205 0.8906
vn -0.8786 -0.1390 0.4569
vn -0.6931 -0.5890 -0.4156
vn 0.1977 -0.4797 -0.8549
vn 0.9034 0.0798 -0.4214
vn 0.7338 0.5027 0.4570
vn -0.1624 0.4221 0.8919
vn -0.8844 -0.1122 0.4530
vn -0.7096 -0.5654 -0.4205
vn 0.1864 -0.4845 -0.8547
vn 0.9080 0.0494 -0.4162
vn 0.7550 0.4582 0.4691
vn -0.1355 0.3818 0.9143
vn -0.8806 -0.1064 0.4618
vn -0.7346 -0.5188 -0.4372
vn 0.1570 -0.4424 -0.8830
vn 0.9019 0.0464 -0.4293
vn -0.2917 0.8506 -0.4375
vn -0.2916 0.8506 -0.4375
vt 0.187500 0.687500
s 0
usemtl GamePalette
f 295/8/203 271/8/203 272/8/203
f 295/8/203 272/8/203 273/8/203
f 295/8/203 273/8/203 274/8/203
f 295/8/203 274/8/203 275/8/203
f 295/8/203 275/8/203 276/8/203
f 295/8/203 276/8/203 271/8/203
f 271/8/204 272/8/204 278/8/204 277/8/204
f 272/8/205 273/8/205 279/8/205 278/8/205
f 273/8/206 274/8/206 280/8/206 279/8/206
f 274/8/207 275/8/207 281/8/207 280/8/207
f 275/8/208 276/8/208 282/8/208 281/8/208
f 276/8/209 271/8/209 277/8/209 282/8/209
f 277/8/210 278/8/210 284/8/210 283/8/210
f 278/8/211 279/8/211 285/8/211 284/8/211
f 279/8/212 280/8/212 286/8/212 285/8/212
f 280/8/213 281/8/213 287/8/213 286/8/213
f 281/8/214 282/8/214 288/8/214 287/8/214
f 282/8/215 277/8/215 283/8/215 288/8/215
f 283/8/216 284/8/216 290/8/216 289/8/216
f 284/8/217 285/8/217 291/8/217 290/8/217
f 285/8/218 286/8/218 292/8/218 291/8/218
f 286/8/219 287/8/219 293/8/219 292/8/219
f 287/8/220 288/8/220 294/8/220 293/8/220
f 288/8/221 283/8/221 289/8/221 294/8/221
f 296/8/222 290/8/222 289/8/222
f 296/8/223 291/8/223 290/8/223
f 296/8/223 292/8/223 291/8/223
f 296/8/222 293/8/222 292/8/222
f 296/8/223 294/8/223 293/8/223
f 296/8/223 289/8/223 294/8/223
