# Blender 5.0.1
# www.blender.org
mtllib branches.mtl
o Twig1
v -0.005018 -0.060000 0.981770
v -0.047541 0.013596 0.982418
v -0.132523 0.013596 0.980647
v -0.174982 -0.060000 0.978230
v -0.132459 -0.133596 0.977582
v -0.047477 -0.133596 0.979353
v -0.002016 -0.050000 0.501592
v -0.041036 0.017536 0.502173
v -0.119020 0.017536 0.500582
v -0.157984 -0.050000 0.498408
v -0.118964 -0.117536 0.497827
v -0.040980 -0.117536 0.499418
v 0.002000 -0.040000 0.000000
v -0.034000 0.022351 -0.000636
v -0.106000 0.022351 -0.000636
v -0.142000 -0.040000 -0.000000
v -0.106000 -0.102351 0.000636
v -0.034000 -0.102351 0.000636
v -0.020029 -0.060000 -0.481874
v -0.050032 -0.008041 -0.481478
v -0.110002 -0.008041 -0.479604
v -0.139971 -0.060000 -0.478126
v -0.109968 -0.111959 -0.478522
v -0.049998 -0.111959 -0.480396
v -0.055039 -0.050000 -0.961873
v -0.077486 -0.011037 -0.960126
v -0.122447 -0.011037 -0.958253
v -0.144961 -0.050000 -0.958127
v -0.122514 -0.088963 -0.959874
v -0.077553 -0.088963 -0.961747
v -0.090000 -0.060000 0.980000
v -0.100000 -0.050000 -0.960000
vn -0.0208 -0.0208 0.9996
vn -0.8658 -0.5001 -0.0158
vn 0.0002 -1.0000 -0.0082
vn 0.8657 -0.5001 0.0202
vn 0.8653 0.4996 0.0411
vn -0.0007 0.9994 0.0334
vn -0.8662 0.4996 0.0050
vn -0.8658 -0.5001 -0.0169
vn 0.0001 -1.0000 -0.0096
vn 0.8659 -0.4999 0.0177
vn 0.8653 0.4998 0.0378
vn -0.0003 0.9995 0.0305
vn -0.8661 0.4998 0.0031
vn -0.8645 -0.4990 0.0603
vn 0.0009 -0.9980 0.0632
vn 0.8661 -0.4994 0.0245
vn 0.8659 0.4999 -0.0172
vn -0.0003 0.9998 -0.0200
vn -0.8658 0.5000 0.0188
vn -0.8645 -0.4999 0.0527
vn 0.0002 -1.0000 0.0062
vn 0.8658 -0.5001 -0.0194
vn 0.8662 0.4997 0.0013
vn 0.0017 0.9989 0.0476
vn -0.8632 0.4995 0.0733
vn -0.0416 0.0208 -0.9989
vt 0.437500 0.687500
s 0
usemtl GamePalette
f 31/1/1 1/1/1 2/1/1
f 31/1/1 2/1/1 3/1/1
f 31/1/1 3/1/1 4/1/1
f 31/1/1 4/1/1 5/1/1
f 31/1/1 5/1/1 6/1/1
f 31/1/1 6/1/1 1/1/1
f 1/1/2 2/1/2 8/1/2 7/1/2
f 2/1/3 3/1/3 9/1/3 8/1/3
f 3/1/4 4/1/4 10/1/4 9/1/4
f 4/1/5 5/1/5 11/1/5 10/1/5
f 5/1/6 6/1/6 12/1/6 11/1/6
f 6/1/7 1/1/7 7/1/7 12/1/7
f 7/1/8 8/1/8 14/1/8 13/1/8
f 8/1/9 9/1/9 15/1/9 14/1/9
f 9/1/10 10/1/10 16/1/10 15/1/10
f 10/1/11 11/1/11 17/1/11 16/1/11
f 11/1/12 12/1/12 18/1/12 17/1/12
f 12/1/13 7/1/13 13/1/13 18/1/13
f 13/1/14 14/1/14 20/1/14 19/1/14
f 14/1/15 15/1/15 21/1/15 20/1/15
f 15/1/16 16/1/16 22/1/16 21/1/16
f 16/1/17 17/1/17 23/1/17 22/1/17
f 17/1/18 18/1/18 24/1/18 23/1/18
f 18/1/19 13/1/19 19/1/19 24/1/19
f 19/1/20 20/1/20 26/1/20 25/1/20
f 20/1/21 21/1/21 27/1/21 26/1/21
f 21/1/22 22/1/22 28/1/22 27/1/22
f 22/1/23 23/1/23 29/1/23 28/1/23
f 23/1/24 24/1/24 30/1/24 29/1/24
f 24/1/25 19/1/25 25/1/25 30/1/25
f 32/1/26 26/1/26 25/1/26
f 32/1/26 27/1/26 26/1/26
f 32/1/26 28/1/26 27/1/26
f 32/1/26 29/1/26 28/1/26
f 32/1/26 30/1/26 29/1/26
f 32/1/26 25/1/26 30/1/26
o Twig2
v 0.169985 -0.040000 1.018334
v 0.124939 0.037889 1.016283
v 0.034954 0.037889 1.017949
v -0.009985 -0.040000 1.021666
v 0.035061 -0.117889 1.023717
v 0.125046 -0.117889 1.022051
v 0.151996 -0.060000 0.479196
v 0.110991 0.011011 0.478902
v 0.028995 0.011011 0.479706
v -0.011996 -0.060000 0.480804
v 0.029009 -0.131011 0.481098
v 0.111005 -0.131011 0.480294
v 0.144985 -0.050000 0.001500
v 0.107454 0.014923 0.002697
v 0.032469 0.014923 0.001197
v -0.004985 -0.050000 -0.001500
v 0.032546 -0.114923 -0.002697
v 0.107531 -0.114923 -0.001197
v 0.151997 -0.030000 -0.519398
v 0.120999 0.023694 -0.519699
v 0.059001 0.023694 -0.520301
v 0.028003 -0.030000 -0.520602
v 0.059001 -0.083694 -0.520301
v 0.120999 -0.083694 -0.519699
v 0.127991 -0.050000 -1.030941
v 0.103963 -0.008463 -1.032099
v 0.055973 -0.008463 -1.031158
v 0.032009 -0.050000 -1.029059
v 0.056037 -0.091537 -1.027901
v 0.104027 -0.091537 -1.028842
v 0.080000 -0.040000 1.020000
v 0.080000 -0.050000 -1.030000
vn 0.0185 0.0370 0.9991
vn -0.8652 -0.4992 0.0474
vn 0.0007 -0.9988 0.0499
vn 0.8662 -0.4994 0.0153
vn 0.8658 0.5000 -0.0217
vn -0.0003 0.9997 -0.0242
vn -0.8659 0.5001 0.0103
vn -0.8659 -0.5003 0.0023
vn -0.0000 -1.0000 -0.0082
vn 0.8661 -0.4998 0.0022
vn 0.8657 0.5000 0.0230
vn -0.0001 0.9994 0.0333
vn -0.8660 0.4995 0.0231
vn -0.8656 -0.4998 -0.0308
vn 0.0003 -0.9999 -0.0168
vn 0.8652 -0.5002 0.0357
vn 0.8637 0.4985 0.0742
vn -0.0009 0.9982 0.0601
vn -0.8662 0.4997 0.0076
vn -0.8647 -0.4987 0.0601
vn 0.0002 -0.9980 0.0627
vn 0.8660 -0.4993 0.0264
vn 0.8659 0.5001 -0.0128
vn -0.0000 0.9999 -0.0154
vn -0.8657 0.5001 0.0211
vn -0.0196 -0.0392 -0.9990
vt 0.187500 0.687500
s 0
usemtl GamePalette
f 63/2/27 33/2/27 34/2/27
f 63/2/27 34/2/27 35/2/27
f 63/2/27 35/2/27 36/2/27
f 63/2/27 36/2/27 37/2/27
f 63/2/27 37/2/27 38/2/27
f 63/2/27 38/2/27 33/2/27
f 33/2/28 34/2/28 40/2/28 39/2/28
f 34/2/29 35/2/29 41/2/29 40/2/29
f 35/2/30 36/2/30 42/2/30 41/2/30
f 36/2/31 37/2/31 43/2/31 42/2/31
f 37/2/32 38/2/32 44/2/32 43/2/32
f 38/2/33 33/2/33 39/2/33 44/2/33
f 39/2/34 40/2/34 46/2/34 45/2/34
f 40/2/35 41/2/35 47/2/35 46/2/35
f 41/2/36 42/2/36 48/2/36 47/2/36
f 42/2/37 43/2/37 49/2/37 48/2/37
f 43/2/38 44/2/38 50/2/38 49/2/38
f 44/2/39 39/2/39 45/2/39 50/2/39
f 45/2/40 46/2/40 52/2/40 51/2/40
f 46/2/41 47/2/41 53/2/41 52/2/41
f 47/2/42 48/2/42 54/2/42 53/2/42
f 48/2/43 49/2/43 55/2/43 54/2/43
f 49/2/44 50/2/44 56/2/44 55/2/44
f 50/2/45 45/2/45 51/2/45 56/2/45
f 51/2/46 52/2/46 58/2/46 57/2/46
f 52/2/47 53/2/47 59/2/47 58/2/47
f 53/2/48 54/2/48 60/2/48 59/2/48
f 54/2/49 55/2/49 61/2/49 60/2/49
f 55/2/50 56/2/50 62/2/50 61/2/50
f 56/2/51 51/2/51 57/2/51 62/2/51
f 64/2/52 58/2/52 57/2/52
f 64/2/52 59/2/52 58/2/52
f 64/2/52 60/2/52 59/2/52
f 64/2/52 61/2/52 60/2/52
f 64/2/52 62/2/52 61/2/52
f 64/2/52 57/2/52 62/2/52
o Twig3
v 0.047983 0.080000 0.898375
v 0.009021 0.147535 0.900594
v -0.068962 0.147535 0.902219
v -0.107983 0.080000 0.901625
v -0.069021 0.012465 0.899406
v 0.008962 0.012465 0.897781
v 0.032000 0.090000 0.420000
v -0.004000 0.152354 0.420000
v -0.076000 0.152354 0.420000
v -0.112000 0.090000 0.420000
v -0.076000 0.027646 0.420000
v -0.004000 0.027646 0.420000
v 0.034960 0.080000 0.002266
v 0.002526 0.136276 -0.000174
v -0.062435 0.136276 -0.002440
v -0.094960 0.080000 -0.002266
v -0.062526 0.023724 0.000174
v 0.002435 0.023724 0.002440
v 0.045000 0.070000 -0.440000
v 0.017500 0.117629 -0.439482
v -0.037500 0.117629 -0.439482
v -0.065000 0.070000 -0.440000
v -0.037500 0.022371 -0.440518
v 0.017500 0.022371 -0.440518
v 0.011964 0.090000 -0.921749
v -0.008955 0.126342 -0.919363
v -0.050919 0.126342 -0.917614
v -0.071964 0.090000 -0.918252
v -0.051045 0.053658 -0.920637
v -0.009081 0.053658 -0.922386
v -0.030000 0.080000 0.900000
v -0.030000 0.090000 -0.920000
vn 0.0208 -0.0208 0.9996
vn -0.8658 -0.5000 0.0185
vn -0.0001 -0.9999 -0.0100
vn 0.8658 -0.5000 -0.0176
vn 0.8661 0.4998 0.0032
vn 0.0003 0.9995 0.0317
vn -0.8653 0.4996 0.0394
vn -0.8662 -0.4996 0.0057
vn -0.0006 -0.9993 0.0381
vn 0.8650 -0.4996 0.0468
vn 0.8658 0.4999 0.0231
vn 0.0002 1.0000 -0.0094
vn -0.8658 0.5001 -0.0181
vn -0.8661 -0.4998 -0.0083
vn -0.0008 -0.9991 0.0425
vn 0.8636 -0.4992 0.0705
vn 0.8649 0.4997 0.0477
vn 0.0001 1.0000 -0.0031
vn -0.8654 0.5001 -0.0310
vn -0.8651 -0.5002 0.0386
vn -0.0003 -0.9998 -0.0182
vn 0.8655 -0.4999 -0.0335
vn 0.8664 0.4993 0.0082
vn 0.0012 0.9979 0.0649
vn -0.8634 0.4981 0.0799
vn -0.0416 0.0416 -0.9983
vt 0.562500 0.687500
s 0
usemtl GamePalette
f 95/3/53 65/3/53 66/3/53
f 95/3/53 66/3/53 67/3/53
f 95/3/53 67/3/53 68/3/53
f 95/3/53 68/3/53 69/3/53
f 95/3/53 69/3/53 70/3/53
f 95/3/53 70/3/53 65/3/53
f 65/3/54 66/3/54 72/3/54 71/3/54
f 66/3/55 67/3/55 73/3/55 72/3/55
f 67/3/56 68/3/56 74/3/56 73/3/56
f 68/3/57 69/3/57 75/3/57 74/3/57
f 69/3/58 70/3/58 76/3/58 75/3/58
f 70/3/59 65/3/59 71/3/59 76/3/59
f 71/3/60 72/3/60 78/3/60 77/3/60
f 72/3/61 73/3/61 79/3/61 78/3/61
f 73/3/62 74/3/62 80/3/62 79/3/62
f 74/3/63 75/3/63 81/3/63 80/3/63
f 75/3/64 76/3/64 82/3/64 81/3/64
f 76/3/65 71/3/65 77/3/65 82/3/65
f 77/3/66 78/3/66 84/3/66 83/3/66
f 78/3/67 79/3/67 85/3/67 84/3/67
f 79/3/68 80/3/68 86/3/68 85/3/68
f 80/3/69 81/3/69 87/3/69 86/3/69
f 81/3/70 82/3/70 88/3/70 87/3/70
f 82/3/71 77/3/71 83/3/71 88/3/71
f 83/3/72 84/3/72 90/3/72 89/3/72
f 84/3/73 85/3/73 91/3/73 90/3/73
f 85/3/74 86/3/74 92/3/74 91/3/74
f 86/3/75 87/3/75 93/3/75 92/3/75
f 87/3/76 88/3/76 94/3/76 93/3/76
f 88/3/77 83/3/77 89/3/77 94/3/77
f 96/3/78 90/3/78 89/3/78
f 96/3/78 91/3/78 90/3/78
f 96/3/78 92/3/78 91/3/78
f 96/3/78 93/3/78 92/3/78
f 96/3/78 94/3/78 93/3/78
f 96/3/78 89/3/78 94/3/78
o Twig4
v 0.131982 0.080000 0.938292
v 0.090960 0.150999 0.937667
v 0.008978 0.150999 0.939375
v -0.031982 0.080000 0.941708
v 0.009040 0.009001 0.942333
v 0.091022 0.009001 0.940625
v 0.114996 0.070000 0.459202
v 0.077498 0.134952 0.459601
v 0.002502 0.134952 0.460399
v -0.034996 0.070000 0.460798
v 0.002502 0.005048 0.460399
v 0.077498 0.005048 0.459601
v 0.107985 0.080000 0.001446
v 0.073966 0.138876 0.001975
v 0.005981 0.138876 0.000529
v -0.027985 0.080000 -0.001446
v 0.006034 0.021124 -0.001975
v 0.074019 0.021124 -0.000529
v 0.117997 0.090000 -0.479396
v 0.089004 0.140227 -0.480221
v 0.031007 0.140227 -0.480825
v 0.002003 0.090000 -0.480604
v 0.030996 0.039773 -0.479779
v 0.088993 0.039773 -0.479175
v 0.093990 0.070000 -0.960916
v 0.071962 0.108072 -0.962044
v 0.027972 0.108072 -0.961127
v 0.006010 0.070000 -0.959083
v 0.028038 0.031928 -0.957956
v 0.072028 0.031928 -0.958873
v 0.050000 0.080000 0.940000
v 0.050000 0.070000 -0.960000
vn 0.0208 0.0208 0.9996
vn -0.8652 -0.4997 0.0411
vn 0.0005 -0.9994 0.0335
vn 0.8661 -0.4998 0.0050
vn 0.8658 0.5001 -0.0158
vn -0.0001 1.0000 -0.0082
vn -0.8658 0.5000 0.0202
vn -0.8659 -0.5001 0.0024
vn -0.0000 -1.0000 -0.0086
vn 0.8661 -0.4999 0.0023
vn 0.8658 0.4999 0.0240
vn -0.0002 0.9994 0.0348
vn -0.8660 0.4995 0.0241
vn -0.8656 -0.5000 -0.0284
vn -0.0000 -1.0000 -0.0028
vn 0.8650 -0.4999 0.0436
vn 0.8641 0.4992 0.0646
vn -0.0006 0.9992 0.0389
vn -0.8660 0.5000 -0.0076
vn -0.8647 -0.4982 0.0638
vn 0.0002 -0.9978 0.0667
vn 0.8661 -0.4992 0.0280
vn 0.8659 0.5000 -0.0136
vn -0.0001 0.9999 -0.0164
vn -0.8656 0.5002 0.0224
vn -0.0208 -0.0416 -0.9989
vt 0.687500 0.687500
s 0
usemtl GamePalette
f 127/4/79 97/4/79 98/4/79
f 127/4/79 98/4/79 99/4/79
f 127/4/79 99/4/79 100/4/79
f 127/4/79 100/4/79 101/4/79
f 127/4/79 101/4/79 102/4/79
f 127/4/79 102/4/79 97/4/79
f 97/4/80 98/4/80 104/4/80 103/4/80
f 98/4/81 99/4/81 105/4/81 104/4/81
f 99/4/82 100/4/82 106/4/82 105/4/82
f 100/4/83 101/4/83 107/4/83 106/4/83
f 101/4/84 102/4/84 108/4/84 107/4/84
f 102/4/85 97/4/85 103/4/85 108/4/85
f 103/4/86 104/4/86 110/4/86 109/4/86
f 104/4/87 105/4/87 111/4/87 110/4/87
f 105/4/88 106/4/88 112/4/88 111/4/88
f 106/4/89 107/4/89 113/4/89 112/4/89
f 107/4/90 108/4/90 114/4/90 113/4/90
f 108/4/91 103/4/91 109/4/91 114/4/91
f 109/4/92 110/4/92 116/4/92 115/4/92
f 110/4/93 111/4/93 117/4/93 116/4/93
f 111/4/94 112/4/94 118/4/94 117/4/94
f 112/4/95 113/4/95 119/4/95 118/4/95
f 113/4/96 114/4/96 120/4/96 119/4/96
f 114/4/97 109/4/97 115/4/97 120/4/97
f 115/4/98 116/4/98 122/4/98 121/4/98
f 116/4/99 117/4/99 123/4/99 122/4/99
f 117/4/100 118/4/100 124/4/100 123/4/100
f 118/4/101 119/4/101 125/4/101 124/4/101
f 119/4/102 120/4/102 126/4/102 125/4/102
f 120/4/103 115/4/103 121/4/103 126/4/103
f 128/4/104 122/4/104 121/4/104
f 128/4/104 123/4/104 122/4/104
f 128/4/104 124/4/104 123/4/104
f 128/4/104 125/4/104 124/4/104
f 128/4/104 126/4/104 125/4/104
f 128/4/104 121/4/104 126/4/104
o TwineBand
v 0.200000 0.010000 0.060000
v 0.200000 0.010000 -0.060000
v 0.180194 0.079421 0.060000
v 0.180194 0.079421 -0.060000
v 0.124698 0.135093 0.060000
v 0.124698 0.135093 -0.060000
v 0.044504 0.165988 0.060000
v 0.044504 0.165988 -0.060000
v -0.044504 0.165988 0.060000
v -0.044504 0.165988 -0.060000
v -0.124698 0.135093 0.060000
v -0.124698 0.135093 -0.060000
v -0.180194 0.079421 0.060000
v -0.180194 0.079421 -0.060000
v -0.200000 0.010000 0.060000
v -0.200000 0.010000 -0.060000
v -0.180194 -0.059421 0.060000
v -0.180194 -0.059421 -0.060000
v -0.124698 -0.115093 0.060000
v -0.124698 -0.115093 -0.060000
v -0.044504 -0.145988 0.060000
v -0.044504 -0.145988 -0.060000
v 0.044504 -0.145988 0.060000
v 0.044504 -0.145988 -0.060000
v 0.124698 -0.115093 0.060000
v 0.124698 -0.115093 -0.060000
v 0.180194 -0.059421 0.060000
v 0.180194 -0.059421 -0.060000
v 0.000000 0.135000 0.000000
v 0.032562 0.159875 0.023657
v -0.012437 0.159875 0.038279
v -0.040249 0.159875 0.000000
v -0.012437 0.159875 -0.038279
v 0.032562 0.159875 -0.023657
v 0.012437 0.200125 0.038279
v -0.032562 0.200125 0.023657
v -0.032562 0.200125 -0.023657
v 0.012437 0.200125 -0.038279
v 0.040249 0.200125 0.000000
v 0.000000 0.225000 0.000000
v 0.040000 0.135000 -0.030000
v 0.065326 0.154347 -0.011600
v 0.030327 0.154347 -0.000228
v 0.008695 0.154347 -0.030000
v 0.030327 0.154347 -0.059772
v 0.065326 0.154347 -0.048400
v 0.049673 0.185653 -0.000228
v 0.014674 0.185653 -0.011600
v 0.014674 0.185653 -0.048400
v 0.049673 0.185653 -0.059772
v 0.071305 0.185653 -0.030000
v 0.040000 0.205000 -0.030000
v -0.030000 0.110514 -0.025062
v -0.030000 0.186693 0.040487
v -0.010000 0.099042 -0.008679
v -0.020000 0.180958 0.048679
v -0.030000 0.087571 0.007704
v -0.030000 0.175222 0.056870
v -0.050000 0.099042 -0.008679
v -0.040000 0.180958 0.048679
vn -0.9616 -0.2744 -0.0000
vn -0.7082 -0.7060 -0.0000
vn -0.3595 -0.9331 -0.0000
vn -0.0000 -1.0000 -0.0000
vn 0.3595 -0.9331 -0.0000
vn 0.7082 -0.7060 -0.0000
vn 0.9616 -0.2744 -0.0000
vn 0.9616 0.2744 -0.0000
vn 0.7082 0.7060 -0.0000
vn 0.3595 0.9331 -0.0000
vn -0.0000 1.0000 -0.0000
vn -0.3595 0.9331 -0.0000
vn -0.7082 0.7060 -0.0000
vn -0.9616 0.2744 -0.0000
vn 0.1876 -0.7947 0.5774
vn 0.6071 -0.7947 -0.0000
vn -0.4911 -0.7947 0.3568
vn -0.4911 -0.7947 -0.3568
vn 0.1876 -0.7947 -0.5774
vn 0.9822 -0.1876 -0.0000
vn 0.3035 -0.1876 0.9342
vn -0.7946 -0.1876 0.5774
vn -0.7946 -0.1876 -0.5774
vn 0.3035 -0.1876 -0.9342
vn 0.7946 0.1876 0.5774
vn -0.3035 0.1876 0.9342
vn -0.9822 0.1876 -0.0000
vn -0.3035 0.1876 -0.9342
vn 0.7946 0.1876 -0.5774
vn 0.4911 0.7947 0.3568
vn -0.1876 0.7947 0.5774
vn -0.6071 0.7947 -0.0000
vn -0.1876 0.7947 -0.5774
vn 0.4911 0.7947 -0.3568
vn 0.7053 0.4623 -0.5373
vn 0.7053 -0.3468 0.6182
vn -0.0000 0.8192 0.5736
vn -0.7053 -0.3468 0.6182
vn -0.7053 0.4623 -0.5373
vn -0.0000 -0.8192 -0.5736
vt 0.062500 0.562500
s 0
usemtl GamePalette
f 129/5/105 131/5/105 132/5/105 130/5/105
f 131/5/106 133/5/106 134/5/106 132/5/106
f 133/5/107 135/5/107 136/5/107 134/5/107
f 135/5/108 137/5/108 138/5/108 136/5/108
f 137/5/109 139/5/109 140/5/109 138/5/109
f 139/5/110 141/5/110 142/5/110 140/5/110
f 141/5/111 143/5/111 144/5/111 142/5/111
f 143/5/112 145/5/112 146/5/112 144/5/112
f 145/5/113 147/5/113 148/5/113 146/5/113
f 147/5/114 149/5/114 150/5/114 148/5/114
f 149/5/115 151/5/115 152/5/115 150/5/115
f 151/5/116 153/5/116 154/5/116 152/5/116
f 153/5/117 155/5/117 156/5/117 154/5/117
f 155/5/118 129/5/118 130/5/118 156/5/118
f 157/5/119 158/5/119 159/5/119
f 158/5/120 157/5/120 162/5/120
f 157/5/121 159/5/121 160/5/121
f 157/5/122 160/5/122 161/5/122
f 157/5/123 161/5/123 162/5/123
f 158/5/124 162/5/124 167/5/124
f 159/5/125 158/5/125 163/5/125
f 160/5/126 159/5/126 164/5/126
f 161/5/127 160/5/127 165/5/127
f 162/5/128 161/5/128 166/5/128
f 158/5/129 167/5/129 163/5/129
f 159/5/130 163/5/130 164/5/130
f 160/5/131 164/5/131 165/5/131
f 161/5/132 165/5/132 166/5/132
f 162/5/133 166/5/133 167/5/133
f 163/5/134 167/5/134 168/5/134
f 164/5/135 163/5/135 168/5/135
f 165/5/136 164/5/136 168/5/136
f 166/5/137 165/5/137 168/5/137
f 167/5/138 166/5/138 168/5/138
f 169/5/119 170/5/119 171/5/119
f 170/5/120 169/5/120 174/5/120
f 169/5/121 171/5/121 172/5/121
f 169/5/122 172/5/122 173/5/122
f 169/5/123 173/5/123 174/5/123
f 170/5/124 174/5/124 179/5/124
f 171/5/125 170/5/125 175/5/125
f 172/5/126 171/5/126 176/5/126
f 173/5/127 172/5/127 177/5/127
f 174/5/128 173/5/128 178/5/128
f 170/5/129 179/5/129 175/5/129
f 171/5/130 175/5/130 176/5/130
f 172/5/131 176/5/131 177/5/131
f 173/5/132 177/5/132 178/5/132
f 174/5/133 178/5/133 179/5/133
f 175/5/134 179/5/134 180/5/134
f 176/5/135 175/5/135 180/5/135
f 177/5/136 176/5/136 180/5/136
f 178/5/137 177/5/137 180/5/137
f 179/5/138 178/5/138 180/5/138
f 181/5/139 182/5/139 184/5/139 183/5/139
f 183/5/140 184/5/140 186/5/140 185/5/140
f 184/5/141 182/5/141 188/5/141 186/5/141
f 185/5/142 186/5/142 188/5/142 187/5/142
f 187/5/143 188/5/143 182/5/143 181/5/143
f 181/5/144 183/5/144 185/5/144 187/5/144
