# Blender 5.0.1
# www.blender.org
mtllib chest.mtl
o Chest
v -1.200000 0.040000 0.800000
v 1.200000 0.040000 0.800000
v 1.200000 0.040000 -0.800000
v -1.200000 0.040000 -0.800000
v -1.200000 1.150000 0.800000
v 1.200000 1.150000 0.800000
v 1.200000 1.150000 -0.800000
v -1.200000 1.150000 -0.800000
v -1.180000 0.400000 0.805000
v 1.180000 0.400000 0.805000
v 1.180000 0.400000 0.795000
v -1.180000 0.400000 0.795000
v -1.180000 0.430000 0.805000
v 1.180000 0.430000 0.805000
v 1.180000 0.430000 0.795000
v -1.180000 0.430000 0.795000
v -1.180000 0.770000 0.805000
v 1.180000 0.770000 0.805000
v 1.180000 0.770000 0.795000
v -1.180000 0.770000 0.795000
v -1.180000 0.800000 0.805000
v 1.180000 0.800000 0.805000
v 1.180000 0.800000 0.795000
v -1.180000 0.800000 0.795000
v -1.240000 1.150000 0.840000
v -1.240000 1.480000 0.720000
v -1.240000 1.740000 0.380000
v -1.240000 1.740000 -0.380000
v -1.240000 1.480000 -0.720000
v -1.240000 1.150000 -0.840000
v 1.240000 1.150000 0.840000
v 1.240000 1.480000 0.720000
v 1.240000 1.740000 0.380000
v 1.240000 1.740000 -0.380000
v 1.240000 1.480000 -0.720000
v 1.240000 1.150000 -0.840000
v -1.240000 0.000000 0.840000
v 1.240000 0.000000 0.840000
v 1.240000 0.000000 -0.840000
v -1.240000 0.000000 -0.840000
v -1.240000 0.140000 0.840000
v 1.240000 0.140000 0.840000
v 1.240000 0.140000 -0.840000
v -1.240000 0.140000 -0.840000
v -1.230000 1.070000 0.830000
v 1.230000 1.070000 0.830000
v 1.230000 1.070000 -0.830000
v -1.230000 1.070000 -0.830000
v -1.230000 1.150000 0.830000
v 1.230000 1.150000 0.830000
v 1.230000 1.150000 -0.830000
v -1.230000 1.150000 -0.830000
v -1.230000 0.140000 0.830000
v -1.110000 0.140000 0.830000
v -1.110000 0.140000 0.710000
v -1.230000 0.140000 0.710000
v -1.230000 1.070000 0.830000
v -1.110000 1.070000 0.830000
v -1.110000 1.070000 0.710000
v -1.230000 1.070000 0.710000
v 1.110000 0.140000 0.830000
v 1.230000 0.140000 0.830000
v 1.230000 0.140000 0.710000
v 1.110000 0.140000 0.710000
v 1.110000 1.070000 0.830000
v 1.230000 1.070000 0.830000
v 1.230000 1.070000 0.710000
v 1.110000 1.070000 0.710000
v -1.230000 0.140000 -0.710000
v -1.110000 0.140000 -0.710000
v -1.110000 0.140000 -0.830000
v -1.230000 0.140000 -0.830000
v -1.230000 1.070000 -0.710000
v -1.110000 1.070000 -0.710000
v -1.110000 1.070000 -0.830000
v -1.230000 1.070000 -0.830000
v 1.110000 0.140000 -0.710000
v 1.230000 0.140000 -0.710000
v 1.230000 0.140000 -0.830000
v 1.110000 0.140000 -0.830000
v 1.110000 1.070000 -0.710000
v 1.230000 1.070000 -0.710000
v 1.230000 1.070000 -0.830000
v 1.110000 1.070000 -0.830000
v -0.670000 0.140000 0.820000
v -0.570000 0.140000 0.820000
v -0.570000 0.140000 0.800000
v -0.670000 0.140000 0.800000
v -0.670000 1.070000 0.820000
v -0.570000 1.070000 0.820000
v -0.570000 1.070000 0.800000
v -0.670000 1.070000 0.800000
v 0.570000 0.140000 0.820000
v 0.670000 0.140000 0.820000
v 0.670000 0.140000 0.800000
v 0.570000 0.140000 0.800000
v 0.570000 1.070000 0.820000
v 0.670000 1.070000 0.820000
v 0.670000 1.070000 0.800000
v 0.570000 1.070000 0.800000
v -0.670000 0.140000 -0.800000
v -0.570000 0.140000 -0.800000
v -0.570000 0.140000 -0.820000
v -0.670000 0.140000 -0.820000
v -0.670000 1.070000 -0.800000
v -0.570000 1.070000 -0.800000
v -0.570000 1.070000 -0.820000
v -0.670000 1.070000 -0.820000
v 0.570000 0.140000 -0.800000
v 0.670000 0.140000 -0.800000
v 0.670000 0.140000 -0.820000
v 0.570000 0.140000 -0.820000
v 0.570000 1.070000 -0.800000
v 0.670000 1.070000 -0.800000
v 0.670000 1.070000 -0.820000
v 0.570000 1.070000 -0.820000
v -0.635000 0.285000 0.825000
v -0.605000 0.285000 0.825000
v -0.605000 0.285000 0.815000
v -0.635000 0.285000 0.815000
v -0.635000 0.315000 0.825000
v -0.605000 0.315000 0.825000
v -0.605000 0.315000 0.815000
v -0.635000 0.315000 0.815000
v -0.635000 0.585000 0.825000
v -0.605000 0.585000 0.825000
v -0.605000 0.585000 0.815000
v -0.635000 0.585000 0.815000
v -0.635000 0.615000 0.825000
v -0.605000 0.615000 0.825000
v -0.605000 0.615000 0.815000
v -0.635000 0.615000 0.815000
v -0.635000 0.885000 0.825000
v -0.605000 0.885000 0.825000
v -0.605000 0.885000 0.815000
v -0.635000 0.885000 0.815000
v -0.635000 0.915000 0.825000
v -0.605000 0.915000 0.825000
v -0.605000 0.915000 0.815000
v -0.635000 0.915000 0.815000
v 0.605000 0.285000 0.825000
v 0.635000 0.285000 0.825000
v 0.635000 0.285000 0.815000
v 0.605000 0.285000 0.815000
v 0.605000 0.315000 0.825000
v 0.635000 0.315000 0.825000
v 0.635000 0.315000 0.815000
v 0.605000 0.315000 0.815000
v 0.605000 0.585000 0.825000
v 0.635000 0.585000 0.825000
v 0.635000 0.585000 0.815000
v 0.605000 0.585000 0.815000
v 0.605000 0.615000 0.825000
v 0.635000 0.615000 0.825000
v 0.635000 0.615000 0.815000
v 0.605000 0.615000 0.815000
v 0.605000 0.885000 0.825000
v 0.635000 0.885000 0.825000
v 0.635000 0.885000 0.815000
v 0.605000 0.885000 0.815000
v 0.605000 0.915000 0.825000
v 0.635000 0.915000 0.825000
v 0.635000 0.915000 0.815000
v 0.605000 0.915000 0.815000
v -0.670000 1.150000 0.840000
v -0.570000 1.150000 0.840000
v -0.670000 1.150000 0.865000
v -0.570000 1.150000 0.865000
v -0.670000 1.480000 0.720000
v -0.570000 1.480000 0.720000
v -0.670000 1.493662 0.740937
v -0.570000 1.493662 0.740937
v -0.670000 1.740000 0.380000
v -0.570000 1.740000 0.380000
v -0.670000 1.762778 0.390304
v -0.570000 1.762778 0.390304
v -0.670000 1.740000 -0.380000
v -0.570000 1.740000 -0.380000
v -0.670000 1.762778 -0.390304
v -0.570000 1.762778 -0.390304
v -0.670000 1.480000 -0.720000
v -0.570000 1.480000 -0.720000
v -0.670000 1.493662 -0.740937
v -0.570000 1.493662 -0.740937
v -0.670000 1.150000 -0.840000
v -0.570000 1.150000 -0.840000
v -0.670000 1.150000 -0.865000
v -0.570000 1.150000 -0.865000
v 0.570000 1.150000 0.840000
v 0.670000 1.150000 0.840000
v 0.570000 1.150000 0.865000
v 0.670000 1.150000 0.865000
v 0.570000 1.480000 0.720000
v 0.670000 1.480000 0.720000
v 0.570000 1.493662 0.740937
v 0.670000 1.493662 0.740937
v 0.570000 1.740000 0.380000
v 0.670000 1.740000 0.380000
v 0.570000 1.762778 0.390304
v 0.670000 1.762778 0.390304
v 0.570000 1.740000 -0.380000
v 0.670000 1.740000 -0.380000
v 0.570000 1.762778 -0.390304
v 0.670000 1.762778 -0.390304
v 0.570000 1.480000 -0.720000
v 0.670000 1.480000 -0.720000
v 0.570000 1.493662 -0.740937
v 0.670000 1.493662 -0.740937
v 0.570000 1.150000 -0.840000
v 0.670000 1.150000 -0.840000
v 0.570000 1.150000 -0.865000
v 0.670000 1.150000 -0.865000
v -1.265000 1.150000 0.840000
v -1.215000 1.150000 0.840000
v -1.265000 1.150000 0.860000
v -1.215000 1.150000 0.860000
v -1.265000 1.480000 0.720000
v -1.215000 1.480000 0.720000
v -1.265000 1.490930 0.736749
v -1.215000 1.490930 0.736749
v -1.265000 1.740000 0.380000
v -1.215000 1.740000 0.380000
v -1.265000 1.758222 0.388243
v -1.215000 1.758222 0.388243
v -1.265000 1.740000 -0.380000
v -1.215000 1.740000 -0.380000
v -1.265000 1.758222 -0.388243
v -1.215000 1.758222 -0.388243
v -1.265000 1.480000 -0.720000
v -1.215000 1.480000 -0.720000
v -1.265000 1.490930 -0.736749
v -1.215000 1.490930 -0.736749
v -1.265000 1.150000 -0.840000
v -1.215000 1.150000 -0.840000
v -1.265000 1.150000 -0.860000
v -1.215000 1.150000 -0.860000
v 1.215000 1.150000 0.840000
v 1.265000 1.150000 0.840000
v 1.215000 1.150000 0.860000
v 1.265000 1.150000 0.860000
v 1.215000 1.480000 0.720000
v 1.265000 1.480000 0.720000
v 1.215000 1.490930 0.736749
v 1.265000 1.490930 0.736749
v 1.215000 1.740000 0.380000
v 1.265000 1.740000 0.380000
v 1.215000 1.758222 0.388243
v 1.265000 1.758222 0.388243
v 1.215000 1.740000 -0.380000
v 1.265000 1.740000 -0.380000
v 1.215000 1.758222 -0.388243
v 1.265000 1.758222 -0.388243
v 1.215000 1.480000 -0.720000
v 1.265000 1.480000 -0.720000
v 1.215000 1.490930 -0.736749
v 1.265000 1.490930 -0.736749
v 1.215000 1.150000 -0.840000
v 1.265000 1.150000 -0.840000
v 1.215000 1.150000 -0.860000
v 1.265000 1.150000 -0.860000
v -1.250000 1.140000 0.860000
v 1.250000 1.140000 0.860000
v 1.250000 1.140000 0.820000
v -1.250000 1.140000 0.820000
v -1.250000 1.200000 0.860000
v 1.250000 1.200000 0.860000
v 1.250000 1.200000 0.820000
v -1.250000 1.200000 0.820000
v -0.160000 0.940000 0.840000
v 0.160000 0.940000 0.840000
v 0.160000 0.940000 0.810000
v -0.160000 0.940000 0.810000
v -0.160000 1.260000 0.840000
v 0.160000 1.260000 0.840000
v 0.160000 1.260000 0.810000
v -0.160000 1.260000 0.810000
v -0.110000 1.080000 0.860000
v 0.110000 1.080000 0.860000
v 0.110000 1.080000 0.830000
v -0.110000 1.080000 0.830000
v -0.110000 1.280000 0.860000
v 0.110000 1.280000 0.860000
v 0.110000 1.280000 0.830000
v -0.110000 1.280000 0.830000
v -0.180000 0.860000 0.920000
v 0.180000 0.860000 0.920000
v 0.180000 0.860000 0.850000
v -0.180000 0.860000 0.850000
v -0.180000 1.100000 0.920000
v 0.180000 1.100000 0.920000
v 0.180000 1.100000 0.850000
v -0.180000 1.100000 0.850000
v -0.040000 0.920000 0.925000
v 0.040000 0.920000 0.925000
v 0.040000 0.920000 0.915000
v -0.040000 0.920000 0.915000
v -0.040000 1.020000 0.925000
v 0.040000 1.020000 0.925000
v 0.040000 1.020000 0.915000
v -0.040000 1.020000 0.915000
v -0.120000 1.100000 0.890000
v 0.120000 1.100000 0.890000
v 0.120000 1.100000 0.860000
v -0.120000 1.100000 0.860000
v -0.120000 1.180000 0.890000
v 0.120000 1.180000 0.890000
v 0.120000 1.180000 0.860000
v -0.120000 1.180000 0.860000
v -1.230000 0.520000 0.200000
v -1.205000 0.520000 0.200000
v -1.205000 0.520000 -0.200000
v -1.230000 0.520000 -0.200000
v -1.230000 0.740000 0.200000
v -1.205000 0.740000 0.200000
v -1.205000 0.740000 -0.200000
v -1.230000 0.740000 -0.200000
v -1.320000 0.440000 0.160000
v -1.230000 0.440000 0.160000
v -1.230000 0.440000 0.100000
v -1.320000 0.440000 0.100000
v -1.320000 0.680000 0.160000
v -1.230000 0.680000 0.160000
v -1.230000 0.680000 0.100000
v -1.320000 0.680000 0.100000
v -1.320000 0.440000 -0.100000
v -1.230000 0.440000 -0.100000
v -1.230000 0.440000 -0.160000
v -1.320000 0.440000 -0.160000
v -1.320000 0.680000 -0.100000
v -1.230000 0.680000 -0.100000
v -1.230000 0.680000 -0.160000
v -1.320000 0.680000 -0.160000
v -1.320000 0.400000 0.160000
v -1.230000 0.400000 0.160000
v -1.230000 0.400000 -0.160000
v -1.320000 0.400000 -0.160000
v -1.320000 0.460000 0.160000
v -1.230000 0.460000 0.160000
v -1.230000 0.460000 -0.160000
v -1.320000 0.460000 -0.160000
v 1.205000 0.520000 0.200000
v 1.230000 0.520000 0.200000
v 1.230000 0.520000 -0.200000
v 1.205000 0.520000 -0.200000
v 1.205000 0.740000 0.200000
v 1.230000 0.740000 0.200000
v 1.230000 0.740000 -0.200000
v 1.205000 0.740000 -0.200000
v 1.230000 0.440000 0.160000
v 1.320000 0.440000 0.160000
v 1.320000 0.440000 0.100000
v 1.230000 0.440000 0.100000
v 1.230000 0.680000 0.160000
v 1.320000 0.680000 0.160000
v 1.320000 0.680000 0.100000
v 1.230000 0.680000 0.100000
v 1.230000 0.440000 -0.100000
v 1.320000 0.440000 -0.100000
v 1.320000 0.440000 -0.160000
v 1.230000 0.440000 -0.160000
v 1.230000 0.680000 -0.100000
v 1.320000 0.680000 -0.100000
v 1.320000 0.680000 -0.160000
v 1.230000 0.680000 -0.160000
v 1.230000 0.400000 0.160000
v 1.320000 0.400000 0.160000
v 1.320000 0.400000 -0.160000
v 1.230000 0.400000 -0.160000
v 1.230000 0.460000 0.160000
v 1.320000 0.460000 0.160000
v 1.320000 0.460000 -0.160000
v 1.230000 0.460000 -0.160000
v -0.670000 1.080000 -0.800000
v -0.570000 1.080000 -0.800000
v -0.570000 1.080000 -0.840000
v -0.670000 1.080000 -0.840000
v -0.670000 1.220000 -0.800000
v -0.570000 1.220000 -0.800000
v -0.570000 1.220000 -0.840000
v -0.670000 1.220000 -0.840000
v 0.570000 1.080000 -0.800000
v 0.670000 1.080000 -0.800000
v 0.670000 1.080000 -0.840000
v 0.570000 1.080000 -0.840000
v 0.570000 1.220000 -0.800000
v 0.670000 1.220000 -0.800000
v 0.670000 1.220000 -0.840000
v 0.570000 1.220000 -0.840000
vn -0.0000 1.0000 -0.0000
vn -0.0000 -1.0000 -0.0000
vn -0.0000 -0.0000 -1.0000
vn -0.0000 -0.0000 1.0000
vn 1.0000 -0.0000 -0.0000
vn -1.0000 -0.0000 -0.0000
vn -0.0000 0.3417 0.9398
vn -0.0000 0.7944 0.6075
vn -0.0000 0.7944 -0.6075
vn -0.0000 0.3417 -0.9398
vn -0.0000 0.3396 0.9406
vn -0.0000 0.7933 0.6089
vn -0.0000 0.7933 -0.6089
vn -0.0000 0.3396 -0.9406
vn -0.0000 0.3400 0.9404
vn -0.0000 0.7935 0.6086
vn -0.0000 0.7935 -0.6086
vn -0.0000 0.3400 -0.9404
vn -0.0000 0.7944 0.6074
vt 0.312500 0.687500
vt 0.437500 0.687500
vt 0.687500 0.812500
vt 0.562500 0.812500
vt 0.187500 0.812500
vt 0.312500 0.312500
vt 0.812500 0.312500
s 0
usemtl GamePalette
f 2/1/1 4/1/1 1/1/1
f 8/1/2 6/1/2 5/1/2
f 5/1/3 2/1/3 1/1/3
f 7/1/4 4/1/4 3/1/4
f 8/1/5 1/1/5 4/1/5
f 6/1/6 3/1/6 2/1/6
f 10/2/1 12/2/1 9/2/1
f 16/2/2 14/2/2 13/2/2
f 13/2/3 10/2/3 9/2/3
f 15/2/4 12/2/4 11/2/4
f 16/2/5 9/2/5 12/2/5
f 14/2/6 11/2/6 10/2/6
f 18/2/1 20/2/1 17/2/1
f 24/2/2 22/2/2 21/2/2
f 21/2/3 18/2/3 17/2/3
f 23/2/4 20/2/4 19/2/4
f 24/2/5 17/2/5 20/2/5
f 22/2/6 19/2/6 18/2/6
f 31/1/7 26/1/7 25/1/7
f 32/1/8 27/1/8 26/1/8
f 33/1/1 28/1/1 27/1/1
f 34/1/9 29/1/9 28/1/9
f 35/1/10 30/1/10 29/1/10
f 36/1/2 25/1/2 30/1/2
f 29/2/5 27/2/5 25/2/5
f 32/2/6 34/2/6 36/2/6
f 38/3/1 40/3/1 37/3/1
f 44/3/2 42/3/2 41/3/2
f 41/3/3 38/3/3 37/3/3
f 43/3/4 40/3/4 39/3/4
f 44/3/5 37/3/5 40/3/5
f 42/3/6 39/3/6 38/3/6
f 46/3/1 48/3/1 45/3/1
f 52/3/2 50/3/2 49/3/2
f 49/3/3 46/3/3 45/3/3
f 51/3/4 48/3/4 47/3/4
f 52/3/5 45/3/5 48/3/5
f 50/3/6 47/3/6 46/3/6
f 54/4/1 56/4/1 53/4/1
f 60/4/2 58/4/2 57/4/2
f 57/4/3 54/4/3 53/4/3
f 59/4/4 56/4/4 55/4/4
f 60/4/5 53/4/5 56/4/5
f 58/4/6 55/4/6 54/4/6
f 62/4/1 64/4/1 61/4/1
f 68/4/2 66/4/2 65/4/2
f 65/4/3 62/4/3 61/4/3
f 67/4/4 64/4/4 63/4/4
f 68/4/5 61/4/5 64/4/5
f 66/4/6 63/4/6 62/4/6
f 70/4/1 72/4/1 69/4/1
f 76/4/2 74/4/2 73/4/2
f 73/4/3 70/4/3 69/4/3
f 75/4/4 72/4/4 71/4/4
f 76/4/5 69/4/5 72/4/5
f 74/4/6 71/4/6 70/4/6
f 78/4/1 80/4/1 77/4/1
f 84/4/2 82/4/2 81/4/2
f 81/4/3 78/4/3 77/4/3
f 83/4/4 80/4/4 79/4/4
f 84/4/5 77/4/5 80/4/5
f 82/4/6 79/4/6 78/4/6
f 86/4/1 88/4/1 85/4/1
f 92/4/2 90/4/2 89/4/2
f 89/4/3 86/4/3 85/4/3
f 91/4/4 88/4/4 87/4/4
f 92/4/5 85/4/5 88/4/5
f 90/4/6 87/4/6 86/4/6
f 94/4/1 96/4/1 93/4/1
f 100/4/2 98/4/2 97/4/2
f 97/4/3 94/4/3 93/4/3
f 99/4/4 96/4/4 95/4/4
f 100/4/5 93/4/5 96/4/5
f 98/4/6 95/4/6 94/4/6
f 102/4/1 104/4/1 101/4/1
f 108/4/2 106/4/2 105/4/2
f 105/4/3 102/4/3 101/4/3
f 107/4/4 104/4/4 103/4/4
f 108/4/5 101/4/5 104/4/5
f 106/4/6 103/4/6 102/4/6
f 110/4/1 112/4/1 109/4/1
f 116/4/2 114/4/2 113/4/2
f 113/4/3 110/4/3 109/4/3
f 115/4/4 112/4/4 111/4/4
f 116/4/5 109/4/5 112/4/5
f 114/4/6 111/4/6 110/4/6
f 118/5/1 120/5/1 117/5/1
f 124/5/2 122/5/2 121/5/2
f 121/5/3 118/5/3 117/5/3
f 123/5/4 120/5/4 119/5/4
f 124/5/5 117/5/5 120/5/5
f 122/5/6 119/5/6 118/5/6
f 126/5/1 128/5/1 125/5/1
f 132/5/2 130/5/2 129/5/2
f 129/5/3 126/5/3 125/5/3
f 131/5/4 128/5/4 127/5/4
f 132/5/5 125/5/5 128/5/5
f 130/5/6 127/5/6 126/5/6
f 134/5/1 136/5/1 133/5/1
f 140/5/2 138/5/2 137/5/2
f 137/5/3 134/5/3 133/5/3
f 139/5/4 136/5/4 135/5/4
f 140/5/5 133/5/5 136/5/5
f 138/5/6 135/5/6 134/5/6
f 142/5/1 144/5/1 141/5/1
f 148/5/2 146/5/2 145/5/2
f 145/5/3 142/5/3 141/5/3
f 147/5/4 144/5/4 143/5/4
f 148/5/5 141/5/5 144/5/5
f 146/5/6 143/5/6 142/5/6
f 150/5/1 152/5/1 149/5/1
f 156/5/2 154/5/2 153/5/2
f 153/5/3 150/5/3 149/5/3
f 155/5/4 152/5/4 151/5/4
f 156/5/5 149/5/5 152/5/5
f 154/5/6 151/5/6 150/5/6
f 158/5/1 160/5/1 157/5/1
f 164/5/2 162/5/2 161/5/2
f 161/5/3 158/5/3 157/5/3
f 163/5/4 160/5/4 159/5/4
f 164/5/5 157/5/5 160/5/5
f 162/5/6 159/5/6 158/5/6
f 168/4/11 171/4/11 167/4/11
f 165/4/6 171/4/6 169/4/6
f 166/4/5 172/4/5 168/4/5
f 172/4/12 175/4/12 171/4/12
f 169/4/6 175/4/6 173/4/6
f 170/4/5 176/4/5 172/4/5
f 176/4/1 179/4/1 175/4/1
f 175/4/6 177/4/6 173/4/6
f 174/4/5 180/4/5 176/4/5
f 180/4/13 183/4/13 179/4/13
f 179/4/6 181/4/6 177/4/6
f 180/4/5 182/4/5 184/4/5
f 184/4/14 187/4/14 183/4/14
f 183/4/6 185/4/6 181/4/6
f 184/4/5 186/4/5 188/4/5
f 166/4/2 167/4/2 165/4/2
f 188/4/2 185/4/2 187/4/2
f 192/4/11 195/4/11 191/4/11
f 189/4/6 195/4/6 193/4/6
f 190/4/5 196/4/5 192/4/5
f 196/4/12 199/4/12 195/4/12
f 193/4/6 199/4/6 197/4/6
f 194/4/5 200/4/5 196/4/5
f 200/4/1 203/4/1 199/4/1
f 199/4/6 201/4/6 197/4/6
f 198/4/5 204/4/5 200/4/5
f 204/4/13 207/4/13 203/4/13
f 203/4/6 205/4/6 201/4/6
f 204/4/5 206/4/5 208/4/5
f 208/4/14 211/4/14 207/4/14
f 207/4/6 209/4/6 205/4/6
f 208/4/5 210/4/5 212/4/5
f 190/4/2 191/4/2 189/4/2
f 212/4/2 209/4/2 211/4/2
f 216/3/15 219/3/15 215/3/15
f 213/3/6 219/3/6 217/3/6
f 214/3/5 220/3/5 216/3/5
f 220/3/16 223/3/16 219/3/16
f 217/3/6 223/3/6 221/3/6
f 218/3/5 224/3/5 220/3/5
f 224/3/1 227/3/1 223/3/1
f 223/3/6 225/3/6 221/3/6
f 222/3/5 228/3/5 224/3/5
f 228/3/17 231/3/17 227/3/17
f 227/3/6 229/3/6 225/3/6
f 228/3/5 230/3/5 232/3/5
f 232/3/18 235/3/18 231/3/18
f 231/3/6 233/3/6 229/3/6
f 232/3/5 234/3/5 236/3/5
f 214/3/2 215/3/2 213/3/2
f 236/3/2 233/3/2 235/3/2
f 240/3/15 243/3/15 239/3/15
f 237/3/6 243/3/6 241/3/6
f 238/3/5 244/3/5 240/3/5
f 244/3/16 247/3/16 243/3/16
f 241/3/6 247/3/6 245/3/6
f 242/3/5 248/3/5 244/3/5
f 248/3/1 251/3/1 247/3/1
f 247/3/6 249/3/6 245/3/6
f 246/3/5 252/3/5 248/3/5
f 252/3/17 255/3/17 251/3/17
f 251/3/6 253/3/6 249/3/6
f 252/3/5 254/3/5 256/3/5
f 256/3/18 259/3/18 255/3/18
f 255/3/6 257/3/6 253/3/6
f 256/3/5 258/3/5 260/3/5
f 238/3/2 239/3/2 237/3/2
f 260/3/2 257/3/2 259/3/2
f 262/3/1 264/3/1 261/3/1
f 268/3/2 266/3/2 265/3/2
f 265/3/3 262/3/3 261/3/3
f 267/3/4 264/3/4 263/3/4
f 268/3/5 261/3/5 264/3/5
f 266/3/6 263/3/6 262/3/6
f 270/3/1 272/3/1 269/3/1
f 276/3/2 274/3/2 273/3/2
f 273/3/3 270/3/3 269/3/3
f 275/3/4 272/3/4 271/3/4
f 276/3/5 269/3/5 272/3/5
f 274/3/6 271/3/6 270/3/6
f 278/4/1 280/4/1 277/4/1
f 284/4/2 282/4/2 281/4/2
f 281/4/3 278/4/3 277/4/3
f 283/4/4 280/4/4 279/4/4
f 284/4/5 277/4/5 280/4/5
f 282/4/6 279/4/6 278/4/6
f 286/6/1 288/6/1 285/6/1
f 292/6/2 290/6/2 289/6/2
f 289/6/3 286/6/3 285/6/3
f 291/6/4 288/6/4 287/6/4
f 292/6/5 285/6/5 288/6/5
f 290/6/6 287/6/6 286/6/6
f 294/3/1 296/3/1 293/3/1
f 300/3/2 298/3/2 297/3/2
f 297/3/3 294/3/3 293/3/3
f 299/3/4 296/3/4 295/3/4
f 300/3/5 293/3/5 296/3/5
f 298/3/6 295/3/6 294/3/6
f 302/7/1 304/7/1 301/7/1
f 308/7/2 306/7/2 305/7/2
f 305/7/3 302/7/3 301/7/3
f 307/7/4 304/7/4 303/7/4
f 308/7/5 301/7/5 304/7/5
f 306/7/6 303/7/6 302/7/6
f 310/3/1 312/3/1 309/3/1
f 316/3/2 314/3/2 313/3/2
f 313/3/3 310/3/3 309/3/3
f 315/3/4 312/3/4 311/3/4
f 316/3/5 309/3/5 312/3/5
f 314/3/6 311/3/6 310/3/6
f 318/7/1 320/7/1 317/7/1
f 324/7/2 322/7/2 321/7/2
f 321/7/3 318/7/3 317/7/3
f 323/7/4 320/7/4 319/7/4
f 324/7/5 317/7/5 320/7/5
f 322/7/6 319/7/6 318/7/6
f 326/7/1 328/7/1 325/7/1
f 332/7/2 330/7/2 329/7/2
f 329/7/3 326/7/3 325/7/3
f 331/7/4 328/7/4 327/7/4
f 332/7/5 325/7/5 328/7/5
f 330/7/6 327/7/6 326/7/6
f 334/7/1 336/7/1 333/7/1
f 340/7/2 338/7/2 337/7/2
f 337/7/3 334/7/3 333/7/3
f 339/7/4 336/7/4 335/7/4
f 340/7/5 333/7/5 336/7/5
f 338/7/6 335/7/6 334/7/6
f 342/3/1 344/3/1 341/3/1
f 348/3/2 346/3/2 345/3/2
f 345/3/3 342/3/3 341/3/3
f 347/3/4 344/3/4 343/3/4
f 348/3/5 341/3/5 344/3/5
f 346/3/6 343/3/6 342/3/6
f 350/7/1 352/7/1 349/7/1
f 356/7/2 354/7/2 353/7/2
f 353/7/3 350/7/3 349/7/3
f 355/7/4 352/7/4 351/7/4
f 356/7/5 349/7/5 352/7/5
f 354/7/6 351/7/6 350/7/6
f 358/7/1 360/7/1 357/7/1
f 364/7/2 362/7/2 361/7/2
f 361/7/3 358/7/3 357/7/3
f 363/7/4 360/7/4 359/7/4
f 364/7/5 357/7/5 360/7/5
f 362/7/6 359/7/6 358/7/6
f 366/7/1 368/7/1 365/7/1
f 372/7/2 370/7/2 369/7/2
f 369/7/3 366/7/3 365/7/3
f 371/7/4 368/7/4 367/7/4
f 372/7/5 365/7/5 368/7/5
f 370/7/6 367/7/6 366/7/6
f 374/3/1 376/3/1 373/3/1
f 380/3/2 378/3/2 377/3/2
f 377/3/3 374/3/3 373/3/3
f 379/3/4 376/3/4 375/3/4
f 380/3/5 373/3/5 376/3/5
f 378/3/6 375/3/6 374/3/6
f 382/3/1 384/3/1 381/3/1
f 388/3/2 386/3/2 385/3/2
f 385/3/3 382/3/3 381/3/3
f 387/3/4 384/3/4 383/3/4
f 388/3/5 381/3/5 384/3/5
f 386/3/6 383/3/6 382/3/6
f 2/1/1 3/1/1 4/1/1
f 8/1/2 7/1/2 6/1/2
f 5/1/3 6/1/3 2/1/3
f 7/1/4 8/1/4 4/1/4
f 8/1/5 5/1/5 1/1/5
f 6/1/6 7/1/6 3/1/6
f 10/2/1 11/2/1 12/2/1
f 16/2/2 15/2/2 14/2/2
f 13/2/3 14/2/3 10/2/3
f 15/2/4 16/2/4 12/2/4
f 16/2/5 13/2/5 9/2/5
f 14/2/6 15/2/6 11/2/6
f 18/2/1 19/2/1 20/2/1
f 24/2/2 23/2/2 22/2/2
f 21/2/3 22/2/3 18/2/3
f 23/2/4 24/2/4 20/2/4
f 24/2/5 21/2/5 17/2/5
f 22/2/6 23/2/6 19/2/6
f 31/1/7 32/1/7 26/1/7
f 32/1/19 33/1/19 27/1/19
f 33/1/1 34/1/1 28/1/1
f 34/1/9 35/1/9 29/1/9
f 35/1/10 36/1/10 30/1/10
f 36/1/2 31/1/2 25/1/2
f 25/2/5 30/2/5 29/2/5
f 29/2/5 28/2/5 27/2/5
f 27/2/5 26/2/5 25/2/5
f 36/2/6 31/2/6 32/2/6
f 32/2/6 33/2/6 34/2/6
f 34/2/6 35/2/6 36/2/6
f 38/3/1 39/3/1 40/3/1
f 44/3/2 43/3/2 42/3/2
f 41/3/3 42/3/3 38/3/3
f 43/3/4 44/3/4 40/3/4
f 44/3/5 41/3/5 37/3/5
f 42/3/6 43/3/6 39/3/6
f 46/3/1 47/3/1 48/3/1
f 52/3/2 51/3/2 50/3/2
f 49/3/3 50/3/3 46/3/3
f 51/3/4 52/3/4 48/3/4
f 52/3/5 49/3/5 45/3/5
f 50/3/6 51/3/6 47/3/6
f 54/4/1 55/4/1 56/4/1
f 60/4/2 59/4/2 58/4/2
f 57/4/3 58/4/3 54/4/3
f 59/4/4 60/4/4 56/4/4
f 60/4/5 57/4/5 53/4/5
f 58/4/6 59/4/6 55/4/6
f 62/4/1 63/4/1 64/4/1
f 68/4/2 67/4/2 66/4/2
f 65/4/3 66/4/3 62/4/3
f 67/4/4 68/4/4 64/4/4
f 68/4/5 65/4/5 61/4/5
f 66/4/6 67/4/6 63/4/6
f 70/4/1 71/4/1 72/4/1
f 76/4/2 75/4/2 74/4/2
f 73/4/3 74/4/3 70/4/3
f 75/4/4 76/4/4 72/4/4
f 76/4/5 73/4/5 69/4/5
f 74/4/6 75/4/6 71/4/6
f 78/4/1 79/4/1 80/4/1
f 84/4/2 83/4/2 82/4/2
f 81/4/3 82/4/3 78/4/3
f 83/4/4 84/4/4 80/4/4
f 84/4/5 81/4/5 77/4/5
f 82/4/6 83/4/6 79/4/6
f 86/4/1 87/4/1 88/4/1
f 92/4/2 91/4/2 90/4/2
f 89/4/3 90/4/3 86/4/3
f 91/4/4 92/4/4 88/4/4
f 92/4/5 89/4/5 85/4/5
f 90/4/6 91/4/6 87/4/6
f 94/4/1 95/4/1 96/4/1
f 100/4/2 99/4/2 98/4/2
f 97/4/3 98/4/3 94/4/3
f 99/4/4 100/4/4 96/4/4
f 100/4/5 97/4/5 93/4/5
f 98/4/6 99/4/6 95/4/6
f 102/4/1 103/4/1 104/4/1
f 108/4/2 107/4/2 106/4/2
f 105/4/3 106/4/3 102/4/3
f 107/4/4 108/4/4 104/4/4
f 108/4/5 105/4/5 101/4/5
f 106/4/6 107/4/6 103/4/6
f 110/4/1 111/4/1 112/4/1
f 116/4/2 115/4/2 114/4/2
f 113/4/3 114/4/3 110/4/3
f 115/4/4 116/4/4 112/4/4
f 116/4/5 113/4/5 109/4/5
f 114/4/6 115/4/6 111/4/6
f 118/5/1 119/5/1 120/5/1
f 124/5/2 123/5/2 122/5/2
f 121/5/3 122/5/3 118/5/3
f 123/5/4 124/5/4 120/5/4
f 124/5/5 121/5/5 117/5/5
f 122/5/6 123/5/6 119/5/6
f 126/5/1 127/5/1 128/5/1
f 132/5/2 131/5/2 130/5/2
f 129/5/3 130/5/3 126/5/3
f 131/5/4 132/5/4 128/5/4
f 132/5/5 129/5/5 125/5/5
f 130/5/6 131/5/6 127/5/6
f 134/5/1 135/5/1 136/5/1
f 140/5/2 139/5/2 138/5/2
f 137/5/3 138/5/3 134/5/3
f 139/5/4 140/5/4 136/5/4
f 140/5/5 137/5/5 133/5/5
f 138/5/6 139/5/6 135/5/6
f 142/5/1 143/5/1 144/5/1
f 148/5/2 147/5/2 146/5/2
f 145/5/3 146/5/3 142/5/3
f 147/5/4 148/5/4 144/5/4
f 148/5/5 145/5/5 141/5/5
f 146/5/6 147/5/6 143/5/6
f 150/5/1 151/5/1 152/5/1
f 156/5/2 155/5/2 154/5/2
f 153/5/3 154/5/3 150/5/3
f 155/5/4 156/5/4 152/5/4
f 156/5/5 153/5/5 149/5/5
f 154/5/6 155/5/6 151/5/6
f 158/5/1 159/5/1 160/5/1
f 164/5/2 163/5/2 162/5/2
f 161/5/3 162/5/3 158/5/3
f 163/5/4 164/5/4 160/5/4
f 164/5/5 161/5/5 157/5/5
f 162/5/6 163/5/6 159/5/6
f 168/4/11 172/4/11 171/4/11
f 165/4/6 167/4/6 171/4/6
f 166/4/5 170/4/5 172/4/5
f 172/4/12 176/4/12 175/4/12
f 169/4/6 171/4/6 175/4/6
f 170/4/5 174/4/5 176/4/5
f 176/4/1 180/4/1 179/4/1
f 175/4/6 179/4/6 177/4/6
f 174/4/5 178/4/5 180/4/5
f 180/4/13 184/4/13 183/4/13
f 179/4/6 183/4/6 181/4/6
f 180/4/5 178/4/5 182/4/5
f 184/4/14 188/4/14 187/4/14
f 183/4/6 187/4/6 185/4/6
f 184/4/5 182/4/5 186/4/5
f 166/4/2 168/4/2 167/4/2
f 188/4/2 186/4/2 185/4/2
f 192/4/11 196/4/11 195/4/11
f 189/4/6 191/4/6 195/4/6
f 190/4/5 194/4/5 196/4/5
f 196/4/12 200/4/12 199/4/12
f 193/4/6 195/4/6 199/4/6
f 194/4/5 198/4/5 200/4/5
f 200/4/1 204/4/1 203/4/1
f 199/4/6 203/4/6 201/4/6
f 198/4/5 202/4/5 204/4/5
f 204/4/13 208/4/13 207/4/13
f 203/4/6 207/4/6 205/4/6
f 204/4/5 202/4/5 206/4/5
f 208/4/14 212/4/14 211/4/14
f 207/4/6 211/4/6 209/4/6
f 208/4/5 206/4/5 210/4/5
f 190/4/2 192/4/2 191/4/2
f 212/4/2 210/4/2 209/4/2
f 216/3/15 220/3/15 219/3/15
f 213/3/6 215/3/6 219/3/6
f 214/3/5 218/3/5 220/3/5
f 220/3/16 224/3/16 223/3/16
f 217/3/6 219/3/6 223/3/6
f 218/3/5 222/3/5 224/3/5
f 224/3/1 228/3/1 227/3/1
f 223/3/6 227/3/6 225/3/6
f 222/3/5 226/3/5 228/3/5
f 228/3/17 232/3/17 231/3/17
f 227/3/6 231/3/6 229/3/6
f 228/3/5 226/3/5 230/3/5
f 232/3/18 236/3/18 235/3/18
f 231/3/6 235/3/6 233/3/6
f 232/3/5 230/3/5 234/3/5
f 214/3/2 216/3/2 215/3/2
f 236/3/2 234/3/2 233/3/2
f 240/3/15 244/3/15 243/3/15
f 237/3/6 239/3/6 243/3/6
f 238/3/5 242/3/5 244/3/5
f 244/3/16 248/3/16 247/3/16
f 241/3/6 243/3/6 247/3/6
f 242/3/5 246/3/5 248/3/5
f 248/3/1 252/3/1 251/3/1
f 247/3/6 251/3/6 249/3/6
f 246/3/5 250/3/5 252/3/5
f 252/3/17 256/3/17 255/3/17
f 251/3/6 255/3/6 253/3/6
f 252/3/5 250/3/5 254/3/5
f 256/3/18 260/3/18 259/3/18
f 255/3/6 259/3/6 257/3/6
f 256/3/5 254/3/5 258/3/5
f 238/3/2 240/3/2 239/3/2
f 260/3/2 258/3/2 257/3/2
f 262/3/1 263/3/1 264/3/1
f 268/3/2 267/3/2 266/3/2
f 265/3/3 266/3/3 262/3/3
f 267/3/4 268/3/4 264/3/4
f 268/3/5 265/3/5 261/3/5
f 266/3/6 267/3/6 263/3/6
f 270/3/1 271/3/1 272/3/1
f 276/3/2 275/3/2 274/3/2
f 273/3/3 274/3/3 270/3/3
f 275/3/4 276/3/4 272/3/4
f 276/3/5 273/3/5 269/3/5
f 274/3/6 275/3/6 271/3/6
f 278/4/1 279/4/1 280/4/1
f 284/4/2 283/4/2 282/4/2
f 281/4/3 282/4/3 278/4/3
f 283/4/4 284/4/4 280/4/4
f 284/4/5 281/4/5 277/4/5
f 282/4/6 283/4/6 279/4/6
f 286/6/1 287/6/1 288/6/1
f 292/6/2 291/6/2 290/6/2
f 289/6/3 290/6/3 286/6/3
f 291/6/4 292/6/4 288/6/4
f 292/6/5 289/6/5 285/6/5
f 290/6/6 291/6/6 287/6/6
f 294/3/1 295/3/1 296/3/1
f 300/3/2 299/3/2 298/3/2
f 297/3/3 298/3/3 294/3/3
f 299/3/4 300/3/4 296/3/4
f 300/3/5 297/3/5 293/3/5
f 298/3/6 299/3/6 295/3/6
f 302/7/1 303/7/1 304/7/1
f 308/7/2 307/7/2 306/7/2
f 305/7/3 306/7/3 302/7/3
f 307/7/4 308/7/4 304/7/4
f 308/7/5 305/7/5 301/7/5
f 306/7/6 307/7/6 303/7/6
f 310/3/1 311/3/1 312/3/1
f 316/3/2 315/3/2 314/3/2
f 313/3/3 314/3/3 310/3/3
f 315/3/4 316/3/4 312/3/4
f 316/3/5 313/3/5 309/3/5
f 314/3/6 315/3/6 311/3/6
f 318/7/1 319/7/1 320/7/1
f 324/7/2 323/7/2 322/7/2
f 321/7/3 322/7/3 318/7/3
f 323/7/4 324/7/4 320/7/4
f 324/7/5 321/7/5 317/7/5
f 322/7/6 323/7/6 319/7/6
f 326/7/1 327/7/1 328/7/1
f 332/7/2 331/7/2 330/7/2
f 329/7/3 330/7/3 326/7/3
f 331/7/4 332/7/4 328/7/4
f 332/7/5 329/7/5 325/7/5
f 330/7/6 331/7/6 327/7/6
f 334/7/1 335/7/1 336/7/1
f 340/7/2 339/7/2 338/7/2
f 337/7/3 338/7/3 334/7/3
f 339/7/4 340/7/4 336/7/4
f 340/7/5 337/7/5 333/7/5
f 338/7/6 339/7/6 335/7/6
f 342/3/1 343/3/1 344/3/1
f 348/3/2 347/3/2 346/3/2
f 345/3/3 346/3/3 342/3/3
f 347/3/4 348/3/4 344/3/4
f 348/3/5 345/3/5 341/3/5
f 346/3/6 347/3/6 343/3/6
f 350/7/1 351/7/1 352/7/1
f 356/7/2 355/7/2 354/7/2
f 353/7/3 354/7/3 350/7/3
f 355/7/4 356/7/4 352/7/4
f 356/7/5 353/7/5 349/7/5
f 354/7/6 355/7/6 351/7/6
f 358/7/1 359/7/1 360/7/1
f 364/7/2 363/7/2 362/7/2
f 361/7/3 362/7/3 358/7/3
f 363/7/4 364/7/4 360/7/4
f 364/7/5 361/7/5 357/7/5
f 362/7/6 363/7/6 359/7/6
f 366/7/1 367/7/1 368/7/1
f 372/7/2 371/7/2 370/7/2
f 369/7/3 370/7/3 366/7/3
f 371/7/4 372/7/4 368/7/4
f 372/7/5 369/7/5 365/7/5
f 370/7/6 371/7/6 367/7/6
f 374/3/1 375/3/1 376/3/1
f 380/3/2 379/3/2 378/3/2
f 377/3/3 378/3/3 374/3/3
f 379/3/4 380/3/4 376/3/4
f 380/3/5 377/3/5 373/3/5
f 378/3/6 379/3/6 375/3/6
f 382/3/1 383/3/1 384/3/1
f 388/3/2 387/3/2 386/3/2
f 385/3/3 386/3/3 382/3/3
f 387/3/4 388/3/4 384/3/4
f 388/3/5 385/3/5 381/3/5
f 386/3/6 387/3/6 383/3/6
