# Blender 5.0.1
# www.blender.org
mtllib fiber.mtl
o Fiber
v -0.110000 0.050000 0.000000
v 0.110000 0.050000 0.000000
v 0.000000 0.099500 0.000000
v -0.077302 0.350000 -0.075460
v 0.077302 0.350000 -0.044540
v 0.000000 0.385475 -0.060000
v -0.026243 0.720000 -0.171561
v 0.066243 0.720000 -0.148439
v 0.020000 0.741450 -0.160000
v 0.033993 1.050000 -0.284002
v 0.066007 1.050000 -0.275998
v 0.050000 1.057425 -0.280000
v -0.124653 0.050000 0.078142
v -0.035347 0.050000 -0.078142
v -0.080000 0.090500 0.000000
v -0.254185 0.320000 -0.025304
v -0.185815 0.320000 -0.134696
v -0.220000 0.349025 -0.080000
v -0.402668 0.620000 -0.148264
v -0.357332 0.620000 -0.211736
v -0.380000 0.637550 -0.180000
v -0.527847 0.780000 -0.269015
v -0.512153 0.780000 -0.290985
v -0.520000 0.786075 -0.280000
v 0.113357 0.050000 -0.068951
v 0.046643 0.050000 0.108951
v 0.080000 0.092750 0.020000
v 0.267651 0.340000 0.017785
v 0.212349 0.340000 0.142215
v 0.240000 0.370638 0.080000
v 0.434455 0.650000 0.121454
v 0.405545 0.650000 0.198546
v 0.420000 0.668525 0.160000
v 0.585003 0.820000 0.206657
v 0.574996 0.820000 0.233343
v 0.580000 0.826412 0.220000
v -0.150000 0.000000 0.120000
v 0.150000 0.000000 0.120000
v 0.150000 0.000000 -0.120000
v -0.150000 0.000000 -0.120000
v -0.150000 0.140000 0.120000
v 0.150000 0.140000 0.120000
v 0.150000 0.140000 -0.120000
v -0.150000 0.140000 -0.120000
v -0.180000 0.040000 0.150000
v 0.180000 0.040000 0.150000
v 0.180000 0.040000 -0.150000
v -0.180000 0.040000 -0.150000
v -0.180000 0.100000 0.150000
v 0.180000 0.100000 0.150000
v 0.180000 0.100000 -0.150000
v -0.180000 0.100000 -0.150000
vn -0.1143 0.2540 0.9604
vn -0.1010 0.2043 0.9737
vn -0.0000 -0.1469 -0.9892
vn -0.3098 0.2788 0.9090
vn -0.1114 0.2746 0.9551
vn 0.1894 -0.2602 -0.9468
vn -0.3799 0.3597 0.8522
vn -0.0658 0.3597 0.9307
vn 0.2271 -0.3510 -0.9084
vn 0.5969 0.5203 0.6107
vn 0.8213 0.5184 0.2382
vn -0.7485 -0.5067 -0.4277
vn 0.5583 0.5359 0.6333
vn 0.7981 0.5372 0.2730
vn -0.7204 -0.5275 -0.4503
vn 0.3159 0.7165 0.6219
vn 0.6908 0.7165 0.0972
vn -0.5542 -0.7323 -0.3958
vn -0.6887 0.5181 -0.5073
vn -0.8482 0.5150 -0.1234
vn 0.8116 -0.4987 0.3044
vn -0.6459 0.5310 -0.5485
vn -0.8465 0.5286 -0.0634
vn 0.7740 -0.5315 0.3440
vn -0.4931 0.6974 -0.5201
vn -0.7135 0.6974 0.0676
vn 0.6604 -0.7089 0.2476
vn -0.0000 1.0000 -0.0000
vn -0.0000 -1.0000 -0.0000
vn -0.0000 -0.0000 -1.0000
vn -0.0000 -0.0000 1.0000
vn 1.0000 -0.0000 -0.0000
vn -1.0000 -0.0000 -0.0000
vn -0.2785 0.1972 0.9400
vn 0.0692 0.1539 0.9857
vn 0.1894 -0.2589 -0.9472
vn -0.3501 0.2715 0.8965
vn -0.0693 0.2678 0.9610
vn 0.2332 -0.2745 -0.9329
vn 0.5808 0.5107 0.6340
vn 0.8339 0.5093 0.2126
vn -0.7240 -0.5207 -0.4525
vn 0.5285 0.5245 0.6675
vn 0.8178 0.5270 0.2315
vn -0.6851 -0.5396 -0.4893
vn -0.6699 0.5035 -0.5457
vn -0.8613 0.5015 -0.0819
vn 0.7809 -0.5193 0.3471
vn -0.6683 0.5410 -0.5106
vn -0.8352 0.5397 -0.1054
vn 0.7860 -0.5434 0.2948
vt 0.062500 0.562500
vt 0.187500 0.562500
vt 0.312500 0.562500
vt 0.437500 0.562500
s 0
usemtl GamePalette
f 3/1/1 4/1/1 1/1/1
f 3/1/2 5/1/2 6/1/2
f 1/1/3 5/1/3 2/1/3
f 6/1/4 7/1/4 4/1/4
f 6/1/5 8/1/5 9/1/5
f 4/1/6 8/1/6 5/1/6
f 9/1/7 10/1/7 7/1/7
f 9/1/8 11/1/8 12/1/8
f 10/1/9 8/1/9 7/1/9
f 15/2/10 16/2/10 13/2/10
f 15/2/11 17/2/11 18/2/11
f 13/2/12 17/2/12 14/2/12
f 18/2/13 19/2/13 16/2/13
f 18/2/14 20/2/14 21/2/14
f 16/2/15 20/2/15 17/2/15
f 21/2/16 22/2/16 19/2/16
f 21/2/17 23/2/17 24/2/17
f 22/2/18 20/2/18 19/2/18
f 27/2/19 28/2/19 25/2/19
f 27/2/20 29/2/20 30/2/20
f 25/2/21 29/2/21 26/2/21
f 30/2/22 31/2/22 28/2/22
f 30/2/23 32/2/23 33/2/23
f 31/2/24 29/2/24 28/2/24
f 33/2/25 34/2/25 31/2/25
f 33/2/26 35/2/26 36/2/26
f 34/2/27 32/2/27 31/2/27
f 38/3/28 40/3/28 37/3/28
f 44/3/29 42/3/29 41/3/29
f 41/3/30 38/3/30 37/3/30
f 43/3/31 40/3/31 39/3/31
f 44/3/32 37/3/32 40/3/32
f 42/3/33 39/3/33 38/3/33
f 46/4/28 48/4/28 45/4/28
f 52/4/29 50/4/29 49/4/29
f 49/4/30 46/4/30 45/4/30
f 51/4/31 48/4/31 47/4/31
f 52/4/32 45/4/32 48/4/32
f 50/4/33 47/4/33 46/4/33
f 3/1/34 6/1/34 4/1/34
f 3/1/35 2/1/35 5/1/35
f 1/1/36 4/1/36 5/1/36
f 6/1/37 9/1/37 7/1/37
f 6/1/38 5/1/38 8/1/38
f 4/1/39 7/1/39 8/1/39
f 9/1/7 12/1/7 10/1/7
f 9/1/8 8/1/8 11/1/8
f 10/1/9 11/1/9 8/1/9
f 15/2/40 18/2/40 16/2/40
f 15/2/41 14/2/41 17/2/41
f 13/2/42 16/2/42 17/2/42
f 18/2/43 21/2/43 19/2/43
f 18/2/44 17/2/44 20/2/44
f 16/2/45 19/2/45 20/2/45
f 21/2/16 24/2/16 22/2/16
f 21/2/17 20/2/17 23/2/17
f 22/2/18 23/2/18 20/2/18
f 27/2/46 30/2/46 28/2/46
f 27/2/47 26/2/47 29/2/47
f 25/2/48 28/2/48 29/2/48
f 30/2/49 33/2/49 31/2/49
f 30/2/50 29/2/50 32/2/50
f 31/2/51 32/2/51 29/2/51
f 33/2/25 36/2/25 34/2/25
f 33/2/26 32/2/26 35/2/26
f 34/2/27 35/2/27 32/2/27
f 38/3/28 39/3/28 40/3/28
f 44/3/29 43/3/29 42/3/29
f 41/3/30 42/3/30 38/3/30
f 43/3/31 44/3/31 40/3/31
f 44/3/32 41/3/32 37/3/32
f 42/3/33 43/3/33 39/3/33
f 46/4/28 47/4/28 48/4/28
f 52/4/29 51/4/29 50/4/29
f 49/4/30 50/4/30 46/4/30
f 51/4/31 52/4/31 48/4/31
f 52/4/32 49/4/32 45/4/32
f 50/4/33 51/4/33 47/4/33
