# Blender 5.0.1
# www.blender.org
mtllib fiber_bush.mtl
o Cattail_Center_Stem
v 0.000000 -0.001748 -0.034956
v 0.030294 -0.001881 -0.017428
v 0.030294 -0.000133 0.017529
v 0.000000 0.001748 0.034956
v -0.030294 0.001881 0.017428
v -0.030294 0.000133 -0.017529
v 0.020000 0.598668 -0.061972
v 0.047704 0.598643 -0.045957
v 0.047704 0.599975 -0.013985
v 0.020000 0.601332 0.001972
v -0.007704 0.601358 -0.014043
v -0.007704 0.600025 -0.046015
v 0.030000 1.199270 -0.077990
v 0.054245 1.199214 -0.063984
v 0.054245 1.199944 -0.035994
v 0.030000 1.200730 -0.022010
v 0.005755 1.200786 -0.036016
v 0.005755 1.200056 -0.064006
v 0.040000 1.749600 -0.081996
v 0.059049 1.749454 -0.070992
v 0.059049 1.749854 -0.048996
v 0.040000 1.750400 -0.038004
v 0.020951 1.750546 -0.049008
v 0.020951 1.750146 -0.071004
v 0.000000 0.000000 0.000000
v 0.040000 1.750000 -0.060000
vn -0.0333 -0.9982 0.0499
vn -0.4998 0.0555 0.8644
vn -0.9996 0.0289 -0.0013
vn -0.4999 -0.0309 -0.8655
vn 0.4995 -0.0642 -0.8639
vn 0.9993 -0.0376 0.0017
vn 0.4997 0.0223 0.8659
vn -0.5001 0.0314 0.8654
vn -0.9999 0.0109 -0.0004
vn -0.5000 -0.0263 -0.8656
vn 0.4998 -0.0429 -0.8651
vn 0.9997 -0.0224 0.0008
vn 0.4998 0.0148 0.8660
vn -0.5001 0.0154 0.8658
vn -1.0000 0.0087 -0.0002
vn -0.5000 -0.0161 -0.8659
vn 0.4998 -0.0343 -0.8655
vn 0.9996 -0.0276 0.0006
vn 0.4996 -0.0028 0.8662
vn 0.0182 0.9997 -0.0182
vn 0.0181 0.9997 -0.0182
vt 0.062500 0.562500
s 0
usemtl GamePalette
f 25/1/1 1/1/1 2/1/1
f 25/1/1 2/1/1 3/1/1
f 25/1/1 3/1/1 4/1/1
f 25/1/1 4/1/1 5/1/1
f 25/1/1 5/1/1 6/1/1
f 25/1/1 6/1/1 1/1/1
f 1/1/2 2/1/2 8/1/2 7/1/2
f 2/1/3 3/1/3 9/1/3 8/1/3
f 3/1/4 4/1/4 10/1/4 9/1/4
f 4/1/5 5/1/5 11/1/5 10/1/5
f 5/1/6 6/1/6 12/1/6 11/1/6
f 6/1/7 1/1/7 7/1/7 12/1/7
f 7/1/8 8/1/8 14/1/8 13/1/8
f 8/1/9 9/1/9 15/1/9 14/1/9
f 9/1/10 10/1/10 16/1/10 15/1/10
f 10/1/11 11/1/11 17/1/11 16/1/11
f 11/1/12 12/1/12 18/1/12 17/1/12
f 12/1/13 7/1/13 13/1/13 18/1/13
f 13/1/14 14/1/14 20/1/14 19/1/14
f 14/1/15 15/1/15 21/1/15 20/1/15
f 15/1/16 16/1/16 22/1/16 21/1/16
f 16/1/17 17/1/17 23/1/17 22/1/17
f 17/1/18 18/1/18 24/1/18 23/1/18
f 18/1/19 13/1/19 19/1/19 24/1/19
f 26/1/20 20/1/20 19/1/20
f 26/1/20 21/1/20 20/1/20
f 26/1/20 22/1/20 21/1/20
f 26/1/20 23/1/20 22/1/20
f 26/1/21 24/1/21 23/1/21
f 26/1/20 19/1/20 24/1/20
o Cattail_Center_Head
v 0.028719 1.229216 -0.082456
v 0.057936 1.228863 -0.065564
v 0.057936 1.229827 -0.031827
v 0.028719 1.231143 -0.014983
v -0.000497 1.231495 -0.031875
v -0.000497 1.230532 -0.065611
v 0.030227 1.280794 -0.125196
v 0.095152 1.280012 -0.087658
v 0.095152 1.282154 -0.012689
v 0.030227 1.285078 0.024743
v -0.034699 1.285861 -0.012795
v -0.034699 1.283719 -0.087764
v 0.035000 1.447751 -0.133718
v 0.103172 1.446929 -0.094303
v 0.103172 1.449178 -0.015585
v 0.035000 1.452249 0.023718
v -0.033172 1.453071 -0.015697
v -0.033172 1.450822 -0.094415
v 0.039773 1.615029 -0.130994
v 0.101452 1.614285 -0.095333
v 0.101452 1.616320 -0.024112
v 0.039773 1.619099 0.011448
v -0.021906 1.619842 -0.024213
v -0.021906 1.617807 -0.095434
v 0.041281 1.669071 -0.087520
v 0.064004 1.668797 -0.074382
v 0.064004 1.669547 -0.048142
v 0.041281 1.670570 -0.035041
v 0.018557 1.670844 -0.048179
v 0.018557 1.670094 -0.074419
v 0.043793 1.757321 -0.078787
v 0.056778 1.757164 -0.071279
v 0.056778 1.757592 -0.056285
v 0.043793 1.758177 -0.048799
v 0.030808 1.758334 -0.056306
v 0.030808 1.757905 -0.071300
v 0.028719 1.230179 -0.048719
v 0.043793 1.757749 -0.063793
vn -0.0285 -0.9992 0.0285
vn -0.0286 -0.9992 0.0285
vn -0.3980 0.5922 0.7006
vn -0.8119 0.5836 -0.0167
vn -0.3980 0.5512 -0.7333
vn 0.4299 0.5276 -0.7326
vn 0.8439 0.5363 -0.0153
vn 0.4300 0.5686 0.7013
vn -0.4991 0.0584 0.8645
vn -0.9988 0.0479 -0.0014
vn -0.4991 0.0089 -0.8665
vn 0.5003 -0.0196 -0.8657
vn 1.0000 -0.0091 0.0003
vn 0.5003 0.0299 0.8654
vn -0.5005 0.0002 0.8657
vn -0.9999 -0.0103 0.0003
vn -0.5005 -0.0492 -0.8643
vn 0.4983 -0.0778 -0.8635
vn 0.9977 -0.0673 0.0019
vn 0.4983 -0.0283 0.8665
vn -0.4191 -0.5620 0.7131
vn -0.8212 -0.5704 0.0163
vn -0.4191 -0.6018 -0.6799
vn 0.3852 -0.6247 -0.6792
vn 0.7873 -0.6163 0.0176
vn 0.3852 -0.5849 0.7138
vn -0.4999 -0.0712 0.8632
vn -0.9967 -0.0816 0.0023
vn -0.4999 -0.1204 -0.8577
vn 0.4936 -0.1487 -0.8569
vn 0.9904 -0.1383 0.0040
vn 0.4936 -0.0995 0.8640
vn 0.0285 0.9992 -0.0286
vn 0.0285 0.9992 -0.0285
vn 0.0286 0.9992 -0.0286
vt 0.562500 0.687500
s 0
usemtl GamePalette
f 63/2/22 27/2/22 28/2/22
f 63/2/22 28/2/22 29/2/22
f 63/2/22 29/2/22 30/2/22
f 63/2/22 30/2/22 31/2/22
f 63/2/22 31/2/22 32/2/22
f 63/2/23 32/2/23 27/2/23
f 27/2/24 28/2/24 34/2/24 33/2/24
f 28/2/25 29/2/25 35/2/25 34/2/25
f 29/2/26 30/2/26 36/2/26 35/2/26
f 30/2/27 31/2/27 37/2/27 36/2/27
f 31/2/28 32/2/28 38/2/28 37/2/28
f 32/2/29 27/2/29 33/2/29 38/2/29
f 33/2/30 34/2/30 40/2/30 39/2/30
f 34/2/31 35/2/31 41/2/31 40/2/31
f 35/2/32 36/2/32 42/2/32 41/2/32
f 36/2/33 37/2/33 43/2/33 42/2/33
f 37/2/34 38/2/34 44/2/34 43/2/34
f 38/2/35 33/2/35 39/2/35 44/2/35
f 39/2/36 40/2/36 46/2/36 45/2/36
f 40/2/37 41/2/37 47/2/37 46/2/37
f 41/2/38 42/2/38 48/2/38 47/2/38
f 42/2/39 43/2/39 49/2/39 48/2/39
f 43/2/40 44/2/40 50/2/40 49/2/40
f 44/2/41 39/2/41 45/2/41 50/2/41
f 45/2/42 46/2/42 52/2/42 51/2/42
f 46/2/43 47/2/43 53/2/43 52/2/43
f 47/2/44 48/2/44 54/2/44 53/2/44
f 48/2/45 49/2/45 55/2/45 54/2/45
f 49/2/46 50/2/46 56/2/46 55/2/46
f 50/2/47 45/2/47 51/2/47 56/2/47
f 51/2/48 52/2/48 58/2/48 57/2/48
f 52/2/49 53/2/49 59/2/49 58/2/49
f 53/2/50 54/2/50 60/2/50 59/2/50
f 54/2/51 55/2/51 61/2/51 60/2/51
f 55/2/52 56/2/52 62/2/52 61/2/52
f 56/2/53 51/2/53 57/2/53 62/2/53
f 64/2/54 58/2/54 57/2/54
f 64/2/55 59/2/55 58/2/55
f 64/2/54 60/2/54 59/2/54
f 64/2/56 61/2/56 60/2/56
f 64/2/55 62/2/55 61/2/55
f 64/2/56 57/2/56 62/2/56
o Cattail_Right_Stem
v 0.080000 -0.004437 -0.081691
v 0.106705 -0.009552 -0.064819
v 0.106705 -0.005115 -0.033128
v 0.080000 0.004437 -0.018309
v 0.053295 0.009552 -0.035181
v 0.053295 0.005115 -0.066872
v 0.220000 0.496261 -0.148758
v 0.244260 0.491689 -0.133542
v 0.244260 0.495428 -0.104784
v 0.220000 0.503739 -0.091242
v 0.195740 0.508311 -0.106458
v 0.195740 0.504572 -0.135216
v 0.350000 0.997278 -0.205857
v 0.371891 0.993397 -0.192377
v 0.371891 0.996119 -0.166520
v 0.350000 1.002722 -0.154143
v 0.328109 1.006603 -0.167623
v 0.328109 1.003881 -0.193480
v 0.450000 1.448229 -0.239921
v 0.466911 1.445386 -0.229629
v 0.466911 1.447157 -0.209708
v 0.450000 1.451771 -0.200079
v 0.433089 1.454614 -0.210371
v 0.433089 1.452843 -0.230292
v 0.080000 0.000000 -0.050000
v 0.450000 1.450000 -0.220000
vn -0.2672 -0.9543 0.1336
vn -0.4821 0.2475 0.8404
vn -0.9650 0.2601 -0.0352
vn -0.4841 0.0079 -0.8750
vn 0.4795 -0.2569 -0.8391
vn 0.9623 -0.2695 0.0365
vn 0.4815 -0.0173 0.8763
vn -0.4851 0.2224 0.8457
vn -0.9695 0.2434 -0.0288
vn -0.4856 0.0162 -0.8740
vn 0.4826 -0.2320 -0.8445
vn 0.9670 -0.2530 0.0299
vn 0.4832 -0.0258 0.8752
vn -0.4924 0.1737 0.8529
vn -0.9787 0.2042 -0.0200
vn -0.4889 0.0196 -0.8721
vn 0.4875 -0.1955 -0.8510
vn 0.9739 -0.2260 0.0222
vn 0.4838 -0.0414 0.8742
vn 0.2161 0.9725 -0.0865
vn 0.2161 0.9725 -0.0864
vt 0.187500 0.562500
s 0
usemtl GamePalette
f 89/3/57 65/3/57 66/3/57
f 89/3/57 66/3/57 67/3/57
f 89/3/57 67/3/57 68/3/57
f 89/3/57 68/3/57 69/3/57
f 89/3/57 69/3/57 70/3/57
f 89/3/57 70/3/57 65/3/57
f 65/3/58 66/3/58 72/3/58 71/3/58
f 66/3/59 67/3/59 73/3/59 72/3/59
f 67/3/60 68/3/60 74/3/60 73/3/60
f 68/3/61 69/3/61 75/3/61 74/3/61
f 69/3/62 70/3/62 76/3/62 75/3/62
f 70/3/63 65/3/63 71/3/63 76/3/63
f 71/3/64 72/3/64 78/3/64 77/3/64
f 72/3/65 73/3/65 79/3/65 78/3/65
f 73/3/66 74/3/66 80/3/66 79/3/66
f 74/3/67 75/3/67 81/3/67 80/3/67
f 75/3/68 76/3/68 82/3/68 81/3/68
f 76/3/69 71/3/69 77/3/69 82/3/69
f 77/3/70 78/3/70 84/3/70 83/3/70
f 78/3/71 79/3/71 85/3/71 84/3/71
f 79/3/72 80/3/72 86/3/72 85/3/72
f 80/3/73 81/3/73 87/3/73 86/3/73
f 81/3/74 82/3/74 88/3/74 87/3/74
f 82/3/75 77/3/75 83/3/75 88/3/75
f 90/3/76 84/3/76 83/3/76
f 90/3/77 85/3/77 84/3/77
f 90/3/76 86/3/76 85/3/76
f 90/3/76 87/3/76 86/3/76
f 90/3/76 88/3/76 87/3/76
f 90/3/76 83/3/76 88/3/76
o Cattail_Right_Head
v 0.320392 1.017131 -0.196488
v 0.345554 1.010912 -0.180224
v 0.345554 1.014956 -0.149892
v 0.320392 1.025219 -0.135825
v 0.295229 1.031438 -0.152090
v 0.295229 1.027394 -0.182421
v 0.334698 1.055106 -0.239283
v 0.390614 1.041286 -0.203139
v 0.390614 1.050273 -0.135736
v 0.334698 1.073080 -0.104476
v 0.278781 1.086900 -0.140619
v 0.278781 1.077913 -0.208023
v 0.380000 1.190564 -0.260774
v 0.438712 1.176053 -0.222823
v 0.438712 1.185489 -0.152049
v 0.380000 1.209437 -0.119226
v 0.321288 1.223947 -0.157177
v 0.321288 1.214511 -0.227951
v 0.425302 1.327369 -0.272154
v 0.478423 1.314240 -0.237818
v 0.478423 1.322778 -0.173785
v 0.425302 1.344445 -0.144088
v 0.372182 1.357574 -0.178424
v 0.372182 1.349036 -0.242457
v 0.439608 1.375679 -0.237435
v 0.459179 1.370843 -0.224784
v 0.459179 1.373988 -0.201193
v 0.439608 1.381970 -0.190252
v 0.420038 1.386807 -0.202902
v 0.420038 1.383662 -0.226494
v 0.463452 1.448372 -0.238249
v 0.475786 1.445324 -0.230276
v 0.475786 1.447307 -0.215408
v 0.463452 1.452337 -0.208512
v 0.451117 1.455386 -0.216485
v 0.451117 1.453403 -0.231353
v 0.320392 1.021175 -0.166157
v 0.463452 1.450355 -0.223381
vn -0.3137 -0.9412 0.1255
vn -0.2054 0.7651 0.6103
vn -0.5924 0.7986 -0.1065
vn -0.2054 0.5785 -0.7894
vn 0.5687 0.3249 -0.7556
vn 0.9558 0.2915 -0.0389
vn 0.5687 0.5116 0.6441
vn -0.4683 0.2891 0.8350
vn -0.9429 0.3301 -0.0440
vn -0.4683 0.0602 -0.8815
vn 0.4811 -0.2507 -0.8401
vn 0.9557 -0.2917 0.0389
vn 0.4811 -0.0218 0.8764
vn -0.4871 0.2314 0.8421
vn -0.9615 0.2724 -0.0363
vn -0.4871 0.0026 -0.8733
vn 0.4616 -0.3081 -0.8319
vn 0.9359 -0.3491 0.0465
vn 0.4616 -0.0793 0.8835
vn -0.5674 -0.3631 0.7390
vn -0.9427 -0.3307 0.0441
vn -0.5674 -0.5440 -0.6181
vn 0.1831 -0.7899 -0.5853
vn 0.5584 -0.8223 0.1096
vn 0.1831 -0.6089 0.7718
vn -0.5037 0.1747 0.8460
vn -0.9761 0.2155 -0.0287
vn -0.5037 -0.0531 -0.8623
vn 0.4411 -0.3625 -0.8210
vn 0.9135 -0.4033 0.0538
vn 0.4411 -0.1347 0.8873
vn 0.3137 0.9412 -0.1255
vt 0.687500 0.562500
s 0
usemtl GamePalette
f 127/4/78 91/4/78 92/4/78
f 127/4/78 92/4/78 93/4/78
f 127/4/78 93/4/78 94/4/78
f 127/4/78 94/4/78 95/4/78
f 127/4/78 95/4/78 96/4/78
f 127/4/78 96/4/78 91/4/78
f 91/4/79 92/4/79 98/4/79 97/4/79
f 92/4/80 93/4/80 99/4/80 98/4/80
f 93/4/81 94/4/81 100/4/81 99/4/81
f 94/4/82 95/4/82 101/4/82 100/4/82
f 95/4/83 96/4/83 102/4/83 101/4/83
f 96/4/84 91/4/84 97/4/84 102/4/84
f 97/4/85 98/4/85 104/4/85 103/4/85
f 98/4/86 99/4/86 105/4/86 104/4/86
f 99/4/87 100/4/87 106/4/87 105/4/87
f 100/4/88 101/4/88 107/4/88 106/4/88
f 101/4/89 102/4/89 108/4/89 107/4/89
f 102/4/90 97/4/90 103/4/90 108/4/90
f 103/4/91 104/4/91 110/4/91 109/4/91
f 104/4/92 105/4/92 111/4/92 110/4/92
f 105/4/93 106/4/93 112/4/93 111/4/93
f 106/4/94 107/4/94 113/4/94 112/4/94
f 107/4/95 108/4/95 114/4/95 113/4/95
f 108/4/96 103/4/96 109/4/96 114/4/96
f 109/4/97 110/4/97 116/4/97 115/4/97
f 110/4/98 111/4/98 117/4/98 116/4/98
f 111/4/99 112/4/99 118/4/99 117/4/99
f 112/4/100 113/4/100 119/4/100 118/4/100
f 113/4/101 114/4/101 120/4/101 119/4/101
f 114/4/102 109/4/102 115/4/102 120/4/102
f 115/4/103 116/4/103 122/4/103 121/4/103
f 116/4/104 117/4/104 123/4/104 122/4/104
f 117/4/105 118/4/105 124/4/105 123/4/105
f 118/4/106 119/4/106 125/4/106 124/4/106
f 119/4/107 120/4/107 126/4/107 125/4/107
f 120/4/108 115/4/108 121/4/108 126/4/108
f 128/4/109 122/4/109 121/4/109
f 128/4/109 123/4/109 122/4/109
f 128/4/109 124/4/109 123/4/109
f 128/4/109 125/4/109 124/4/109
f 128/4/109 126/4/109 125/4/109
f 128/4/109 121/4/109 126/4/109
o Cattail_Left_Stem
v -0.070000 -0.005846 -0.092478
v -0.042313 0.004050 -0.077494
v -0.042313 0.009896 -0.045016
v -0.070000 0.005846 -0.027522
v -0.097687 -0.004050 -0.042506
v -0.097687 -0.009896 -0.074984
v -0.200000 0.495481 -0.179658
v -0.174710 0.503625 -0.165726
v -0.174710 0.508144 -0.136068
v -0.200000 0.504519 -0.120342
v -0.225290 0.496375 -0.134274
v -0.225290 0.491856 -0.163932
v -0.320000 1.046805 -0.245803
v -0.297875 1.052553 -0.233415
v -0.297875 1.055748 -0.207612
v -0.320000 1.053195 -0.194197
v -0.342125 1.047447 -0.206585
v -0.342125 1.044252 -0.232388
v -0.400000 1.547617 -0.299858
v -0.382894 1.551507 -0.290253
v -0.382894 1.553890 -0.270395
v -0.400000 1.552383 -0.260142
v -0.417106 1.548493 -0.269747
v -0.417106 1.546110 -0.289605
v -0.070000 0.000000 -0.060000
v -0.400000 1.550000 -0.280000
vn 0.2479 -0.9535 0.1716
vn -0.4857 0.0258 0.8737
vn -0.9675 -0.2493 0.0416
vn -0.4806 -0.2798 -0.8311
vn 0.4880 -0.0353 -0.8721
vn 0.9700 0.2398 -0.0400
vn 0.4831 0.2703 0.8328
vn -0.4851 -0.0009 0.8744
vn -0.9761 -0.2155 0.0300
vn -0.4897 -0.2205 -0.8435
vn 0.4878 -0.0110 -0.8729
vn 0.9786 0.2036 -0.0283
vn 0.4922 0.2087 0.8451
vn -0.4918 0.0154 0.8706
vn -0.9860 -0.1657 0.0202
vn -0.4925 -0.1911 -0.8491
vn 0.4953 -0.0353 -0.8680
vn 0.9892 0.1458 -0.0178
vn 0.4959 0.1711 0.8513
vn -0.1569 0.9806 -0.1177
vt 0.187500 0.562500
s 0
usemtl GamePalette
f 153/5/110 129/5/110 130/5/110
f 153/5/110 130/5/110 131/5/110
f 153/5/110 131/5/110 132/5/110
f 153/5/110 132/5/110 133/5/110
f 153/5/110 133/5/110 134/5/110
f 153/5/110 134/5/110 129/5/110
f 129/5/111 130/5/111 136/5/111 135/5/111
f 130/5/112 131/5/112 137/5/112 136/5/112
f 131/5/113 132/5/113 138/5/113 137/5/113
f 132/5/114 133/5/114 139/5/114 138/5/114
f 133/5/115 134/5/115 140/5/115 139/5/115
f 134/5/116 129/5/116 135/5/116 140/5/116
f 135/5/117 136/5/117 142/5/117 141/5/117
f 136/5/118 137/5/118 143/5/118 142/5/118
f 137/5/119 138/5/119 144/5/119 143/5/119
f 138/5/120 139/5/120 145/5/120 144/5/120
f 139/5/121 140/5/121 146/5/121 145/5/121
f 140/5/122 135/5/122 141/5/122 146/5/122
f 141/5/123 142/5/123 148/5/123 147/5/123
f 142/5/124 143/5/124 149/5/124 148/5/124
f 143/5/125 144/5/125 150/5/125 149/5/125
f 144/5/126 145/5/126 151/5/126 150/5/126
f 145/5/127 146/5/127 152/5/127 151/5/127
f 146/5/128 141/5/128 147/5/128 152/5/128
f 154/5/129 148/5/129 147/5/129
f 154/5/129 149/5/129 148/5/129
f 154/5/129 150/5/129 149/5/129
f 154/5/129 151/5/129 150/5/129
f 154/5/129 152/5/129 151/5/129
f 154/5/129 147/5/129 152/5/129
o Cattail_Left_Head
v -0.292276 1.083133 -0.236052
v -0.265027 1.092699 -0.221363
v -0.265027 1.098670 -0.189518
v -0.292276 1.095075 -0.172362
v -0.319525 1.085509 -0.187051
v -0.319525 1.079538 -0.218896
v -0.303730 1.121650 -0.283564
v -0.243177 1.142909 -0.250923
v -0.243177 1.156178 -0.180156
v -0.303730 1.148188 -0.142031
v -0.364282 1.126929 -0.174672
v -0.364282 1.113661 -0.245439
v -0.340000 1.266068 -0.314305
v -0.276420 1.288389 -0.280032
v -0.276420 1.302321 -0.205727
v -0.340000 1.293932 -0.165695
v -0.403580 1.271611 -0.199968
v -0.403580 1.257679 -0.274273
v -0.376270 1.412476 -0.334431
v -0.318745 1.432671 -0.303422
v -0.318745 1.445276 -0.236193
v -0.376270 1.437686 -0.199974
v -0.433795 1.417491 -0.230984
v -0.433795 1.404885 -0.298212
v -0.387724 1.466252 -0.300561
v -0.366531 1.473692 -0.289137
v -0.366531 1.478336 -0.264369
v -0.387724 1.475540 -0.251025
v -0.408917 1.468100 -0.262449
v -0.408917 1.463456 -0.287217
v -0.406814 1.544490 -0.304853
v -0.394199 1.548919 -0.298053
v -0.394199 1.551683 -0.283310
v -0.406814 1.550019 -0.275367
v -0.419429 1.545590 -0.282167
v -0.419429 1.542825 -0.296910
v -0.292276 1.089104 -0.204207
v -0.406814 1.547254 -0.290110
vn 0.2386 -0.9545 0.1790
vn -0.5338 0.5893 0.6064
vn -0.9289 0.3640 -0.0683
vn -0.5338 0.3296 -0.7787
vn 0.2564 0.5204 -0.8145
vn 0.6514 0.7457 -0.1398
vn 0.2564 0.7802 0.5707
vn -0.4903 0.0619 0.8693
vn -0.9758 -0.2149 0.0403
vn -0.4903 -0.2572 -0.8327
vn 0.4806 -0.0227 -0.8767
vn 0.9660 0.2541 -0.0476
vn 0.4806 0.2964 0.8254
vn -0.4754 0.0032 0.8798
vn -0.9605 -0.2735 0.0513
vn -0.4754 -0.3158 -0.8212
vn 0.4949 -0.0814 -0.8651
vn 0.9801 0.1952 -0.0366
vn 0.4949 0.2375 0.8358
vn -0.2363 -0.5534 0.7987
vn -0.6192 -0.7717 0.1447
vn -0.2363 -0.8051 -0.5440
vn 0.5297 -0.6202 -0.5787
vn 0.9126 -0.4018 0.0753
vn 0.5297 -0.3684 0.7640
vn -0.4564 -0.0627 0.8875
vn -0.9391 -0.3379 0.0634
vn -0.4564 -0.3799 -0.8046
vn 0.5088 -0.1468 -0.8483
vn 0.9914 0.1284 -0.0241
vn 0.5088 0.1704 0.8438
vn -0.2386 0.9545 -0.1790
vt 0.562500 0.687500
s 0
usemtl GamePalette
f 191/6/130 155/6/130 156/6/130
f 191/6/130 156/6/130 157/6/130
f 191/6/130 157/6/130 158/6/130
f 191/6/130 158/6/130 159/6/130
f 191/6/130 159/6/130 160/6/130
f 191/6/130 160/6/130 155/6/130
f 155/6/131 156/6/131 162/6/131 161/6/131
f 156/6/132 157/6/132 163/6/132 162/6/132
f 157/6/133 158/6/133 164/6/133 163/6/133
f 158/6/134 159/6/134 165/6/134 164/6/134
f 159/6/135 160/6/135 166/6/135 165/6/135
f 160/6/136 155/6/136 161/6/136 166/6/136
f 161/6/137 162/6/137 168/6/137 167/6/137
f 162/6/138 163/6/138 169/6/138 168/6/138
f 163/6/139 164/6/139 170/6/139 169/6/139
f 164/6/140 165/6/140 171/6/140 170/6/140
f 165/6/141 166/6/141 172/6/141 171/6/141
f 166/6/142 161/6/142 167/6/142 172/6/142
f 167/6/143 168/6/143 174/6/143 173/6/143
f 168/6/144 169/6/144 175/6/144 174/6/144
f 169/6/145 170/6/145 176/6/145 175/6/145
f 170/6/146 171/6/146 177/6/146 176/6/146
f 171/6/147 172/6/147 178/6/147 177/6/147
f 172/6/148 167/6/148 173/6/148 178/6/148
f 173/6/149 174/6/149 180/6/149 179/6/149
f 174/6/150 175/6/150 181/6/150 180/6/150
f 175/6/151 176/6/151 182/6/151 181/6/151
f 176/6/152 177/6/152 183/6/152 182/6/152
f 177/6/153 178/6/153 184/6/153 183/6/153
f 178/6/154 173/6/154 179/6/154 184/6/154
f 179/6/155 180/6/155 186/6/155 185/6/155
f 180/6/156 181/6/156 187/6/156 186/6/156
f 181/6/157 182/6/157 188/6/157 187/6/157
f 182/6/158 183/6/158 189/6/158 188/6/158
f 183/6/159 184/6/159 190/6/159 189/6/159
f 184/6/160 179/6/160 185/6/160 190/6/160
f 192/6/161 186/6/161 185/6/161
f 192/6/161 187/6/161 186/6/161
f 192/6/161 188/6/161 187/6/161
f 192/6/161 189/6/161 188/6/161
f 192/6/161 190/6/161 189/6/161
f 192/6/161 185/6/161 190/6/161
o Cattail_BackLeft_Stem
v -0.050000 0.007276 0.030896
v -0.024534 0.008631 0.046696
v -0.024534 0.001355 0.075800
v -0.050000 -0.007276 0.089104
v -0.075466 -0.008631 0.073304
v -0.075466 -0.001355 0.044200
v -0.150000 0.486133 0.152680
v -0.126174 0.487464 0.167327
v -0.126174 0.481331 0.194647
v -0.150000 0.473867 0.207320
v -0.173826 0.472536 0.192673
v -0.173826 0.478669 0.165353
v -0.240000 0.984608 0.256447
v -0.219476 0.985527 0.268854
v -0.219476 0.980919 0.292407
v -0.240000 0.975392 0.303553
v -0.260524 0.974473 0.291146
v -0.260524 0.979081 0.267593
v -0.300000 1.403368 0.342318
v -0.284563 1.403812 0.351564
v -0.284563 1.400444 0.369246
v -0.300000 1.396632 0.377682
v -0.315437 1.396188 0.368436
v -0.315437 1.399556 0.350754
v -0.050000 0.000000 0.060000
v -0.300000 1.400000 0.360000
vn 0.1981 -0.9509 -0.2377
vn -0.4875 -0.3093 0.8165
vn -0.9795 -0.1960 -0.0466
vn -0.4913 0.1100 -0.8640
vn 0.4889 0.3028 -0.8181
vn 0.9809 0.1895 0.0450
vn 0.4926 -0.1166 0.8624
vn -0.4929 -0.2616 0.8298
vn -0.9836 -0.1765 -0.0373
vn -0.4895 0.0787 -0.8685
vn 0.4952 0.2487 -0.8324
vn 0.9859 0.1636 0.0345
vn 0.4918 -0.0916 0.8659
vn -0.4938 -0.2420 0.8352
vn -0.9886 -0.1481 -0.0287
vn -0.4930 0.0822 -0.8661
vn 0.4973 0.2186 -0.8396
vn 0.9919 0.1248 0.0241
vn 0.4966 -0.1055 0.8616
vn -0.1390 0.9728 0.1853
vt 0.062500 0.562500
s 0
usemtl GamePalette
f 217/7/162 193/7/162 194/7/162
f 217/7/162 194/7/162 195/7/162
f 217/7/162 195/7/162 196/7/162
f 217/7/162 196/7/162 197/7/162
f 217/7/162 197/7/162 198/7/162
f 217/7/162 198/7/162 193/7/162
f 193/7/163 194/7/163 200/7/163 199/7/163
f 194/7/164 195/7/164 201/7/164 200/7/164
f 195/7/165 196/7/165 202/7/165 201/7/165
f 196/7/166 197/7/166 203/7/166 202/7/166
f 197/7/167 198/7/167 204/7/167 203/7/167
f 198/7/168 193/7/168 199/7/168 204/7/168
f 199/7/169 200/7/169 206/7/169 205/7/169
f 200/7/170 201/7/170 207/7/170 206/7/170
f 201/7/171 202/7/171 208/7/171 207/7/171
f 202/7/172 203/7/172 209/7/172 208/7/172
f 203/7/173 204/7/173 210/7/173 209/7/173
f 204/7/174 199/7/174 205/7/174 210/7/174
f 205/7/175 206/7/175 212/7/175 211/7/175
f 206/7/176 207/7/176 213/7/176 212/7/176
f 207/7/177 208/7/177 214/7/177 213/7/177
f 208/7/178 209/7/178 215/7/178 214/7/178
f 209/7/179 210/7/179 216/7/179 215/7/179
f 210/7/180 205/7/180 211/7/180 216/7/180
f 218/7/181 212/7/181 211/7/181
f 218/7/181 213/7/181 212/7/181
f 218/7/181 214/7/181 213/7/181
f 218/7/181 215/7/181 214/7/181
f 218/7/181 216/7/181 215/7/181
f 218/7/181 211/7/181 216/7/181
o Cattail_BackLeft_Head
v -0.213676 0.988522 0.223443
v -0.188866 0.989419 0.238910
v -0.188866 0.981384 0.267034
v -0.213676 0.972451 0.279692
v -0.238486 0.971553 0.264226
v -0.238486 0.979589 0.236101
v -0.222394 1.039026 0.200692
v -0.167260 1.041021 0.235063
v -0.167260 1.023164 0.297562
v -0.222394 1.003313 0.325690
v -0.277527 1.001319 0.291320
v -0.277527 1.019175 0.228821
v -0.250000 1.168750 0.234376
v -0.192110 1.170844 0.270465
v -0.192110 1.152094 0.336089
v -0.250000 1.131250 0.365624
v -0.307890 1.129156 0.329535
v -0.307890 1.147906 0.263911
v -0.277606 1.295794 0.277435
v -0.225230 1.297689 0.310086
v -0.225230 1.280725 0.369460
v -0.277606 1.261866 0.396183
v -0.329983 1.259972 0.363531
v -0.329983 1.276936 0.304157
v -0.286324 1.325763 0.326558
v -0.267028 1.326461 0.338587
v -0.267028 1.320212 0.360462
v -0.286324 1.313264 0.370307
v -0.305621 1.312566 0.358278
v -0.305621 1.318816 0.336403
v -0.300854 1.391440 0.353383
v -0.288131 1.391900 0.361314
v -0.288131 1.387779 0.375737
v -0.300854 1.383198 0.382228
v -0.313577 1.382738 0.374297
v -0.313577 1.386859 0.359874
v -0.213676 0.980486 0.251568
v -0.300854 1.387319 0.367805
vn 0.2018 -0.9417 -0.2691
vn -0.5156 0.2763 0.8110
vn -0.9136 0.3909 0.1117
vn -0.5156 0.6631 -0.5426
vn 0.2805 0.8208 -0.4976
vn 0.6785 0.7063 0.2018
vn 0.2805 0.4341 0.8561
vn -0.4938 -0.3155 0.8103
vn -0.9834 -0.1746 -0.0499
vn -0.4938 0.1602 -0.8547
vn 0.4855 0.3542 -0.7993
vn 0.9751 0.2134 0.0610
vn 0.4855 -0.1215 0.8658
vn -0.4810 -0.3734 0.7932
vn -0.9703 -0.2326 -0.0665
vn -0.4810 0.1021 -0.8708
vn 0.4976 0.2959 -0.8154
vn 0.9869 0.1552 0.0443
vn 0.4976 -0.1795 0.8486
vn -0.2615 -0.8439 0.4684
vn -0.6473 -0.7329 -0.2094
vn -0.2615 -0.4690 -0.8436
vn 0.5101 -0.3162 -0.7999
vn 0.8959 -0.4272 -0.1221
vn 0.5101 -0.6910 0.5121
vn -0.4689 -0.4209 0.7765
vn -0.9565 -0.2806 -0.0802
vn -0.4689 0.0529 -0.8817
vn 0.5063 0.2461 -0.8265
vn 0.9939 0.1058 0.0302
vn 0.5063 -0.2277 0.8317
vn -0.2018 0.9417 0.2691
vt 0.687500 0.562500
s 0
usemtl GamePalette
f 255/8/182 219/8/182 220/8/182
f 255/8/182 220/8/182 221/8/182
f 255/8/182 221/8/182 222/8/182
f 255/8/182 222/8/182 223/8/182
f 255/8/182 223/8/182 224/8/182
f 255/8/182 224/8/182 219/8/182
f 219/8/183 220/8/183 226/8/183 225/8/183
f 220/8/184 221/8/184 227/8/184 226/8/184
f 221/8/185 222/8/185 228/8/185 227/8/185
f 222/8/186 223/8/186 229/8/186 228/8/186
f 223/8/187 224/8/187 230/8/187 229/8/187
f 224/8/188 219/8/188 225/8/188 230/8/188
f 225/8/189 226/8/189 232/8/189 231/8/189
f 226/8/190 227/8/190 233/8/190 232/8/190
f 227/8/191 228/8/191 234/8/191 233/8/191
f 228/8/192 229/8/192 235/8/192 234/8/192
f 229/8/193 230/8/193 236/8/193 235/8/193
f 230/8/194 225/8/194 231/8/194 236/8/194
f 231/8/195 232/8/195 238/8/195 237/8/195
f 232/8/196 233/8/196 239/8/196 238/8/196
f 233/8/197 234/8/197 240/8/197 239/8/197
f 234/8/198 235/8/198 241/8/198 240/8/198
f 235/8/199 236/8/199 242/8/199 241/8/199
f 236/8/200 231/8/200 237/8/200 242/8/200
f 237/8/201 238/8/201 244/8/201 243/8/201
f 238/8/202 239/8/202 245/8/202 244/8/202
f 239/8/203 240/8/203 246/8/203 245/8/203
f 240/8/204 241/8/204 247/8/204 246/8/204
f 241/8/205 242/8/205 248/8/205 247/8/205
f 242/8/206 237/8/206 243/8/206 248/8/206
f 243/8/207 244/8/207 250/8/207 249/8/207
f 244/8/208 245/8/208 251/8/208 250/8/208
f 245/8/209 246/8/209 252/8/209 251/8/209
f 246/8/210 247/8/210 253/8/210 252/8/210
f 247/8/211 248/8/211 254/8/211 253/8/211
f 248/8/212 243/8/212 249/8/212 254/8/212
f 256/8/213 250/8/213 249/8/213
f 256/8/213 251/8/213 250/8/213
f 256/8/213 252/8/213 251/8/213
f 256/8/213 253/8/213 252/8/213
f 256/8/213 254/8/213 253/8/213
f 256/8/213 249/8/213 254/8/213
o Cattail_BackRight_Stem
v 0.060000 0.006623 0.018693
v 0.087032 -0.002660 0.033083
v 0.087032 -0.009282 0.064390
v 0.060000 -0.006623 0.081307
v 0.032968 0.002660 0.066917
v 0.032968 0.009282 0.035610
v 0.180000 0.525426 0.131512
v 0.204599 0.517739 0.144809
v 0.204599 0.512313 0.173297
v 0.180000 0.514574 0.188488
v 0.155401 0.522260 0.175191
v 0.155401 0.527687 0.146703
v 0.280000 1.054028 0.225327
v 0.301340 1.048408 0.237075
v 0.301340 1.044380 0.261748
v 0.280000 1.045972 0.274673
v 0.258660 1.051592 0.262925
v 0.258660 1.055620 0.238252
v 0.350000 1.502920 0.301226
v 0.366263 1.498990 0.310229
v 0.366263 1.496070 0.329003
v 0.350000 1.497080 0.338774
v 0.333737 1.501010 0.329771
v 0.333737 1.503930 0.310997
v 0.060000 0.000000 0.050000
v 0.350000 1.500000 0.320000
vn -0.2202 -0.9543 -0.2019
vn -0.4904 -0.0755 0.8682
vn -0.9765 0.2113 0.0426
vn -0.4871 0.2822 -0.8265
vn 0.4884 0.0664 -0.8701
vn 0.9744 -0.2205 -0.0444
vn 0.4850 -0.2914 0.8246
vn -0.4914 -0.0613 0.8688
vn -0.9843 0.1739 0.0309
vn -0.4941 0.2291 -0.8387
vn 0.4890 0.0491 -0.8709
vn 0.9820 -0.1862 -0.0331
vn 0.4918 -0.2414 0.8366
vn -0.4954 -0.0692 0.8659
vn -0.9900 0.1390 0.0222
vn -0.4966 0.1972 -0.8453
vn 0.4918 0.0472 -0.8694
vn 0.9866 -0.1610 -0.0258
vn 0.4930 -0.2192 0.8420
vn 0.1519 0.9766 0.1519
vt 0.187500 0.562500
s 0
usemtl GamePalette
f 281/9/214 257/9/214 258/9/214
f 281/9/214 258/9/214 259/9/214
f 281/9/214 259/9/214 260/9/214
f 281/9/214 260/9/214 261/9/214
f 281/9/214 261/9/214 262/9/214
f 281/9/214 262/9/214 257/9/214
f 257/9/215 258/9/215 264/9/215 263/9/215
f 258/9/216 259/9/216 265/9/216 264/9/216
f 259/9/217 260/9/217 266/9/217 265/9/217
f 260/9/218 261/9/218 267/9/218 266/9/218
f 261/9/219 262/9/219 268/9/219 267/9/219
f 262/9/220 257/9/220 263/9/220 268/9/220
f 263/9/221 264/9/221 270/9/221 269/9/221
f 264/9/222 265/9/222 271/9/222 270/9/222
f 265/9/223 266/9/223 272/9/223 271/9/223
f 266/9/224 267/9/224 273/9/224 272/9/224
f 267/9/225 268/9/225 274/9/225 273/9/225
f 268/9/226 263/9/226 269/9/226 274/9/226
f 269/9/227 270/9/227 276/9/227 275/9/227
f 270/9/228 271/9/228 277/9/228 276/9/228
f 271/9/229 272/9/229 278/9/229 277/9/229
f 272/9/230 273/9/230 279/9/230 278/9/230
f 273/9/231 274/9/231 280/9/231 279/9/231
f 274/9/232 269/9/232 275/9/232 280/9/232
f 282/9/233 276/9/233 275/9/233
f 282/9/233 277/9/233 276/9/233
f 282/9/233 278/9/233 277/9/233
f 282/9/233 279/9/233 278/9/233
f 282/9/233 280/9/233 279/9/233
f 282/9/233 275/9/233 280/9/233
o Cattail_BackRight_Head
v 0.257900 1.046523 0.198100
v 0.283741 1.037328 0.211666
v 0.283741 1.030375 0.241465
v 0.257900 1.032616 0.257699
v 0.232058 1.041811 0.244134
v 0.232058 1.048765 0.214334
v 0.268004 1.098325 0.171782
v 0.325430 1.077891 0.201928
v 0.325430 1.062440 0.268149
v 0.268004 1.067421 0.304225
v 0.210578 1.087855 0.274079
v 0.210578 1.103306 0.207858
v 0.300000 1.236224 0.200468
v 0.360297 1.214769 0.232121
v 0.360297 1.198545 0.301653
v 0.300000 1.203776 0.339532
v 0.239703 1.225231 0.307879
v 0.239703 1.241455 0.238347
v 0.331996 1.371806 0.239086
v 0.386551 1.352394 0.267724
v 0.386551 1.337715 0.330635
v 0.331996 1.342448 0.364906
v 0.277442 1.361860 0.336268
v 0.277442 1.376539 0.273358
v 0.342100 1.405838 0.288923
v 0.362199 1.398687 0.299474
v 0.362199 1.393279 0.322651
v 0.342100 1.395022 0.335278
v 0.322001 1.402174 0.324727
v 0.322001 1.407582 0.301549
v 0.358941 1.476011 0.314333
v 0.371608 1.471504 0.320983
v 0.371608 1.468095 0.335590
v 0.358941 1.469194 0.343548
v 0.346273 1.473701 0.336898
v 0.346273 1.477110 0.322291
v 0.257900 1.039570 0.227900
v 0.358941 1.472602 0.328941
vn -0.2216 -0.9496 -0.2216
vn -0.2692 0.4774 0.8364
vn -0.6667 0.7258 0.1694
vn -0.2692 0.7983 -0.5387
vn 0.5258 0.6224 -0.5798
vn 0.9233 0.3740 0.0873
vn 0.5258 0.3015 0.7954
vn -0.4830 -0.0695 0.8729
vn -0.9704 0.2351 0.0549
vn -0.4830 0.3240 -0.8135
vn 0.4920 0.1082 -0.8638
vn 0.9795 -0.1964 -0.0458
vn 0.4920 -0.2853 0.8225
vn -0.4962 -0.1275 0.8588
vn -0.9834 0.1769 0.0413
vn -0.4962 0.2657 -0.8265
vn 0.4781 0.0501 -0.8769
vn 0.9653 -0.2543 -0.0593
vn 0.4781 -0.3431 0.8085
vn -0.5211 -0.6519 0.5508
vn -0.9065 -0.4111 -0.0959
vn -0.5211 -0.3408 -0.7825
vn 0.2497 -0.5114 -0.8223
vn 0.6351 -0.7522 -0.1755
vn 0.2497 -0.8225 0.5110
vn -0.5072 -0.1832 0.8421
vn -0.9924 0.1200 0.0280
vn -0.5072 0.2084 -0.8362
vn 0.4630 -0.0063 -0.8863
vn 0.9482 -0.3095 -0.0722
vn 0.4630 -0.3979 0.7920
vn 0.2216 0.9496 0.2216
vt 0.562500 0.687500
s 0
usemtl GamePalette
f 319/10/234 283/10/234 284/10/234
f 319/10/234 284/10/234 285/10/234
f 319/10/234 285/10/234 286/10/234
f 319/10/234 286/10/234 287/10/234
f 319/10/234 287/10/234 288/10/234
f 319/10/234 288/10/234 283/10/234
f 283/10/235 284/10/235 290/10/235 289/10/235
f 284/10/236 285/10/236 291/10/236 290/10/236
f 285/10/237 286/10/237 292/10/237 291/10/237
f 286/10/238 287/10/238 293/10/238 292/10/238
f 287/10/239 288/10/239 294/10/239 293/10/239
f 288/10/240 283/10/240 289/10/240 294/10/240
f 289/10/241 290/10/241 296/10/241 295/10/241
f 290/10/242 291/10/242 297/10/242 296/10/242
f 291/10/243 292/10/243 298/10/243 297/10/243
f 292/10/244 293/10/244 299/10/244 298/10/244
f 293/10/245 294/10/245 300/10/245 299/10/245
f 294/10/246 289/10/246 295/10/246 300/10/246
f 295/10/247 296/10/247 302/10/247 301/10/247
f 296/10/248 297/10/248 303/10/248 302/10/248
f 297/10/249 298/10/249 304/10/249 303/10/249
f 298/10/250 299/10/250 305/10/250 304/10/250
f 299/10/251 300/10/251 306/10/251 305/10/251
f 300/10/252 295/10/252 301/10/252 306/10/252
f 301/10/253 302/10/253 308/10/253 307/10/253
f 302/10/254 303/10/254 309/10/254 308/10/254
f 303/10/255 304/10/255 310/10/255 309/10/255
f 304/10/256 305/10/256 311/10/256 310/10/256
f 305/10/257 306/10/257 312/10/257 311/10/257
f 306/10/258 301/10/258 307/10/258 312/10/258
f 307/10/259 308/10/259 314/10/259 313/10/259
f 308/10/260 309/10/260 315/10/260 314/10/260
f 309/10/261 310/10/261 316/10/261 315/10/261
f 310/10/262 311/10/262 317/10/262 316/10/262
f 311/10/263 312/10/263 318/10/263 317/10/263
f 312/10/264 307/10/264 313/10/264 318/10/264
f 320/10/265 314/10/265 313/10/265
f 320/10/265 315/10/265 314/10/265
f 320/10/265 316/10/265 315/10/265
f 320/10/265 317/10/265 316/10/265
f 320/10/265 318/10/265 317/10/265
f 320/10/265 313/10/265 318/10/265
o Leaf_F1
v -0.009266 0.019575 -0.050964
v -0.009266 -0.017677 -0.110229
v 0.009266 -0.019575 -0.109036
v 0.009266 0.017677 -0.049771
v 0.038084 0.376258 -0.263428
v 0.038084 0.326089 -0.338148
v 0.061916 0.323742 -0.336572
v 0.061916 0.373911 -0.261852
v 0.067439 0.694314 -0.564817
v 0.135772 0.694314 -0.549632
v 0.132561 0.705686 -0.535183
v 0.064228 0.705686 -0.550368
v 0.145399 0.949152 -0.752211
v 0.155100 0.949152 -0.749785
v 0.154601 0.950848 -0.747789
v 0.144900 0.950848 -0.750215
vn 0.9935 -0.0952 0.0621
vn 0.0009 0.5524 0.8336
vn -0.9920 0.1059 -0.0691
vn 0.0048 -0.5121 -0.8589
vn 0.7432 0.3068 0.5946
vn -0.6607 0.4688 0.5862
vn -0.7452 -0.3223 -0.5838
vn 0.6533 -0.5261 -0.5444
vn -0.1733 0.6169 0.7678
vn -0.9830 -0.0614 -0.1729
vn 0.1664 -0.6549 -0.7372
vn 0.9555 -0.0843 0.2826
vn 0.1201 0.8405 -0.5283
vn -0.1543 -0.7715 0.6172
vt 0.187500 0.562500
s 0
usemtl GamePalette
f 321/11/266 322/11/266 326/11/266 325/11/266
f 322/11/267 323/11/267 327/11/267 326/11/267
f 323/11/268 324/11/268 328/11/268 327/11/268
f 324/11/269 321/11/269 325/11/269 328/11/269
f 325/11/270 326/11/270 330/11/270 329/11/270
f 326/11/271 327/11/271 331/11/271 330/11/271
f 327/11/272 328/11/272 332/11/272 331/11/272
f 328/11/273 325/11/273 329/11/273 332/11/273
f 329/11/274 330/11/274 334/11/274 333/11/274
f 330/11/275 331/11/275 335/11/275 334/11/275
f 331/11/276 332/11/276 336/11/276 335/11/276
f 332/11/277 329/11/277 333/11/277 336/11/277
f 324/11/278 323/11/278 322/11/278 321/11/278
f 333/11/279 334/11/279 335/11/279 336/11/279
o Leaf_F2
v -0.048091 0.011725 -0.042273
v -0.048091 -0.016165 -0.095396
v -0.031909 -0.011725 -0.097727
v -0.031909 0.016165 -0.044604
v -0.191404 0.417108 -0.240917
v -0.191404 0.376336 -0.315500
v -0.168596 0.382892 -0.319083
v -0.168596 0.423664 -0.244500
v -0.351011 0.743930 -0.468087
v -0.296479 0.743930 -0.503460
v -0.288989 0.756070 -0.491913
v -0.343521 0.756070 -0.456540
v -0.424743 0.898876 -0.648201
v -0.416124 0.898876 -0.653272
v -0.415257 0.901124 -0.651798
v -0.423876 0.901124 -0.646728
vn 0.9529 0.2670 -0.1435
vn -0.0051 0.4878 0.8730
vn -0.9574 -0.2544 0.1368
vn -0.0110 -0.4432 -0.8963
vn 0.8476 0.4702 0.2460
vn -0.4094 0.2958 0.8631
vn -0.8425 -0.4829 -0.2388
vn 0.4295 -0.3396 -0.8368
vn 0.3397 0.7767 0.5304
vn -0.8090 -0.0594 0.5848
vn -0.3134 -0.8138 -0.4894
vn 0.8854 -0.1043 -0.4530
vn -0.2960 0.8457 -0.4440
vn 0.4036 -0.6053 0.6861
vt 0.062500 0.562500
s 0
usemtl GamePalette
f 337/12/280 338/12/280 342/12/280 341/12/280
f 338/12/281 339/12/281 343/12/281 342/12/281
f 339/12/282 340/12/282 344/12/282 343/12/282
f 340/12/283 337/12/283 341/12/283 344/12/283
f 341/12/284 342/12/284 346/12/284 345/12/284
f 342/12/285 343/12/285 347/12/285 346/12/285
f 343/12/286 344/12/286 348/12/286 347/12/286
f 344/12/287 341/12/287 345/12/287 348/12/287
f 345/12/288 346/12/288 350/12/288 349/12/288
f 346/12/289 347/12/289 351/12/289 350/12/289
f 347/12/290 348/12/290 352/12/290 351/12/290
f 348/12/291 345/12/291 349/12/291 352/12/291
f 340/12/292 339/12/292 338/12/292 337/12/292
f 349/12/293 350/12/293 351/12/293 352/12/293
o Leaf_R1
v 0.062125 0.013752 0.012573
v 0.062125 -0.004062 -0.055123
v 0.077875 -0.013752 -0.052573
v 0.077875 0.004062 0.015123
v 0.314071 0.372793 -0.165628
v 0.344025 0.372793 -0.080759
v 0.325929 0.387207 -0.074372
v 0.295975 0.387207 -0.159241
v 0.577207 0.713814 -0.235581
v 0.596244 0.713814 -0.168220
v 0.582793 0.726186 -0.164419
v 0.563756 0.726186 -0.231780
v 0.779688 0.919043 -0.255076
v 0.782113 0.919043 -0.245374
v 0.780312 0.920957 -0.244924
v 0.777887 0.920957 -0.254626
vn -0.2489 0.4220 0.8718
vn -0.7497 0.4832 -0.4522
vn 0.2763 -0.3846 -0.8808
vn 0.8472 -0.3444 0.4045
vn -0.7470 0.6199 0.2404
vn -0.3159 -0.0112 -0.9487
vn 0.7397 -0.6295 -0.2380
vn 0.2883 -0.0245 0.9572
vn -0.6899 0.6980 0.1921
vn -0.3225 -0.0632 -0.9445
vn 0.6515 -0.7366 -0.1814
vn 0.1871 -0.0913 0.9781
vn 0.5368 0.8159 -0.2147
vn -0.6963 -0.6963 0.1741
vt 0.062500 0.437500
s 0
usemtl GamePalette
f 353/13/294 354/13/294 358/13/294 357/13/294
f 354/13/295 355/13/295 359/13/295 358/13/295
f 355/13/296 356/13/296 360/13/296 359/13/296
f 356/13/297 353/13/297 357/13/297 360/13/297
f 357/13/298 358/13/298 362/13/298 361/13/298
f 358/13/299 359/13/299 363/13/299 362/13/299
f 359/13/300 360/13/300 364/13/300 363/13/300
f 360/13/301 357/13/301 361/13/301 364/13/301
f 361/13/302 362/13/302 366/13/302 365/13/302
f 362/13/303 363/13/303 367/13/303 366/13/303
f 363/13/304 364/13/304 368/13/304 367/13/304
f 364/13/305 361/13/305 365/13/305 368/13/305
f 356/13/306 355/13/306 354/13/306 353/13/306
f 365/13/307 366/13/307 367/13/307 368/13/307
o Leaf_R2
v 0.083392 -0.005523 0.039918
v 0.048102 -0.005523 0.088442
v 0.036608 0.005523 0.080082
v 0.071898 0.005523 0.031558
v 0.311105 0.342503 0.193162
v 0.264051 0.342503 0.257861
v 0.248895 0.357497 0.246838
v 0.295949 0.357497 0.182139
v 0.522479 0.673712 0.359116
v 0.488071 0.673712 0.408270
v 0.477521 0.686288 0.400884
v 0.511929 0.686288 0.351730
v 0.683545 0.848821 0.496354
v 0.677998 0.848821 0.504674
v 0.676455 0.851179 0.503646
v 0.682002 0.851179 0.495326
vn -0.6352 0.6190 -0.4619
vn 0.5993 0.0177 -0.8003
vn 0.6419 -0.6083 0.4668
vn -0.5767 0.0177 0.8168
vn -0.6312 0.6306 -0.4516
vn 0.5721 -0.0141 -0.8201
vn 0.6239 -0.6415 0.4464
vn -0.5970 -0.0212 0.8020
vn -0.5247 0.7692 -0.3648
vn 0.5056 -0.0748 -0.8595
vn 0.4899 -0.8025 0.3405
vn -0.6136 -0.0531 0.7878
vn 0.4963 0.7896 0.3609
vn -0.6542 -0.6179 -0.4361
vt 0.187500 0.562500
s 0
usemtl GamePalette
f 369/14/308 370/14/308 374/14/308 373/14/308
f 370/14/309 371/14/309 375/14/309 374/14/309
f 371/14/310 372/14/310 376/14/310 375/14/310
f 372/14/311 369/14/311 373/14/311 376/14/311
f 373/14/312 374/14/312 378/14/312 377/14/312
f 374/14/313 375/14/313 379/14/313 378/14/313
f 375/14/314 376/14/314 380/14/314 379/14/314
f 376/14/315 373/14/315 377/14/315 380/14/315
f 377/14/316 378/14/316 382/14/316 381/14/316
f 378/14/317 379/14/317 383/14/317 382/14/317
f 379/14/318 380/14/318 384/14/318 383/14/318
f 380/14/319 377/14/319 381/14/319 384/14/319
f 372/14/320 371/14/320 370/14/320 369/14/320
f 381/14/321 382/14/321 383/14/321 384/14/321
o Leaf_B1
v -0.009251 -0.019734 0.108933
v -0.009251 0.017646 0.049748
v 0.009251 0.019734 0.051067
v 0.009251 -0.017646 0.110252
v -0.071889 0.352995 0.356033
v -0.071889 0.404331 0.282110
v -0.048111 0.407005 0.283967
v -0.048111 0.355669 0.357890
v -0.087902 0.713833 0.595613
v -0.155635 0.713833 0.577944
v -0.152098 0.726167 0.564387
v -0.084365 0.726167 0.582056
v -0.175476 0.919037 0.782320
v -0.185054 0.919037 0.779447
v -0.184524 0.920963 0.777680
v -0.174946 0.920963 0.780553
vn 0.9904 0.1150 0.0766
vn -0.0062 -0.5159 0.8566
vn -0.9920 -0.1053 -0.0702
vn 0.0003 0.5527 -0.8334
vn 0.8258 0.4218 -0.3743
vn 0.5525 -0.4675 0.6901
vn -0.8232 -0.4346 0.3652
vn -0.5428 0.4217 -0.7263
vn 0.1827 0.7026 -0.6877
vn 0.9772 -0.0600 0.2035
vn -0.1725 -0.7407 0.6493
vn -0.9372 -0.0938 -0.3360
vn -0.1323 0.8381 0.5293
vn 0.2075 -0.6917 -0.6917
vt 0.062500 0.562500
s 0
usemtl GamePalette
f 385/15/322 386/15/322 390/15/322 389/15/322
f 386/15/323 387/15/323 391/15/323 390/15/323
f 387/15/324 388/15/324 392/15/324 391/15/324
f 388/15/325 385/15/325 389/15/325 392/15/325
f 389/15/326 390/15/326 394/15/326 393/15/326
f 390/15/327 391/15/327 395/15/327 394/15/327
f 391/15/328 392/15/328 396/15/328 395/15/328
f 392/15/329 389/15/329 393/15/329 396/15/329
f 393/15/330 394/15/330 398/15/330 397/15/330
f 394/15/331 395/15/331 399/15/331 398/15/331
f 395/15/332 396/15/332 400/15/332 399/15/332
f 396/15/333 393/15/333 397/15/333 400/15/333
f 388/15/334 387/15/334 386/15/334 385/15/334
f 397/15/335 398/15/335 399/15/335 400/15/335
o Leaf_L1
v -0.077793 -0.015123 0.059172
v -0.077793 0.005958 -0.002314
v -0.062207 0.015123 0.000828
v -0.062207 -0.005958 0.062314
v -0.290908 0.342640 0.192584
v -0.326324 0.342640 0.115314
v -0.309092 0.357360 0.107416
v -0.273676 0.357360 0.184686
v -0.544571 0.673769 0.282744
v -0.567997 0.673769 0.222112
v -0.555429 0.686231 0.217256
v -0.532003 0.686231 0.277888
v -0.739152 0.858945 0.325016
v -0.742609 0.858945 0.315633
v -0.740848 0.861055 0.314984
v -0.737391 0.861055 0.324367
vn 0.8068 0.5790 -0.1180
vn 0.2416 -0.1408 0.9601
vn -0.8139 -0.5682 0.1214
vn -0.2672 0.1786 -0.9470
vn 0.7166 0.6269 -0.3058
vn 0.3984 -0.0065 0.9172
vn -0.7088 -0.6372 0.3025
vn -0.3705 -0.0295 -0.9284
vn 0.6400 0.7281 -0.2457
vn 0.4157 -0.0661 0.9071
vn -0.6002 -0.7659 0.2305
vn -0.2847 -0.0808 -0.9552
vn -0.5279 0.8034 0.2754
vn 0.7013 -0.6644 -0.2584
vt 0.062500 0.437500
s 0
usemtl GamePalette
f 401/16/336 402/16/336 406/16/336 405/16/336
f 402/16/337 403/16/337 407/16/337 406/16/337
f 403/16/338 404/16/338 408/16/338 407/16/338
f 404/16/339 401/16/339 405/16/339 408/16/339
f 405/16/340 406/16/340 410/16/340 409/16/340
f 406/16/341 407/16/341 411/16/341 410/16/341
f 407/16/342 408/16/342 412/16/342 411/16/342
f 408/16/343 405/16/343 409/16/343 412/16/343
f 409/16/344 410/16/344 414/16/344 413/16/344
f 410/16/345 411/16/345 415/16/345 414/16/345
f 411/16/346 412/16/346 416/16/346 415/16/346
f 412/16/347 409/16/347 413/16/347 416/16/347
f 404/16/348 403/16/348 402/16/348 401/16/348
f 413/16/349 414/16/349 415/16/349 416/16/349
o Leaf_L2
v -0.068358 0.007128 -0.005483
v -0.068358 -0.015008 -0.071890
v -0.051642 -0.007128 -0.074517
v -0.051642 0.015008 -0.008110
v -0.290599 0.429908 -0.135745
v -0.290599 0.399500 -0.220453
v -0.269401 0.410092 -0.224255
v -0.269401 0.440500 -0.139547
v -0.524157 0.774026 -0.293677
v -0.488142 0.774026 -0.353702
v -0.475843 0.785974 -0.346323
v -0.511858 0.785974 -0.286298
v -0.683240 0.979044 -0.416080
v -0.678384 0.979044 -0.424822
v -0.676760 0.980956 -0.423920
v -0.681616 0.980956 -0.415178
vn 0.8931 0.4249 -0.1477
vn -0.0039 0.3358 0.9419
vn -0.8979 -0.4158 0.1446
vn -0.0147 -0.3017 -0.9533
vn 0.8363 0.5400 0.0946
vn -0.2346 0.1976 0.9518
vn -0.8300 -0.5504 -0.0909
vn 0.2585 -0.2355 -0.9369
vn 0.6160 0.6975 0.3661
vn -0.4373 -0.0951 0.8943
vn -0.5818 -0.7361 -0.3458
vn 0.5561 -0.0634 -0.8287
vn -0.4450 0.8496 -0.2832
vn 0.6271 -0.6967 0.3484
vt 0.187500 0.562500
s 0
usemtl GamePalette
f 417/17/350 418/17/350 422/17/350 421/17/350
f 418/17/351 419/17/351 423/17/351 422/17/351
f 419/17/352 420/17/352 424/17/352 423/17/352
f 420/17/353 417/17/353 421/17/353 424/17/353
f 421/17/354 422/17/354 426/17/354 425/17/354
f 422/17/355 423/17/355 427/17/355 426/17/355
f 423/17/356 424/17/356 428/17/356 427/17/356
f 424/17/357 421/17/357 425/17/357 428/17/357
f 425/17/358 426/17/358 430/17/358 429/17/358
f 426/17/359 427/17/359 431/17/359 430/17/359
f 427/17/360 428/17/360 432/17/360 431/17/360
f 428/17/361 425/17/361 429/17/361 432/17/361
f 420/17/362 419/17/362 418/17/362 417/17/362
f 429/17/363 430/17/363 431/17/363 432/17/363
o Leaf_Center
v 0.011009 -0.000933 0.049988
v 0.011009 0.001731 -0.009953
v 0.028991 0.000933 -0.009988
v 0.028991 -0.001731 0.049953
v 0.028012 0.448756 0.079984
v 0.028012 0.452308 0.000063
v 0.051988 0.451244 0.000016
v 0.051988 0.447692 0.079937
v 0.051011 0.898950 0.089985
v 0.051011 0.901946 0.030060
v 0.068989 0.901050 0.030015
v 0.068989 0.898054 0.089940
v 0.078502 1.249800 0.084997
v 0.078502 1.250371 0.075013
v 0.081498 1.250200 0.075003
v 0.081498 1.249629 0.084987
vn 0.9993 -0.0377 -0.0017
vn 0.0010 -0.0223 0.9998
vn -0.9987 0.0510 0.0023
vn 0.0010 0.0665 -0.9978
vn 0.9987 -0.0509 -0.0024
vn -0.0009 -0.0665 0.9978
vn -0.9993 0.0377 0.0018
vn -0.0012 0.0223 -0.9998
vn 0.9969 -0.0782 -0.0040
vn -0.0039 -0.1277 0.9918
vn -0.9994 0.0356 0.0018
vn -0.0033 -0.0140 -0.9999
vn 0.0444 0.9980 0.0444
vn -0.0570 -0.9967 -0.0570
vt 0.062500 0.562500
s 0
usemtl GamePalette
f 433/18/364 434/18/364 438/18/364 437/18/364
f 434/18/365 435/18/365 439/18/365 438/18/365
f 435/18/366 436/18/366 440/18/366 439/18/366
f 436/18/367 433/18/367 437/18/367 440/18/367
f 437/18/368 438/18/368 442/18/368 441/18/368
f 438/18/369 439/18/369 443/18/369 442/18/369
f 439/18/370 440/18/370 444/18/370 443/18/370
f 440/18/371 437/18/371 441/18/371 444/18/371
f 441/18/372 442/18/372 446/18/372 445/18/372
f 442/18/373 443/18/373 447/18/373 446/18/373
f 443/18/374 444/18/374 448/18/374 447/18/374
f 444/18/375 441/18/375 445/18/375 448/18/375
f 436/18/376 435/18/376 434/18/376 433/18/376
f 445/18/377 446/18/377 447/18/377 448/18/377
