# Blender 5.0.1
# www.blender.org
mtllib fir_tree.mtl
o FirTree
v 0.260000 0.000000 0.000000
v 0.130000 0.000000 -0.225167
v -0.130000 0.000000 -0.225167
v -0.260000 0.000000 -0.000000
v -0.130000 0.000000 0.225167
v 0.130000 0.000000 0.225167
v 0.150000 1.600000 0.000000
v 0.075000 1.600000 -0.129904
v -0.075000 1.600000 -0.129904
v -0.150000 1.600000 -0.000000
v -0.075000 1.600000 0.129904
v 0.075000 1.600000 0.129904
v 1.450000 0.750000 0.000000
v 1.025305 0.750000 -1.025305
v 0.000000 0.750000 -1.450000
v -1.025305 0.750000 -1.025305
v -1.450000 0.750000 -0.000000
v -1.025305 0.750000 1.025305
v -0.000000 0.750000 1.450000
v 1.025305 0.750000 1.025305
v 0.850000 2.100000 0.000000
v 0.601041 2.100000 -0.601041
v 0.000000 2.100000 -0.850000
v -0.601041 2.100000 -0.601041
v -0.850000 2.100000 -0.000000
v -0.601041 2.100000 0.601041
v -0.000000 2.100000 0.850000
v 0.601041 2.100000 0.601041
v 1.100000 1.800000 0.000000
v 0.777817 1.800000 -0.777817
v 0.000000 1.800000 -1.100000
v -0.777817 1.800000 -0.777817
v -1.100000 1.800000 -0.000000
v -0.777817 1.800000 0.777817
v -0.000000 1.800000 1.100000
v 0.777817 1.800000 0.777817
v 0.550000 3.150000 0.000000
v 0.388909 3.150000 -0.388909
v 0.000000 3.150000 -0.550000
v -0.388909 3.150000 -0.388909
v -0.550000 3.150000 -0.000000
v -0.388909 3.150000 0.388909
v -0.000000 3.150000 0.550000
v 0.388909 3.150000 0.388909
v 0.720000 2.750000 0.000000
v 0.509117 2.750000 -0.509117
v 0.000000 2.750000 -0.720000
v -0.509117 2.750000 -0.509117
v -0.720000 2.750000 -0.000000
v -0.509117 2.750000 0.509117
v -0.000000 2.750000 0.720000
v 0.509117 2.750000 0.509117
v 0.000000 4.250000 0.000000
v 1.480000 0.860000 0.000000
v 1.046518 0.860000 -1.046518
v 1.478207 0.680000 -0.612293
v 1.036000 1.150000 0.000000
v 0.732563 1.150000 -0.732563
v 1.046518 0.860000 -1.046518
v 0.000000 0.860000 -1.480000
v 0.612293 0.680000 -1.478207
v 0.732563 1.150000 -0.732563
v 0.000000 1.150000 -1.036000
v 0.000000 0.860000 -1.480000
v -1.046518 0.860000 -1.046518
v -0.612293 0.680000 -1.478207
v 0.000000 1.150000 -1.036000
v -0.732563 1.150000 -0.732563
v -1.046518 0.860000 -1.046518
v -1.480000 0.860000 -0.000000
v -1.478207 0.680000 -0.612293
v -0.732563 1.150000 -0.732563
v -1.036000 1.150000 -0.000000
v -1.480000 0.860000 -0.000000
v -1.046518 0.860000 1.046518
v -1.478207 0.680000 0.612293
v -1.036000 1.150000 -0.000000
v -0.732563 1.150000 0.732563
v -1.046518 0.860000 1.046518
v -0.000000 0.860000 1.480000
v -0.612293 0.680000 1.478207
v -0.732563 1.150000 0.732563
v -0.000000 1.150000 1.036000
v -0.000000 0.860000 1.480000
v 1.046518 0.860000 1.046518
v 0.612293 0.680000 1.478207
v -0.000000 1.150000 1.036000
v 0.732563 1.150000 0.732563
v 1.046518 0.860000 1.046518
v 1.480000 0.860000 0.000000
v 1.478207 0.680000 0.612293
v 0.732563 1.150000 0.732563
v 1.036000 1.150000 0.000000
v 1.120000 1.910000 0.000000
v 0.791960 1.910000 -0.791960
v 1.145611 1.730000 -0.474527
v 0.784000 2.200000 0.000000
v 0.554372 2.200000 -0.554372
v 0.791960 1.910000 -0.791960
v 0.000000 1.910000 -1.120000
v 0.474527 1.730000 -1.145611
v 0.554372 2.200000 -0.554372
v 0.000000 2.200000 -0.784000
v 0.000000 1.910000 -1.120000
v -0.791960 1.910000 -0.791960
v -0.474527 1.730000 -1.145611
v 0.000000 2.200000 -0.784000
v -0.554372 2.200000 -0.554372
v -0.791960 1.910000 -0.791960
v -1.120000 1.910000 -0.000000
v -1.145611 1.730000 -0.474527
v -0.554372 2.200000 -0.554372
v -0.784000 2.200000 -0.000000
v -1.120000 1.910000 -0.000000
v -0.791960 1.910000 0.791960
v -1.145611 1.730000 0.474527
v -0.784000 2.200000 -0.000000
v -0.554372 2.200000 0.554372
v -0.791960 1.910000 0.791960
v -0.000000 1.910000 1.120000
v -0.474527 1.730000 1.145611
v -0.554372 2.200000 0.554372
v -0.000000 2.200000 0.784000
v -0.000000 1.910000 1.120000
v 0.791960 1.910000 0.791960
v 0.474527 1.730000 1.145611
v -0.000000 2.200000 0.784000
v 0.554372 2.200000 0.554372
v 0.791960 1.910000 0.791960
v 1.120000 1.910000 0.000000
v 1.145611 1.730000 0.474527
v 0.554372 2.200000 0.554372
v 0.784000 2.200000 0.000000
v 0.740000 2.860000 0.000000
v 0.523259 2.860000 -0.523259
v 0.794536 2.680000 -0.329108
v 0.518000 3.150000 0.000000
v 0.366281 3.150000 -0.366281
v 0.523259 2.860000 -0.523259
v 0.000000 2.860000 -0.740000
v 0.329108 2.680000 -0.794536
v 0.366281 3.150000 -0.366281
v 0.000000 3.150000 -0.518000
v 0.000000 2.860000 -0.740000
v -0.523259 2.860000 -0.523259
v -0.329108 2.680000 -0.794536
v 0.000000 3.150000 -0.518000
v -0.366281 3.150000 -0.366281
v -0.523259 2.860000 -0.523259
v -0.740000 2.860000 -0.000000
v -0.794536 2.680000 -0.329108
v -0.366281 3.150000 -0.366281
v -0.518000 3.150000 -0.000000
v -0.740000 2.860000 -0.000000
v -0.523259 2.860000 0.523259
v -0.794536 2.680000 0.329108
v -0.518000 3.150000 -0.000000
v -0.366281 3.150000 0.366281
v -0.523259 2.860000 0.523259
v -0.000000 2.860000 0.740000
v -0.329108 2.680000 0.794536
v -0.366281 3.150000 0.366281
v -0.000000 3.150000 0.518000
v -0.000000 2.860000 0.740000
v 0.523259 2.860000 0.523259
v 0.329108 2.680000 0.794536
v -0.000000 3.150000 0.518000
v 0.366281 3.150000 0.366281
v 0.523259 2.860000 0.523259
v 0.740000 2.860000 0.000000
v 0.794536 2.680000 0.329108
v 0.366281 3.150000 0.366281
v 0.518000 3.150000 0.000000
vn 0.8645 0.0594 -0.4991
vn -0.0000 0.0594 -0.9982
vn -0.8645 0.0594 -0.4991
vn -0.8645 0.0594 0.4991
vn -0.0000 0.0594 0.9982
vn 0.8645 0.0594 0.4991
vn -0.0000 -1.0000 -0.0000
vn 0.8546 0.3798 -0.3540
vn 0.3540 0.3798 -0.8546
vn -0.3540 0.3798 -0.8546
vn -0.8546 0.3798 -0.3540
vn -0.8546 0.3798 0.3540
vn -0.3540 0.3798 0.8546
vn 0.3540 0.3798 0.8546
vn 0.8546 0.3798 0.3540
vn 0.8647 0.3523 -0.3582
vn 0.3582 0.3523 -0.8647
vn -0.3582 0.3523 -0.8647
vn -0.8647 0.3523 -0.3582
vn -0.8647 0.3523 0.3582
vn -0.3582 0.3523 0.8647
vn 0.3582 0.3523 0.8647
vn 0.8647 0.3523 0.3582
vn 0.8446 0.4054 -0.3498
vn 0.3498 0.4054 -0.8446
vn -0.3498 0.4054 -0.8446
vn -0.8446 0.4054 -0.3498
vn -0.8446 0.4054 0.3498
vn -0.3498 0.4054 0.8446
vn 0.3498 0.4054 0.8446
vn 0.8446 0.4054 0.3498
vn -0.5333 -0.8166 0.2209
vn -0.5653 -0.7909 0.2342
vn -0.2209 -0.8166 0.5333
vn -0.2342 -0.7909 0.5653
vn 0.2209 -0.8166 0.5333
vn 0.2342 -0.7909 0.5653
vn 0.5333 -0.8166 0.2209
vn 0.5653 -0.7909 0.2342
vn 0.5333 -0.8166 -0.2209
vn 0.5653 -0.7909 -0.2342
vn 0.2209 -0.8166 -0.5333
vn 0.2342 -0.7909 -0.5653
vn -0.2209 -0.8166 -0.5333
vn -0.2342 -0.7909 -0.5653
vn -0.5333 -0.8166 -0.2209
vn -0.5653 -0.7909 -0.2342
vn -0.6307 -0.7307 0.2612
vn -0.6091 -0.7518 0.2523
vn -0.2612 -0.7307 0.6307
vn -0.2523 -0.7518 0.6091
vn 0.2612 -0.7307 0.6307
vn 0.2523 -0.7518 0.6091
vn 0.6307 -0.7307 0.2612
vn 0.6091 -0.7518 0.2523
vn 0.6307 -0.7307 -0.2612
vn 0.6091 -0.7518 -0.2523
vn 0.2612 -0.7307 -0.6307
vn 0.2523 -0.7518 -0.6091
vn -0.2612 -0.7307 -0.6307
vn -0.2523 -0.7518 -0.6091
vn -0.6307 -0.7307 -0.2612
vn -0.6091 -0.7518 -0.2523
vn -0.7543 -0.5774 0.3124
vn -0.6600 -0.6998 0.2734
vn -0.3124 -0.5774 0.7543
vn -0.2734 -0.6998 0.6600
vn 0.3124 -0.5774 0.7543
vn 0.2734 -0.6998 0.6600
vn 0.7543 -0.5774 0.3124
vn 0.6600 -0.6998 0.2734
vn 0.7543 -0.5774 -0.3124
vn 0.6600 -0.6998 -0.2734
vn 0.3124 -0.5774 -0.7543
vn 0.2734 -0.6998 -0.6600
vn -0.3124 -0.5774 -0.7543
vn -0.2734 -0.6998 -0.6600
vn -0.7543 -0.5774 -0.3124
vn -0.6600 -0.6998 -0.2734
vt 0.687500 0.687500
vt 0.562500 0.437500
vt 0.437500 0.437500
vt 0.062500 0.937500
s 0
usemtl GamePalette
f 2/1/1 7/1/1 1/1/1
f 3/1/2 8/1/2 2/1/2
f 4/1/3 9/1/3 3/1/3
f 5/1/4 10/1/4 4/1/4
f 6/1/5 11/1/5 5/1/5
f 1/1/6 12/1/6 6/1/6
f 5/1/7 3/1/7 1/1/7
f 14/2/8 21/2/8 13/2/8
f 15/2/9 22/2/9 14/2/9
f 16/2/10 23/2/10 15/2/10
f 17/2/11 24/2/11 16/2/11
f 18/2/12 25/2/12 17/2/12
f 19/2/13 26/2/13 18/2/13
f 20/2/14 27/2/14 19/2/14
f 13/2/15 28/2/15 20/2/15
f 17/2/7 15/2/7 13/2/7
f 30/3/16 37/3/16 29/3/16
f 31/3/17 38/3/17 30/3/17
f 32/3/18 39/3/18 31/3/18
f 33/3/19 40/3/19 32/3/19
f 34/3/20 41/3/20 33/3/20
f 35/3/21 42/3/21 34/3/21
f 36/3/22 43/3/22 35/3/22
f 29/3/23 44/3/23 36/3/23
f 33/3/7 31/3/7 29/3/7
f 45/3/24 46/3/24 53/3/24
f 46/3/25 47/3/25 53/3/25
f 47/3/26 48/3/26 53/3/26
f 48/3/27 49/3/27 53/3/27
f 49/3/28 50/3/28 53/3/28
f 50/3/29 51/3/29 53/3/29
f 51/3/30 52/3/30 53/3/30
f 52/3/31 45/3/31 53/3/31
f 49/3/7 47/3/7 45/3/7
f 58/4/32 54/4/32 57/4/32
f 54/4/33 55/4/33 56/4/33
f 63/4/34 59/4/34 62/4/34
f 59/4/35 60/4/35 61/4/35
f 68/4/36 64/4/36 67/4/36
f 64/4/37 65/4/37 66/4/37
f 73/4/38 69/4/38 72/4/38
f 69/4/39 70/4/39 71/4/39
f 78/4/40 74/4/40 77/4/40
f 74/4/41 75/4/41 76/4/41
f 83/4/42 79/4/42 82/4/42
f 79/4/43 80/4/43 81/4/43
f 88/4/44 84/4/44 87/4/44
f 84/4/45 85/4/45 86/4/45
f 93/4/46 89/4/46 92/4/46
f 89/4/47 90/4/47 91/4/47
f 98/4/48 94/4/48 97/4/48
f 94/4/49 95/4/49 96/4/49
f 103/4/50 99/4/50 102/4/50
f 99/4/51 100/4/51 101/4/51
f 108/4/52 104/4/52 107/4/52
f 104/4/53 105/4/53 106/4/53
f 113/4/54 109/4/54 112/4/54
f 109/4/55 110/4/55 111/4/55
f 118/4/56 114/4/56 117/4/56
f 114/4/57 115/4/57 116/4/57
f 123/4/58 119/4/58 122/4/58
f 119/4/59 120/4/59 121/4/59
f 128/4/60 124/4/60 127/4/60
f 124/4/61 125/4/61 126/4/61
f 133/4/62 129/4/62 132/4/62
f 129/4/63 130/4/63 131/4/63
f 138/4/64 134/4/64 137/4/64
f 134/4/65 135/4/65 136/4/65
f 143/4/66 139/4/66 142/4/66
f 139/4/67 140/4/67 141/4/67
f 148/4/68 144/4/68 147/4/68
f 144/4/69 145/4/69 146/4/69
f 153/4/70 149/4/70 152/4/70
f 149/4/71 150/4/71 151/4/71
f 158/4/72 154/4/72 157/4/72
f 154/4/73 155/4/73 156/4/73
f 163/4/74 159/4/74 162/4/74
f 159/4/75 160/4/75 161/4/75
f 168/4/76 164/4/76 167/4/76
f 164/4/77 165/4/77 166/4/77
f 173/4/78 169/4/78 172/4/78
f 169/4/79 170/4/79 171/4/79
f 2/1/1 8/1/1 7/1/1
f 3/1/2 9/1/2 8/1/2
f 4/1/3 10/1/3 9/1/3
f 5/1/4 11/1/4 10/1/4
f 6/1/5 12/1/5 11/1/5
f 1/1/6 7/1/6 12/1/6
f 1/1/7 6/1/7 5/1/7
f 5/1/7 4/1/7 3/1/7
f 3/1/7 2/1/7 1/1/7
f 14/2/8 22/2/8 21/2/8
f 15/2/9 23/2/9 22/2/9
f 16/2/10 24/2/10 23/2/10
f 17/2/11 25/2/11 24/2/11
f 18/2/12 26/2/12 25/2/12
f 19/2/13 27/2/13 26/2/13
f 20/2/14 28/2/14 27/2/14
f 13/2/15 21/2/15 28/2/15
f 13/2/7 20/2/7 19/2/7
f 19/2/7 18/2/7 17/2/7
f 17/2/7 16/2/7 15/2/7
f 15/2/7 14/2/7 13/2/7
f 13/2/7 19/2/7 17/2/7
f 30/3/16 38/3/16 37/3/16
f 31/3/17 39/3/17 38/3/17
f 32/3/18 40/3/18 39/3/18
f 33/3/19 41/3/19 40/3/19
f 34/3/20 42/3/20 41/3/20
f 35/3/21 43/3/21 42/3/21
f 36/3/22 44/3/22 43/3/22
f 29/3/23 37/3/23 44/3/23
f 29/3/7 36/3/7 35/3/7
f 35/3/7 34/3/7 33/3/7
f 33/3/7 32/3/7 31/3/7
f 31/3/7 30/3/7 29/3/7
f 29/3/7 35/3/7 33/3/7
f 45/3/7 52/3/7 51/3/7
f 51/3/7 50/3/7 49/3/7
f 49/3/7 48/3/7 47/3/7
f 47/3/7 46/3/7 45/3/7
f 45/3/7 51/3/7 49/3/7
f 58/4/32 55/4/32 54/4/32
f 63/4/34 60/4/34 59/4/34
f 68/4/36 65/4/36 64/4/36
f 73/4/38 70/4/38 69/4/38
f 78/4/40 75/4/40 74/4/40
f 83/4/42 80/4/42 79/4/42
f 88/4/44 85/4/44 84/4/44
f 93/4/46 90/4/46 89/4/46
f 98/4/48 95/4/48 94/4/48
f 103/4/50 100/4/50 99/4/50
f 108/4/52 105/4/52 104/4/52
f 113/4/54 110/4/54 109/4/54
f 118/4/56 115/4/56 114/4/56
f 123/4/58 120/4/58 119/4/58
f 128/4/60 125/4/60 124/4/60
f 133/4/62 130/4/62 129/4/62
f 138/4/64 135/4/64 134/4/64
f 143/4/66 140/4/66 139/4/66
f 148/4/68 145/4/68 144/4/68
f 153/4/70 150/4/70 149/4/70
f 158/4/72 155/4/72 154/4/72
f 163/4/74 160/4/74 159/4/74
f 168/4/76 165/4/76 164/4/76
f 173/4/78 170/4/78 169/4/78
