# Blender 5.0.1
# www.blender.org
mtllib ice_crystal.mtl
o IceCrystal
v 0.150000 2.200000 0.120000
v 0.557500 1.662500 0.072000
v 0.323750 1.662500 -0.332867
v -0.143750 1.662500 -0.332867
v -0.377500 1.662500 0.072000
v -0.143750 1.662500 0.476867
v 0.323750 1.662500 0.476867
v 0.539037 0.050000 -0.109268
v 0.174889 0.050000 -0.521453
v -0.364147 0.050000 -0.412185
v -0.539037 0.050000 0.109268
v -0.174889 0.050000 0.521453
v 0.364147 0.050000 0.412185
v -0.900000 1.350000 -0.350000
v -0.477000 1.017500 -0.290000
v -0.700188 1.017500 -0.597191
v -1.061312 1.017500 -0.479855
v -1.061312 1.017500 -0.100145
v -0.700188 1.017500 0.017191
v -0.277575 0.020000 -0.275494
v -0.606714 0.020000 -0.577527
v -0.995673 0.020000 -0.357830
v -0.906924 0.020000 0.079982
v -0.463115 0.020000 0.130868
v 0.750000 1.150000 0.550000
v 0.942000 0.867500 0.470000
v 0.754053 0.867500 0.211313
v 0.449947 0.867500 0.310122
v 0.449947 0.867500 0.629878
v 0.754053 0.867500 0.728687
v 0.863621 0.020000 0.286426
v 0.586452 0.020000 0.032083
v 0.258907 0.020000 0.217091
v 0.333643 0.020000 0.585775
v 0.707377 0.020000 0.628626
v 1.150000 0.080000 0.000000
v 0.820523 0.080000 -0.820523
v 0.000000 0.080000 -1.129228
v -0.835173 0.080000 -0.835173
v -1.108599 0.080000 -0.000000
v -0.849671 0.080000 0.849671
v -0.000000 0.080000 1.088257
v 0.863917 0.080000 0.863917
v 1.250000 0.000000 0.000000
v 0.891234 0.000000 -0.891234
v 0.000000 0.000000 -1.229228
v -0.905884 0.000000 -0.905884
v -1.208599 0.000000 -0.000000
v -0.920382 0.000000 0.920382
v -0.000000 0.000000 1.188257
v 0.934628 0.000000 0.934628
vn 0.7091 0.5741 -0.4094
vn 0.8651 0.0462 -0.4995
vn -0.0000 0.6443 -0.7647
vn -0.0000 0.1162 -0.9932
vn -0.6455 0.6667 -0.3727
vn -0.8573 0.1415 -0.4950
vn -0.6745 0.6272 0.3894
vn -0.8656 0.0305 0.4998
vn -0.0000 0.5531 0.8331
vn -0.0000 0.0276 0.9996
vn 0.7387 0.5220 0.4265
vn 0.8660 0.0016 0.5000
vn -0.0000 -1.0000 -0.0000
vn 0.5944 0.6783 -0.4319
vn 0.8074 0.0641 -0.5866
vn -0.2740 0.4623 -0.8433
vn -0.3062 -0.1354 -0.9423
vn -0.8997 0.4365 -0.0000
vn -0.9978 -0.0657 -0.0000
vn -0.2338 0.6540 0.7194
vn -0.3067 0.1230 0.9438
vn 0.5347 0.7504 0.3885
vn 0.7831 0.2510 0.5690
vn 0.6577 0.5823 -0.4778
vn 0.8079 0.0524 -0.5870
vn -0.2042 0.7505 -0.6285
vn -0.2989 0.2537 -0.9199
vn -0.6855 0.7281 -0.0000
vn -0.9907 0.1360 -0.0000
vn -0.2653 0.5127 0.8166
vn -0.3076 -0.0948 0.9468
vn 0.7554 0.3580 0.5488
vn 0.8038 -0.1132 0.5840
vn 0.6059 0.7574 -0.2433
vn 0.2288 0.7602 -0.6081
vn -0.2148 0.7626 -0.6101
vn -0.6120 0.7650 -0.2004
vn -0.6137 0.7671 0.1870
vn -0.1728 0.7691 0.6153
vn 0.1601 0.7708 0.6166
vn 0.6117 0.7647 0.2026
vn -0.0000 1.0000 -0.0000
vn 0.7494 0.0082 -0.6621
vn -0.1981 0.0752 -0.9773
vn -0.9445 0.0873 -0.3168
vn -0.7464 0.0900 0.6594
vn 0.1986 -0.0343 0.9795
vn 0.9471 -0.0466 0.3176
vn 0.6709 0.1235 -0.7312
vn -0.4908 -0.0631 -0.8690
vn -0.9736 -0.1150 0.1974
vn -0.1135 0.0858 0.9898
vn 0.8940 0.1847 0.4082
vn 0.6760 0.0221 -0.7366
vn -0.4816 0.2022 -0.8527
vn -0.9612 0.1953 0.1948
vn -0.1138 -0.0360 0.9928
vn 0.8962 -0.1715 0.4092
vn 0.6087 0.7546 -0.2450
vn 0.2339 0.7517 -0.6166
vn -0.2228 0.7487 -0.6243
vn -0.6322 0.7455 -0.2112
vn -0.6395 0.7423 0.2003
vn -0.1884 0.7386 0.6473
vn 0.1775 0.7352 0.6542
vn 0.6310 0.7460 0.2129
vt 0.312500 0.937500
vt 0.437500 0.937500
vt 0.562500 0.937500
vt 0.812500 0.937500
vt 0.062500 0.937500
s 0
usemtl GamePalette
f 1/1/1 2/1/1 3/1/1
f 8/2/2 3/2/2 2/2/2
f 1/1/3 3/1/3 4/1/3
f 9/2/4 4/2/4 3/2/4
f 1/1/5 4/1/5 5/1/5
f 10/2/6 5/2/6 4/2/6
f 1/1/7 5/1/7 6/1/7
f 5/2/8 12/2/8 6/2/8
f 1/1/9 6/1/9 7/1/9
f 12/2/10 7/2/10 6/2/10
f 1/1/11 7/1/11 2/1/11
f 13/2/12 2/2/12 7/2/12
f 12/2/13 10/2/13 8/2/13
f 14/2/14 15/2/14 16/2/14
f 15/3/15 21/3/15 16/3/15
f 14/2/16 16/2/16 17/2/16
f 16/3/17 22/3/17 17/3/17
f 14/2/18 17/2/18 18/2/18
f 22/3/19 18/3/19 17/3/19
f 14/2/20 18/2/20 19/2/20
f 23/3/21 19/3/21 18/3/21
f 14/2/22 19/2/22 15/2/22
f 24/3/23 15/3/23 19/3/23
f 23/3/13 21/3/13 20/3/13
f 25/1/24 26/1/24 27/1/24
f 31/4/25 27/4/25 26/4/25
f 25/1/26 27/1/26 28/1/26
f 32/4/27 28/4/27 27/4/27
f 25/1/28 28/1/28 29/1/28
f 28/4/29 34/4/29 29/4/29
f 25/1/30 29/1/30 30/1/30
f 29/4/31 35/4/31 30/4/31
f 25/1/32 30/1/32 26/1/32
f 35/4/33 26/4/33 30/4/33
f 34/4/13 32/4/13 31/4/13
f 44/5/34 37/5/34 36/5/34
f 37/5/35 46/5/35 38/5/35
f 46/5/36 39/5/36 38/5/36
f 39/5/37 48/5/37 40/5/37
f 48/5/38 41/5/38 40/5/38
f 41/5/39 50/5/39 42/5/39
f 50/5/40 43/5/40 42/5/40
f 43/5/41 44/5/41 36/5/41
f 39/5/42 41/5/42 43/5/42
f 48/5/13 46/5/13 44/5/13
f 8/2/43 9/2/43 3/2/43
f 9/2/44 10/2/44 4/2/44
f 10/2/45 11/2/45 5/2/45
f 5/2/46 11/2/46 12/2/46
f 12/2/47 13/2/47 7/2/47
f 13/2/48 8/2/48 2/2/48
f 8/2/13 13/2/13 12/2/13
f 12/2/13 11/2/13 10/2/13
f 10/2/13 9/2/13 8/2/13
f 15/3/49 20/3/49 21/3/49
f 16/3/50 21/3/50 22/3/50
f 22/3/51 23/3/51 18/3/51
f 23/3/52 24/3/52 19/3/52
f 24/3/53 20/3/53 15/3/53
f 20/3/13 24/3/13 23/3/13
f 23/3/13 22/3/13 21/3/13
f 31/4/54 32/4/54 27/4/54
f 32/4/55 33/4/55 28/4/55
f 28/4/56 33/4/56 34/4/56
f 29/4/57 34/4/57 35/4/57
f 35/4/58 31/4/58 26/4/58
f 31/4/13 35/4/13 34/4/13
f 34/4/13 33/4/13 32/4/13
f 44/5/59 45/5/59 37/5/59
f 37/5/60 45/5/60 46/5/60
f 46/5/61 47/5/61 39/5/61
f 39/5/62 47/5/62 48/5/62
f 48/5/63 49/5/63 41/5/63
f 41/5/64 49/5/64 50/5/64
f 50/5/65 51/5/65 43/5/65
f 43/5/66 51/5/66 44/5/66
f 43/5/42 36/5/42 37/5/42
f 37/5/42 38/5/42 39/5/42
f 39/5/42 40/5/42 41/5/42
f 41/5/42 42/5/42 43/5/42
f 43/5/42 37/5/42 39/5/42
f 44/5/13 51/5/13 50/5/13
f 50/5/13 49/5/13 48/5/13
f 48/5/13 47/5/13 46/5/13
f 46/5/13 45/5/13 44/5/13
f 44/5/13 50/5/13 48/5/13
