# Blender 5.0.1
# www.blender.org
mtllib planks.mtl
o Planks
v -1.058434 0.000000 0.223197
v -1.058434 0.120000 0.223197
v 1.040287 0.000000 0.296486
v 1.040287 0.120000 0.296486
v 1.058434 0.000000 -0.223197
v 1.058434 0.120000 -0.223197
v -1.040287 0.000000 -0.296486
v -1.040287 0.120000 -0.296486
v -0.978171 0.120000 0.337340
v -0.978171 0.240000 0.337340
v 1.090435 0.120000 0.119921
v 1.090435 0.240000 0.119921
v 1.038171 0.120000 -0.377340
v 1.038171 0.240000 -0.377340
v -1.030435 0.120000 -0.159921
v -1.030435 0.240000 -0.159921
v -1.092416 0.240000 0.239161
v -1.092416 0.360000 0.239161
v 1.024678 0.240000 0.350113
v 1.024678 0.360000 0.350113
v 1.052416 0.240000 -0.179161
v 1.052416 0.360000 -0.179161
v -1.064678 0.240000 -0.290113
v -1.064678 0.360000 -0.290113
v -0.951246 0.360000 0.368625
v -0.951246 0.480000 0.368625
v 1.093399 0.360000 0.117574
v 1.093399 0.480000 0.117574
v 1.031246 0.360000 -0.388625
v 1.031246 0.480000 -0.388625
v -1.013399 0.360000 -0.137574
v -1.013399 0.480000 -0.137574
v -1.094881 0.480000 0.146147
v -1.094881 0.600000 0.146147
v 1.000003 0.480000 0.292635
v 1.000003 0.600000 0.292635
v 1.034881 0.480000 -0.206147
v 1.034881 0.600000 -0.206147
v -1.060003 0.480000 -0.352635
v -1.060003 0.600000 -0.352635
v -1.014967 0.600000 0.334073
v -1.014967 0.720000 0.334073
v 1.062182 0.600000 0.225214
v 1.062182 0.720000 0.225214
v 1.034967 0.600000 -0.294073
v 1.034967 0.720000 -0.294073
v -1.042182 0.600000 -0.185214
v -1.042182 0.720000 -0.185214
vn -0.0000 1.0000 -0.0000
vn -0.0000 -1.0000 -0.0000
vn 0.0349 -0.0000 -0.9994
vn -0.9994 -0.0000 -0.0349
vn -0.0349 -0.0000 0.9994
vn 0.9994 -0.0000 0.0349
vn -0.1045 -0.0000 -0.9945
vn -0.9945 -0.0000 0.1045
vn 0.1045 -0.0000 0.9945
vn 0.9945 -0.0000 -0.1045
vn 0.0523 -0.0000 -0.9986
vn -0.9986 -0.0000 -0.0523
vn -0.0523 -0.0000 0.9986
vn 0.9986 -0.0000 0.0523
vn -0.1219 -0.0000 -0.9925
vn -0.9925 -0.0000 0.1219
vn 0.1219 -0.0000 0.9925
vn 0.9925 -0.0000 -0.1219
vn 0.0698 -0.0000 -0.9976
vn -0.9976 -0.0000 -0.0698
vn -0.0698 -0.0000 0.9976
vn 0.9976 -0.0000 0.0698
vn -0.0523 -0.0000 -0.9986
vn -0.9986 -0.0000 0.0523
vn 0.0523 -0.0000 0.9986
vn 0.9986 -0.0000 -0.0523
vt 0.562500 0.687500
vt 0.437500 0.687500
vt 0.312500 0.687500
vt 0.187500 0.687500
vt 0.437500 0.562500
s 0
usemtl GamePalette
f 3/1/1 7/1/1 1/1/1
f 2/1/2 6/1/2 4/1/2
f 2/1/3 3/1/3 1/1/3
f 4/1/4 5/1/4 3/1/4
f 6/1/5 7/1/5 5/1/5
f 8/1/6 1/1/6 7/1/6
f 11/2/1 15/2/1 9/2/1
f 16/2/2 12/2/2 10/2/2
f 10/2/7 11/2/7 9/2/7
f 12/2/8 13/2/8 11/2/8
f 14/2/9 15/2/9 13/2/9
f 16/2/10 9/2/10 15/2/10
f 17/3/1 21/3/1 23/3/1
f 18/3/2 22/3/2 20/3/2
f 18/3/11 19/3/11 17/3/11
f 20/3/12 21/3/12 19/3/12
f 22/3/13 23/3/13 21/3/13
f 24/3/14 17/3/14 23/3/14
f 27/4/1 31/4/1 25/4/1
f 32/4/2 28/4/2 26/4/2
f 26/4/15 27/4/15 25/4/15
f 28/4/16 29/4/16 27/4/16
f 30/4/17 31/4/17 29/4/17
f 32/4/18 25/4/18 31/4/18
f 35/5/1 39/5/1 33/5/1
f 40/5/2 36/5/2 34/5/2
f 34/5/19 35/5/19 33/5/19
f 36/5/20 37/5/20 35/5/20
f 38/5/21 39/5/21 37/5/21
f 40/5/22 33/5/22 39/5/22
f 43/3/1 47/3/1 41/3/1
f 42/3/2 46/3/2 44/3/2
f 42/3/23 43/3/23 41/3/23
f 44/3/24 45/3/24 43/3/24
f 46/3/25 47/3/25 45/3/25
f 48/3/26 41/3/26 47/3/26
f 3/1/1 5/1/1 7/1/1
f 2/1/2 8/1/2 6/1/2
f 2/1/3 4/1/3 3/1/3
f 4/1/4 6/1/4 5/1/4
f 6/1/5 8/1/5 7/1/5
f 8/1/6 2/1/6 1/1/6
f 11/2/1 13/2/1 15/2/1
f 16/2/2 14/2/2 12/2/2
f 10/2/7 12/2/7 11/2/7
f 12/2/8 14/2/8 13/2/8
f 14/2/9 16/2/9 15/2/9
f 16/2/10 10/2/10 9/2/10
f 17/3/1 19/3/1 21/3/1
f 18/3/2 24/3/2 22/3/2
f 18/3/11 20/3/11 19/3/11
f 20/3/12 22/3/12 21/3/12
f 22/3/13 24/3/13 23/3/13
f 24/3/14 18/3/14 17/3/14
f 27/4/1 29/4/1 31/4/1
f 32/4/2 30/4/2 28/4/2
f 26/4/15 28/4/15 27/4/15
f 28/4/16 30/4/16 29/4/16
f 30/4/17 32/4/17 31/4/17
f 32/4/18 26/4/18 25/4/18
f 35/5/1 37/5/1 39/5/1
f 40/5/2 38/5/2 36/5/2
f 34/5/19 36/5/19 35/5/19
f 36/5/20 38/5/20 37/5/20
f 38/5/21 40/5/21 39/5/21
f 40/5/22 34/5/22 33/5/22
f 43/3/1 45/3/1 47/3/1
f 42/3/2 48/3/2 46/3/2
f 42/3/23 44/3/23 43/3/23
f 44/3/24 46/3/24 45/3/24
f 46/3/25 48/3/25 47/3/25
f 48/3/26 42/3/26 41/3/26
