# Blender 5.0.1
# www.blender.org
mtllib spike_trap.mtl
o SpikeTrap
v -1.150000 0.000000 1.150000
v 1.150000 0.000000 1.150000
v 1.150000 0.000000 0.990000
v -1.150000 0.000000 0.990000
v -1.150000 0.140000 1.150000
v 1.150000 0.140000 1.150000
v 1.150000 0.140000 0.990000
v -1.150000 0.140000 0.990000
v -1.150000 0.000000 -0.990000
v 1.150000 0.000000 -0.990000
v 1.150000 0.000000 -1.150000
v -1.150000 0.000000 -1.150000
v -1.150000 0.140000 -0.990000
v 1.150000 0.140000 -0.990000
v 1.150000 0.140000 -1.150000
v -1.150000 0.140000 -1.150000
v -1.150000 0.000000 0.990000
v -0.990000 0.000000 0.990000
v -0.990000 0.000000 -0.990000
v -1.150000 0.000000 -0.990000
v -1.150000 0.140000 0.990000
v -0.990000 0.140000 0.990000
v -0.990000 0.140000 -0.990000
v -1.150000 0.140000 -0.990000
v 0.990000 0.000000 0.990000
v 1.150000 0.000000 0.990000
v 1.150000 0.000000 -0.990000
v 0.990000 0.000000 -0.990000
v 0.990000 0.140000 0.990000
v 1.150000 0.140000 0.990000
v 1.150000 0.140000 -0.990000
v 0.990000 0.140000 -0.990000
v -0.990000 0.000000 0.080000
v 0.990000 0.000000 0.080000
v 0.990000 0.000000 -0.080000
v -0.990000 0.000000 -0.080000
v -0.990000 0.112000 0.080000
v 0.990000 0.112000 0.080000
v 0.990000 0.112000 -0.080000
v -0.990000 0.112000 -0.080000
v -1.150000 0.000000 1.150000
v -0.930000 0.000000 1.150000
v -0.930000 0.000000 0.930000
v -1.150000 0.000000 0.930000
v -1.150000 0.160000 1.150000
v -0.930000 0.160000 1.150000
v -0.930000 0.160000 0.930000
v -1.150000 0.160000 0.930000
v -1.150000 0.000000 -0.930000
v -0.930000 0.000000 -0.930000
v -0.930000 0.000000 -1.150000
v -1.150000 0.000000 -1.150000
v -1.150000 0.160000 -0.930000
v -0.930000 0.160000 -0.930000
v -0.930000 0.160000 -1.150000
v -1.150000 0.160000 -1.150000
v 0.930000 0.000000 1.150000
v 1.150000 0.000000 1.150000
v 1.150000 0.000000 0.930000
v 0.930000 0.000000 0.930000
v 0.930000 0.160000 1.150000
v 1.150000 0.160000 1.150000
v 1.150000 0.160000 0.930000
v 0.930000 0.160000 0.930000
v 0.930000 0.000000 -0.930000
v 1.150000 0.000000 -0.930000
v 1.150000 0.000000 -1.150000
v 0.930000 0.000000 -1.150000
v 0.930000 0.160000 -0.930000
v 1.150000 0.160000 -0.930000
v 1.150000 0.160000 -1.150000
v 0.930000 0.160000 -1.150000
v 0.000000 1.450000 0.000000
v 0.072000 0.960000 0.000000
v 0.022249 0.960000 -0.068476
v -0.058249 0.960000 -0.042321
v -0.058249 0.960000 0.042321
v 0.022249 0.960000 0.068476
v 0.120000 0.050000 0.000000
v 0.037082 0.050000 -0.114127
v -0.097082 0.050000 -0.070534
v -0.097082 0.050000 0.070534
v 0.037082 0.050000 0.114127
v -0.820000 1.150000 0.820000
v -0.648000 0.765000 0.708000
v -0.689459 0.765000 0.650937
v -0.756541 0.765000 0.672733
v -0.756541 0.765000 0.743267
v -0.689459 0.765000 0.765063
v -0.400000 0.050000 0.500000
v -0.469098 0.050000 0.404894
v -0.580902 0.050000 0.441221
v -0.580902 0.050000 0.558779
v -0.469098 0.050000 0.595106
v 0.820000 1.150000 0.820000
v 0.768000 0.765000 0.708000
v 0.726541 0.765000 0.650937
v 0.659459 0.765000 0.672733
v 0.659459 0.765000 0.743267
v 0.726541 0.765000 0.765063
v 0.600000 0.050000 0.500000
v 0.530902 0.050000 0.404894
v 0.419098 0.050000 0.441221
v 0.419098 0.050000 0.558779
v 0.530902 0.050000 0.595106
v -0.820000 1.150000 -0.820000
v -0.648000 0.765000 -0.708000
v -0.689459 0.765000 -0.765063
v -0.756541 0.765000 -0.743267
v -0.756541 0.765000 -0.672733
v -0.689459 0.765000 -0.650937
v -0.400000 0.050000 -0.500000
v -0.469098 0.050000 -0.595106
v -0.580902 0.050000 -0.558779
v -0.580902 0.050000 -0.441221
v -0.469098 0.050000 -0.404894
v 0.820000 1.150000 -0.820000
v 0.768000 0.765000 -0.708000
v 0.726541 0.765000 -0.765063
v 0.659459 0.765000 -0.743267
v 0.659459 0.765000 -0.672733
v 0.726541 0.765000 -0.650937
v 0.600000 0.050000 -0.500000
v 0.530902 0.050000 -0.595106
v 0.419098 0.050000 -0.558779
v 0.419098 0.050000 -0.441221
v 0.530902 0.050000 -0.404894
vn -0.0000 1.0000 -0.0000
vn -0.0000 -1.0000 -0.0000
vn -0.0000 -0.0000 -1.0000
vn -0.0000 -0.0000 1.0000
vn 1.0000 -0.0000 -0.0000
vn -1.0000 -0.0000 -0.0000
vn 0.8034 0.1180 -0.5837
vn 0.8083 0.0426 -0.5873
vn -0.3069 0.1180 -0.9444
vn -0.3087 0.0426 -0.9502
vn -0.9930 0.1180 -0.0000
vn -0.9991 0.0426 -0.0000
vn -0.3069 0.1180 0.9444
vn -0.3087 0.0426 0.9502
vn 0.8034 0.1180 0.5837
vn 0.8083 0.0426 0.5873
vn 0.7141 0.4700 -0.5188
vn 0.7373 0.4116 -0.5357
vn -0.2949 0.2986 -0.9077
vn -0.3010 0.2260 -0.9264
vn -0.9867 -0.1626 -0.0000
vn -0.9711 -0.2386 -0.0000
vn -0.3005 -0.2338 0.9247
vn -0.2942 -0.3059 0.9055
vn 0.7947 0.1871 0.5774
vn 0.8042 0.1090 0.5843
vn 0.8075 0.0616 -0.5867
vn 0.8089 -0.0191 -0.5877
vn -0.2772 0.4419 -0.8531
vn -0.2857 0.3808 -0.8794
vn -0.9230 0.3849 -0.0000
vn -0.9479 0.3186 -0.0000
vn -0.3084 -0.0606 0.9493
vn -0.3060 -0.1401 0.9417
vn 0.7790 -0.2699 0.5660
vn 0.7609 -0.3396 0.5528
vn 0.7947 0.1871 -0.5774
vn 0.8042 0.1090 -0.5843
vn -0.3005 -0.2338 -0.9247
vn -0.2942 -0.3059 -0.9055
vn -0.2949 0.2986 0.9077
vn -0.3010 0.2260 0.9264
vn 0.7141 0.4700 0.5188
vn 0.7373 0.4116 0.5357
vn 0.7790 -0.2699 -0.5660
vn 0.7609 -0.3396 -0.5528
vn -0.3084 -0.0606 -0.9493
vn -0.3060 -0.1401 -0.9417
vn -0.2772 0.4419 0.8531
vn -0.2857 0.3808 0.8794
vn 0.8075 0.0616 0.5867
vn 0.8089 -0.0191 0.5877
vt 0.437500 0.687500
vt 0.312500 0.687500
vt 0.562500 0.812500
vt 0.062500 0.812500
s 0
usemtl GamePalette
f 2/1/1 4/1/1 1/1/1
f 8/1/2 6/1/2 5/1/2
f 5/1/3 2/1/3 1/1/3
f 7/1/4 4/1/4 3/1/4
f 8/1/5 1/1/5 4/1/5
f 6/1/6 3/1/6 2/1/6
f 10/1/1 12/1/1 9/1/1
f 16/1/2 14/1/2 13/1/2
f 13/1/3 10/1/3 9/1/3
f 15/1/4 12/1/4 11/1/4
f 16/1/5 9/1/5 12/1/5
f 14/1/6 11/1/6 10/1/6
f 18/1/1 20/1/1 17/1/1
f 24/1/2 22/1/2 21/1/2
f 21/1/3 18/1/3 17/1/3
f 23/1/4 20/1/4 19/1/4
f 24/1/5 17/1/5 20/1/5
f 22/1/6 19/1/6 18/1/6
f 26/1/1 28/1/1 25/1/1
f 32/1/2 30/1/2 29/1/2
f 29/1/3 26/1/3 25/1/3
f 31/1/4 28/1/4 27/1/4
f 32/1/5 25/1/5 28/1/5
f 30/1/6 27/1/6 26/1/6
f 34/2/1 36/2/1 33/2/1
f 40/2/2 38/2/2 37/2/2
f 37/2/3 34/2/3 33/2/3
f 39/2/4 36/2/4 35/2/4
f 40/2/5 33/2/5 36/2/5
f 38/2/6 35/2/6 34/2/6
f 42/3/1 44/3/1 41/3/1
f 48/3/2 46/3/2 45/3/2
f 45/3/3 42/3/3 41/3/3
f 47/3/4 44/3/4 43/3/4
f 48/3/5 41/3/5 44/3/5
f 46/3/6 43/3/6 42/3/6
f 50/3/1 52/3/1 49/3/1
f 56/3/2 54/3/2 53/3/2
f 53/3/3 50/3/3 49/3/3
f 55/3/4 52/3/4 51/3/4
f 56/3/5 49/3/5 52/3/5
f 54/3/6 51/3/6 50/3/6
f 58/3/1 60/3/1 57/3/1
f 64/3/2 62/3/2 61/3/2
f 61/3/3 58/3/3 57/3/3
f 63/3/4 60/3/4 59/3/4
f 64/3/5 57/3/5 60/3/5
f 62/3/6 59/3/6 58/3/6
f 66/3/1 68/3/1 65/3/1
f 72/3/2 70/3/2 69/3/2
f 69/3/3 66/3/3 65/3/3
f 71/3/4 68/3/4 67/3/4
f 72/3/5 65/3/5 68/3/5
f 70/3/6 67/3/6 66/3/6
f 73/4/7 74/4/7 75/4/7
f 79/2/8 75/2/8 74/2/8
f 73/4/9 75/4/9 76/4/9
f 80/2/10 76/2/10 75/2/10
f 73/4/11 76/4/11 77/4/11
f 81/2/12 77/2/12 76/2/12
f 73/4/13 77/4/13 78/4/13
f 77/2/14 83/2/14 78/2/14
f 73/4/15 78/4/15 74/4/15
f 83/2/16 74/2/16 78/2/16
f 82/2/2 80/2/2 79/2/2
f 84/3/17 85/3/17 86/3/17
f 90/1/18 86/1/18 85/1/18
f 84/3/19 86/3/19 87/3/19
f 86/1/20 92/1/20 87/1/20
f 84/3/21 87/3/21 88/3/21
f 87/1/22 93/1/22 88/1/22
f 84/3/23 88/3/23 89/3/23
f 93/1/24 89/1/24 88/1/24
f 84/3/25 89/3/25 85/3/25
f 94/1/26 85/1/26 89/1/26
f 93/1/2 91/1/2 90/1/2
f 95/3/27 96/3/27 97/3/27
f 101/1/28 97/1/28 96/1/28
f 95/3/29 97/3/29 98/3/29
f 102/1/30 98/1/30 97/1/30
f 95/3/31 98/3/31 99/3/31
f 98/1/32 104/1/32 99/1/32
f 95/3/33 99/3/33 100/3/33
f 99/1/34 105/1/34 100/1/34
f 95/3/35 100/3/35 96/3/35
f 105/1/36 96/1/36 100/1/36
f 104/1/2 102/1/2 101/1/2
f 106/3/37 107/3/37 108/3/37
f 107/1/38 113/1/38 108/1/38
f 106/3/39 108/3/39 109/3/39
f 108/1/40 114/1/40 109/1/40
f 106/3/21 109/3/21 110/3/21
f 114/1/22 110/1/22 109/1/22
f 106/3/41 110/3/41 111/3/41
f 115/1/42 111/1/42 110/1/42
f 106/3/43 111/3/43 107/3/43
f 111/1/44 112/1/44 107/1/44
f 115/1/2 113/1/2 112/1/2
f 117/3/45 118/3/45 119/3/45
f 118/1/46 124/1/46 119/1/46
f 117/3/47 119/3/47 120/3/47
f 124/1/48 120/1/48 119/1/48
f 117/3/31 120/3/31 121/3/31
f 125/1/32 121/1/32 120/1/32
f 117/3/49 121/3/49 122/3/49
f 121/1/50 127/1/50 122/1/50
f 117/3/51 122/3/51 118/3/51
f 122/1/52 123/1/52 118/1/52
f 126/1/2 124/1/2 123/1/2
f 2/1/1 3/1/1 4/1/1
f 8/1/2 7/1/2 6/1/2
f 5/1/3 6/1/3 2/1/3
f 7/1/4 8/1/4 4/1/4
f 8/1/5 5/1/5 1/1/5
f 6/1/6 7/1/6 3/1/6
f 10/1/1 11/1/1 12/1/1
f 16/1/2 15/1/2 14/1/2
f 13/1/3 14/1/3 10/1/3
f 15/1/4 16/1/4 12/1/4
f 16/1/5 13/1/5 9/1/5
f 14/1/6 15/1/6 11/1/6
f 18/1/1 19/1/1 20/1/1
f 24/1/2 23/1/2 22/1/2
f 21/1/3 22/1/3 18/1/3
f 23/1/4 24/1/4 20/1/4
f 24/1/5 21/1/5 17/1/5
f 22/1/6 23/1/6 19/1/6
f 26/1/1 27/1/1 28/1/1
f 32/1/2 31/1/2 30/1/2
f 29/1/3 30/1/3 26/1/3
f 31/1/4 32/1/4 28/1/4
f 32/1/5 29/1/5 25/1/5
f 30/1/6 31/1/6 27/1/6
f 34/2/1 35/2/1 36/2/1
f 40/2/2 39/2/2 38/2/2
f 37/2/3 38/2/3 34/2/3
f 39/2/4 40/2/4 36/2/4
f 40/2/5 37/2/5 33/2/5
f 38/2/6 39/2/6 35/2/6
f 42/3/1 43/3/1 44/3/1
f 48/3/2 47/3/2 46/3/2
f 45/3/3 46/3/3 42/3/3
f 47/3/4 48/3/4 44/3/4
f 48/3/5 45/3/5 41/3/5
f 46/3/6 47/3/6 43/3/6
f 50/3/1 51/3/1 52/3/1
f 56/3/2 55/3/2 54/3/2
f 53/3/3 54/3/3 50/3/3
f 55/3/4 56/3/4 52/3/4
f 56/3/5 53/3/5 49/3/5
f 54/3/6 55/3/6 51/3/6
f 58/3/1 59/3/1 60/3/1
f 64/3/2 63/3/2 62/3/2
f 61/3/3 62/3/3 58/3/3
f 63/3/4 64/3/4 60/3/4
f 64/3/5 61/3/5 57/3/5
f 62/3/6 63/3/6 59/3/6
f 66/3/1 67/3/1 68/3/1
f 72/3/2 71/3/2 70/3/2
f 69/3/3 70/3/3 66/3/3
f 71/3/4 72/3/4 68/3/4
f 72/3/5 69/3/5 65/3/5
f 70/3/6 71/3/6 67/3/6
f 79/2/8 80/2/8 75/2/8
f 80/2/10 81/2/10 76/2/10
f 81/2/12 82/2/12 77/2/12
f 77/2/14 82/2/14 83/2/14
f 83/2/16 79/2/16 74/2/16
f 79/2/2 83/2/2 82/2/2
f 82/2/2 81/2/2 80/2/2
f 90/1/18 91/1/18 86/1/18
f 86/1/20 91/1/20 92/1/20
f 87/1/22 92/1/22 93/1/22
f 93/1/24 94/1/24 89/1/24
f 94/1/26 90/1/26 85/1/26
f 90/1/2 94/1/2 93/1/2
f 93/1/2 92/1/2 91/1/2
f 101/1/28 102/1/28 97/1/28
f 102/1/30 103/1/30 98/1/30
f 98/1/32 103/1/32 104/1/32
f 99/1/34 104/1/34 105/1/34
f 105/1/36 101/1/36 96/1/36
f 101/1/2 105/1/2 104/1/2
f 104/1/2 103/1/2 102/1/2
f 107/1/38 112/1/38 113/1/38
f 108/1/40 113/1/40 114/1/40
f 114/1/22 115/1/22 110/1/22
f 115/1/42 116/1/42 111/1/42
f 111/1/44 116/1/44 112/1/44
f 112/1/2 116/1/2 115/1/2
f 115/1/2 114/1/2 113/1/2
f 118/1/46 123/1/46 124/1/46
f 124/1/48 125/1/48 120/1/48
f 125/1/32 126/1/32 121/1/32
f 121/1/50 126/1/50 127/1/50
f 122/1/52 127/1/52 123/1/52
f 123/1/2 127/1/2 126/1/2
f 126/1/2 125/1/2 124/1/2
