# Blender 5.0.1
# www.blender.org
mtllib stone.mtl
o StoneMesh
v -0.950000 0.000000 0.800000
v 0.750000 0.000000 0.850000
v 0.900000 0.000000 -0.650000
v -0.800000 0.000000 -0.800000
v -1.100000 0.750000 0.550000
v 0.950000 0.750000 0.600000
v 1.050000 0.850000 -0.450000
v -0.700000 0.800000 -0.900000
v -0.250000 0.850000 0.980000
v -0.550000 1.550000 0.450000
v 0.500000 1.600000 0.400000
v 0.450000 1.500000 -0.450000
v -0.450000 1.450000 -0.500000
v 0.650000 0.000000 0.450000
v 1.450000 0.000000 0.400000
v 1.400000 0.000000 -0.500000
v 0.600000 0.000000 -0.450000
v 0.700000 0.650000 0.400000
v 1.350000 0.720000 0.350000
v 1.300000 0.680000 -0.450000
v 0.650000 0.600000 -0.400000
v -1.150000 0.000000 0.200000
v -0.750000 0.000000 0.250000
v -0.700000 0.000000 -0.300000
v -1.100000 0.000000 -0.250000
v -1.050000 0.400000 0.150000
v -0.780000 0.450000 0.180000
v -0.750000 0.420000 -0.220000
v -1.020000 0.380000 -0.200000
v -0.350000 1.550000 0.250000
v 0.300000 1.600000 0.200000
v 0.250000 1.500000 -0.300000
v -0.300000 1.450000 -0.320000
v -0.050000 1.880000 -0.050000
vn -0.0000 1.0000 -0.0000
vn -0.4609 0.1963 0.8655
vn -0.0289 -0.1843 0.9825
vn 0.3111 0.2248 0.9234
vn 0.9737 -0.2103 0.0872
vn 0.1708 0.0338 -0.9847
vn -0.9814 -0.0719 -0.1781
vn -0.4498 0.4085 0.7942
vn 0.1744 0.4873 0.8556
vn 0.8177 0.5753 0.0215
vn 0.1630 0.3300 -0.9298
vn -0.8435 0.5039 -0.1862
vn -0.0509 0.9924 -0.1117
vn -0.0650 -0.0750 -0.9951
vn -0.9881 -0.1412 0.0614
vn 0.0727 -0.0749 0.9945
vn 0.9952 -0.0796 -0.0562
vn 0.1182 -0.9918 0.0484
vn 0.1282 -0.1490 -0.9805
vn -0.9926 -0.0903 -0.0807
vn 0.1122 -0.1635 0.9801
vn 0.9693 -0.2237 0.1025
vn 0.1625 -0.9836 0.0786
vn -0.0862 0.9793 -0.1831
vn -0.0056 -0.6699 -0.7424
vn -0.6971 -0.6865 0.2070
vn 0.0184 -0.5393 0.8419
vn 0.8014 -0.5732 0.1709
vt 0.562500 0.812500
vt 0.437500 0.812500
vt 0.312500 0.812500
vt 0.062500 0.812500
vt 0.187500 0.812500
s 0
usemtl GamePalette
f 1/1/1 2/1/1 3/1/1 4/1/1
f 1/2/2 9/2/2 5/2/2
f 1/2/3 2/2/3 9/2/3
f 2/3/4 6/3/4 9/3/4
f 2/2/5 3/2/5 7/2/5 6/2/5
f 3/1/6 4/1/6 8/1/6 7/1/6
f 4/2/7 1/2/7 5/2/7 8/2/7
f 5/3/8 9/3/8 10/3/8
f 9/4/9 6/4/9 11/4/9 10/4/9
f 6/5/10 7/5/10 12/5/10 11/5/10
f 7/3/11 8/3/11 13/3/11 12/3/11
f 8/2/12 5/2/12 10/2/12 13/2/12
f 10/4/13 11/4/13 12/4/13 13/4/13
f 14/1/1 15/1/1 16/1/1 17/1/1
f 14/3/14 18/3/14 19/3/14 15/3/14
f 15/2/15 19/2/15 20/2/15 16/2/15
f 16/1/16 20/1/16 21/1/16 17/1/16
f 17/2/17 21/2/17 18/2/17 14/2/17
f 18/5/18 21/5/18 20/5/18 19/5/18
f 22/1/1 23/1/1 24/1/1 25/1/1
f 22/3/19 26/3/19 27/3/19 23/3/19
f 23/2/20 27/2/20 28/2/20 24/2/20
f 24/1/21 28/1/21 29/1/21 25/1/21
f 25/2/22 29/2/22 26/2/22 22/2/22
f 26/4/23 29/4/23 28/4/23 27/4/23
f 30/4/24 31/4/24 32/4/24 33/4/24
f 30/4/25 34/4/25 31/4/25
f 31/5/26 34/5/26 32/5/26
f 32/3/27 34/3/27 33/3/27
f 33/3/28 34/3/28 30/3/28
