# Blender 5.0.1
# www.blender.org
mtllib spear-1.mtl
o Handle
v 0.142665 -0.550000 0.000000
v 0.100880 -0.550000 -0.119465
v 0.000000 -0.550000 -0.168949
v -0.100880 -0.550000 -0.119465
v -0.142665 -0.550000 -0.000000
v -0.100880 -0.550000 0.119465
v -0.000000 -0.550000 0.168949
v 0.100880 -0.550000 0.119465
v 0.159127 -0.480000 0.000000
v 0.112520 -0.480000 -0.133249
v 0.000000 -0.480000 -0.188443
v -0.112520 -0.480000 -0.133249
v -0.159127 -0.480000 -0.000000
v -0.112520 -0.480000 0.133249
v -0.000000 -0.480000 0.188443
v 0.112520 -0.480000 0.133249
v 0.136875 -0.200000 -0.067141
v 0.056696 -0.200000 -0.162092
v -0.056696 -0.200000 -0.162092
v -0.136875 -0.200000 -0.067141
v -0.136875 -0.200000 0.067141
v -0.056696 -0.200000 0.162092
v 0.056696 -0.200000 0.162092
v 0.136875 -0.200000 0.067141
v 0.142665 0.000000 0.000000
v 0.100880 0.000000 -0.119465
v 0.000000 0.000000 -0.168949
v -0.100880 0.000000 -0.119465
v -0.142665 0.000000 -0.000000
v -0.100880 0.000000 0.119465
v -0.000000 0.000000 0.168949
v 0.100880 0.000000 0.119465
v 0.136875 0.200000 -0.067141
v 0.056696 0.200000 -0.162092
v -0.056696 0.200000 -0.162092
v -0.136875 0.200000 -0.067141
v -0.136875 0.200000 0.067141
v -0.056696 0.200000 0.162092
v 0.056696 0.200000 0.162092
v 0.136875 0.200000 0.067141
v 0.159127 0.480000 0.000000
v 0.112520 0.480000 -0.133249
v 0.000000 0.480000 -0.188443
v -0.112520 0.480000 -0.133249
v -0.159127 0.480000 -0.000000
v -0.112520 0.480000 0.133249
v -0.000000 0.480000 0.188443
v 0.112520 0.480000 0.133249
v 0.142665 0.550000 0.000000
v 0.100880 0.550000 -0.119465
v 0.000000 0.550000 -0.168949
v -0.100880 0.550000 -0.119465
v -0.142665 0.550000 -0.000000
v -0.100880 0.550000 0.119465
v -0.000000 0.550000 0.168949
v 0.100880 0.550000 0.119465
vn 0.9215 -0.2167 -0.3223
vn 0.4272 -0.2426 -0.8710
vn -0.4272 -0.2426 -0.8710
vn -0.9215 -0.2167 -0.3223
vn -0.9215 -0.2167 0.3223
vn -0.4272 -0.2426 0.8710
vn 0.4272 -0.2426 0.8710
vn 0.9215 -0.2167 0.3223
vn 0.8735 0.0386 -0.4853
vn 0.2371 0.0433 -0.9705
vn -0.6141 0.0412 -0.7881
vn -0.9845 0.0371 -0.1715
vn -0.8735 0.0386 0.4853
vn -0.2371 0.0433 0.9705
vn 0.6141 0.0412 0.7881
vn 0.9845 0.0371 0.1715
vn 0.8689 0.0271 -0.4943
vn 0.2249 0.0304 -0.9739
vn -0.6233 0.0288 -0.7814
vn -0.9864 0.0260 -0.1624
vn -0.8689 0.0271 0.4943
vn -0.2249 0.0304 0.9739
vn 0.6233 0.0288 0.7814
vn 0.9864 0.0260 0.1624
vn 0.8689 -0.0271 -0.4943
vn 0.2249 -0.0304 -0.9739
vn -0.6233 -0.0288 -0.7814
vn -0.9864 -0.0260 -0.1624
vn -0.8689 -0.0271 0.4943
vn -0.2249 -0.0304 0.9739
vn 0.6233 -0.0288 0.7814
vn 0.9864 -0.0260 0.1624
vn 0.8735 -0.0386 -0.4853
vn 0.2371 -0.0433 -0.9705
vn -0.6141 -0.0412 -0.7881
vn -0.9845 -0.0371 -0.1715
vn -0.8735 -0.0386 0.4853
vn -0.2371 -0.0433 0.9705
vn 0.6141 -0.0412 0.7881
vn 0.9845 -0.0371 0.1715
vn 0.9215 0.2167 -0.3223
vn 0.4272 0.2426 -0.8710
vn -0.4272 0.2426 -0.8710
vn -0.9215 0.2167 -0.3223
vn -0.9215 0.2167 0.3223
vn -0.4272 0.2426 0.8710
vn 0.4272 0.2426 0.8710
vn 0.9215 0.2167 0.3223
vt 0.437500 0.562500
vt 0.562500 0.562500
s 0
usemtl GamePalette
f 1/1/1 2/1/1 10/1/1 9/1/1
f 2/1/2 3/1/2 11/1/2 10/1/2
f 3/1/3 4/1/3 12/1/3 11/1/3
f 4/1/4 5/1/4 13/1/4 12/1/4
f 5/1/5 6/1/5 14/1/5 13/1/5
f 6/1/6 7/1/6 15/1/6 14/1/6
f 7/1/7 8/1/7 16/1/7 15/1/7
f 8/1/8 1/1/8 9/1/8 16/1/8
f 9/2/9 10/2/9 18/2/9 17/2/9
f 10/2/10 11/2/10 19/2/10 18/2/10
f 11/2/11 12/2/11 20/2/11 19/2/11
f 12/2/12 13/2/12 21/2/12 20/2/12
f 13/2/13 14/2/13 22/2/13 21/2/13
f 14/2/14 15/2/14 23/2/14 22/2/14
f 15/2/15 16/2/15 24/2/15 23/2/15
f 16/2/16 9/2/16 17/2/16 24/2/16
f 17/2/17 18/2/17 26/2/17 25/2/17
f 18/2/18 19/2/18 27/2/18 26/2/18
f 19/2/19 20/2/19 28/2/19 27/2/19
f 20/2/20 21/2/20 29/2/20 28/2/20
f 21/2/21 22/2/21 30/2/21 29/2/21
f 22/2/22 23/2/22 31/2/22 30/2/22
f 23/2/23 24/2/23 32/2/23 31/2/23
f 24/2/24 17/2/24 25/2/24 32/2/24
f 25/2/25 26/2/25 34/2/25 33/2/25
f 26/2/26 27/2/26 35/2/26 34/2/26
f 27/2/27 28/2/27 36/2/27 35/2/27
f 28/2/28 29/2/28 37/2/28 36/2/28
f 29/2/29 30/2/29 38/2/29 37/2/29
f 30/2/30 31/2/30 39/2/30 38/2/30
f 31/2/31 32/2/31 40/2/31 39/2/31
f 32/2/32 25/2/32 33/2/32 40/2/32
f 33/2/33 34/2/33 42/2/33 41/2/33
f 34/2/34 35/2/34 43/2/34 42/2/34
f 35/2/35 36/2/35 44/2/35 43/2/35
f 36/2/36 37/2/36 45/2/36 44/2/36
f 37/2/37 38/2/37 46/2/37 45/2/37
f 38/2/38 39/2/38 47/2/38 46/2/38
f 39/2/39 40/2/39 48/2/39 47/2/39
f 40/2/40 33/2/40 41/2/40 48/2/40
f 41/1/41 42/1/41 50/1/41 49/1/41
f 42/1/42 43/1/42 51/1/42 50/1/42
f 43/1/43 44/1/43 52/1/43 51/1/43
f 44/1/44 45/1/44 53/1/44 52/1/44
f 45/1/45 46/1/45 54/1/45 53/1/45
f 46/1/46 47/1/46 55/1/46 54/1/46
f 47/1/47 48/1/47 56/1/47 55/1/47
f 48/1/48 41/1/48 49/1/48 56/1/48
o Pommel
v 0.000000 -1.050000 0.000000
v 0.068589 -0.980000 0.000000
v 0.048500 -0.980000 -0.057435
v 0.000000 -0.980000 -0.081225
v -0.048500 -0.980000 -0.057435
v -0.068589 -0.980000 -0.000000
v -0.048500 -0.980000 0.057435
v -0.000000 -0.980000 0.081225
v 0.048500 -0.980000 0.057435
v 0.126204 -0.900000 0.000000
v 0.089240 -0.900000 -0.105680
v 0.000000 -0.900000 -0.149455
v -0.089240 -0.900000 -0.105680
v -0.126204 -0.900000 -0.000000
v -0.089240 -0.900000 0.105680
v -0.000000 -0.900000 0.149455
v 0.089240 -0.900000 0.105680
v 0.120717 -0.800000 0.000000
v 0.085360 -0.800000 -0.101086
v 0.000000 -0.800000 -0.142957
v -0.085360 -0.800000 -0.101086
v -0.120717 -0.800000 -0.000000
v -0.085360 -0.800000 0.101086
v -0.000000 -0.800000 0.142957
v 0.085360 -0.800000 0.101086
v 0.120717 -0.550000 0.000000
v 0.085360 -0.550000 -0.101086
v 0.000000 -0.550000 -0.142957
v -0.085360 -0.550000 -0.101086
v -0.120717 -0.550000 -0.000000
v -0.085360 -0.550000 0.101086
v -0.000000 -0.550000 0.142957
v 0.085360 -0.550000 0.101086
vn 0.6930 -0.6790 -0.2424
vn 0.3050 -0.7214 -0.6217
vn -0.3050 -0.7214 -0.6217
vn -0.6930 -0.6790 -0.2424
vn -0.6930 -0.6790 0.2424
vn -0.3050 -0.7214 0.6217
vn 0.3050 -0.7214 0.6217
vn 0.6930 -0.6790 0.2424
vn 0.7806 -0.5622 -0.2730
vn 0.3497 -0.6080 -0.7128
vn -0.3497 -0.6080 -0.7128
vn -0.7806 -0.5622 -0.2730
vn -0.7806 -0.5622 0.2730
vn -0.3497 -0.6080 0.7128
vn 0.3497 -0.6080 0.7128
vn 0.7806 -0.5622 0.2730
vn 0.9427 0.0517 -0.3297
vn 0.4396 0.0582 -0.8963
vn -0.4396 0.0582 -0.8963
vn -0.9427 0.0517 -0.3297
vn -0.9427 0.0517 0.3297
vn -0.4396 0.0582 0.8963
vn 0.4396 0.0582 0.8963
vn 0.9427 0.0517 0.3297
vn 0.9439 -0.0000 -0.3302
vn 0.4404 -0.0000 -0.8978
vn -0.4404 -0.0000 -0.8978
vn -0.9439 -0.0000 -0.3302
vn -0.9439 -0.0000 0.3302
vn -0.4404 -0.0000 0.8978
vn 0.4404 -0.0000 0.8978
vn 0.9439 -0.0000 0.3302
vt 0.312500 0.687500
vt 0.562500 0.562500
s 0
usemtl GamePalette
f 57/3/49 59/3/49 58/3/49
f 57/3/50 60/3/50 59/3/50
f 57/3/51 61/3/51 60/3/51
f 57/3/52 62/3/52 61/3/52
f 57/3/53 63/3/53 62/3/53
f 57/3/54 64/3/54 63/3/54
f 57/3/55 65/3/55 64/3/55
f 57/3/56 58/3/56 65/3/56
f 58/3/57 59/3/57 67/3/57 66/3/57
f 59/3/58 60/3/58 68/3/58 67/3/58
f 60/3/59 61/3/59 69/3/59 68/3/59
f 61/3/60 62/3/60 70/3/60 69/3/60
f 62/3/61 63/3/61 71/3/61 70/3/61
f 63/3/62 64/3/62 72/3/62 71/3/62
f 64/3/63 65/3/63 73/3/63 72/3/63
f 65/3/64 58/3/64 66/3/64 73/3/64
f 66/4/65 67/4/65 75/4/65 74/4/65
f 67/4/66 68/4/66 76/4/66 75/4/66
f 68/4/67 69/4/67 77/4/67 76/4/67
f 69/4/68 70/4/68 78/4/68 77/4/68
f 70/4/69 71/4/69 79/4/69 78/4/69
f 71/4/70 72/4/70 80/4/70 79/4/70
f 72/4/71 73/4/71 81/4/71 80/4/71
f 73/4/72 66/4/72 74/4/72 81/4/72
f 74/3/73 75/3/73 83/3/73 82/3/73
f 75/3/74 76/3/74 84/3/74 83/3/74
f 76/3/75 77/3/75 85/3/75 84/3/75
f 77/3/76 78/3/76 86/3/76 85/3/76
f 78/3/77 79/3/77 87/3/77 86/3/77
f 79/3/78 80/3/78 88/3/78 87/3/78
f 80/3/79 81/3/79 89/3/79 88/3/79
f 81/3/80 74/3/80 82/3/80 89/3/80
o Grip_Upper
v 0.131691 1.350000 0.000000
v 0.093120 1.350000 -0.110275
v 0.000000 1.350000 -0.155953
v -0.093120 1.350000 -0.110275
v -0.131691 1.350000 -0.000000
v -0.093120 1.350000 0.110275
v -0.000000 1.350000 0.155953
v 0.093120 1.350000 0.110275
v 0.148153 1.420000 0.000000
v 0.104760 1.420000 -0.124060
v 0.000000 1.420000 -0.175447
v -0.104760 1.420000 -0.124060
v -0.148153 1.420000 -0.000000
v -0.104760 1.420000 0.124060
v -0.000000 1.420000 0.175447
v 0.104760 1.420000 0.124060
v 0.129271 1.650000 -0.063411
v 0.053546 1.650000 -0.153087
v -0.053546 1.650000 -0.153087
v -0.129271 1.650000 -0.063411
v -0.129271 1.650000 0.063411
v -0.053546 1.650000 0.153087
v 0.053546 1.650000 0.153087
v 0.129271 1.650000 0.063411
v 0.148153 1.880000 0.000000
v 0.104760 1.880000 -0.124060
v 0.000000 1.880000 -0.175447
v -0.104760 1.880000 -0.124060
v -0.148153 1.880000 -0.000000
v -0.104760 1.880000 0.124060
v -0.000000 1.880000 0.175447
v 0.104760 1.880000 0.124060
v 0.131691 1.950000 0.000000
v 0.093120 1.950000 -0.110275
v 0.000000 1.950000 -0.155953
v -0.093120 1.950000 -0.110275
v -0.131691 1.950000 -0.000000
v -0.093120 1.950000 0.110275
v -0.000000 1.950000 0.155953
v 0.093120 1.950000 0.110275
vn 0.9215 -0.2167 -0.3223
vn 0.4272 -0.2426 -0.8710
vn -0.4272 -0.2426 -0.8710
vn -0.9215 -0.2167 -0.3223
vn -0.9215 -0.2167 0.3223
vn -0.4272 -0.2426 0.8710
vn 0.4272 -0.2426 0.8710
vn 0.9215 -0.2167 0.3223
vn 0.8730 0.0353 -0.4865
vn 0.2355 0.0396 -0.9711
vn -0.6154 0.0377 -0.7873
vn -0.9848 0.0339 -0.1703
vn -0.8730 0.0353 0.4865
vn -0.2355 0.0396 0.9711
vn 0.6154 0.0377 0.7873
vn 0.9848 0.0339 0.1703
vn 0.8730 -0.0353 -0.4865
vn 0.2355 -0.0396 -0.9711
vn -0.6154 -0.0377 -0.7873
vn -0.9848 -0.0339 -0.1703
vn -0.8730 -0.0353 0.4865
vn -0.2355 -0.0396 0.9711
vn 0.6154 -0.0377 0.7873
vn 0.9848 -0.0339 0.1703
vn 0.9215 0.2167 -0.3223
vn 0.4272 0.2426 -0.8710
vn -0.4272 0.2426 -0.8710
vn -0.9215 0.2167 -0.3223
vn -0.9215 0.2167 0.3223
vn -0.4272 0.2426 0.8710
vn 0.4272 0.2426 0.8710
vn 0.9215 0.2167 0.3223
vt 0.437500 0.562500
vt 0.562500 0.562500
s 0
usemtl GamePalette
f 90/5/81 91/5/81 99/5/81 98/5/81
f 91/5/82 92/5/82 100/5/82 99/5/82
f 92/5/83 93/5/83 101/5/83 100/5/83
f 93/5/84 94/5/84 102/5/84 101/5/84
f 94/5/85 95/5/85 103/5/85 102/5/85
f 95/5/86 96/5/86 104/5/86 103/5/86
f 96/5/87 97/5/87 105/5/87 104/5/87
f 97/5/88 90/5/88 98/5/88 105/5/88
f 98/6/89 99/6/89 107/6/89 106/6/89
f 99/6/90 100/6/90 108/6/90 107/6/90
f 100/6/91 101/6/91 109/6/91 108/6/91
f 101/6/92 102/6/92 110/6/92 109/6/92
f 102/6/93 103/6/93 111/6/93 110/6/93
f 103/6/94 104/6/94 112/6/94 111/6/94
f 104/6/95 105/6/95 113/6/95 112/6/95
f 105/6/96 98/6/96 106/6/96 113/6/96
f 106/6/97 107/6/97 115/6/97 114/6/97
f 107/6/98 108/6/98 116/6/98 115/6/98
f 108/6/99 109/6/99 117/6/99 116/6/99
f 109/6/100 110/6/100 118/6/100 117/6/100
f 110/6/101 111/6/101 119/6/101 118/6/101
f 111/6/102 112/6/102 120/6/102 119/6/102
f 112/6/103 113/6/103 121/6/103 120/6/103
f 113/6/104 106/6/104 114/6/104 121/6/104
f 114/5/105 115/5/105 123/5/105 122/5/105
f 115/5/106 116/5/106 124/5/106 123/5/106
f 116/5/107 117/5/107 125/5/107 124/5/107
f 117/5/108 118/5/108 126/5/108 125/5/108
f 118/5/109 119/5/109 127/5/109 126/5/109
f 119/5/110 120/5/110 128/5/110 127/5/110
f 120/5/111 121/5/111 129/5/111 128/5/111
f 121/5/112 114/5/112 122/5/112 129/5/112
o Shaft
v 0.120717 0.550000 0.000000
v 0.085360 0.550000 -0.101086
v 0.000000 0.550000 -0.142957
v -0.085360 0.550000 -0.101086
v -0.120717 0.550000 -0.000000
v -0.085360 0.550000 0.101086
v -0.000000 0.550000 0.142957
v 0.085360 0.550000 0.101086
v 0.115230 0.950000 0.000000
v 0.081480 0.950000 -0.096491
v 0.000000 0.950000 -0.136459
v -0.081480 0.950000 -0.096491
v -0.115230 0.950000 -0.000000
v -0.081480 0.950000 0.096491
v -0.000000 0.950000 0.136459
v 0.081480 0.950000 0.096491
v 0.115230 1.350000 0.000000
v 0.081480 1.350000 -0.096491
v 0.000000 1.350000 -0.136459
v -0.081480 1.350000 -0.096491
v -0.115230 1.350000 -0.000000
v -0.081480 1.350000 0.096491
v -0.000000 1.350000 0.136459
v 0.081480 1.350000 0.096491
v 0.115230 1.950000 0.000000
v 0.081480 1.950000 -0.096491
v 0.000000 1.950000 -0.136459
v -0.081480 1.950000 -0.096491
v -0.115230 1.950000 -0.000000
v -0.081480 1.950000 0.096491
v -0.000000 1.950000 0.136459
v 0.081480 1.950000 0.096491
v 0.109743 2.700000 0.000000
v 0.077600 2.700000 -0.091896
v 0.000000 2.700000 -0.129961
v -0.077600 2.700000 -0.091896
v -0.109743 2.700000 -0.000000
v -0.077600 2.700000 0.091896
v -0.000000 2.700000 0.129961
v 0.077600 2.700000 0.091896
v 0.104256 3.400000 0.000000
v 0.073720 3.400000 -0.087301
v 0.000000 3.400000 -0.123463
v -0.073720 3.400000 -0.087301
v -0.104256 3.400000 -0.000000
v -0.073720 3.400000 0.087301
v -0.000000 3.400000 0.123463
v 0.073720 3.400000 0.087301
v 0.087794 3.650000 0.000000
v 0.062080 3.650000 -0.073517
v 0.000000 3.650000 -0.103968
v -0.062080 3.650000 -0.073517
v -0.087794 3.650000 -0.000000
v -0.062080 3.650000 0.073517
v -0.000000 3.650000 0.103968
v 0.062080 3.650000 0.073517
vn 0.9438 0.0129 -0.3301
vn 0.4403 0.0146 -0.8977
vn -0.4403 0.0146 -0.8977
vn -0.9438 0.0129 -0.3301
vn -0.9438 0.0129 0.3301
vn -0.4403 0.0146 0.8977
vn 0.4403 0.0146 0.8977
vn 0.9438 0.0129 0.3301
vn 0.9439 -0.0000 -0.3302
vn 0.4404 -0.0000 -0.8978
vn -0.4404 -0.0000 -0.8978
vn -0.9439 -0.0000 -0.3302
vn -0.9439 -0.0000 0.3302
vn -0.4404 -0.0000 0.8978
vn 0.4404 -0.0000 0.8978
vn 0.9439 -0.0000 0.3302
vn 0.9439 0.0069 -0.3302
vn 0.4404 0.0078 -0.8978
vn -0.4404 0.0078 -0.8978
vn -0.9439 0.0069 -0.3302
vn -0.9439 0.0069 0.3302
vn -0.4404 0.0078 0.8978
vn 0.4404 0.0078 0.8978
vn 0.9439 0.0069 0.3302
vn 0.9439 0.0074 -0.3302
vn 0.4404 0.0083 -0.8978
vn -0.4404 0.0083 -0.8978
vn -0.9439 0.0074 -0.3302
vn -0.9439 0.0074 0.3302
vn -0.4404 0.0083 0.8978
vn 0.4404 0.0083 0.8978
vn 0.9439 0.0074 0.3302
vn 0.9421 0.0620 -0.3295
vn 0.4393 0.0698 -0.8956
vn -0.4393 0.0698 -0.8956
vn -0.9421 0.0620 -0.3295
vn -0.9421 0.0620 0.3295
vn -0.4393 0.0698 0.8956
vn 0.4393 0.0698 0.8956
vn 0.9421 0.0620 0.3295
vt 0.312500 0.687500
s 0
usemtl GamePalette
f 130/7/113 131/7/113 139/7/113 138/7/113
f 131/7/114 132/7/114 140/7/114 139/7/114
f 132/7/115 133/7/115 141/7/115 140/7/115
f 133/7/116 134/7/116 142/7/116 141/7/116
f 134/7/117 135/7/117 143/7/117 142/7/117
f 135/7/118 136/7/118 144/7/118 143/7/118
f 136/7/119 137/7/119 145/7/119 144/7/119
f 137/7/120 130/7/120 138/7/120 145/7/120
f 138/7/121 139/7/121 147/7/121 146/7/121
f 139/7/122 140/7/122 148/7/122 147/7/122
f 140/7/123 141/7/123 149/7/123 148/7/123
f 141/7/124 142/7/124 150/7/124 149/7/124
f 142/7/125 143/7/125 151/7/125 150/7/125
f 143/7/126 144/7/126 152/7/126 151/7/126
f 144/7/127 145/7/127 153/7/127 152/7/127
f 145/7/128 138/7/128 146/7/128 153/7/128
f 154/7/129 155/7/129 163/7/129 162/7/129
f 155/7/130 156/7/130 164/7/130 163/7/130
f 156/7/131 157/7/131 165/7/131 164/7/131
f 157/7/132 158/7/132 166/7/132 165/7/132
f 158/7/133 159/7/133 167/7/133 166/7/133
f 159/7/134 160/7/134 168/7/134 167/7/134
f 160/7/135 161/7/135 169/7/135 168/7/135
f 161/7/136 154/7/136 162/7/136 169/7/136
f 162/7/137 163/7/137 171/7/137 170/7/137
f 163/7/138 164/7/138 172/7/138 171/7/138
f 164/7/139 165/7/139 173/7/139 172/7/139
f 165/7/140 166/7/140 174/7/140 173/7/140
f 166/7/141 167/7/141 175/7/141 174/7/141
f 167/7/142 168/7/142 176/7/142 175/7/142
f 168/7/143 169/7/143 177/7/143 176/7/143
f 169/7/144 162/7/144 170/7/144 177/7/144
f 170/7/145 171/7/145 179/7/145 178/7/145
f 171/7/146 172/7/146 180/7/146 179/7/146
f 172/7/147 173/7/147 181/7/147 180/7/147
f 173/7/148 174/7/148 182/7/148 181/7/148
f 174/7/149 175/7/149 183/7/149 182/7/149
f 175/7/150 176/7/150 184/7/150 183/7/150
f 176/7/151 177/7/151 185/7/151 184/7/151
f 177/7/152 170/7/152 178/7/152 185/7/152
o Binding
v 0.126204 3.380000 0.000000
v 0.089240 3.380000 -0.105680
v 0.000000 3.380000 -0.149455
v -0.089240 3.380000 -0.105680
v -0.126204 3.380000 -0.000000
v -0.089240 3.380000 0.105680
v -0.000000 3.380000 0.149455
v 0.089240 3.380000 0.105680
v 0.131806 3.500000 -0.064654
v 0.054596 3.500000 -0.156088
v -0.054596 3.500000 -0.156088
v -0.131806 3.500000 -0.064654
v -0.131806 3.500000 0.064654
v -0.054596 3.500000 0.156088
v 0.054596 3.500000 0.156088
v 0.131806 3.500000 0.064654
v 0.137178 3.650000 0.000000
v 0.097000 3.650000 -0.114870
v 0.000000 3.650000 -0.162451
v -0.097000 3.650000 -0.114870
v -0.137178 3.650000 -0.000000
v -0.097000 3.650000 0.114870
v -0.000000 3.650000 0.162451
v 0.097000 3.650000 0.114870
v 0.111528 3.780000 -0.054707
v 0.046196 3.780000 -0.132075
v -0.046196 3.780000 -0.132075
v -0.111528 3.780000 -0.054707
v -0.111528 3.780000 0.054707
v -0.046196 3.780000 0.132075
v 0.046196 3.780000 0.132075
v 0.111528 3.780000 0.054707
v -0.150896 3.440000 0.048735
v 0.150896 3.440000 0.048735
v 0.150896 3.440000 -0.048735
v -0.150896 3.440000 -0.048735
v -0.150896 3.700000 0.048735
v 0.150896 3.700000 0.048735
v 0.150896 3.700000 -0.048735
v -0.150896 3.700000 -0.048735
v -0.041153 3.440000 0.178696
v 0.041153 3.440000 0.178696
v 0.041153 3.440000 -0.178696
v -0.041153 3.440000 -0.178696
v -0.041153 3.700000 0.178696
v 0.041153 3.700000 0.178696
v 0.041153 3.700000 -0.178696
v -0.041153 3.700000 -0.178696
vn 0.8575 -0.1344 -0.4967
vn 0.2130 -0.1503 -0.9654
vn -0.6241 -0.1426 -0.7683
vn -0.9796 -0.1288 -0.1541
vn -0.8575 -0.1344 0.4967
vn -0.2130 -0.1503 0.9654
vn 0.6241 -0.1426 0.7683
vn 0.9796 -0.1288 0.1541
vn 0.8686 0.0361 -0.4942
vn 0.2247 0.0405 -0.9736
vn -0.6233 0.0384 -0.7811
vn -0.9861 0.0346 -0.1623
vn -0.8686 0.0361 0.4942
vn -0.2247 0.0405 0.9736
vn 0.6233 0.0384 0.7811
vn 0.9861 0.0346 0.1623
vn 0.8699 0.1237 -0.4774
vn 0.2413 0.1387 -0.9605
vn -0.6046 0.1323 -0.7855
vn -0.9773 0.1192 -0.1751
vn -0.8699 0.1237 0.4774
vn -0.2413 0.1387 0.9605
vn 0.6046 0.1323 0.7855
vn 0.9773 0.1192 0.1751
vn -0.0000 1.0000 -0.0000
vn -0.0000 -1.0000 -0.0000
vn -0.0000 -0.0000 -1.0000
vn -0.0000 -0.0000 1.0000
vn 1.0000 -0.0000 -0.0000
vn -1.0000 -0.0000 -0.0000
vt 0.062500 0.562500
vt 0.437500 0.562500
s 0
usemtl GamePalette
f 186/8/153 187/8/153 195/8/153 194/8/153
f 187/8/154 188/8/154 196/8/154 195/8/154
f 188/8/155 189/8/155 197/8/155 196/8/155
f 189/8/156 190/8/156 198/8/156 197/8/156
f 190/8/157 191/8/157 199/8/157 198/8/157
f 191/8/158 192/8/158 200/8/158 199/8/158
f 192/8/159 193/8/159 201/8/159 200/8/159
f 193/8/160 186/8/160 194/8/160 201/8/160
f 194/8/161 195/8/161 203/8/161 202/8/161
f 195/8/162 196/8/162 204/8/162 203/8/162
f 196/8/163 197/8/163 205/8/163 204/8/163
f 197/8/164 198/8/164 206/8/164 205/8/164
f 198/8/165 199/8/165 207/8/165 206/8/165
f 199/8/166 200/8/166 208/8/166 207/8/166
f 200/8/167 201/8/167 209/8/167 208/8/167
f 201/8/168 194/8/168 202/8/168 209/8/168
f 202/8/169 203/8/169 211/8/169 210/8/169
f 203/8/170 204/8/170 212/8/170 211/8/170
f 204/8/171 205/8/171 213/8/171 212/8/171
f 205/8/172 206/8/172 214/8/172 213/8/172
f 206/8/173 207/8/173 215/8/173 214/8/173
f 207/8/174 208/8/174 216/8/174 215/8/174
f 208/8/175 209/8/175 217/8/175 216/8/175
f 209/8/176 202/8/176 210/8/176 217/8/176
f 218/9/177 219/9/177 220/9/177 221/9/177
f 222/9/178 225/9/178 224/9/178 223/9/178
f 218/9/179 222/9/179 223/9/179 219/9/179
f 220/9/180 224/9/180 225/9/180 221/9/180
f 221/9/181 225/9/181 222/9/181 218/9/181
f 219/9/182 223/9/182 224/9/182 220/9/182
f 226/9/177 227/9/177 228/9/177 229/9/177
f 230/9/178 233/9/178 232/9/178 231/9/178
f 226/9/179 230/9/179 231/9/179 227/9/179
f 228/9/180 232/9/180 233/9/180 229/9/180
f 229/9/181 233/9/181 230/9/181 226/9/181
f 227/9/182 231/9/182 232/9/182 228/9/182
o Flint_Blade
v 0.000000 3.680000 -0.077976
v 0.000000 3.680000 0.077976
v -0.096025 3.680000 0.000000
v 0.096025 3.680000 0.000000
v 0.000000 3.900000 -0.110467
v 0.000000 3.900000 0.110467
v -0.370381 3.900000 0.000000
v 0.370381 3.900000 0.000000
v 0.000000 4.300000 -0.103968
v 0.000000 4.300000 0.103968
v -0.411535 4.300000 0.000000
v 0.411535 4.300000 0.000000
v 0.000000 4.750000 -0.071478
v 0.000000 4.750000 0.071478
v -0.246921 4.750000 0.000000
v 0.246921 4.750000 0.000000
v 0.000000 5.250000 0.000000
vn -0.3586 -0.2891 -0.8876
vn 0.3586 -0.2891 -0.8876
vn -0.2645 -0.0058 -0.9644
vn 0.2645 -0.0058 -0.9644
vn -0.2566 0.0817 -0.9631
vn 0.2566 0.0817 -0.9631
vn -0.2755 0.1360 -0.9516
vn 0.2755 0.1360 -0.9516
vn -0.3586 -0.2891 0.8876
vn 0.3586 -0.2891 0.8876
vn -0.2645 -0.0058 0.9644
vn 0.2645 -0.0058 0.9644
vn -0.2566 0.0817 0.9631
vn 0.2566 0.0817 0.9631
vn -0.2755 0.1360 0.9516
vn 0.2755 0.1360 0.9516
vt 0.312500 0.812500
vt 0.437500 0.812500
vt 0.687500 0.812500
s 0
usemtl GamePalette
f 234/10/183 236/10/183 240/10/183 238/10/183
f 234/11/184 238/11/184 241/11/184 237/11/184
f 238/10/185 240/10/185 244/10/185 242/10/185
f 238/11/186 242/11/186 245/11/186 241/11/186
f 242/10/187 244/10/187 248/10/187 246/10/187
f 242/11/188 246/11/188 249/11/188 245/11/188
f 246/10/189 248/10/189 250/10/189
f 246/11/190 250/11/190 249/11/190
f 235/10/191 239/10/191 240/10/191 236/10/191
f 235/12/192 237/12/192 241/12/192 239/12/192
f 239/10/193 243/10/193 244/10/193 240/10/193
f 239/12/194 241/12/194 245/12/194 243/12/194
f 243/10/195 247/10/195 248/10/195 244/10/195
f 243/12/196 245/12/196 249/12/196 247/12/196
f 247/10/197 250/10/197 248/10/197
f 247/12/198 249/12/198 250/12/198
