# Blender 5.0.1
# www.blender.org
mtllib fox.mtl
o Torso
v -0.380000 0.380000 0.460000
v -0.380000 1.060000 0.460000
v -0.380000 0.380000 -0.460000
v -0.380000 1.060000 -0.460000
v 0.380000 0.380000 0.460000
v 0.380000 1.060000 0.460000
v 0.380000 0.380000 -0.460000
v 0.380000 1.060000 -0.460000
v -0.280000 0.340000 0.410000
v -0.280000 0.660000 0.410000
v -0.280000 0.340000 -0.410000
v -0.280000 0.660000 -0.410000
v 0.280000 0.340000 0.410000
v 0.280000 0.660000 0.410000
v 0.280000 0.340000 -0.410000
v 0.280000 0.660000 -0.410000
vn -1.0000 -0.0000 -0.0000
vn -0.0000 -0.0000 -1.0000
vn 1.0000 -0.0000 -0.0000
vn -0.0000 -0.0000 1.0000
vn -0.0000 -1.0000 -0.0000
vn -0.0000 1.0000 -0.0000
vt 0.000000 0.000000
vt 0.062500 0.937500
s 0
usemtl GamePalette
f 1/1/1 2/1/1 4/1/1 3/1/1
f 3/1/2 4/1/2 8/1/2 7/1/2
f 7/1/3 8/1/3 6/1/3 5/1/3
f 5/1/4 6/1/4 2/1/4 1/1/4
f 3/1/5 7/1/5 5/1/5 1/1/5
f 8/1/6 4/1/6 2/1/6 6/1/6
f 9/2/1 10/2/1 12/2/1 11/2/1
f 11/2/2 12/2/2 16/2/2 15/2/2
f 15/2/3 16/2/3 14/2/3 13/2/3
f 13/2/4 14/2/4 10/2/4 9/2/4
f 11/2/5 15/2/5 13/2/5 9/2/5
f 16/2/6 12/2/6 10/2/6 14/2/6
o ChestFluff
v 0.000000 0.339313 0.346736
v 0.000000 0.892985 0.184726
v 0.346410 0.492522 0.475293
v 0.069282 0.923627 0.210438
v 0.346410 0.798940 0.732408
v 0.069282 0.984911 0.261861
v 0.000000 0.952149 0.860966
v 0.000000 1.015553 0.287572
v -0.346410 0.798940 0.732408
v -0.069282 0.984911 0.261861
v -0.346410 0.492522 0.475293
v -0.069282 0.923627 0.210438
vn 0.4330 -0.2531 -0.8651
vn 0.8660 0.3214 -0.3830
vn 0.4330 0.8959 0.0991
vn -0.4330 0.8959 0.0991
vn -0.0000 0.6428 -0.7660
vn -0.8660 0.3214 -0.3830
vn -0.4330 -0.2531 -0.8651
vn -0.0000 -0.6428 0.7660
vt 0.062500 0.937500
s 0
usemtl GamePalette
f 17/3/7 18/3/7 20/3/7 19/3/7
f 19/3/8 20/3/8 22/3/8 21/3/8
f 21/3/9 22/3/9 24/3/9 23/3/9
f 23/3/10 24/3/10 26/3/10 25/3/10
f 20/3/11 18/3/11 28/3/11 26/3/11 24/3/11 22/3/11
f 25/3/12 26/3/12 28/3/12 27/3/12
f 27/3/13 28/3/13 18/3/13 17/3/13
f 17/3/14 19/3/14 21/3/14 23/3/14 25/3/14 27/3/14
o Collar
v -0.350000 1.163411 0.746854
v -0.350000 1.278092 0.666553
v -0.350000 0.761908 0.173447
v -0.350000 0.876589 0.093146
v 0.350000 1.163411 0.746854
v 0.350000 1.278092 0.666553
v 0.350000 0.761908 0.173447
v 0.350000 0.876589 0.093146
v 0.000000 0.770000 0.620000
v 0.094068 0.841862 0.688344
v -0.035930 0.841862 0.730583
v -0.116275 0.841862 0.620000
v -0.035930 0.841862 0.509417
v 0.094068 0.841862 0.551656
v 0.035930 0.958138 0.730583
v -0.094068 0.958138 0.688344
v -0.094068 0.958138 0.551656
v 0.035930 0.958138 0.509417
v 0.116275 0.958138 0.620000
v 0.000000 1.030000 0.620000
vn -1.0000 -0.0000 -0.0000
vn -0.0000 -0.5736 -0.8192
vn 1.0000 -0.0000 -0.0000
vn -0.0000 0.5736 0.8192
vn -0.0000 -0.8192 0.5736
vn -0.0000 0.8192 -0.5736
vn 0.1876 -0.7947 0.5774
vn 0.6071 -0.7947 -0.0000
vn -0.4911 -0.7947 0.3568
vn -0.4911 -0.7947 -0.3568
vn 0.1876 -0.7947 -0.5774
vn 0.9822 -0.1876 -0.0000
vn 0.3035 -0.1876 0.9342
vn -0.7946 -0.1876 0.5774
vn -0.7946 -0.1876 -0.5774
vn 0.3035 -0.1876 -0.9342
vn 0.7946 0.1876 0.5774
vn -0.3035 0.1876 0.9342
vn -0.9822 0.1876 -0.0000
vn -0.3035 0.1876 -0.9342
vn 0.7946 0.1876 -0.5774
vn 0.4911 0.7947 0.3568
vn -0.1876 0.7947 0.5774
vn -0.6071 0.7947 -0.0000
vn -0.1876 0.7947 -0.5774
vn 0.4911 0.7947 -0.3568
s 0
usemtl GamePalette
f 29//15 30//15 32//15 31//15
f 31//16 32//16 36//16 35//16
f 35//17 36//17 34//17 33//17
f 33//18 34//18 30//18 29//18
f 31//19 35//19 33//19 29//19
f 36//20 32//20 30//20 34//20
f 37//21 38//21 39//21
f 38//22 37//22 42//22
f 37//23 39//23 40//23
f 37//24 40//24 41//24
f 37//25 41//25 42//25
f 38//26 42//26 47//26
f 39//27 38//27 43//27
f 40//28 39//28 44//28
f 41//29 40//29 45//29
f 42//30 41//30 46//30
f 38//31 47//31 43//31
f 39//32 43//32 44//32
f 40//33 44//33 45//33
f 41//34 45//34 46//34
f 42//35 46//35 47//35
f 43//36 47//36 48//36
f 44//37 43//37 48//37
f 45//38 44//38 48//38
f 46//39 45//39 48//39
f 47//40 46//40 48//40
o Head
v -0.440000 0.920000 1.030000
v -0.440000 1.720000 1.030000
v -0.440000 0.920000 0.210000
v -0.440000 1.720000 0.210000
v 0.440000 0.920000 1.030000
v 0.440000 1.720000 1.030000
v 0.440000 0.920000 0.210000
v 0.440000 1.720000 0.210000
v -0.498678 1.176319 0.255192
v -0.655074 1.350015 0.690359
v -0.217292 1.290209 0.434715
v -0.617556 1.365201 0.714295
v -0.186065 1.092657 0.725189
v -0.613392 1.338860 0.753025
v -0.448150 0.856674 0.725189
v -0.648337 1.307396 0.753025
v -0.641356 0.908380 0.434715
v -0.674098 1.314290 0.714295
v 0.498678 1.176319 0.255192
v 0.655074 1.350015 0.690359
v 0.641356 0.908380 0.434715
v 0.674098 1.314290 0.714295
v 0.448150 0.856674 0.725189
v 0.648337 1.307396 0.753025
v 0.186065 1.092657 0.725189
v 0.613392 1.338860 0.753025
v 0.217292 1.290209 0.434715
v 0.617556 1.365201 0.714295
vn -1.0000 -0.0000 -0.0000
vn -0.0000 -0.0000 -1.0000
vn 1.0000 -0.0000 -0.0000
vn -0.0000 -0.0000 1.0000
vn -0.0000 -1.0000 -0.0000
vn -0.0000 1.0000 -0.0000
vn -0.1109 0.9086 -0.4026
vn -0.0397 -0.0440 0.9982
vn 0.8921 0.2053 -0.4026
vn 0.4649 0.7545 0.4632
vn 0.7990 -0.3835 0.4632
vn 0.0397 -0.0440 0.9982
vn -0.5795 0.6436 0.5000
vn -0.7990 -0.3835 0.4632
vn -0.8921 0.2053 -0.4026
vn 0.5795 -0.6436 -0.5000
vn -0.5795 -0.6436 -0.5000
vn -0.4649 0.7545 0.4632
vn 0.1109 0.9086 -0.4026
vn 0.5795 0.6436 0.5000
vt 0.000000 0.000000
vt 0.062500 0.937500
s 0
usemtl GamePalette
f 49/4/41 50/4/41 52/4/41 51/4/41
f 51/4/42 52/4/42 56/4/42 55/4/42
f 55/4/43 56/4/43 54/4/43 53/4/43
f 53/4/44 54/4/44 50/4/44 49/4/44
f 51/4/45 55/4/45 53/4/45 49/4/45
f 56/4/46 52/4/46 50/4/46 54/4/46
f 57/5/47 58/5/47 60/5/47 59/5/47
f 71/5/48 72/5/48 74/5/48 73/5/48
f 67/5/49 68/5/49 70/5/49 69/5/49
f 59/5/50 60/5/50 62/5/50 61/5/50
f 69/5/51 70/5/51 72/5/51 71/5/51
f 61/5/52 62/5/52 64/5/52 63/5/52
f 60/5/53 58/5/53 66/5/53 64/5/53 62/5/53
f 63/5/54 64/5/54 66/5/54 65/5/54
f 65/5/55 66/5/55 58/5/55 57/5/55
f 57/5/56 59/5/56 61/5/56 63/5/56 65/5/56
f 69/5/57 71/5/57 73/5/57 75/5/57 67/5/57
f 73/5/58 74/5/58 76/5/58 75/5/58
f 75/5/59 76/5/59 68/5/59 67/5/59
f 74/5/60 72/5/60 70/5/60 68/5/60 76/5/60
o Muzzle
v -0.070000 1.280000 1.380000
v -0.070000 1.160000 1.380000
v 0.000000 0.912131 1.320786
v 0.000000 1.128063 0.868046
v 0.247275 1.091678 1.327056
v 0.057063 1.169497 0.869493
v 0.152824 1.382189 1.337201
v 0.035267 1.236538 0.871834
v -0.152824 1.382189 1.337201
v -0.035267 1.236538 0.871834
v -0.247275 1.091678 1.327056
v -0.057063 1.169497 0.869493
v -0.070000 1.160000 1.260000
v -0.070000 1.280000 1.260000
v 0.070000 1.160000 1.380000
v 0.070000 1.280000 1.380000
v 0.070000 1.160000 1.260000
v 0.070000 1.280000 1.260000
vn -0.0000 -0.0000 1.0000
vn 0.5545 -0.7511 -0.3583
vn 1.0000 -0.0000 -0.0000
vn 0.8972 0.3029 -0.3214
vn -0.0000 1.0000 -0.0000
vn -0.0000 -0.0000 -1.0000
vn -0.0000 0.9543 -0.2987
vn -0.0000 0.0349 -0.9994
vn -1.0000 -0.0000 -0.0000
vn -0.8972 0.3029 -0.3214
vn -0.0000 -1.0000 -0.0000
vn -0.5545 -0.7511 -0.3583
vn -0.0000 -0.0349 0.9994
vt 0.937500 0.812500
vt 0.062500 0.937500
s 0
usemtl GamePalette
f 91/6/61 92/6/61 77/6/61 78/6/61
f 79/7/62 80/7/62 82/7/62 81/7/62
f 93/6/63 94/6/63 92/6/63 91/6/63
f 81/7/64 82/7/64 84/7/64 83/7/64
f 94/6/65 90/6/65 77/6/65 92/6/65
f 89/6/66 90/6/66 94/6/66 93/6/66
f 83/7/67 84/7/67 86/7/67 85/7/67
f 82/7/68 80/7/68 88/7/68 86/7/68 84/7/68
f 78/6/69 77/6/69 90/6/69 89/6/69
f 85/7/70 86/7/70 88/7/70 87/7/70
f 89/6/71 93/6/71 91/6/71 78/6/71
f 87/7/72 88/7/72 80/7/72 79/7/72
f 79/7/73 81/7/73 83/7/73 85/7/73 87/7/73
o Ears
v -0.342025 1.584803 0.582139
v -0.473937 1.911295 0.656987
v -0.268217 1.612830 0.181666
v -0.478263 2.132712 0.525764
v 0.013202 1.663744 0.455547
v -0.417959 2.143622 0.584453
v -0.224602 1.504878 0.729429
v -0.468917 2.109580 0.643141
v -0.506021 1.453964 0.455547
v -0.529221 2.098670 0.584453
v -0.427482 2.019516 0.379315
v -0.501085 2.201689 0.513089
v -0.326975 2.037699 0.477130
v -0.491034 2.203507 0.522870
v -0.411905 1.980961 0.574944
v -0.499527 2.197834 0.532652
v -0.512412 1.962778 0.477130
v -0.509578 2.196015 0.522870
v -0.345141 1.592514 0.543013
v -0.477052 1.919006 0.617861
v -0.202948 1.640994 0.582139
v -0.334859 1.967486 0.656987
v -0.206063 1.648705 0.543013
v -0.337975 1.975197 0.617861
v 0.202948 1.640994 0.582139
v 0.334859 1.967486 0.656987
v 0.268217 1.612830 0.181666
v 0.478263 2.132712 0.525764
v 0.506021 1.453964 0.455547
v 0.529221 2.098670 0.584453
v 0.224602 1.504878 0.729429
v 0.468917 2.109580 0.643141
v -0.013202 1.663744 0.455547
v 0.417959 2.143622 0.584453
v 0.427482 2.019516 0.379315
v 0.501085 2.201689 0.513089
v 0.512412 1.962778 0.477130
v 0.509578 2.196015 0.522870
v 0.411905 1.980961 0.574944
v 0.499527 2.197834 0.532652
v 0.326975 2.037699 0.477130
v 0.491034 2.203507 0.522870
v 0.206063 1.648705 0.543013
v 0.337975 1.975197 0.617861
v 0.342025 1.584803 0.582139
v 0.473937 1.911295 0.656987
v 0.345141 1.592514 0.543013
v 0.477052 1.919006 0.617861
vn 0.5809 0.3755 0.7222
vn 0.4751 0.6374 -0.6066
vn 0.4933 0.6098 -0.6203
vn -0.3664 0.9069 0.2079
vn 0.9272 0.3746 -0.0000
vn 0.6002 0.3454 0.7215
vn -0.6717 -0.1684 0.7215
vn -0.0779 0.1928 -0.9781
vn 0.6787 -0.1334 0.7222
vn -0.7785 0.0960 -0.6203
vn 0.3664 -0.9069 -0.2079
vn -0.9272 -0.3746 -0.0000
vn -0.6787 -0.1334 0.7222
vn 0.0779 -0.1928 0.9781
vn -0.7845 0.1285 -0.6066
vn 0.7845 0.1285 -0.6066
vn 0.7785 0.0960 -0.6203
vn 0.3664 0.9069 0.2079
vn 0.9272 -0.3746 -0.0000
vn 0.6717 -0.1684 0.7215
vn -0.6002 0.3454 0.7215
vn 0.0779 0.1928 -0.9781
vn -0.4933 0.6098 -0.6203
vn -0.3664 -0.9069 -0.2079
vn -0.9272 0.3746 -0.0000
vn -0.5809 0.3755 0.7222
vn -0.0779 -0.1928 0.9781
vn -0.4751 0.6374 -0.6066
vt 0.437500 0.812500
vt 0.000000 0.000000
vt 0.062500 0.187500
s 0
usemtl GamePalette
f 107/8/74 108/8/74 110/8/74 109/8/74
f 105/8/75 106/8/75 108/8/75 107/8/75
f 97/9/76 98/9/76 100/9/76 99/9/76
f 108/8/77 106/8/77 112/8/77 110/8/77
f 117/10/78 118/10/78 116/10/78 115/10/78
f 99/9/79 100/9/79 102/9/79 101/9/79
f 100/9/77 98/9/77 104/9/77 102/9/77
f 118/10/77 114/10/77 96/10/77 116/10/77
f 101/9/80 102/9/80 104/9/80 103/9/80
f 113/10/81 114/10/81 118/10/81 117/10/81
f 131/8/82 132/8/82 134/8/82 133/8/82
f 103/9/83 104/9/83 98/9/83 97/9/83
f 97/9/84 99/9/84 101/9/84 103/9/84
f 95/10/85 96/10/85 114/10/85 113/10/85
f 109/8/86 110/8/86 112/8/86 111/8/86
f 113/10/84 117/10/84 115/10/84 95/10/84
f 115/10/87 116/10/87 96/10/87 95/10/87
f 111/8/88 112/8/88 106/8/88 105/8/88
f 109/8/84 111/8/84 105/8/84 107/8/84
f 129/8/89 130/8/89 132/8/89 131/8/89
f 121/9/90 122/9/90 124/9/90 123/9/90
f 132/8/91 130/8/91 136/8/91 134/8/91
f 141/10/92 142/10/92 140/10/92 139/10/92
f 123/9/93 124/9/93 126/9/93 125/9/93
f 124/9/91 122/9/91 128/9/91 126/9/91
f 142/10/91 138/10/91 120/10/91 140/10/91
f 125/9/94 126/9/94 128/9/94 127/9/94
f 137/10/95 138/10/95 142/10/95 141/10/95
f 127/9/96 128/9/96 122/9/96 121/9/96
f 121/9/97 123/9/97 125/9/97 127/9/97
f 119/10/98 120/10/98 138/10/98 137/10/98
f 133/8/99 134/8/99 136/8/99 135/8/99
f 137/10/97 141/10/97 139/10/97 119/10/97
f 139/10/100 140/10/100 120/10/100 119/10/100
f 135/8/101 136/8/101 130/8/101 129/8/101
f 133/8/97 135/8/97 129/8/97 131/8/97
o Eyes
v -0.330000 1.260000 1.020000
v -0.330000 1.460000 1.020000
v -0.330000 1.260000 0.940000
v -0.330000 1.460000 0.940000
v -0.150000 1.260000 1.020000
v -0.150000 1.460000 1.020000
v -0.150000 1.260000 0.940000
v -0.150000 1.460000 0.940000
v -0.280000 1.300000 1.040000
v -0.280000 1.420000 1.040000
v -0.280000 1.300000 1.000000
v -0.280000 1.420000 1.000000
v -0.180000 1.300000 1.040000
v -0.180000 1.420000 1.040000
v -0.180000 1.300000 1.000000
v -0.180000 1.420000 1.000000
v -0.215000 1.395000 1.055000
v -0.215000 1.445000 1.055000
v -0.215000 1.395000 1.025000
v -0.215000 1.445000 1.025000
v -0.165000 1.395000 1.055000
v -0.165000 1.445000 1.055000
v -0.165000 1.395000 1.025000
v -0.165000 1.445000 1.025000
v 0.150000 1.260000 1.020000
v 0.150000 1.460000 1.020000
v 0.150000 1.260000 0.940000
v 0.150000 1.460000 0.940000
v 0.330000 1.260000 1.020000
v 0.330000 1.460000 1.020000
v 0.330000 1.260000 0.940000
v 0.330000 1.460000 0.940000
v 0.180000 1.300000 1.040000
v 0.180000 1.420000 1.040000
v 0.180000 1.300000 1.000000
v 0.180000 1.420000 1.000000
v 0.280000 1.300000 1.040000
v 0.280000 1.420000 1.040000
v 0.280000 1.300000 1.000000
v 0.280000 1.420000 1.000000
v 0.165000 1.395000 1.055000
v 0.165000 1.445000 1.055000
v 0.165000 1.395000 1.025000
v 0.165000 1.445000 1.025000
v 0.215000 1.395000 1.055000
v 0.215000 1.445000 1.055000
v 0.215000 1.395000 1.025000
v 0.215000 1.445000 1.025000
vn -1.0000 -0.0000 -0.0000
vn -0.0000 -0.0000 -1.0000
vn 1.0000 -0.0000 -0.0000
vn -0.0000 -0.0000 1.0000
vn -0.0000 -1.0000 -0.0000
vn -0.0000 1.0000 -0.0000
vt 0.000000 0.000000
vt 0.937500 0.812500
vt 0.062500 0.937500
s 0
usemtl GamePalette
f 143/11/102 144/11/102 146/11/102 145/11/102
f 145/11/103 146/11/103 150/11/103 149/11/103
f 149/11/104 150/11/104 148/11/104 147/11/104
f 147/11/105 148/11/105 144/11/105 143/11/105
f 145/11/106 149/11/106 147/11/106 143/11/106
f 150/11/107 146/11/107 144/11/107 148/11/107
f 151/12/102 152/12/102 154/12/102 153/12/102
f 153/12/103 154/12/103 158/12/103 157/12/103
f 157/12/104 158/12/104 156/12/104 155/12/104
f 155/12/105 156/12/105 152/12/105 151/12/105
f 153/12/106 157/12/106 155/12/106 151/12/106
f 158/12/107 154/12/107 152/12/107 156/12/107
f 159/13/102 160/13/102 162/13/102 161/13/102
f 161/13/103 162/13/103 166/13/103 165/13/103
f 165/13/104 166/13/104 164/13/104 163/13/104
f 163/13/105 164/13/105 160/13/105 159/13/105
f 161/13/106 165/13/106 163/13/106 159/13/106
f 166/13/107 162/13/107 160/13/107 164/13/107
f 167/11/102 168/11/102 170/11/102 169/11/102
f 169/11/103 170/11/103 174/11/103 173/11/103
f 173/11/104 174/11/104 172/11/104 171/11/104
f 171/11/105 172/11/105 168/11/105 167/11/105
f 169/11/106 173/11/106 171/11/106 167/11/106
f 174/11/107 170/11/107 168/11/107 172/11/107
f 175/12/102 176/12/102 178/12/102 177/12/102
f 177/12/103 178/12/103 182/12/103 181/12/103
f 181/12/104 182/12/104 180/12/104 179/12/104
f 179/12/105 180/12/105 176/12/105 175/12/105
f 177/12/106 181/12/106 179/12/106 175/12/106
f 182/12/107 178/12/107 176/12/107 180/12/107
f 183/13/102 184/13/102 186/13/102 185/13/102
f 185/13/103 186/13/103 190/13/103 189/13/103
f 189/13/104 190/13/104 188/13/104 187/13/104
f 187/13/105 188/13/105 184/13/105 183/13/105
f 185/13/106 189/13/106 187/13/106 183/13/106
f 190/13/107 186/13/107 184/13/107 188/13/107
o Leg_FL
v -0.410000 0.220000 0.420000
v -0.410000 0.620000 0.420000
v -0.410000 0.220000 0.140000
v -0.410000 0.620000 0.140000
v -0.150000 0.220000 0.420000
v -0.150000 0.620000 0.420000
v -0.150000 0.220000 0.140000
v -0.150000 0.620000 0.140000
v -0.420000 0.030000 0.460000
v -0.420000 0.270000 0.460000
v -0.420000 0.030000 0.140000
v -0.420000 0.270000 0.140000
v -0.140000 0.030000 0.460000
v -0.140000 0.270000 0.460000
v -0.140000 0.030000 0.140000
v -0.140000 0.270000 0.140000
vn -1.0000 -0.0000 -0.0000
vn -0.0000 -0.0000 -1.0000
vn 1.0000 -0.0000 -0.0000
vn -0.0000 -0.0000 1.0000
vn -0.0000 -1.0000 -0.0000
vn -0.0000 1.0000 -0.0000
vt 0.000000 0.000000
vt 0.062500 0.937500
s 0
usemtl GamePalette
f 191/14/108 192/14/108 194/14/108 193/14/108
f 193/14/109 194/14/109 198/14/109 197/14/109
f 197/14/110 198/14/110 196/14/110 195/14/110
f 195/14/111 196/14/111 192/14/111 191/14/111
f 193/14/112 197/14/112 195/14/112 191/14/112
f 198/14/113 194/14/113 192/14/113 196/14/113
f 199/15/108 200/15/108 202/15/108 201/15/108
f 201/15/109 202/15/109 206/15/109 205/15/109
f 205/15/110 206/15/110 204/15/110 203/15/110
f 203/15/111 204/15/111 200/15/111 199/15/111
f 201/15/112 205/15/112 203/15/112 199/15/112
f 206/15/113 202/15/113 200/15/113 204/15/113
o Leg_FR
v 0.150000 0.220000 0.420000
v 0.150000 0.620000 0.420000
v 0.150000 0.220000 0.140000
v 0.150000 0.620000 0.140000
v 0.410000 0.220000 0.420000
v 0.410000 0.620000 0.420000
v 0.410000 0.220000 0.140000
v 0.410000 0.620000 0.140000
v 0.140000 0.030000 0.460000
v 0.140000 0.270000 0.460000
v 0.140000 0.030000 0.140000
v 0.140000 0.270000 0.140000
v 0.420000 0.030000 0.460000
v 0.420000 0.270000 0.460000
v 0.420000 0.030000 0.140000
v 0.420000 0.270000 0.140000
vn -1.0000 -0.0000 -0.0000
vn -0.0000 -0.0000 -1.0000
vn 1.0000 -0.0000 -0.0000
vn -0.0000 -0.0000 1.0000
vn -0.0000 -1.0000 -0.0000
vn -0.0000 1.0000 -0.0000
vt 0.000000 0.000000
vt 0.062500 0.937500
s 0
usemtl GamePalette
f 207/16/114 208/16/114 210/16/114 209/16/114
f 209/16/115 210/16/115 214/16/115 213/16/115
f 213/16/116 214/16/116 212/16/116 211/16/116
f 211/16/117 212/16/117 208/16/117 207/16/117
f 209/16/118 213/16/118 211/16/118 207/16/118
f 214/16/119 210/16/119 208/16/119 212/16/119
f 215/17/114 216/17/114 218/17/114 217/17/114
f 217/17/115 218/17/115 222/17/115 221/17/115
f 221/17/116 222/17/116 220/17/116 219/17/116
f 219/17/117 220/17/117 216/17/117 215/17/117
f 217/17/118 221/17/118 219/17/118 215/17/118
f 222/17/119 218/17/119 216/17/119 220/17/119
o Leg_BL
v -0.410000 0.220000 -0.140000
v -0.410000 0.620000 -0.140000
v -0.410000 0.220000 -0.420000
v -0.410000 0.620000 -0.420000
v -0.150000 0.220000 -0.140000
v -0.150000 0.620000 -0.140000
v -0.150000 0.220000 -0.420000
v -0.150000 0.620000 -0.420000
v -0.420000 0.030000 -0.100000
v -0.420000 0.270000 -0.100000
v -0.420000 0.030000 -0.420000
v -0.420000 0.270000 -0.420000
v -0.140000 0.030000 -0.100000
v -0.140000 0.270000 -0.100000
v -0.140000 0.030000 -0.420000
v -0.140000 0.270000 -0.420000
vn -1.0000 -0.0000 -0.0000
vn -0.0000 -0.0000 -1.0000
vn 1.0000 -0.0000 -0.0000
vn -0.0000 -0.0000 1.0000
vn -0.0000 -1.0000 -0.0000
vn -0.0000 1.0000 -0.0000
vt 0.000000 0.000000
vt 0.062500 0.937500
s 0
usemtl GamePalette
f 223/18/120 224/18/120 226/18/120 225/18/120
f 225/18/121 226/18/121 230/18/121 229/18/121
f 229/18/122 230/18/122 228/18/122 227/18/122
f 227/18/123 228/18/123 224/18/123 223/18/123
f 225/18/124 229/18/124 227/18/124 223/18/124
f 230/18/125 226/18/125 224/18/125 228/18/125
f 231/19/120 232/19/120 234/19/120 233/19/120
f 233/19/121 234/19/121 238/19/121 237/19/121
f 237/19/122 238/19/122 236/19/122 235/19/122
f 235/19/123 236/19/123 232/19/123 231/19/123
f 233/19/124 237/19/124 235/19/124 231/19/124
f 238/19/125 234/19/125 232/19/125 236/19/125
o Leg_BR
v 0.150000 0.220000 -0.140000
v 0.150000 0.620000 -0.140000
v 0.150000 0.220000 -0.420000
v 0.150000 0.620000 -0.420000
v 0.410000 0.220000 -0.140000
v 0.410000 0.620000 -0.140000
v 0.410000 0.220000 -0.420000
v 0.410000 0.620000 -0.420000
v 0.140000 0.030000 -0.100000
v 0.140000 0.270000 -0.100000
v 0.140000 0.030000 -0.420000
v 0.140000 0.270000 -0.420000
v 0.420000 0.030000 -0.100000
v 0.420000 0.270000 -0.100000
v 0.420000 0.030000 -0.420000
v 0.420000 0.270000 -0.420000
vn -1.0000 -0.0000 -0.0000
vn -0.0000 -0.0000 -1.0000
vn 1.0000 -0.0000 -0.0000
vn -0.0000 -0.0000 1.0000
vn -0.0000 -1.0000 -0.0000
vn -0.0000 1.0000 -0.0000
vt 0.000000 0.000000
vt 0.062500 0.937500
s 0
usemtl GamePalette
f 239/20/126 240/20/126 242/20/126 241/20/126
f 241/20/127 242/20/127 246/20/127 245/20/127
f 245/20/128 246/20/128 244/20/128 243/20/128
f 243/20/129 244/20/129 240/20/129 239/20/129
f 241/20/130 245/20/130 243/20/130 239/20/130
f 246/20/131 242/20/131 240/20/131 244/20/131
f 247/21/126 248/21/126 250/21/126 249/21/126
f 249/21/127 250/21/127 254/21/127 253/21/127
f 253/21/128 254/21/128 252/21/128 251/21/128
f 251/21/129 252/21/129 248/21/129 247/21/129
f 249/21/130 253/21/130 251/21/130 247/21/130
f 254/21/131 250/21/131 248/21/131 252/21/131
o Tail
v 0.000000 0.795251 -0.844160
v 0.000000 1.269013 -0.540104
v 0.207846 0.710398 -0.759307
v 0.311769 1.141734 -0.412825
v 0.207846 0.540693 -0.589602
v 0.311769 0.887175 -0.158266
v 0.000000 0.455840 -0.504749
v 0.000000 0.759896 -0.030987
v -0.207846 0.540693 -0.589602
v -0.311769 0.887175 -0.158266
v -0.207846 0.710398 -0.759307
v -0.311769 1.141734 -0.412825
v 0.000000 1.349485 -1.244035
v 0.000000 1.657435 -0.725607
v 0.281459 1.226641 -1.186752
v 0.328369 1.514116 -0.658777
v 0.350974 0.950612 -1.058038
v 0.409470 1.192083 -0.508610
v 0.156198 0.729255 -0.954817
v 0.182231 0.933832 -0.388186
v -0.156198 0.729255 -0.954817
v -0.182231 0.933832 -0.388186
v -0.350974 0.950612 -1.058038
v -0.409470 1.192083 -0.508610
v -0.281459 1.226641 -1.186752
v -0.328369 1.514116 -0.658777
v 0.000000 1.837835 -1.407993
v 0.000000 1.597494 -0.818810
v 0.346410 1.639781 -1.380158
v 0.069282 1.557883 -0.813243
v 0.346410 1.243674 -1.324489
v 0.069282 1.478662 -0.802109
v 0.000000 1.045620 -1.296654
v 0.000000 1.439051 -0.796542
v -0.346410 1.243674 -1.324489
v -0.069282 1.478662 -0.802109
v -0.346410 1.639781 -1.380158
v -0.069282 1.557883 -0.813243
vn 0.4465 -0.7032 0.5532
vn 0.4913 0.4704 -0.7330
vn 0.4465 0.8285 0.3380
vn 0.9826 -0.1313 -0.1313
vn 0.4321 0.7753 -0.4606
vn 0.4913 -0.7330 0.4704
vn 0.8930 0.0626 0.4456
vn -0.4913 -0.7330 0.4704
vn -0.0000 0.7071 0.7071
vn -0.4465 -0.7032 0.5532
vn -0.9826 -0.1313 -0.1313
vn 0.7787 -0.6007 0.1811
vn 0.9710 0.1629 -0.1750
vn -0.4913 0.4704 -0.7330
vn -0.0000 -0.7071 -0.7071
vn -0.0000 -0.9406 0.3396
vn -0.7787 -0.6007 0.1811
vn -0.0000 0.4226 0.9063
vn -0.9710 0.1629 -0.1750
vn -0.4321 0.7753 -0.4606
vn -0.0000 -0.4226 -0.9063
vn -0.0000 -0.1392 -0.9903
vn -0.8930 0.0626 0.4456
vn -0.4465 0.8285 0.3380
vn -0.0000 0.1392 0.9903
vt 0.062500 0.937500
vt 0.000000 0.000000
s 0
usemtl GamePalette
f 285/22/132 286/22/132 288/22/132 287/22/132
f 255/23/133 256/23/133 258/23/133 257/23/133
f 281/22/134 282/22/134 284/22/134 283/22/134
f 257/23/135 258/23/135 260/23/135 259/23/135
f 267/23/136 268/23/136 270/23/136 269/23/136
f 259/23/137 260/23/137 262/23/137 261/23/137
f 283/22/138 284/22/138 286/22/138 285/22/138
f 261/23/139 262/23/139 264/23/139 263/23/139
f 258/23/140 256/23/140 266/23/140 264/23/140 262/23/140 260/23/140
f 287/22/141 288/22/141 290/22/141 289/22/141
f 263/23/142 264/23/142 266/23/142 265/23/142
f 271/23/143 272/23/143 274/23/143 273/23/143
f 269/23/144 270/23/144 272/23/144 271/23/144
f 265/23/145 266/23/145 256/23/145 255/23/145
f 255/23/146 257/23/146 259/23/146 261/23/146 263/23/146 265/23/146
f 273/23/147 274/23/147 276/23/147 275/23/147
f 275/23/148 276/23/148 278/23/148 277/23/148
f 272/23/149 270/23/149 268/23/149 280/23/149 278/23/149 276/23/149 274/23/149
f 277/23/150 278/23/150 280/23/150 279/23/150
f 279/23/151 280/23/151 268/23/151 267/23/151
f 273/23/152 275/23/152 277/23/152 279/23/152 267/23/152 269/23/152 271/23/152
f 289/22/153 291/22/153 281/22/153 283/22/153 285/22/153 287/22/153
f 289/22/154 290/22/154 292/22/154 291/22/154
f 291/22/155 292/22/155 282/22/155 281/22/155
f 286/22/156 284/22/156 282/22/156 292/22/156 290/22/156 288/22/156
