# Blender 5.0.1
# www.blender.org
mtllib wolfpup.mtl
o WolfPupMesh
v -0.425000 0.375000 0.475000
v -0.425000 1.125000 0.475000
v -0.425000 0.375000 -0.475000
v -0.425000 1.125000 -0.475000
v 0.425000 0.375000 0.475000
v 0.425000 1.125000 0.475000
v 0.425000 0.375000 -0.475000
v 0.425000 1.125000 -0.475000
v -0.325000 0.330000 0.425000
v -0.325000 0.710000 0.425000
v -0.325000 0.330000 -0.425000
v -0.325000 0.710000 -0.425000
v 0.325000 0.330000 0.425000
v 0.325000 0.710000 0.425000
v 0.325000 0.330000 -0.425000
v 0.325000 0.710000 -0.425000
v 0.000000 0.337564 0.371540
v 0.000000 0.904092 0.194210
v 0.363731 0.498434 0.506526
v 0.086603 0.942395 0.226350
v 0.363731 0.820172 0.776497
v 0.086603 1.018999 0.290628
v 0.000000 0.981042 0.911482
v 0.000000 1.057301 0.322768
v -0.363731 0.820172 0.776497
v -0.086603 1.018999 0.290628
v -0.363731 0.498434 0.506526
v -0.086603 0.942395 0.226350
v -0.390000 1.218163 0.825355
v -0.390000 1.349227 0.733583
v -0.390000 0.770773 0.186417
v -0.390000 0.901837 0.094645
v 0.390000 1.218163 0.825355
v 0.390000 1.349227 0.733583
v 0.390000 0.770773 0.186417
v 0.390000 0.901837 0.094645
v 0.000000 0.780000 0.660000
v 0.101304 0.857390 0.733601
v -0.038694 0.857390 0.779090
v -0.125219 0.857390 0.660000
v -0.038694 0.857390 0.540910
v 0.101304 0.857390 0.586399
v 0.038694 0.982610 0.779090
v -0.101304 0.982610 0.733601
v -0.101304 0.982610 0.586399
v 0.038694 0.982610 0.540910
v 0.125219 0.982610 0.660000
v 0.000000 1.060000 0.660000
v -0.475000 0.925000 1.075000
v -0.475000 1.775000 1.075000
v -0.475000 0.925000 0.225000
v -0.475000 1.775000 0.225000
v 0.475000 0.925000 1.075000
v 0.475000 1.775000 1.075000
v 0.475000 0.925000 0.225000
v 0.475000 1.775000 0.225000
v -0.527545 1.230775 0.317394
v -0.624312 1.368973 0.704095
v -0.245757 1.292613 0.475879
v -0.563929 1.382223 0.738056
v -0.226087 1.087186 0.732314
v -0.559714 1.338203 0.793006
v -0.495719 0.898387 0.732314
v -0.617492 1.297747 0.793006
v -0.682030 0.987131 0.475879
v -0.657416 1.316763 0.738056
v 0.527545 1.230775 0.317394
v 0.624312 1.368973 0.704095
v 0.682030 0.987131 0.475879
v 0.657416 1.316763 0.738056
v 0.495719 0.898387 0.732314
v 0.617492 1.297747 0.793006
v 0.226087 1.087186 0.732314
v 0.559714 1.338203 0.793006
v 0.245757 1.292613 0.475879
v 0.563929 1.382223 0.738056
v -0.230000 1.020000 1.250000
v -0.230000 1.380000 1.250000
v -0.230000 1.020000 0.850000
v -0.230000 1.380000 0.850000
v 0.230000 1.020000 1.250000
v 0.230000 1.380000 1.250000
v 0.230000 1.020000 0.850000
v 0.230000 1.380000 0.850000
v -0.100000 1.230000 1.320000
v -0.100000 1.370000 1.320000
v -0.100000 1.230000 1.180000
v -0.100000 1.370000 1.180000
v 0.100000 1.230000 1.320000
v 0.100000 1.370000 1.320000
v 0.100000 1.230000 1.180000
v 0.100000 1.370000 1.180000
v -0.090000 1.069833 1.266605
v -0.090000 1.147107 1.245899
v -0.090000 1.012893 1.054101
v -0.090000 1.090167 1.033395
v 0.090000 1.069833 1.266605
v 0.090000 1.147107 1.245899
v 0.090000 1.012893 1.054101
v 0.090000 1.090167 1.033395
v -0.478858 1.846922 0.682971
v -0.389312 1.571327 0.605325
v -0.323188 1.605150 0.231566
v -0.461606 2.031157 0.568997
v -0.073647 1.637340 0.405100
v -0.413617 2.037347 0.602369
v -0.140226 1.536600 0.685884
v -0.426421 2.017974 0.656366
v -0.430914 1.442149 0.685884
v -0.482322 1.999810 0.656366
v -0.543991 1.484516 0.405100
v -0.504068 2.007958 0.602369
v -0.393311 1.583635 0.557029
v -0.482857 1.859230 0.634675
v -0.237143 1.620770 0.605325
v -0.326689 1.896365 0.682971
v -0.241142 1.633078 0.557029
v -0.330688 1.908673 0.634675
v 0.237143 1.620770 0.605325
v 0.326689 1.896365 0.682971
v 0.323188 1.605150 0.231566
v 0.461606 2.031157 0.568997
v 0.543991 1.484516 0.405100
v 0.504068 2.007958 0.602369
v 0.430914 1.442149 0.685884
v 0.482322 1.999810 0.656366
v 0.140226 1.536600 0.685884
v 0.426421 2.017974 0.656366
v 0.073647 1.637340 0.405100
v 0.413617 2.037347 0.602369
v 0.241142 1.633078 0.557029
v 0.330688 1.908673 0.634675
v 0.389312 1.571327 0.605325
v 0.478858 1.846922 0.682971
v 0.393311 1.583635 0.557029
v 0.482857 1.859230 0.634675
v -0.360000 1.290000 1.060000
v -0.360000 1.510000 1.060000
v -0.360000 1.290000 0.980000
v -0.360000 1.510000 0.980000
v -0.160000 1.290000 1.060000
v -0.160000 1.510000 1.060000
v -0.160000 1.290000 0.980000
v -0.160000 1.510000 0.980000
v -0.310000 1.330000 1.080000
v -0.310000 1.470000 1.080000
v -0.310000 1.330000 1.040000
v -0.310000 1.470000 1.040000
v -0.190000 1.330000 1.080000
v -0.190000 1.470000 1.080000
v -0.190000 1.330000 1.040000
v -0.190000 1.470000 1.040000
v -0.240000 1.430000 1.095000
v -0.240000 1.490000 1.095000
v -0.240000 1.430000 1.065000
v -0.240000 1.490000 1.065000
v -0.180000 1.430000 1.095000
v -0.180000 1.490000 1.095000
v -0.180000 1.430000 1.065000
v -0.180000 1.490000 1.065000
v 0.160000 1.290000 1.060000
v 0.160000 1.510000 1.060000
v 0.160000 1.290000 0.980000
v 0.160000 1.510000 0.980000
v 0.360000 1.290000 1.060000
v 0.360000 1.510000 1.060000
v 0.360000 1.290000 0.980000
v 0.360000 1.510000 0.980000
v 0.190000 1.330000 1.080000
v 0.190000 1.470000 1.080000
v 0.190000 1.330000 1.040000
v 0.190000 1.470000 1.040000
v 0.310000 1.330000 1.080000
v 0.310000 1.470000 1.080000
v 0.310000 1.330000 1.040000
v 0.310000 1.470000 1.040000
v 0.180000 1.430000 1.095000
v 0.180000 1.490000 1.095000
v 0.180000 1.430000 1.065000
v 0.180000 1.490000 1.065000
v 0.240000 1.430000 1.095000
v 0.240000 1.490000 1.095000
v 0.240000 1.430000 1.065000
v 0.240000 1.490000 1.065000
v -0.510000 0.180000 0.470000
v -0.510000 0.580000 0.470000
v -0.510000 0.180000 0.170000
v -0.510000 0.580000 0.170000
v -0.210000 0.180000 0.470000
v -0.210000 0.580000 0.470000
v -0.210000 0.180000 0.170000
v -0.210000 0.580000 0.170000
v -0.530000 0.000000 0.560000
v -0.530000 0.240000 0.560000
v -0.530000 0.000000 0.180000
v -0.530000 0.240000 0.180000
v -0.190000 0.000000 0.560000
v -0.190000 0.240000 0.560000
v -0.190000 0.000000 0.180000
v -0.190000 0.240000 0.180000
v 0.210000 0.180000 0.470000
v 0.210000 0.580000 0.470000
v 0.210000 0.180000 0.170000
v 0.210000 0.580000 0.170000
v 0.510000 0.180000 0.470000
v 0.510000 0.580000 0.470000
v 0.510000 0.180000 0.170000
v 0.510000 0.580000 0.170000
v 0.190000 0.000000 0.560000
v 0.190000 0.240000 0.560000
v 0.190000 0.000000 0.180000
v 0.190000 0.240000 0.180000
v 0.530000 0.000000 0.560000
v 0.530000 0.240000 0.560000
v 0.530000 0.000000 0.180000
v 0.530000 0.240000 0.180000
v -0.510000 0.180000 -0.170000
v -0.510000 0.580000 -0.170000
v -0.510000 0.180000 -0.470000
v -0.510000 0.580000 -0.470000
v -0.210000 0.180000 -0.170000
v -0.210000 0.580000 -0.170000
v -0.210000 0.180000 -0.470000
v -0.210000 0.580000 -0.470000
v -0.530000 0.000000 -0.150000
v -0.530000 0.240000 -0.150000
v -0.530000 0.000000 -0.530000
v -0.530000 0.240000 -0.530000
v -0.190000 0.000000 -0.150000
v -0.190000 0.240000 -0.150000
v -0.190000 0.000000 -0.530000
v -0.190000 0.240000 -0.530000
v 0.210000 0.180000 -0.170000
v 0.210000 0.580000 -0.170000
v 0.210000 0.180000 -0.470000
v 0.210000 0.580000 -0.470000
v 0.510000 0.180000 -0.170000
v 0.510000 0.580000 -0.170000
v 0.510000 0.180000 -0.470000
v 0.510000 0.580000 -0.470000
v 0.190000 0.000000 -0.150000
v 0.190000 0.240000 -0.150000
v 0.190000 0.000000 -0.530000
v 0.190000 0.240000 -0.530000
v 0.530000 0.000000 -0.150000
v 0.530000 0.240000 -0.150000
v 0.530000 0.000000 -0.530000
v 0.530000 0.240000 -0.530000
v -0.140000 0.864883 -0.224461
v -0.140000 1.079376 -0.404442
v -0.140000 0.620624 -0.515558
v -0.140000 0.835117 -0.695539
v 0.140000 0.864883 -0.224461
v 0.140000 1.079376 -0.404442
v 0.140000 0.620624 -0.515558
v 0.140000 0.835117 -0.695539
v -0.150000 1.199743 -0.467983
v -0.150000 1.326528 -0.739875
v -0.150000 0.873472 -0.620125
v -0.150000 1.000257 -0.892017
v 0.150000 1.199743 -0.467983
v 0.150000 1.326528 -0.739875
v 0.150000 0.873472 -0.620125
v 0.150000 1.000257 -0.892017
v 0.000000 1.090045 -0.667616
v 0.000000 1.313601 -1.014059
v 0.173205 1.188526 -0.650251
v 0.034641 1.333297 -1.010586
v 0.173205 1.385488 -0.615522
v 0.034641 1.372689 -1.003641
v 0.000000 1.483968 -0.598157
v 0.000000 1.392385 -1.000167
v -0.173205 1.385488 -0.615522
v -0.034641 1.372689 -1.003641
v -0.173205 1.188526 -0.650251
v -0.034641 1.333297 -1.010586
vn -1.0000 -0.0000 -0.0000
vn -0.0000 -0.0000 -1.0000
vn 1.0000 -0.0000 -0.0000
vn -0.0000 -0.0000 1.0000
vn -0.0000 -1.0000 -0.0000
vn -0.0000 1.0000 -0.0000
vn 0.4373 -0.2686 -0.8582
vn 0.8746 0.3116 -0.3714
vn 0.4373 0.8919 0.1155
vn -0.4373 0.8919 0.1155
vn -0.0000 0.6428 -0.7660
vn -0.8746 0.3116 -0.3714
vn -0.4373 -0.2686 -0.8582
vn -0.0000 -0.6428 0.7660
vn -0.0000 -0.5736 -0.8192
vn -0.0000 0.5736 0.8192
vn -0.0000 -0.8192 0.5736
vn -0.0000 0.8192 -0.5736
vn 0.1876 -0.7947 0.5774
vn 0.6071 -0.7947 -0.0000
vn -0.4911 -0.7947 0.3568
vn -0.4911 -0.7947 -0.3568
vn 0.1876 -0.7947 -0.5774
vn 0.9822 -0.1876 -0.0000
vn 0.3035 -0.1876 0.9342
vn -0.7946 -0.1876 0.5774
vn -0.7946 -0.1876 -0.5774
vn 0.3035 -0.1876 -0.9342
vn 0.7946 0.1876 0.5774
vn -0.3035 0.1876 0.9342
vn -0.9822 0.1876 -0.0000
vn -0.3035 0.1876 -0.9342
vn 0.7946 0.1876 -0.5774
vn 0.4911 0.7947 0.3568
vn -0.1876 0.7947 0.5774
vn -0.6071 0.7947 -0.0000
vn -0.1876 0.7947 -0.5774
vn 0.4911 0.7947 -0.3568
vn -0.0152 0.9404 -0.3399
vn -0.0867 -0.1238 0.9885
vn 0.8784 0.3359 -0.3399
vn 0.5813 0.6562 0.4811
vn 0.8155 -0.3218 0.4811
vn 0.0867 -0.1238 0.9885
vn -0.4698 0.6710 0.5736
vn -0.8155 -0.3218 0.4811
vn -0.8784 0.3359 -0.3399
vn 0.4698 -0.6710 -0.5736
vn -0.4698 -0.6710 -0.5736
vn -0.5813 0.6562 0.4811
vn 0.0152 0.9404 -0.3399
vn 0.4698 0.6710 0.5736
vn -0.0000 -0.2588 -0.9659
vn -0.0000 0.2588 0.9659
vn -0.0000 -0.9659 0.2588
vn -0.0000 0.9659 -0.2588
vn 0.0800 -0.2462 0.9659
vn 0.3772 0.6472 -0.6624
vn 0.6856 0.3019 -0.6624
vn 0.9511 0.3090 -0.0000
vn 0.7906 0.4924 0.3641
vn -0.2985 0.9186 0.2588
vn -0.0800 0.2462 -0.9659
vn -0.0167 0.0513 0.9985
vn -0.2985 0.9187 0.2588
vn -0.9511 -0.3090 -0.0000
vn -0.9290 -0.0664 0.3641
vn -0.0800 -0.2462 0.9659
vn 0.2985 -0.9187 -0.2588
vn -0.6856 0.3019 -0.6624
vn -0.2985 -0.9187 -0.2588
vn 0.9290 -0.0664 0.3641
vn 0.0800 0.2462 -0.9659
vn 0.2985 0.9186 0.2588
vn 0.0167 0.0513 0.9985
vn -0.9511 0.3090 -0.0000
vn -0.7906 0.4924 0.3641
vn 0.9511 -0.3090 -0.0000
vn -0.3772 0.6472 -0.6624
vn -0.0000 -0.6428 -0.7660
vn -0.0000 0.6428 0.7660
vn -0.0000 -0.7660 0.6428
vn -0.0000 0.7660 -0.6428
vn -0.0000 -0.9063 -0.4226
vn -0.0000 0.9063 0.4226
vn -0.0000 -0.4226 0.9063
vn -0.0000 0.4226 -0.9063
vn 0.4697 -0.7418 -0.4787
vn 0.9395 0.0595 -0.3374
vn 0.4697 0.8607 -0.1961
vn -0.4697 0.8607 -0.1961
vn -0.0000 0.1736 -0.9848
vn -0.9395 0.0595 -0.3374
vn -0.4697 -0.7418 -0.4787
vn -0.0000 -0.1736 0.9848
vt 0.437500 0.687500
vt 0.062500 0.687500
vt 0.312500 0.187500
vt 0.312500 0.312500
vt 0.937500 0.812500
vt 0.062500 0.187500
vt 0.812500 0.937500
vt 0.062500 0.937500
s 0
usemtl GamePalette
f 1/1/1 2/1/1 4/1/1 3/1/1
f 3/1/2 4/1/2 8/1/2 7/1/2
f 7/1/3 8/1/3 6/1/3 5/1/3
f 5/1/4 6/1/4 2/1/4 1/1/4
f 3/1/5 7/1/5 5/1/5 1/1/5
f 8/1/6 4/1/6 2/1/6 6/1/6
f 9/2/1 10/2/1 12/2/1 11/2/1
f 11/2/2 12/2/2 16/2/2 15/2/2
f 15/2/3 16/2/3 14/2/3 13/2/3
f 13/2/4 14/2/4 10/2/4 9/2/4
f 11/2/5 15/2/5 13/2/5 9/2/5
f 16/2/6 12/2/6 10/2/6 14/2/6
f 17/2/7 18/2/7 20/2/7 19/2/7
f 19/2/8 20/2/8 22/2/8 21/2/8
f 21/2/9 22/2/9 24/2/9 23/2/9
f 23/2/10 24/2/10 26/2/10 25/2/10
f 20/2/11 18/2/11 28/2/11 26/2/11 24/2/11 22/2/11
f 25/2/12 26/2/12 28/2/12 27/2/12
f 27/2/13 28/2/13 18/2/13 17/2/13
f 17/2/14 19/2/14 21/2/14 23/2/14 25/2/14 27/2/14
f 29/3/1 30/3/1 32/3/1 31/3/1
f 31/3/15 32/3/15 36/3/15 35/3/15
f 35/3/3 36/3/3 34/3/3 33/3/3
f 33/3/16 34/3/16 30/3/16 29/3/16
f 31/3/17 35/3/17 33/3/17 29/3/17
f 36/3/18 32/3/18 30/3/18 34/3/18
f 37/4/19 38/4/19 39/4/19
f 38/4/20 37/4/20 42/4/20
f 37/4/21 39/4/21 40/4/21
f 37/4/22 40/4/22 41/4/22
f 37/4/23 41/4/23 42/4/23
f 38/4/24 42/4/24 47/4/24
f 39/4/25 38/4/25 43/4/25
f 40/4/26 39/4/26 44/4/26
f 41/4/27 40/4/27 45/4/27
f 42/4/28 41/4/28 46/4/28
f 38/4/29 47/4/29 43/4/29
f 39/4/30 43/4/30 44/4/30
f 40/4/31 44/4/31 45/4/31
f 41/4/32 45/4/32 46/4/32
f 42/4/33 46/4/33 47/4/33
f 43/4/34 47/4/34 48/4/34
f 44/4/35 43/4/35 48/4/35
f 45/4/36 44/4/36 48/4/36
f 46/4/37 45/4/37 48/4/37
f 47/4/38 46/4/38 48/4/38
f 49/1/1 50/1/1 52/1/1 51/1/1
f 51/1/2 52/1/2 56/1/2 55/1/2
f 55/1/3 56/1/3 54/1/3 53/1/3
f 53/1/4 54/1/4 50/1/4 49/1/4
f 51/1/5 55/1/5 53/1/5 49/1/5
f 56/1/6 52/1/6 50/1/6 54/1/6
f 57/2/39 58/2/39 60/2/39 59/2/39
f 71/2/40 72/2/40 74/2/40 73/2/40
f 67/2/41 68/2/41 70/2/41 69/2/41
f 59/2/42 60/2/42 62/2/42 61/2/42
f 69/2/43 70/2/43 72/2/43 71/2/43
f 61/2/44 62/2/44 64/2/44 63/2/44
f 60/2/45 58/2/45 66/2/45 64/2/45 62/2/45
f 63/2/46 64/2/46 66/2/46 65/2/46
f 65/2/47 66/2/47 58/2/47 57/2/47
f 57/2/48 59/2/48 61/2/48 63/2/48 65/2/48
f 69/2/49 71/2/49 73/2/49 75/2/49 67/2/49
f 73/2/50 74/2/50 76/2/50 75/2/50
f 75/2/51 76/2/51 68/2/51 67/2/51
f 74/2/52 72/2/52 70/2/52 68/2/52 76/2/52
f 77/2/1 78/2/1 80/2/1 79/2/1
f 79/2/2 80/2/2 84/2/2 83/2/2
f 83/2/3 84/2/3 82/2/3 81/2/3
f 81/2/4 82/2/4 78/2/4 77/2/4
f 79/2/5 83/2/5 81/2/5 77/2/5
f 84/2/6 80/2/6 78/2/6 82/2/6
f 85/5/1 86/5/1 88/5/1 87/5/1
f 87/5/2 88/5/2 92/5/2 91/5/2
f 91/5/3 92/5/3 90/5/3 89/5/3
f 89/5/4 90/5/4 86/5/4 85/5/4
f 87/5/5 91/5/5 89/5/5 85/5/5
f 92/5/6 88/5/6 86/5/6 90/5/6
f 93/6/1 94/6/1 96/6/1 95/6/1
f 95/6/53 96/6/53 100/6/53 99/6/53
f 99/6/3 100/6/3 98/6/3 97/6/3
f 97/6/54 98/6/54 94/6/54 93/6/54
f 95/6/55 99/6/55 97/6/55 93/6/55
f 100/6/56 96/6/56 94/6/56 98/6/56
f 115/1/57 116/1/57 101/1/57 102/1/57
f 103/1/58 104/1/58 106/1/58 105/1/58
f 121/1/59 122/1/59 124/1/59 123/1/59
f 117/1/60 118/1/60 116/1/60 115/1/60
f 105/1/61 106/1/61 108/1/61 107/1/61
f 118/1/62 114/1/62 101/1/62 116/1/62
f 113/1/63 114/1/63 118/1/63 117/1/63
f 107/1/64 108/1/64 110/1/64 109/1/64
f 106/1/65 104/1/65 112/1/65 110/1/65 108/1/65
f 102/1/66 101/1/66 114/1/66 113/1/66
f 109/1/67 110/1/67 112/1/67 111/1/67
f 133/6/68 134/6/68 120/6/68 119/6/68
f 113/1/69 117/1/69 115/1/69 102/1/69
f 111/1/70 112/1/70 104/1/70 103/1/70
f 103/1/69 105/1/69 107/1/69 109/1/69 111/1/69
f 131/6/71 135/6/71 133/6/71 119/6/71
f 123/1/72 124/1/72 126/1/72 125/1/72
f 131/6/73 132/6/73 136/6/73 135/6/73
f 136/6/74 132/6/74 120/6/74 134/6/74
f 125/1/75 126/1/75 128/1/75 127/1/75
f 119/6/76 120/6/76 132/6/76 131/6/76
f 121/1/71 123/1/71 125/1/71 127/1/71 129/1/71
f 127/1/77 128/1/77 130/1/77 129/1/77
f 135/6/78 136/6/78 134/6/78 133/6/78
f 129/1/79 130/1/79 122/1/79 121/1/79
f 124/1/74 122/1/74 130/1/74 128/1/74 126/1/74
f 137/7/1 138/7/1 140/7/1 139/7/1
f 139/7/2 140/7/2 144/7/2 143/7/2
f 143/7/3 144/7/3 142/7/3 141/7/3
f 141/7/4 142/7/4 138/7/4 137/7/4
f 139/7/5 143/7/5 141/7/5 137/7/5
f 144/7/6 140/7/6 138/7/6 142/7/6
f 145/5/1 146/5/1 148/5/1 147/5/1
f 147/5/2 148/5/2 152/5/2 151/5/2
f 151/5/3 152/5/3 150/5/3 149/5/3
f 149/5/4 150/5/4 146/5/4 145/5/4
f 147/5/5 151/5/5 149/5/5 145/5/5
f 152/5/6 148/5/6 146/5/6 150/5/6
f 153/8/1 154/8/1 156/8/1 155/8/1
f 155/8/2 156/8/2 160/8/2 159/8/2
f 159/8/3 160/8/3 158/8/3 157/8/3
f 157/8/4 158/8/4 154/8/4 153/8/4
f 155/8/5 159/8/5 157/8/5 153/8/5
f 160/8/6 156/8/6 154/8/6 158/8/6
f 161/7/1 162/7/1 164/7/1 163/7/1
f 163/7/2 164/7/2 168/7/2 167/7/2
f 167/7/3 168/7/3 166/7/3 165/7/3
f 165/7/4 166/7/4 162/7/4 161/7/4
f 163/7/5 167/7/5 165/7/5 161/7/5
f 168/7/6 164/7/6 162/7/6 166/7/6
f 169/5/1 170/5/1 172/5/1 171/5/1
f 171/5/2 172/5/2 176/5/2 175/5/2
f 175/5/3 176/5/3 174/5/3 173/5/3
f 173/5/4 174/5/4 170/5/4 169/5/4
f 171/5/5 175/5/5 173/5/5 169/5/5
f 176/5/6 172/5/6 170/5/6 174/5/6
f 177/8/1 178/8/1 180/8/1 179/8/1
f 179/8/2 180/8/2 184/8/2 183/8/2
f 183/8/3 184/8/3 182/8/3 181/8/3
f 181/8/4 182/8/4 178/8/4 177/8/4
f 179/8/5 183/8/5 181/8/5 177/8/5
f 184/8/6 180/8/6 178/8/6 182/8/6
f 185/1/1 186/1/1 188/1/1 187/1/1
f 187/1/2 188/1/2 192/1/2 191/1/2
f 191/1/3 192/1/3 190/1/3 189/1/3
f 189/1/4 190/1/4 186/1/4 185/1/4
f 187/1/5 191/1/5 189/1/5 185/1/5
f 192/1/6 188/1/6 186/1/6 190/1/6
f 193/2/1 194/2/1 196/2/1 195/2/1
f 195/2/2 196/2/2 200/2/2 199/2/2
f 199/2/3 200/2/3 198/2/3 197/2/3
f 197/2/4 198/2/4 194/2/4 193/2/4
f 195/2/5 199/2/5 197/2/5 193/2/5
f 200/2/6 196/2/6 194/2/6 198/2/6
f 201/1/1 202/1/1 204/1/1 203/1/1
f 203/1/2 204/1/2 208/1/2 207/1/2
f 207/1/3 208/1/3 206/1/3 205/1/3
f 205/1/4 206/1/4 202/1/4 201/1/4
f 203/1/5 207/1/5 205/1/5 201/1/5
f 208/1/6 204/1/6 202/1/6 206/1/6
f 209/2/1 210/2/1 212/2/1 211/2/1
f 211/2/2 212/2/2 216/2/2 215/2/2
f 215/2/3 216/2/3 214/2/3 213/2/3
f 213/2/4 214/2/4 210/2/4 209/2/4
f 211/2/5 215/2/5 213/2/5 209/2/5
f 216/2/6 212/2/6 210/2/6 214/2/6
f 217/1/1 218/1/1 220/1/1 219/1/1
f 219/1/2 220/1/2 224/1/2 223/1/2
f 223/1/3 224/1/3 222/1/3 221/1/3
f 221/1/4 222/1/4 218/1/4 217/1/4
f 219/1/5 223/1/5 221/1/5 217/1/5
f 224/1/6 220/1/6 218/1/6 222/1/6
f 225/2/1 226/2/1 228/2/1 227/2/1
f 227/2/2 228/2/2 232/2/2 231/2/2
f 231/2/3 232/2/3 230/2/3 229/2/3
f 229/2/4 230/2/4 226/2/4 225/2/4
f 227/2/5 231/2/5 229/2/5 225/2/5
f 232/2/6 228/2/6 226/2/6 230/2/6
f 233/1/1 234/1/1 236/1/1 235/1/1
f 235/1/2 236/1/2 240/1/2 239/1/2
f 239/1/3 240/1/3 238/1/3 237/1/3
f 237/1/4 238/1/4 234/1/4 233/1/4
f 235/1/5 239/1/5 237/1/5 233/1/5
f 240/1/6 236/1/6 234/1/6 238/1/6
f 241/2/1 242/2/1 244/2/1 243/2/1
f 243/2/2 244/2/2 248/2/2 247/2/2
f 247/2/3 248/2/3 246/2/3 245/2/3
f 245/2/4 246/2/4 242/2/4 241/2/4
f 243/2/5 247/2/5 245/2/5 241/2/5
f 248/2/6 244/2/6 242/2/6 246/2/6
f 249/1/1 250/1/1 252/1/1 251/1/1
f 251/1/80 252/1/80 256/1/80 255/1/80
f 255/1/3 256/1/3 254/1/3 253/1/3
f 253/1/81 254/1/81 250/1/81 249/1/81
f 251/1/82 255/1/82 253/1/82 249/1/82
f 256/1/83 252/1/83 250/1/83 254/1/83
f 257/1/1 258/1/1 260/1/1 259/1/1
f 259/1/84 260/1/84 264/1/84 263/1/84
f 263/1/3 264/1/3 262/1/3 261/1/3
f 261/1/85 262/1/85 258/1/85 257/1/85
f 259/1/86 263/1/86 261/1/86 257/1/86
f 264/1/87 260/1/87 258/1/87 262/1/87
f 265/2/88 266/2/88 268/2/88 267/2/88
f 267/2/89 268/2/89 270/2/89 269/2/89
f 269/2/90 270/2/90 272/2/90 271/2/90
f 271/2/91 272/2/91 274/2/91 273/2/91
f 268/2/92 266/2/92 276/2/92 274/2/92 272/2/92 270/2/92
f 273/2/93 274/2/93 276/2/93 275/2/93
f 275/2/94 276/2/94 266/2/94 265/2/94
f 265/2/95 267/2/95 269/2/95 271/2/95 273/2/95 275/2/95
