# Blender 5.0.1
# www.blender.org
mtllib bigfoot.mtl
o BigfootMesh
v -2.600000 5.600000 1.920000
v 2.600000 5.600000 1.920000
v 2.600000 5.600000 -1.920000
v -2.600000 5.600000 -1.920000
v -2.600000 9.800000 1.920000
v 2.600000 9.800000 1.920000
v 2.600000 9.800000 -1.920000
v -2.600000 9.800000 -1.920000
v -2.200000 3.200000 1.680000
v 2.200000 3.200000 1.680000
v 2.200000 3.200000 -1.680000
v -2.200000 3.200000 -1.680000
v -2.200000 5.600000 1.680000
v 2.200000 5.600000 1.680000
v 2.200000 5.600000 -1.680000
v -2.200000 5.600000 -1.680000
v -2.880000 8.800000 2.160000
v 2.880000 8.800000 2.160000
v 2.880000 8.800000 -2.160000
v -2.880000 8.800000 -2.160000
v -2.880000 10.720000 2.160000
v 2.880000 10.720000 2.160000
v 2.880000 10.720000 -2.160000
v -2.880000 10.720000 -2.160000
v -1.920000 6.000000 1.920000
v 1.920000 6.000000 1.920000
v 0.000000 7.600000 2.880000
v -1.920000 9.400000 1.920000
v 1.920000 9.400000 1.920000
v 0.000000 9.400000 2.720000
v -1.920000 6.400000 -1.920000
v 1.920000 6.400000 -1.920000
v 0.000000 8.600000 -2.800000
v -1.920000 10.000000 -1.920000
v 1.920000 10.000000 -1.920000
v 0.000000 10.000000 -2.560000
v -1.680000 10.000000 2.080000
v 1.680000 10.000000 2.080000
v 1.680000 10.000000 -1.120000
v -1.680000 10.000000 -1.120000
v -1.680000 12.880000 2.080000
v 1.680000 12.880000 2.080000
v 1.680000 12.880000 -1.120000
v -1.680000 12.880000 -1.120000
v -0.640000 12.880000 1.600000
v 0.640000 12.880000 1.600000
v 0.000000 14.200000 0.800000
v -0.640000 12.880000 -1.000000
v 0.640000 12.880000 -1.000000
v 0.000000 13.920000 -0.600000
v -1.360000 10.200000 2.880000
v 1.360000 10.200000 2.880000
v 1.360000 10.200000 2.000000
v -1.360000 10.200000 2.000000
v -1.360000 12.320000 2.880000
v 1.360000 12.320000 2.880000
v 1.360000 12.320000 2.000000
v -1.360000 12.320000 2.000000
v -1.400000 12.320000 2.000000
v 1.400000 12.320000 2.000000
v 0.000000 12.480000 3.040000
v -1.400000 12.880000 2.000000
v 1.400000 12.880000 2.000000
v 0.000000 12.880000 2.880000
v -0.560000 11.200000 2.880000
v 0.560000 11.200000 2.880000
v 0.000000 11.680000 3.200000
v -0.560000 11.920000 2.880000
v 0.560000 11.920000 2.880000
v 0.000000 11.920000 3.120000
v -1.000000 11.400000 2.960000
v -0.400000 11.400000 2.960000
v -0.400000 11.400000 2.800000
v -1.000000 11.400000 2.800000
v -1.000000 11.880000 2.960000
v -0.400000 11.880000 2.960000
v -0.400000 11.880000 2.800000
v -1.000000 11.880000 2.800000
v 0.400000 11.400000 2.960000
v 1.000000 11.400000 2.960000
v 1.000000 11.400000 2.800000
v 0.400000 11.400000 2.800000
v 0.400000 11.880000 2.960000
v 1.000000 11.880000 2.960000
v 1.000000 11.880000 2.800000
v 0.400000 11.880000 2.800000
v -0.960000 10.720000 2.880000
v -0.600000 10.720000 2.880000
v -0.760000 10.720000 2.560000
v -0.760000 9.800000 2.960000
v 0.600000 10.720000 2.880000
v 0.960000 10.720000 2.880000
v 0.760000 10.720000 2.560000
v 0.760000 9.800000 2.960000
v -0.880000 10.320000 2.800000
v -0.600000 10.320000 2.800000
v -0.720000 10.320000 2.560000
v -0.720000 10.960000 2.880000
v 0.600000 10.320000 2.800000
v 0.880000 10.320000 2.800000
v 0.720000 10.320000 2.560000
v 0.720000 10.960000 2.880000
v -1.680000 11.400000 0.600000
v -1.680000 11.400000 -0.200000
v -2.320000 12.200000 0.200000
v -1.680000 12.320000 0.600000
v -1.680000 12.320000 -0.200000
v -2.320000 12.720000 0.200000
v 1.680000 11.400000 0.600000
v 1.680000 11.400000 -0.200000
v 2.320000 12.200000 0.200000
v 1.680000 12.320000 0.600000
v 1.680000 12.320000 -0.200000
v 2.320000 12.720000 0.200000
v -3.800000 9.800000 1.280000
v -2.400000 9.800000 1.280000
v -4.400000 11.000000 0.000000
v -3.800000 9.800000 -1.280000
v -2.400000 9.800000 -1.280000
v -4.200000 11.000000 -0.400000
v 2.400000 9.800000 1.280000
v 3.800000 9.800000 1.280000
v 4.400000 11.000000 0.000000
v 2.400000 9.800000 -1.280000
v 3.800000 9.800000 -1.280000
v 4.200000 11.000000 -0.400000
v -4.080000 7.200000 1.440000
v -2.400000 7.200000 1.440000
v -2.400000 7.200000 -1.440000
v -4.080000 7.200000 -1.440000
v -4.080000 10.080000 1.440000
v -2.400000 10.080000 1.440000
v -2.400000 10.080000 -1.440000
v -4.080000 10.080000 -1.440000
v -4.240000 4.000000 1.280000
v -2.720000 4.000000 1.280000
v -2.720000 4.000000 -1.280000
v -4.240000 4.000000 -1.280000
v -4.240000 7.200000 1.280000
v -2.720000 7.200000 1.280000
v -2.720000 7.200000 -1.280000
v -4.240000 7.200000 -1.280000
v -4.320000 1.400000 1.360000
v -2.800000 1.400000 1.360000
v -2.800000 1.400000 -1.360000
v -4.320000 1.400000 -1.360000
v -4.320000 4.000000 1.360000
v -2.800000 4.000000 1.360000
v -2.800000 4.000000 -1.360000
v -4.320000 4.000000 -1.360000
v -4.560000 -0.200000 1.600000
v -2.640000 -0.200000 1.600000
v -2.640000 -0.200000 -1.440000
v -4.560000 -0.200000 -1.440000
v -4.560000 1.400000 1.600000
v -2.640000 1.400000 1.600000
v -2.640000 1.400000 -1.440000
v -4.560000 1.400000 -1.440000
v 2.400000 7.200000 1.440000
v 4.080000 7.200000 1.440000
v 4.080000 7.200000 -1.440000
v 2.400000 7.200000 -1.440000
v 2.400000 10.080000 1.440000
v 4.080000 10.080000 1.440000
v 4.080000 10.080000 -1.440000
v 2.400000 10.080000 -1.440000
v 2.720000 4.000000 1.280000
v 4.240000 4.000000 1.280000
v 4.240000 4.000000 -1.280000
v 2.720000 4.000000 -1.280000
v 2.720000 7.200000 1.280000
v 4.240000 7.200000 1.280000
v 4.240000 7.200000 -1.280000
v 2.720000 7.200000 -1.280000
v 2.800000 1.400000 1.360000
v 4.320000 1.400000 1.360000
v 4.320000 1.400000 -1.360000
v 2.800000 1.400000 -1.360000
v 2.800000 4.000000 1.360000
v 4.320000 4.000000 1.360000
v 4.320000 4.000000 -1.360000
v 2.800000 4.000000 -1.360000
v 2.640000 -0.200000 1.600000
v 4.560000 -0.200000 1.600000
v 4.560000 -0.200000 -1.440000
v 2.640000 -0.200000 -1.440000
v 2.640000 1.400000 1.600000
v 4.560000 1.400000 1.600000
v 4.560000 1.400000 -1.440000
v 2.640000 1.400000 -1.440000
v -2.160000 1.800000 1.200000
v -0.600000 1.800000 1.200000
v -0.600000 1.800000 -1.200000
v -2.160000 1.800000 -1.200000
v -2.160000 3.400000 1.200000
v -0.600000 3.400000 1.200000
v -0.600000 3.400000 -1.200000
v -2.160000 3.400000 -1.200000
v -2.080000 0.600000 1.080000
v -0.640000 0.600000 1.080000
v -0.640000 0.600000 -1.080000
v -2.080000 0.600000 -1.080000
v -2.080000 1.800000 1.080000
v -0.640000 1.800000 1.080000
v -0.640000 1.800000 -1.080000
v -2.080000 1.800000 -1.080000
v -2.240000 0.000000 1.120000
v -0.480000 0.000000 1.120000
v -1.360000 0.880000 1.120000
v -2.240000 0.000000 2.480000
v -0.480000 0.000000 2.480000
v -1.360000 0.640000 2.480000
v 0.600000 1.800000 1.200000
v 2.160000 1.800000 1.200000
v 2.160000 1.800000 -1.200000
v 0.600000 1.800000 -1.200000
v 0.600000 3.400000 1.200000
v 2.160000 3.400000 1.200000
v 2.160000 3.400000 -1.200000
v 0.600000 3.400000 -1.200000
v 0.640000 0.600000 1.080000
v 2.080000 0.600000 1.080000
v 2.080000 0.600000 -1.080000
v 0.640000 0.600000 -1.080000
v 0.640000 1.800000 1.080000
v 2.080000 1.800000 1.080000
v 2.080000 1.800000 -1.080000
v 0.640000 1.800000 -1.080000
v 0.480000 0.000000 1.120000
v 2.240000 0.000000 1.120000
v 1.360000 0.880000 1.120000
v 0.480000 0.000000 2.480000
v 2.240000 0.000000 2.480000
v 1.360000 0.640000 2.480000
vn -0.0000 1.0000 -0.0000
vn -0.0000 -1.0000 -0.0000
vn -0.0000 -0.0000 -1.0000
vn -0.0000 -0.0000 1.0000
vn 1.0000 -0.0000 -0.0000
vn -1.0000 -0.0000 -0.0000
vn -0.0000 -0.5145 0.8575
vn 0.4261 0.0278 0.9043
vn -0.4261 0.0278 0.9043
vn -0.0000 0.3714 0.9285
vn -0.3895 -0.0442 0.9200
vn 0.3895 -0.0442 0.9200
vn -0.0000 0.5183 0.8552
vn -0.0000 0.3590 -0.9333
vn 0.8809 0.4722 -0.0331
vn -0.8809 0.4722 -0.0331
vn -0.0000 -0.9884 0.1521
vn 0.5656 0.1356 0.8135
vn -0.5656 0.1356 0.8135
vn -0.0000 -0.5547 0.8321
vn 0.4710 0.0733 0.8791
vn -0.4710 0.0733 0.8791
vn -0.0000 -0.0866 -0.9962
vn -0.8780 0.1909 0.4390
vn 0.8263 0.2245 0.5165
vn -0.8263 0.2245 0.5165
vn 0.8780 0.1909 0.4390
vn -0.0000 -0.1240 0.9923
vn 0.8729 0.2182 -0.4364
vn -0.8018 0.2673 -0.5345
vn 0.8018 0.2673 -0.5345
vn -0.8729 0.2182 -0.4364
vn 0.7809 0.6247 -0.0000
vn -0.5300 -0.8480 -0.0000
vn 0.5300 -0.0000 0.8480
vn 0.5300 -0.0000 -0.8480
vn 0.7809 -0.6247 -0.0000
vn -0.5300 0.8480 -0.0000
vn -0.0000 0.7295 0.6839
vn -0.0000 0.5914 -0.8064
vn 0.5309 0.8466 0.0359
vn -0.9176 -0.3927 -0.0620
vn 0.9176 -0.3927 -0.0620
vn -0.5309 0.8466 0.0359
vn -0.6522 -0.7551 -0.0666
vn 0.6522 -0.7551 -0.0666
vt 0.562500 0.687500
vt 0.687500 0.562500
vt 0.687500 0.687500
vt 0.437500 0.562500
vt 0.437500 0.687500
vt 0.312500 0.562500
vt 0.937500 0.687500
vt 0.812500 0.312500
vt 0.062500 0.937500
s 0
usemtl GamePalette
f 1/1/1 2/1/1 3/1/1 4/1/1
f 5/1/2 8/1/2 7/1/2 6/1/2
f 1/1/3 5/1/3 6/1/3 2/1/3
f 3/1/4 7/1/4 8/1/4 4/1/4
f 4/1/5 8/1/5 5/1/5 1/1/5
f 2/1/6 6/1/6 7/1/6 3/1/6
f 9/2/1 10/2/1 11/2/1 12/2/1
f 13/2/2 16/2/2 15/2/2 14/2/2
f 9/2/3 13/2/3 14/2/3 10/2/3
f 11/2/4 15/2/4 16/2/4 12/2/4
f 12/2/5 16/2/5 13/2/5 9/2/5
f 10/2/6 14/2/6 15/2/6 11/2/6
f 17/3/1 18/3/1 19/3/1 20/3/1
f 21/3/2 24/3/2 23/3/2 22/3/2
f 17/3/3 21/3/3 22/3/3 18/3/3
f 19/3/4 23/3/4 24/3/4 20/3/4
f 20/3/5 24/3/5 21/3/5 17/3/5
f 18/3/6 22/3/6 23/3/6 19/3/6
f 25/4/7 26/4/7 27/4/7
f 28/4/1 30/4/1 29/4/1
f 25/4/3 28/4/3 29/4/3 26/4/3
f 26/4/8 29/4/8 30/4/8 27/4/8
f 27/4/9 30/4/9 28/4/9 25/4/9
f 31/1/10 32/1/10 33/1/10
f 34/1/2 36/1/2 35/1/2
f 31/1/3 34/1/3 35/1/3 32/1/3
f 32/1/11 35/1/11 36/1/11 33/1/11
f 33/1/12 36/1/12 34/1/12 31/1/12
f 37/1/1 38/1/1 39/1/1 40/1/1
f 41/1/2 44/1/2 43/1/2 42/1/2
f 37/1/3 41/1/3 42/1/3 38/1/3
f 39/1/4 43/1/4 44/1/4 40/1/4
f 40/1/5 44/1/5 41/1/5 37/1/5
f 38/1/6 42/1/6 43/1/6 39/1/6
f 45/5/13 46/5/13 47/5/13
f 48/5/14 50/5/14 49/5/14
f 45/5/2 48/5/2 49/5/2 46/5/2
f 46/5/15 49/5/15 50/5/15 47/5/15
f 47/5/16 50/5/16 48/5/16 45/5/16
f 51/6/1 52/6/1 53/6/1 54/6/1
f 55/6/2 58/6/2 57/6/2 56/6/2
f 51/6/3 55/6/3 56/6/3 52/6/3
f 53/6/4 57/6/4 58/6/4 54/6/4
f 54/6/5 58/6/5 55/6/5 51/6/5
f 52/6/6 56/6/6 57/6/6 53/6/6
f 59/7/17 60/7/17 61/7/17
f 62/7/1 64/7/1 63/7/1
f 59/7/3 62/7/3 63/7/3 60/7/3
f 60/7/18 63/7/18 64/7/18 61/7/18
f 61/7/19 64/7/19 62/7/19 59/7/19
f 65/3/20 66/3/20 67/3/20
f 68/3/1 70/3/1 69/3/1
f 65/3/3 68/3/3 69/3/3 66/3/3
f 66/3/21 69/3/21 70/3/21 67/3/21
f 67/3/22 70/3/22 68/3/22 65/3/22
f 71/8/1 72/8/1 73/8/1 74/8/1
f 75/8/2 78/8/2 77/8/2 76/8/2
f 71/8/3 75/8/3 76/8/3 72/8/3
f 73/8/4 77/8/4 78/8/4 74/8/4
f 74/8/5 78/8/5 75/8/5 71/8/5
f 72/8/6 76/8/6 77/8/6 73/8/6
f 79/8/1 80/8/1 81/8/1 82/8/1
f 83/8/2 86/8/2 85/8/2 84/8/2
f 79/8/3 83/8/3 84/8/3 80/8/3
f 81/8/4 85/8/4 86/8/4 82/8/4
f 82/8/5 86/8/5 83/8/5 79/8/5
f 80/8/6 84/8/6 85/8/6 81/8/6
f 87/9/2 89/9/2 88/9/2
f 87/9/23 88/9/23 90/9/23
f 88/9/24 89/9/24 90/9/24
f 89/9/25 87/9/25 90/9/25
f 91/9/2 93/9/2 92/9/2
f 91/9/23 92/9/23 94/9/23
f 92/9/26 93/9/26 94/9/26
f 93/9/27 91/9/27 94/9/27
f 95/9/2 97/9/2 96/9/2
f 95/9/28 96/9/28 98/9/28
f 96/9/29 97/9/29 98/9/29
f 97/9/30 95/9/30 98/9/30
f 99/9/2 101/9/2 100/9/2
f 99/9/28 100/9/28 102/9/28
f 100/9/31 101/9/31 102/9/31
f 101/9/32 99/9/32 102/9/32
f 103/6/33 104/6/33 105/6/33
f 106/6/34 108/6/34 107/6/34
f 103/6/6 106/6/6 107/6/6 104/6/6
f 104/6/35 107/6/35 108/6/35 105/6/35
f 105/6/36 108/6/36 106/6/36 103/6/36
f 109/6/37 110/6/37 111/6/37
f 112/6/38 114/6/38 113/6/38
f 109/6/6 112/6/6 113/6/6 110/6/6
f 110/6/36 113/6/36 114/6/36 111/6/36
f 111/6/35 114/6/35 112/6/35 109/6/35
f 115/5/39 116/5/39 117/5/39
f 118/5/40 120/5/40 119/5/40
f 115/5/2 118/5/2 119/5/2 116/5/2
f 116/5/41 119/5/41 120/5/41 117/5/41
f 117/5/42 120/5/42 118/5/42 115/5/42
f 121/5/39 122/5/39 123/5/39
f 124/5/40 126/5/40 125/5/40
f 121/5/2 124/5/2 125/5/2 122/5/2
f 122/5/43 125/5/43 126/5/43 123/5/43
f 123/5/44 126/5/44 124/5/44 121/5/44
f 127/1/1 128/1/1 129/1/1 130/1/1
f 131/1/2 134/1/2 133/1/2 132/1/2
f 127/1/3 131/1/3 132/1/3 128/1/3
f 129/1/4 133/1/4 134/1/4 130/1/4
f 130/1/5 134/1/5 131/1/5 127/1/5
f 128/1/6 132/1/6 133/1/6 129/1/6
f 135/2/1 136/2/1 137/2/1 138/2/1
f 139/2/2 142/2/2 141/2/2 140/2/2
f 135/2/3 139/2/3 140/2/3 136/2/3
f 137/2/4 141/2/4 142/2/4 138/2/4
f 138/2/5 142/2/5 139/2/5 135/2/5
f 136/2/6 140/2/6 141/2/6 137/2/6
f 143/5/1 144/5/1 145/5/1 146/5/1
f 147/5/2 150/5/2 149/5/2 148/5/2
f 143/5/3 147/5/3 148/5/3 144/5/3
f 145/5/4 149/5/4 150/5/4 146/5/4
f 146/5/5 150/5/5 147/5/5 143/5/5
f 144/5/6 148/5/6 149/5/6 145/5/6
f 151/3/1 152/3/1 153/3/1 154/3/1
f 155/3/2 158/3/2 157/3/2 156/3/2
f 151/3/3 155/3/3 156/3/3 152/3/3
f 153/3/4 157/3/4 158/3/4 154/3/4
f 154/3/5 158/3/5 155/3/5 151/3/5
f 152/3/6 156/3/6 157/3/6 153/3/6
f 159/1/1 160/1/1 161/1/1 162/1/1
f 163/1/2 166/1/2 165/1/2 164/1/2
f 159/1/3 163/1/3 164/1/3 160/1/3
f 161/1/4 165/1/4 166/1/4 162/1/4
f 162/1/5 166/1/5 163/1/5 159/1/5
f 160/1/6 164/1/6 165/1/6 161/1/6
f 167/2/1 168/2/1 169/2/1 170/2/1
f 171/2/2 174/2/2 173/2/2 172/2/2
f 167/2/3 171/2/3 172/2/3 168/2/3
f 169/2/4 173/2/4 174/2/4 170/2/4
f 170/2/5 174/2/5 171/2/5 167/2/5
f 168/2/6 172/2/6 173/2/6 169/2/6
f 175/5/1 176/5/1 177/5/1 178/5/1
f 179/5/2 182/5/2 181/5/2 180/5/2
f 175/5/3 179/5/3 180/5/3 176/5/3
f 177/5/4 181/5/4 182/5/4 178/5/4
f 178/5/5 182/5/5 179/5/5 175/5/5
f 176/5/6 180/5/6 181/5/6 177/5/6
f 183/3/1 184/3/1 185/3/1 186/3/1
f 187/3/2 190/3/2 189/3/2 188/3/2
f 183/3/3 187/3/3 188/3/3 184/3/3
f 185/3/4 189/3/4 190/3/4 186/3/4
f 186/3/5 190/3/5 187/3/5 183/3/5
f 184/3/6 188/3/6 189/3/6 185/3/6
f 191/2/1 192/2/1 193/2/1 194/2/1
f 195/2/2 198/2/2 197/2/2 196/2/2
f 191/2/3 195/2/3 196/2/3 192/2/3
f 193/2/4 197/2/4 198/2/4 194/2/4
f 194/2/5 198/2/5 195/2/5 191/2/5
f 192/2/6 196/2/6 197/2/6 193/2/6
f 199/1/1 200/1/1 201/1/1 202/1/1
f 203/1/2 206/1/2 205/1/2 204/1/2
f 199/1/3 203/1/3 204/1/3 200/1/3
f 201/1/4 205/1/4 206/1/4 202/1/4
f 202/1/5 206/1/5 203/1/5 199/1/5
f 200/1/6 204/1/6 205/1/6 201/1/6
f 207/3/4 208/3/4 209/3/4
f 210/3/3 212/3/3 211/3/3
f 207/3/1 210/3/1 211/3/1 208/3/1
f 208/3/45 211/3/45 212/3/45 209/3/45
f 209/3/46 212/3/46 210/3/46 207/3/46
f 213/2/1 214/2/1 215/2/1 216/2/1
f 217/2/2 220/2/2 219/2/2 218/2/2
f 213/2/3 217/2/3 218/2/3 214/2/3
f 215/2/4 219/2/4 220/2/4 216/2/4
f 216/2/5 220/2/5 217/2/5 213/2/5
f 214/2/6 218/2/6 219/2/6 215/2/6
f 221/1/1 222/1/1 223/1/1 224/1/1
f 225/1/2 228/1/2 227/1/2 226/1/2
f 221/1/3 225/1/3 226/1/3 222/1/3
f 223/1/4 227/1/4 228/1/4 224/1/4
f 224/1/5 228/1/5 225/1/5 221/1/5
f 222/1/6 226/1/6 227/1/6 223/1/6
f 229/3/4 230/3/4 231/3/4
f 232/3/3 234/3/3 233/3/3
f 229/3/1 232/3/1 233/3/1 230/3/1
f 230/3/45 233/3/45 234/3/45 231/3/45
f 231/3/46 234/3/46 232/3/46 229/3/46
