# Blender 5.0.1
# www.blender.org
mtllib yeti.mtl
o YetiMesh
v -2.400000 5.600000 1.800000
v 2.400000 5.600000 1.800000
v 2.400000 5.600000 -1.800000
v -2.400000 5.600000 -1.800000
v -2.400000 9.600000 1.800000
v 2.400000 9.600000 1.800000
v 2.400000 9.600000 -1.800000
v -2.400000 9.600000 -1.800000
v -2.080000 3.200000 1.600000
v 2.080000 3.200000 1.600000
v 2.080000 3.200000 -1.600000
v -2.080000 3.200000 -1.600000
v -2.080000 5.600000 1.600000
v 2.080000 5.600000 1.600000
v 2.080000 5.600000 -1.600000
v -2.080000 5.600000 -1.600000
v -2.720000 8.800000 2.080000
v 2.720000 8.800000 2.080000
v 2.720000 8.800000 -2.080000
v -2.720000 8.800000 -2.080000
v -2.720000 10.600000 2.080000
v 2.720000 10.600000 2.080000
v 2.720000 10.600000 -2.080000
v -2.720000 10.600000 -2.080000
v -1.800000 6.000000 1.800000
v 1.800000 6.000000 1.800000
v 0.000000 7.600000 2.800000
v -1.800000 9.200000 1.800000
v 1.800000 9.200000 1.800000
v 0.000000 9.200000 2.600000
v -1.800000 6.400000 -1.800000
v 1.800000 6.400000 -1.800000
v 0.000000 8.400000 -2.600000
v -1.800000 9.800000 -1.800000
v 1.800000 9.800000 -1.800000
v 0.000000 9.800000 -2.400000
v -1.600000 10.000000 2.000000
v 1.600000 10.000000 2.000000
v 1.600000 10.000000 -1.000000
v -1.600000 10.000000 -1.000000
v -1.600000 12.800000 2.000000
v 1.600000 12.800000 2.000000
v 1.600000 12.800000 -1.000000
v -1.600000 12.800000 -1.000000
v -1.280000 10.200000 2.720000
v 1.280000 10.200000 2.720000
v 1.280000 10.200000 1.920000
v -1.280000 10.200000 1.920000
v -1.280000 12.200000 2.720000
v 1.280000 12.200000 2.720000
v 1.280000 12.200000 1.920000
v -1.280000 12.200000 1.920000
v -1.280000 12.200000 1.920000
v 1.280000 12.200000 1.920000
v 0.000000 12.400000 2.880000
v -1.280000 12.720000 1.920000
v 1.280000 12.720000 1.920000
v 0.000000 12.720000 2.720000
v -0.960000 11.280000 2.800000
v -0.400000 11.280000 2.800000
v -0.400000 11.280000 2.640000
v -0.960000 11.280000 2.640000
v -0.960000 11.760000 2.800000
v -0.400000 11.760000 2.800000
v -0.400000 11.760000 2.640000
v -0.960000 11.760000 2.640000
v 0.400000 11.280000 2.800000
v 0.960000 11.280000 2.800000
v 0.960000 11.280000 2.640000
v 0.400000 11.280000 2.640000
v 0.400000 11.760000 2.800000
v 0.960000 11.760000 2.800000
v 0.960000 11.760000 2.640000
v 0.400000 11.760000 2.640000
v -0.880000 10.600000 2.720000
v -0.560000 10.600000 2.720000
v -0.720000 10.600000 2.400000
v -0.720000 9.680000 2.800000
v 0.560000 10.600000 2.720000
v 0.880000 10.600000 2.720000
v 0.720000 10.600000 2.400000
v 0.720000 9.680000 2.800000
v -0.800000 10.200000 2.640000
v -0.560000 10.200000 2.640000
v -0.680000 10.200000 2.400000
v -0.680000 10.880000 2.720000
v 0.560000 10.200000 2.640000
v 0.800000 10.200000 2.640000
v 0.680000 10.200000 2.400000
v 0.680000 10.880000 2.720000
v -2.600000 12.400000 1.000000
v -1.520000 12.400000 1.000000
v -1.520000 12.400000 -0.200000
v -2.600000 12.400000 -0.200000
v -2.600000 14.200000 1.000000
v -1.520000 14.200000 1.000000
v -1.520000 14.200000 -0.200000
v -2.600000 14.200000 -0.200000
v -2.600000 14.200000 1.000000
v -1.520000 14.200000 1.000000
v -3.200000 15.600000 -0.400000
v -2.600000 14.200000 -0.200000
v -1.520000 14.200000 -0.200000
v -3.000000 15.600000 -0.600000
v -3.280000 15.600000 -0.200000
v -2.880000 15.600000 -0.200000
v -2.880000 15.600000 -0.720000
v -3.280000 15.600000 -0.720000
v -3.920000 17.200001 -1.120000
v 1.520000 12.400000 1.000000
v 2.600000 12.400000 1.000000
v 2.600000 12.400000 -0.200000
v 1.520000 12.400000 -0.200000
v 1.520000 14.200000 1.000000
v 2.600000 14.200000 1.000000
v 2.600000 14.200000 -0.200000
v 1.520000 14.200000 -0.200000
v 1.520000 14.200000 1.000000
v 2.600000 14.200000 1.000000
v 3.200000 15.600000 -0.400000
v 1.520000 14.200000 -0.200000
v 2.600000 14.200000 -0.200000
v 3.000000 15.600000 -0.600000
v 2.880000 15.600000 -0.200000
v 3.280000 15.600000 -0.200000
v 3.280000 15.600000 -0.720000
v 2.880000 15.600000 -0.720000
v 3.920000 17.200001 -1.120000
v -3.920000 7.200000 1.400000
v -2.320000 7.200000 1.400000
v -2.320000 7.200000 -1.400000
v -3.920000 7.200000 -1.400000
v -3.920000 10.000000 1.400000
v -2.320000 10.000000 1.400000
v -2.320000 10.000000 -1.400000
v -3.920000 10.000000 -1.400000
v -4.080000 4.000000 1.200000
v -2.640000 4.000000 1.200000
v -2.640000 4.000000 -1.200000
v -4.080000 4.000000 -1.200000
v -4.080000 7.200000 1.200000
v -2.640000 7.200000 1.200000
v -2.640000 7.200000 -1.200000
v -4.080000 7.200000 -1.200000
v -4.200000 1.400000 1.280000
v -2.720000 1.400000 1.280000
v -2.720000 1.400000 -1.280000
v -4.200000 1.400000 -1.280000
v -4.200000 4.000000 1.280000
v -2.720000 4.000000 1.280000
v -2.720000 4.000000 -1.280000
v -4.200000 4.000000 -1.280000
v -4.400000 -0.200000 1.520000
v -2.600000 -0.200000 1.520000
v -2.600000 -0.200000 -1.400000
v -4.400000 -0.200000 -1.400000
v -4.400000 1.400000 1.520000
v -2.600000 1.400000 1.520000
v -2.600000 1.400000 -1.400000
v -4.400000 1.400000 -1.400000
v 2.320000 7.200000 1.400000
v 3.920000 7.200000 1.400000
v 3.920000 7.200000 -1.400000
v 2.320000 7.200000 -1.400000
v 2.320000 10.000000 1.400000
v 3.920000 10.000000 1.400000
v 3.920000 10.000000 -1.400000
v 2.320000 10.000000 -1.400000
v 2.640000 4.000000 1.200000
v 4.080000 4.000000 1.200000
v 4.080000 4.000000 -1.200000
v 2.640000 4.000000 -1.200000
v 2.640000 7.200000 1.200000
v 4.080000 7.200000 1.200000
v 4.080000 7.200000 -1.200000
v 2.640000 7.200000 -1.200000
v 2.720000 1.400000 1.280000
v 4.200000 1.400000 1.280000
v 4.200000 1.400000 -1.280000
v 2.720000 1.400000 -1.280000
v 2.720000 4.000000 1.280000
v 4.200000 4.000000 1.280000
v 4.200000 4.000000 -1.280000
v 2.720000 4.000000 -1.280000
v 2.600000 -0.200000 1.520000
v 4.400000 -0.200000 1.520000
v 4.400000 -0.200000 -1.400000
v 2.600000 -0.200000 -1.400000
v 2.600000 1.400000 1.520000
v 4.400000 1.400000 1.520000
v 4.400000 1.400000 -1.400000
v 2.600000 1.400000 -1.400000
v -2.080000 1.800000 1.120000
v -0.600000 1.800000 1.120000
v -0.600000 1.800000 -1.120000
v -2.080000 1.800000 -1.120000
v -2.080000 3.400000 1.120000
v -0.600000 3.400000 1.120000
v -0.600000 3.400000 -1.120000
v -2.080000 3.400000 -1.120000
v -2.000000 0.600000 1.000000
v -0.640000 0.600000 1.000000
v -0.640000 0.600000 -1.000000
v -2.000000 0.600000 -1.000000
v -2.000000 1.800000 1.000000
v -0.640000 1.800000 1.000000
v -0.640000 1.800000 -1.000000
v -2.000000 1.800000 -1.000000
v -2.080000 0.000000 1.000000
v -0.560000 0.000000 1.000000
v -1.320000 0.800000 1.000000
v -2.080000 0.000000 2.200000
v -0.560000 0.000000 2.200000
v -1.320000 0.600000 2.200000
v 0.600000 1.800000 1.120000
v 2.080000 1.800000 1.120000
v 2.080000 1.800000 -1.120000
v 0.600000 1.800000 -1.120000
v 0.600000 3.400000 1.120000
v 2.080000 3.400000 1.120000
v 2.080000 3.400000 -1.120000
v 0.600000 3.400000 -1.120000
v 0.640000 0.600000 1.000000
v 2.000000 0.600000 1.000000
v 2.000000 0.600000 -1.000000
v 0.640000 0.600000 -1.000000
v 0.640000 1.800000 1.000000
v 2.000000 1.800000 1.000000
v 2.000000 1.800000 -1.000000
v 0.640000 1.800000 -1.000000
v 0.560000 0.000000 1.000000
v 2.080000 0.000000 1.000000
v 1.320000 0.800000 1.000000
v 0.560000 0.000000 2.200000
v 2.080000 0.000000 2.200000
v 1.320000 0.600000 2.200000
vn -0.0000 1.0000 -0.0000
vn -0.0000 -1.0000 -0.0000
vn -0.0000 -0.0000 -1.0000
vn -0.0000 -0.0000 1.0000
vn 1.0000 -0.0000 -0.0000
vn -1.0000 -0.0000 -0.0000
vn -0.0000 -0.5300 0.8480
vn 0.4600 0.0370 0.8871
vn -0.4600 0.0370 0.8871
vn -0.0000 0.3714 0.9285
vn -0.3807 -0.0385 0.9239
vn 0.3807 -0.0385 0.9239
vn -0.0000 -0.9790 0.2040
vn 0.5679 0.1540 0.8086
vn -0.5679 0.1540 0.8086
vn -0.0000 -0.0866 -0.9962
vn -0.8780 0.1909 0.4390
vn 0.8780 0.1909 0.4390
vn -0.0000 -0.1168 0.9932
vn 0.8753 0.2059 -0.4376
vn -0.8753 0.2059 -0.4376
vn -0.0000 0.7071 0.7071
vn -0.0000 -0.2747 -0.9615
vn 0.6312 0.7703 0.0902
vn -0.9046 -0.4062 -0.1292
vn -0.0000 -0.4985 -0.8669
vn -0.8384 -0.5450 -0.0000
vn -0.0000 0.2425 0.9701
vn 0.9285 0.3714 -0.0000
vn 0.9046 -0.4062 -0.1292
vn -0.6312 0.7703 0.0902
vn -0.9285 0.3714 -0.0000
vn 0.8384 -0.5450 -0.0000
vn -0.6762 -0.7342 -0.0612
vn 0.6762 -0.7342 -0.0612
vt 0.062500 0.937500
vt 0.187500 0.937500
vt 0.437500 0.812500
vt 0.687500 0.812500
vt 0.437500 0.937500
vt 0.000000 0.000000
vt 0.312500 0.937500
vt 0.562500 0.937500
s 0
usemtl GamePalette
f 1/1/1 2/1/1 3/1/1 4/1/1
f 5/1/2 8/1/2 7/1/2 6/1/2
f 1/1/3 5/1/3 6/1/3 2/1/3
f 3/1/4 7/1/4 8/1/4 4/1/4
f 4/1/5 8/1/5 5/1/5 1/1/5
f 2/1/6 6/1/6 7/1/6 3/1/6
f 9/2/1 10/2/1 11/2/1 12/2/1
f 13/2/2 16/2/2 15/2/2 14/2/2
f 9/2/3 13/2/3 14/2/3 10/2/3
f 11/2/4 15/2/4 16/2/4 12/2/4
f 12/2/5 16/2/5 13/2/5 9/2/5
f 10/2/6 14/2/6 15/2/6 11/2/6
f 17/1/1 18/1/1 19/1/1 20/1/1
f 21/1/2 24/1/2 23/1/2 22/1/2
f 17/1/3 21/1/3 22/1/3 18/1/3
f 19/1/4 23/1/4 24/1/4 20/1/4
f 20/1/5 24/1/5 21/1/5 17/1/5
f 18/1/6 22/1/6 23/1/6 19/1/6
f 25/2/7 26/2/7 27/2/7
f 28/2/1 30/2/1 29/2/1
f 25/2/3 28/2/3 29/2/3 26/2/3
f 26/2/8 29/2/8 30/2/8 27/2/8
f 27/2/9 30/2/9 28/2/9 25/2/9
f 31/1/10 32/1/10 33/1/10
f 34/1/2 36/1/2 35/1/2
f 31/1/3 34/1/3 35/1/3 32/1/3
f 32/1/11 35/1/11 36/1/11 33/1/11
f 33/1/12 36/1/12 34/1/12 31/1/12
f 37/1/1 38/1/1 39/1/1 40/1/1
f 41/1/2 44/1/2 43/1/2 42/1/2
f 37/1/3 41/1/3 42/1/3 38/1/3
f 39/1/4 43/1/4 44/1/4 40/1/4
f 40/1/5 44/1/5 41/1/5 37/1/5
f 38/1/6 42/1/6 43/1/6 39/1/6
f 45/3/1 46/3/1 47/3/1 48/3/1
f 49/3/2 52/3/2 51/3/2 50/3/2
f 45/3/3 49/3/3 50/3/3 46/3/3
f 47/3/4 51/3/4 52/3/4 48/3/4
f 48/3/5 52/3/5 49/3/5 45/3/5
f 46/3/6 50/3/6 51/3/6 47/3/6
f 53/4/13 54/4/13 55/4/13
f 56/4/1 58/4/1 57/4/1
f 53/4/3 56/4/3 57/4/3 54/4/3
f 54/4/14 57/4/14 58/4/14 55/4/14
f 55/4/15 58/4/15 56/4/15 53/4/15
f 59/5/1 60/5/1 61/5/1 62/5/1
f 63/5/2 66/5/2 65/5/2 64/5/2
f 59/5/3 63/5/3 64/5/3 60/5/3
f 61/5/4 65/5/4 66/5/4 62/5/4
f 62/5/5 66/5/5 63/5/5 59/5/5
f 60/5/6 64/5/6 65/5/6 61/5/6
f 67/5/1 68/5/1 69/5/1 70/5/1
f 71/5/2 74/5/2 73/5/2 72/5/2
f 67/5/3 71/5/3 72/5/3 68/5/3
f 69/5/4 73/5/4 74/5/4 70/5/4
f 70/5/5 74/5/5 71/5/5 67/5/5
f 68/5/6 72/5/6 73/5/6 69/5/6
f 75/6/2 77/6/2 76/6/2
f 75/6/16 76/6/16 78/6/16
f 76/6/17 77/6/17 78/6/17
f 77/6/18 75/6/18 78/6/18
f 79/6/2 81/6/2 80/6/2
f 79/6/16 80/6/16 82/6/16
f 80/6/17 81/6/17 82/6/17
f 81/6/18 79/6/18 82/6/18
f 83/6/2 85/6/2 84/6/2
f 83/6/19 84/6/19 86/6/19
f 84/6/20 85/6/20 86/6/20
f 85/6/21 83/6/21 86/6/21
f 87/6/2 89/6/2 88/6/2
f 87/6/19 88/6/19 90/6/19
f 88/6/20 89/6/20 90/6/20
f 89/6/21 87/6/21 90/6/21
f 91/5/1 92/5/1 93/5/1 94/5/1
f 95/5/2 98/5/2 97/5/2 96/5/2
f 91/5/3 95/5/3 96/5/3 92/5/3
f 93/5/4 97/5/4 98/5/4 94/5/4
f 94/5/5 98/5/5 95/5/5 91/5/5
f 92/5/6 96/5/6 97/5/6 93/5/6
f 99/7/22 100/7/22 101/7/22
f 102/7/23 104/7/23 103/7/23
f 99/7/2 102/7/2 103/7/2 100/7/2
f 100/7/24 103/7/24 104/7/24 101/7/24
f 101/7/25 104/7/25 102/7/25 99/7/25
f 105/1/1 106/1/1 107/1/1 108/1/1
f 105/1/26 109/1/26 106/1/26
f 106/1/27 109/1/27 107/1/27
f 107/1/28 109/1/28 108/1/28
f 108/1/29 109/1/29 105/1/29
f 110/5/1 111/5/1 112/5/1 113/5/1
f 114/5/2 117/5/2 116/5/2 115/5/2
f 110/5/3 114/5/3 115/5/3 111/5/3
f 112/5/4 116/5/4 117/5/4 113/5/4
f 113/5/5 117/5/5 114/5/5 110/5/5
f 111/5/6 115/5/6 116/5/6 112/5/6
f 118/7/22 119/7/22 120/7/22
f 121/7/23 123/7/23 122/7/23
f 118/7/2 121/7/2 122/7/2 119/7/2
f 119/7/30 122/7/30 123/7/30 120/7/30
f 120/7/31 123/7/31 121/7/31 118/7/31
f 124/1/1 125/1/1 126/1/1 127/1/1
f 124/1/26 128/1/26 125/1/26
f 125/1/32 128/1/32 126/1/32
f 126/1/28 128/1/28 127/1/28
f 127/1/33 128/1/33 124/1/33
f 129/1/1 130/1/1 131/1/1 132/1/1
f 133/1/2 136/1/2 135/1/2 134/1/2
f 129/1/3 133/1/3 134/1/3 130/1/3
f 131/1/4 135/1/4 136/1/4 132/1/4
f 132/1/5 136/1/5 133/1/5 129/1/5
f 130/1/6 134/1/6 135/1/6 131/1/6
f 137/2/1 138/2/1 139/2/1 140/2/1
f 141/2/2 144/2/2 143/2/2 142/2/2
f 137/2/3 141/2/3 142/2/3 138/2/3
f 139/2/4 143/2/4 144/2/4 140/2/4
f 140/2/5 144/2/5 141/2/5 137/2/5
f 138/2/6 142/2/6 143/2/6 139/2/6
f 145/1/1 146/1/1 147/1/1 148/1/1
f 149/1/2 152/1/2 151/1/2 150/1/2
f 145/1/3 149/1/3 150/1/3 146/1/3
f 147/1/4 151/1/4 152/1/4 148/1/4
f 148/1/5 152/1/5 149/1/5 145/1/5
f 146/1/6 150/1/6 151/1/6 147/1/6
f 153/8/1 154/8/1 155/8/1 156/8/1
f 157/8/2 160/8/2 159/8/2 158/8/2
f 153/8/3 157/8/3 158/8/3 154/8/3
f 155/8/4 159/8/4 160/8/4 156/8/4
f 156/8/5 160/8/5 157/8/5 153/8/5
f 154/8/6 158/8/6 159/8/6 155/8/6
f 161/1/1 162/1/1 163/1/1 164/1/1
f 165/1/2 168/1/2 167/1/2 166/1/2
f 161/1/3 165/1/3 166/1/3 162/1/3
f 163/1/4 167/1/4 168/1/4 164/1/4
f 164/1/5 168/1/5 165/1/5 161/1/5
f 162/1/6 166/1/6 167/1/6 163/1/6
f 169/2/1 170/2/1 171/2/1 172/2/1
f 173/2/2 176/2/2 175/2/2 174/2/2
f 169/2/3 173/2/3 174/2/3 170/2/3
f 171/2/4 175/2/4 176/2/4 172/2/4
f 172/2/5 176/2/5 173/2/5 169/2/5
f 170/2/6 174/2/6 175/2/6 171/2/6
f 177/1/1 178/1/1 179/1/1 180/1/1
f 181/1/2 184/1/2 183/1/2 182/1/2
f 177/1/3 181/1/3 182/1/3 178/1/3
f 179/1/4 183/1/4 184/1/4 180/1/4
f 180/1/5 184/1/5 181/1/5 177/1/5
f 178/1/6 182/1/6 183/1/6 179/1/6
f 185/8/1 186/8/1 187/8/1 188/8/1
f 189/8/2 192/8/2 191/8/2 190/8/2
f 185/8/3 189/8/3 190/8/3 186/8/3
f 187/8/4 191/8/4 192/8/4 188/8/4
f 188/8/5 192/8/5 189/8/5 185/8/5
f 186/8/6 190/8/6 191/8/6 187/8/6
f 193/2/1 194/2/1 195/2/1 196/2/1
f 197/2/2 200/2/2 199/2/2 198/2/2
f 193/2/3 197/2/3 198/2/3 194/2/3
f 195/2/4 199/2/4 200/2/4 196/2/4
f 196/2/5 200/2/5 197/2/5 193/2/5
f 194/2/6 198/2/6 199/2/6 195/2/6
f 201/1/1 202/1/1 203/1/1 204/1/1
f 205/1/2 208/1/2 207/1/2 206/1/2
f 201/1/3 205/1/3 206/1/3 202/1/3
f 203/1/4 207/1/4 208/1/4 204/1/4
f 204/1/5 208/1/5 205/1/5 201/1/5
f 202/1/6 206/1/6 207/1/6 203/1/6
f 209/8/4 210/8/4 211/8/4
f 212/8/3 214/8/3 213/8/3
f 209/8/1 212/8/1 213/8/1 210/8/1
f 210/8/34 213/8/34 214/8/34 211/8/34
f 211/8/35 214/8/35 212/8/35 209/8/35
f 215/2/1 216/2/1 217/2/1 218/2/1
f 219/2/2 222/2/2 221/2/2 220/2/2
f 215/2/3 219/2/3 220/2/3 216/2/3
f 217/2/4 221/2/4 222/2/4 218/2/4
f 218/2/5 222/2/5 219/2/5 215/2/5
f 216/2/6 220/2/6 221/2/6 217/2/6
f 223/1/1 224/1/1 225/1/1 226/1/1
f 227/1/2 230/1/2 229/1/2 228/1/2
f 223/1/3 227/1/3 228/1/3 224/1/3
f 225/1/4 229/1/4 230/1/4 226/1/4
f 226/1/5 230/1/5 227/1/5 223/1/5
f 224/1/6 228/1/6 229/1/6 225/1/6
f 231/8/4 232/8/4 233/8/4
f 234/8/3 236/8/3 235/8/3
f 231/8/1 234/8/1 235/8/1 232/8/1
f 232/8/34 235/8/34 236/8/34 233/8/34
f 233/8/35 236/8/35 234/8/35 231/8/35
