# Blender 5.0.1
# www.blender.org
mtllib branches.mtl
o Twig1
v -0.080000 -0.981770 -0.024982
v -0.006404 -0.982418 0.017541
v -0.006404 -0.980647 0.102523
v -0.080000 -0.978230 0.144982
v -0.153596 -0.977582 0.102459
v -0.153596 -0.979353 0.017477
v -0.070000 -0.501592 -0.027984
v -0.002450 -0.500796 0.011008
v -0.002450 -0.499204 0.088992
v -0.070000 -0.498408 0.127984
v -0.137550 -0.499204 0.088992
v -0.137550 -0.500796 0.011008
v -0.080000 0.000735 -0.031996
v -0.017649 -0.000269 0.003995
v -0.017649 -0.001003 0.075992
v -0.080000 -0.000735 0.111996
v -0.142351 0.000269 0.076005
v -0.142351 0.001003 0.004008
v -0.060000 0.480625 0.000003
v -0.008041 0.480854 0.030007
v -0.008041 0.480229 0.090004
v -0.060000 0.479375 0.119997
v -0.111959 0.479146 0.089993
v -0.111959 0.479771 0.029996
v -0.090000 0.959063 0.005010
v -0.051105 0.961961 0.027454
v -0.051105 0.962899 0.072444
v -0.090000 0.960937 0.094990
v -0.128895 0.958039 0.072546
v -0.128895 0.957101 0.027556
v -0.080000 -0.980000 0.060000
v -0.090000 0.960000 0.050000
vn -0.0208 -0.9996 0.0208
vn -0.5001 0.0158 0.8658
vn -1.0000 0.0082 -0.0002
vn -0.5001 -0.0202 -0.8658
vn 0.4997 -0.0411 -0.8652
vn 0.9994 -0.0335 0.0007
vn 0.4997 -0.0050 0.8662
vn -0.4999 -0.0030 0.8661
vn -0.9995 -0.0304 0.0002
vn -0.4999 -0.0378 -0.8653
vn 0.4998 -0.0177 -0.8659
vn 1.0000 0.0096 -0.0001
vn 0.5000 0.0169 0.8658
vn -0.4998 -0.0368 0.8653
vn -0.9998 0.0200 0.0002
vn -0.4998 0.0352 -0.8654
vn 0.5000 -0.0064 -0.8660
vn 0.9980 -0.0633 -0.0007
vn 0.4988 -0.0784 0.8632
vn -0.4985 -0.0402 0.8659
vn -0.9960 -0.0890 0.0003
vn -0.4974 -0.0758 -0.8642
vn 0.5003 -0.0138 -0.8658
vn 0.9994 0.0354 -0.0001
vn 0.5000 0.0222 0.8658
vn -0.0624 0.9978 -0.0208
vt 0.437500 0.687500
s 0
usemtl GamePalette
f 31/1/1 1/1/1 2/1/1
f 31/1/1 2/1/1 3/1/1
f 31/1/1 3/1/1 4/1/1
f 31/1/1 4/1/1 5/1/1
f 31/1/1 5/1/1 6/1/1
f 31/1/1 6/1/1 1/1/1
f 1/1/2 2/1/2 8/1/2 7/1/2
f 2/1/3 3/1/3 9/1/3 8/1/3
f 3/1/4 4/1/4 10/1/4 9/1/4
f 4/1/5 5/1/5 11/1/5 10/1/5
f 5/1/6 6/1/6 12/1/6 11/1/6
f 6/1/7 1/1/7 7/1/7 12/1/7
f 7/1/8 8/1/8 14/1/8 13/1/8
f 8/1/9 9/1/9 15/1/9 14/1/9
f 9/1/10 10/1/10 16/1/10 15/1/10
f 10/1/11 11/1/11 17/1/11 16/1/11
f 11/1/12 12/1/12 18/1/12 17/1/12
f 12/1/13 7/1/13 13/1/13 18/1/13
f 13/1/14 14/1/14 20/1/14 19/1/14
f 14/1/15 15/1/15 21/1/15 20/1/15
f 15/1/16 16/1/16 22/1/16 21/1/16
f 16/1/17 17/1/17 23/1/17 22/1/17
f 17/1/18 18/1/18 24/1/18 23/1/18
f 18/1/19 13/1/19 19/1/19 24/1/19
f 19/1/20 20/1/20 26/1/20 25/1/20
f 20/1/21 21/1/21 27/1/21 26/1/21
f 21/1/22 22/1/22 28/1/22 27/1/22
f 22/1/23 23/1/23 29/1/23 28/1/23
f 23/1/24 24/1/24 30/1/24 29/1/24
f 24/1/25 19/1/25 25/1/25 30/1/25
f 32/1/26 26/1/26 25/1/26
f 32/1/26 27/1/26 26/1/26
f 32/1/26 28/1/26 27/1/26
f 32/1/26 29/1/26 28/1/26
f 32/1/26 30/1/26 29/1/26
f 32/1/26 25/1/26 30/1/26
o Twig2
v 0.080000 -1.016669 -0.049938
v 0.157929 -1.016893 -0.004916
v 0.157929 -1.020224 0.085023
v 0.080000 -1.023331 0.129938
v 0.002071 -1.023107 0.084916
v 0.002071 -1.019776 -0.005023
v 0.070000 -0.479196 -0.021996
v 0.141014 -0.479598 0.019002
v 0.141014 -0.480402 0.100998
v 0.070000 -0.480804 0.141996
v -0.001014 -0.480402 0.100998
v -0.001014 -0.479598 0.019002
v 0.080000 -0.002249 -0.024966
v 0.144949 -0.000476 0.012497
v 0.144949 0.001773 0.087464
v 0.080000 0.002249 0.124966
v 0.015051 0.000476 0.087503
v 0.015051 -0.001773 0.012536
v 0.060000 0.520000 -0.032000
v 0.113691 0.520521 -0.001000
v 0.113691 0.520521 0.061000
v 0.060000 0.520000 0.092000
v 0.006309 0.519479 0.061000
v 0.006309 0.519479 -0.001000
v 0.070000 1.031881 0.002037
v 0.111561 1.030127 0.025987
v 0.111561 1.028246 0.073950
v 0.070000 1.028119 0.097963
v 0.028439 1.029873 0.074013
v 0.028439 1.031754 0.026050
v 0.080000 -1.020000 0.040000
v 0.070000 1.030000 0.050000
vn 0.0185 -0.9991 -0.0370
vn -0.4996 -0.0542 0.8646
vn -0.9995 -0.0314 -0.0008
vn -0.4998 0.0100 -0.8661
vn 0.5000 0.0285 -0.8656
vn 1.0000 0.0057 0.0001
vn 0.5000 -0.0357 0.8653
vn -0.4999 0.0159 0.8659
vn -1.0000 0.0082 -0.0001
vn -0.4999 -0.0202 -0.8658
vn 0.4997 -0.0409 -0.8652
vn 0.9994 -0.0335 0.0003
vn 0.5000 -0.0051 0.8660
vn -0.4997 -0.0075 0.8662
vn -0.9982 -0.0600 0.0010
vn -0.4986 -0.0742 -0.8636
vn 0.5000 -0.0358 -0.8653
vn 0.9999 0.0168 -0.0003
vn 0.4998 0.0308 0.8656
vn -0.4996 -0.0478 0.8649
vn -1.0000 -0.0042 -0.0001
vn -0.5001 0.0200 -0.8657
vn 0.4997 0.0004 -0.8662
vn 0.9991 -0.0432 -0.0007
vn 0.4993 -0.0672 0.8638
vn 0.0196 0.9990 0.0392
vt 0.187500 0.687500
s 0
usemtl GamePalette
f 63/2/27 33/2/27 34/2/27
f 63/2/27 34/2/27 35/2/27
f 63/2/27 35/2/27 36/2/27
f 63/2/27 36/2/27 37/2/27
f 63/2/27 37/2/27 38/2/27
f 63/2/27 38/2/27 33/2/27
f 33/2/28 34/2/28 40/2/28 39/2/28
f 34/2/29 35/2/29 41/2/29 40/2/29
f 35/2/30 36/2/30 42/2/30 41/2/30
f 36/2/31 37/2/31 43/2/31 42/2/31
f 37/2/32 38/2/32 44/2/32 43/2/32
f 38/2/33 33/2/33 39/2/33 44/2/33
f 39/2/34 40/2/34 46/2/34 45/2/34
f 40/2/35 41/2/35 47/2/35 46/2/35
f 41/2/36 42/2/36 48/2/36 47/2/36
f 42/2/37 43/2/37 49/2/37 48/2/37
f 43/2/38 44/2/38 50/2/38 49/2/38
f 44/2/39 39/2/39 45/2/39 50/2/39
f 45/2/40 46/2/40 52/2/40 51/2/40
f 46/2/41 47/2/41 53/2/41 52/2/41
f 47/2/42 48/2/42 54/2/42 53/2/42
f 48/2/43 49/2/43 55/2/43 54/2/43
f 49/2/44 50/2/44 56/2/44 55/2/44
f 50/2/45 45/2/45 51/2/45 56/2/45
f 51/2/46 52/2/46 58/2/46 57/2/46
f 52/2/47 53/2/47 59/2/47 58/2/47
f 53/2/48 54/2/48 60/2/48 59/2/48
f 54/2/49 55/2/49 61/2/49 60/2/49
f 55/2/50 56/2/50 62/2/50 61/2/50
f 56/2/51 51/2/51 57/2/51 62/2/51
f 64/2/52 58/2/52 57/2/52
f 64/2/52 59/2/52 58/2/52
f 64/2/52 60/2/52 59/2/52
f 64/2/52 61/2/52 60/2/52
f 64/2/52 62/2/52 61/2/52
f 64/2/52 57/2/52 62/2/52
o Twig3
v -0.030000 -0.901625 -0.157983
v 0.037535 -0.899406 -0.119021
v 0.037535 -0.897781 -0.041038
v -0.030000 -0.898375 -0.002017
v -0.097535 -0.900594 -0.040979
v -0.097535 -0.902219 -0.118962
v -0.040000 -0.420000 -0.162000
v 0.022354 -0.420000 -0.126000
v 0.022354 -0.420000 -0.054000
v -0.040000 -0.420000 -0.018000
v -0.102354 -0.420000 -0.054000
v -0.102354 -0.420000 -0.126000
v -0.030000 0.001511 -0.144982
v 0.026257 -0.001206 -0.112537
v 0.026257 -0.002717 -0.047554
v -0.030000 -0.001511 -0.015018
v -0.086257 0.001206 -0.047463
v -0.086257 0.002717 -0.112446
v -0.010000 0.439402 -0.124997
v 0.037631 0.439701 -0.097498
v 0.037631 0.440299 -0.042502
v -0.010000 0.440598 -0.015003
v -0.057631 0.440299 -0.042502
v -0.057631 0.439701 -0.097498
v -0.030000 0.918252 -0.131964
v 0.006342 0.920637 -0.111045
v 0.006342 0.922386 -0.069081
v -0.030000 0.921749 -0.048036
v -0.066342 0.919363 -0.068955
v -0.066342 0.917614 -0.110919
v -0.030000 -0.900000 -0.080000
v -0.030000 0.920000 -0.090000
vn 0.0208 -0.9996 0.0208
vn -0.4998 -0.0032 0.8661
vn -0.9995 -0.0317 0.0003
vn -0.4996 -0.0394 -0.8653
vn 0.5000 -0.0185 -0.8658
vn 0.9999 0.0100 -0.0001
vn 0.5000 0.0176 0.8658
vn -0.5001 -0.0231 0.8657
vn -1.0000 0.0093 0.0001
vn -0.5001 0.0181 -0.8658
vn 0.4997 -0.0057 -0.8662
vn 0.9993 -0.0381 -0.0004
vn 0.4994 -0.0468 0.8651
vn -0.5000 -0.0167 0.8659
vn -0.9997 0.0257 0.0002
vn -0.5000 0.0227 -0.8657
vn 0.4992 -0.0227 -0.8662
vn 0.9979 -0.0652 -0.0005
vn 0.4987 -0.0622 0.8645
vn -0.4993 -0.0082 0.8664
vn -0.9979 -0.0648 0.0016
vn -0.4986 -0.0800 -0.8631
vn 0.5001 -0.0386 -0.8651
vn 0.9998 0.0182 -0.0004
vn 0.5001 0.0334 0.8653
vn -0.0416 0.9983 -0.0416
vt 0.562500 0.687500
s 0
usemtl GamePalette
f 95/3/53 65/3/53 66/3/53
f 95/3/53 66/3/53 67/3/53
f 95/3/53 67/3/53 68/3/53
f 95/3/53 68/3/53 69/3/53
f 95/3/53 69/3/53 70/3/53
f 95/3/53 70/3/53 65/3/53
f 65/3/54 66/3/54 72/3/54 71/3/54
f 66/3/55 67/3/55 73/3/55 72/3/55
f 67/3/56 68/3/56 74/3/56 73/3/56
f 68/3/57 69/3/57 75/3/57 74/3/57
f 69/3/58 70/3/58 76/3/58 75/3/58
f 70/3/59 65/3/59 71/3/59 76/3/59
f 71/3/60 72/3/60 78/3/60 77/3/60
f 72/3/61 73/3/61 79/3/61 78/3/61
f 73/3/62 74/3/62 80/3/62 79/3/62
f 74/3/63 75/3/63 81/3/63 80/3/63
f 75/3/64 76/3/64 82/3/64 81/3/64
f 76/3/65 71/3/65 77/3/65 82/3/65
f 77/3/66 78/3/66 84/3/66 83/3/66
f 78/3/67 79/3/67 85/3/67 84/3/67
f 79/3/68 80/3/68 86/3/68 85/3/68
f 80/3/69 81/3/69 87/3/69 86/3/69
f 81/3/70 82/3/70 88/3/70 87/3/70
f 82/3/71 77/3/71 83/3/71 88/3/71
f 83/3/72 84/3/72 90/3/72 89/3/72
f 84/3/73 85/3/73 91/3/73 90/3/73
f 85/3/74 86/3/74 92/3/74 91/3/74
f 86/3/75 87/3/75 93/3/75 92/3/75
f 87/3/76 88/3/76 94/3/76 93/3/76
f 88/3/77 83/3/77 89/3/77 94/3/77
f 96/3/78 90/3/78 89/3/78
f 96/3/78 91/3/78 90/3/78
f 96/3/78 92/3/78 91/3/78
f 96/3/78 93/3/78 92/3/78
f 96/3/78 94/3/78 93/3/78
f 96/3/78 89/3/78 94/3/78
o Twig4
v 0.050000 -0.938292 -0.161982
v 0.120999 -0.937667 -0.120960
v 0.120999 -0.939375 -0.038978
v 0.050000 -0.941708 0.001982
v -0.020999 -0.942333 -0.039040
v -0.020999 -0.940625 -0.121022
v 0.040000 -0.460000 -0.145000
v 0.104952 -0.460000 -0.107500
v 0.104952 -0.460000 -0.032500
v 0.040000 -0.460000 0.005000
v -0.024952 -0.460000 -0.032500
v -0.024952 -0.460000 -0.107500
v 0.050000 -0.001446 -0.147985
v 0.108886 -0.000097 -0.114006
v 0.108886 0.001349 -0.046021
v 0.050000 0.001446 -0.012015
v -0.008886 0.000097 -0.045994
v -0.008886 -0.001349 -0.113979
v 0.030000 0.480604 -0.147997
v 0.080227 0.480825 -0.118993
v 0.080227 0.480221 -0.060996
v 0.030000 0.479396 -0.032003
v -0.020227 0.479175 -0.061007
v -0.020227 0.479779 -0.119004
v 0.040000 0.961832 -0.113962
v 0.078097 0.960124 -0.092014
v 0.078097 0.958292 -0.048052
v 0.040000 0.958168 -0.026038
v 0.001903 0.959876 -0.047986
v 0.001903 0.961708 -0.091948
v 0.050000 -0.940000 -0.080000
v 0.040000 0.960000 -0.070000
vn 0.0208 -0.9996 -0.0208
vn -0.4996 -0.0412 0.8653
vn -0.9994 -0.0335 -0.0004
vn -0.4998 -0.0050 -0.8661
vn 0.5000 0.0158 -0.8659
vn 1.0000 0.0082 0.0001
vn 0.5000 -0.0203 0.8658
vn -0.5000 0.0165 0.8659
vn -1.0000 0.0085 -0.0001
vn -0.4999 -0.0211 -0.8658
vn 0.4998 -0.0428 -0.8651
vn 0.9994 -0.0349 0.0004
vn 0.5000 -0.0053 0.8660
vn -0.4996 -0.0207 0.8660
vn -0.9982 -0.0596 0.0004
vn -0.4989 -0.0570 -0.8648
vn 0.5000 -0.0153 -0.8659
vn 0.9997 0.0236 -0.0002
vn 0.4998 0.0208 0.8659
vn -0.4997 -0.0508 0.8647
vn -1.0000 -0.0044 -0.0001
vn -0.5002 0.0212 -0.8657
vn 0.4997 0.0004 -0.8662
vn 0.9989 -0.0459 -0.0011
vn 0.4994 -0.0714 0.8634
vn 0.0208 0.9989 0.0416
vt 0.687500 0.687500
s 0
usemtl GamePalette
f 127/4/79 97/4/79 98/4/79
f 127/4/79 98/4/79 99/4/79
f 127/4/79 99/4/79 100/4/79
f 127/4/79 100/4/79 101/4/79
f 127/4/79 101/4/79 102/4/79
f 127/4/79 102/4/79 97/4/79
f 97/4/80 98/4/80 104/4/80 103/4/80
f 98/4/81 99/4/81 105/4/81 104/4/81
f 99/4/82 100/4/82 106/4/82 105/4/82
f 100/4/83 101/4/83 107/4/83 106/4/83
f 101/4/84 102/4/84 108/4/84 107/4/84
f 102/4/85 97/4/85 103/4/85 108/4/85
f 103/4/86 104/4/86 110/4/86 109/4/86
f 104/4/87 105/4/87 111/4/87 110/4/87
f 105/4/88 106/4/88 112/4/88 111/4/88
f 106/4/89 107/4/89 113/4/89 112/4/89
f 107/4/90 108/4/90 114/4/90 113/4/90
f 108/4/91 103/4/91 109/4/91 114/4/91
f 109/4/92 110/4/92 116/4/92 115/4/92
f 110/4/93 111/4/93 117/4/93 116/4/93
f 111/4/94 112/4/94 118/4/94 117/4/94
f 112/4/95 113/4/95 119/4/95 118/4/95
f 113/4/96 114/4/96 120/4/96 119/4/96
f 114/4/97 109/4/97 115/4/97 120/4/97
f 115/4/98 116/4/98 122/4/98 121/4/98
f 116/4/99 117/4/99 123/4/99 122/4/99
f 117/4/100 118/4/100 124/4/100 123/4/100
f 118/4/101 119/4/101 125/4/101 124/4/101
f 119/4/102 120/4/102 126/4/102 125/4/102
f 120/4/103 115/4/103 121/4/103 126/4/103
f 128/4/104 122/4/104 121/4/104
f 128/4/104 123/4/104 122/4/104
f 128/4/104 124/4/104 123/4/104
f 128/4/104 125/4/104 124/4/104
f 128/4/104 126/4/104 125/4/104
f 128/4/104 121/4/104 126/4/104
o TwineBand
v 0.200000 -0.060000 0.000000
v 0.200000 0.060000 0.000000
v 0.180194 -0.060000 -0.078099
v 0.180194 0.060000 -0.078099
v 0.124698 -0.060000 -0.140730
v 0.124698 0.060000 -0.140730
v 0.044504 -0.060000 -0.175487
v 0.044504 0.060000 -0.175487
v -0.044504 -0.060000 -0.175487
v -0.044504 0.060000 -0.175487
v -0.124698 -0.060000 -0.140730
v -0.124698 0.060000 -0.140730
v -0.180194 -0.060000 -0.078099
v -0.180194 0.060000 -0.078099
v -0.200000 -0.060000 -0.000000
v -0.200000 0.060000 -0.000000
v -0.180194 -0.060000 0.078099
v -0.180194 0.060000 0.078099
v -0.124698 -0.060000 0.140730
v -0.124698 0.060000 0.140730
v -0.044504 -0.060000 0.175487
v -0.044504 0.060000 0.175487
v 0.044504 -0.060000 0.175487
v 0.044504 0.060000 0.175487
v 0.124698 -0.060000 0.140730
v 0.124698 0.060000 0.140730
v 0.180194 -0.060000 0.078099
v 0.180194 0.060000 0.078099
v 0.000000 -0.045000 -0.200000
v 0.032562 -0.020125 -0.176343
v -0.012437 -0.020125 -0.161721
v -0.040249 -0.020125 -0.200000
v -0.012437 -0.020125 -0.238279
v 0.032562 -0.020125 -0.223657
v 0.012437 0.020125 -0.161721
v -0.032562 0.020125 -0.176343
v -0.032562 0.020125 -0.223657
v 0.012437 0.020125 -0.238279
v 0.040249 0.020125 -0.200000
v 0.000000 0.045000 -0.200000
v 0.040000 -0.005000 -0.190000
v 0.065326 0.014347 -0.171600
v 0.030327 0.014347 -0.160228
v 0.008695 0.014347 -0.190000
v 0.030327 0.014347 -0.219772
v 0.065326 0.014347 -0.208400
v 0.049673 0.045653 -0.160228
v 0.014674 0.045653 -0.171600
v 0.014674 0.045653 -0.208400
v 0.049673 0.045653 -0.219772
v 0.071305 0.045653 -0.190000
v 0.040000 0.065000 -0.190000
vn 0.9693 -0.0000 -0.2458
vn 0.7485 -0.0000 -0.6632
vn 0.3977 -0.0000 -0.9175
vn -0.0000 -0.0000 -1.0000
vn -0.3977 -0.0000 -0.9175
vn -0.7485 -0.0000 -0.6632
vn -0.9693 -0.0000 -0.2458
vn -0.9693 -0.0000 0.2458
vn -0.7485 -0.0000 0.6632
vn -0.3977 -0.0000 0.9175
vn -0.0000 -0.0000 1.0000
vn 0.3977 -0.0000 0.9175
vn 0.7485 -0.0000 0.6632
vn 0.9693 -0.0000 0.2458
vn 0.1876 -0.7947 0.5774
vn 0.6071 -0.7947 -0.0000
vn -0.4911 -0.7947 0.3568
vn -0.4911 -0.7947 -0.3568
vn 0.1876 -0.7947 -0.5774
vn 0.9822 -0.1876 -0.0000
vn 0.3035 -0.1876 0.9342
vn -0.7946 -0.1876 0.5774
vn -0.7946 -0.1876 -0.5774
vn 0.3035 -0.1876 -0.9342
vn 0.7946 0.1876 0.5774
vn -0.3035 0.1876 0.9342
vn -0.9822 0.1876 -0.0000
vn -0.3035 0.1876 -0.9342
vn 0.7946 0.1876 -0.5774
vn 0.4911 0.7947 0.3568
vn -0.1876 0.7947 0.5774
vn -0.6071 0.7947 -0.0000
vn -0.1876 0.7947 -0.5774
vn 0.4911 0.7947 -0.3568
vt 0.062500 0.562500
s 0
usemtl GamePalette
f 129/5/105 131/5/105 132/5/105 130/5/105
f 131/5/106 133/5/106 134/5/106 132/5/106
f 133/5/107 135/5/107 136/5/107 134/5/107
f 135/5/108 137/5/108 138/5/108 136/5/108
f 137/5/109 139/5/109 140/5/109 138/5/109
f 139/5/110 141/5/110 142/5/110 140/5/110
f 141/5/111 143/5/111 144/5/111 142/5/111
f 143/5/112 145/5/112 146/5/112 144/5/112
f 145/5/113 147/5/113 148/5/113 146/5/113
f 147/5/114 149/5/114 150/5/114 148/5/114
f 149/5/115 151/5/115 152/5/115 150/5/115
f 151/5/116 153/5/116 154/5/116 152/5/116
f 153/5/117 155/5/117 156/5/117 154/5/117
f 155/5/118 129/5/118 130/5/118 156/5/118
f 157/5/119 158/5/119 159/5/119
f 158/5/120 157/5/120 162/5/120
f 157/5/121 159/5/121 160/5/121
f 157/5/122 160/5/122 161/5/122
f 157/5/123 161/5/123 162/5/123
f 158/5/124 162/5/124 167/5/124
f 159/5/125 158/5/125 163/5/125
f 160/5/126 159/5/126 164/5/126
f 161/5/127 160/5/127 165/5/127
f 162/5/128 161/5/128 166/5/128
f 158/5/129 167/5/129 163/5/129
f 159/5/130 163/5/130 164/5/130
f 160/5/131 164/5/131 165/5/131
f 161/5/132 165/5/132 166/5/132
f 162/5/133 166/5/133 167/5/133
f 163/5/134 167/5/134 168/5/134
f 164/5/135 163/5/135 168/5/135
f 165/5/136 164/5/136 168/5/136
f 166/5/137 165/5/137 168/5/137
f 167/5/138 166/5/138 168/5/138
f 169/5/119 170/5/119 171/5/119
f 170/5/120 169/5/120 174/5/120
f 169/5/121 171/5/121 172/5/121
f 169/5/122 172/5/122 173/5/122
f 169/5/123 173/5/123 174/5/123
f 170/5/124 174/5/124 179/5/124
f 171/5/125 170/5/125 175/5/125
f 172/5/126 171/5/126 176/5/126
f 173/5/127 172/5/127 177/5/127
f 174/5/128 173/5/128 178/5/128
f 170/5/129 179/5/129 175/5/129
f 171/5/130 175/5/130 176/5/130
f 172/5/131 176/5/131 177/5/131
f 173/5/132 177/5/132 178/5/132
f 174/5/133 178/5/133 179/5/133
f 175/5/134 179/5/134 180/5/134
f 176/5/135 175/5/135 180/5/135
f 177/5/136 176/5/136 180/5/136
f 178/5/137 177/5/137 180/5/137
f 179/5/138 178/5/138 180/5/138
