# Blender 5.0.1
# www.blender.org
mtllib parts.mtl
o Parts
v 0.030000 0.020000 0.200000
v 0.001074 0.020000 0.054580
v -0.081299 0.020000 -0.068701
v -0.204580 0.020000 -0.151074
v -0.350000 0.020000 -0.180000
v -0.495420 0.020000 -0.151074
v -0.618701 0.020000 -0.068701
v -0.701074 0.020000 0.054580
v -0.730000 0.020000 0.200000
v -0.701074 0.020000 0.345420
v -0.618701 0.020000 0.468701
v -0.495420 0.020000 0.551074
v -0.350000 0.020000 0.580000
v -0.204580 0.020000 0.551074
v -0.081299 0.020000 0.468701
v 0.001074 0.020000 0.345420
v 0.030000 0.220000 0.200000
v 0.001074 0.220000 0.054580
v -0.081299 0.220000 -0.068701
v -0.204580 0.220000 -0.151074
v -0.350000 0.220000 -0.180000
v -0.495420 0.220000 -0.151074
v -0.618701 0.220000 -0.068701
v -0.701074 0.220000 0.054580
v -0.730000 0.220000 0.200000
v -0.701074 0.220000 0.345420
v -0.618701 0.220000 0.468701
v -0.495420 0.220000 0.551074
v -0.350000 0.220000 0.580000
v -0.204580 0.220000 0.551074
v -0.081299 0.220000 0.468701
v 0.001074 0.220000 0.345420
v 0.457500 0.020000 0.200000
v 0.396033 0.020000 -0.109017
v 0.220989 0.020000 -0.370989
v -0.040983 0.020000 -0.546033
v -0.350000 0.020000 -0.607500
v -0.659017 0.020000 -0.546033
v -0.920989 0.020000 -0.370989
v -1.096033 0.020000 -0.109017
v -1.157500 0.020000 0.200000
v -1.096033 0.020000 0.509017
v -0.920989 0.020000 0.770989
v -0.659017 0.020000 0.946033
v -0.350000 0.020000 1.007500
v -0.040983 0.020000 0.946033
v 0.220989 0.020000 0.770989
v 0.396033 0.020000 0.509017
v 0.457500 0.220000 0.200000
v 0.396033 0.220000 -0.109017
v 0.220989 0.220000 -0.370989
v -0.040983 0.220000 -0.546033
v -0.350000 0.220000 -0.607500
v -0.659017 0.220000 -0.546033
v -0.920989 0.220000 -0.370989
v -1.096033 0.220000 -0.109017
v -1.157500 0.220000 0.200000
v -1.096033 0.220000 0.509017
v -0.920989 0.220000 0.770989
v -0.659017 0.220000 0.946033
v -0.350000 0.220000 1.007500
v -0.040983 0.220000 0.946033
v 0.220989 0.220000 0.770989
v 0.396033 0.220000 0.509017
v 0.457500 0.020000 0.060000
v 0.457500 0.020000 0.340000
v 0.457500 0.220000 0.060000
v 0.457500 0.220000 0.340000
v 0.757500 0.020000 0.102000
v 0.757500 0.020000 0.298000
v 0.757500 0.220000 0.102000
v 0.757500 0.220000 0.298000
v 0.121994 0.020000 -0.469984
v 0.319984 0.020000 -0.271994
v 0.121994 0.220000 -0.469984
v 0.319984 0.220000 -0.271994
v 0.363824 0.020000 -0.652417
v 0.502417 0.020000 -0.513824
v 0.363824 0.220000 -0.652417
v 0.502417 0.220000 -0.513824
v -0.490000 0.020000 -0.607500
v -0.210000 0.020000 -0.607500
v -0.490000 0.220000 -0.607500
v -0.210000 0.220000 -0.607500
v -0.448000 0.020000 -0.907500
v -0.252000 0.020000 -0.907500
v -0.448000 0.220000 -0.907500
v -0.252000 0.220000 -0.907500
v -1.019984 0.020000 -0.271994
v -0.821994 0.020000 -0.469984
v -1.019984 0.220000 -0.271994
v -0.821994 0.220000 -0.469984
v -1.202417 0.020000 -0.513824
v -1.063824 0.020000 -0.652417
v -1.202417 0.220000 -0.513824
v -1.063824 0.220000 -0.652417
v -1.157500 0.020000 0.340000
v -1.157500 0.020000 0.060000
v -1.157500 0.220000 0.340000
v -1.157500 0.220000 0.060000
v -1.457500 0.020000 0.298000
v -1.457500 0.020000 0.102000
v -1.457500 0.220000 0.298000
v -1.457500 0.220000 0.102000
v -0.821994 0.020000 0.869984
v -1.019984 0.020000 0.671994
v -0.821994 0.220000 0.869984
v -1.019984 0.220000 0.671994
v -1.063824 0.020000 1.052417
v -1.202417 0.020000 0.913824
v -1.063824 0.220000 1.052417
v -1.202417 0.220000 0.913824
v -0.210000 0.020000 1.007500
v -0.490000 0.020000 1.007500
v -0.210000 0.220000 1.007500
v -0.490000 0.220000 1.007500
v -0.252000 0.020000 1.307500
v -0.448000 0.020000 1.307500
v -0.252000 0.220000 1.307500
v -0.448000 0.220000 1.307500
v 0.319984 0.020000 0.671994
v 0.121994 0.020000 0.869984
v 0.319984 0.220000 0.671994
v 0.121994 0.220000 0.869984
v 0.502417 0.020000 0.913824
v 0.363824 0.020000 1.052417
v 0.502417 0.220000 0.913824
v 0.363824 0.220000 1.052417
v -1.157500 0.030000 0.124000
v -1.157500 0.030000 0.276000
v 0.457500 0.030000 0.276000
v 0.457500 0.030000 0.124000
v -1.157500 0.210000 0.124000
v -1.157500 0.210000 0.276000
v 0.457500 0.210000 0.276000
v 0.457500 0.210000 0.124000
v -0.974729 0.030000 0.717249
v -0.867249 0.030000 0.824729
v 0.274729 0.030000 -0.317249
v 0.167249 0.030000 -0.424729
v -0.974729 0.210000 0.717249
v -0.867249 0.210000 0.824729
v 0.274729 0.210000 -0.317249
v 0.167249 0.210000 -0.424729
v -0.426000 0.030000 1.007500
v -0.274000 0.030000 1.007500
v -0.274000 0.030000 -0.607500
v -0.426000 0.030000 -0.607500
v -0.426000 0.210000 1.007500
v -0.274000 0.210000 1.007500
v -0.274000 0.210000 -0.607500
v -0.426000 0.210000 -0.607500
v 0.167249 0.030000 0.824729
v 0.274729 0.030000 0.717249
v -0.867249 0.030000 -0.424729
v -0.974729 0.030000 -0.317249
v 0.167249 0.210000 0.824729
v 0.274729 0.210000 0.717249
v -0.867249 0.210000 -0.424729
v -0.974729 0.210000 -0.317249
v 1.290162 0.010000 -0.547696
v 1.194138 0.010000 -0.650669
v 1.059493 0.010000 -0.691834
v 0.922304 0.010000 -0.660162
v 0.819331 0.010000 -0.564138
v 0.778166 0.010000 -0.429493
v 0.809838 0.010000 -0.292304
v 0.905862 0.010000 -0.189331
v 1.040507 0.010000 -0.148166
v 1.177696 0.010000 -0.179838
v 1.280669 0.010000 -0.275862
v 1.321834 0.010000 -0.410507
v 1.290162 0.190000 -0.547696
v 1.194138 0.190000 -0.650669
v 1.059493 0.190000 -0.691834
v 0.922304 0.190000 -0.660162
v 0.819331 0.190000 -0.564138
v 0.778166 0.190000 -0.429493
v 0.809838 0.190000 -0.292304
v 0.905862 0.190000 -0.189331
v 1.040507 0.190000 -0.148166
v 1.177696 0.190000 -0.179838
v 1.280669 0.190000 -0.275862
v 1.321834 0.190000 -0.410507
v 1.560344 0.010000 -0.691355
v 1.356293 0.010000 -0.910172
v 1.070172 0.010000 -0.997648
v 0.778645 0.010000 -0.930344
v 0.559828 0.010000 -0.726293
v 0.472352 0.010000 -0.440172
v 0.539656 0.010000 -0.148645
v 0.743707 0.010000 0.070172
v 1.029828 0.010000 0.157648
v 1.321355 0.010000 0.090344
v 1.540172 0.010000 -0.113707
v 1.627648 0.010000 -0.399828
v 1.560344 0.190000 -0.691355
v 1.356293 0.190000 -0.910172
v 1.070172 0.190000 -0.997648
v 0.778645 0.190000 -0.930344
v 0.559828 0.190000 -0.726293
v 0.472352 0.190000 -0.440172
v 0.539656 0.190000 -0.148645
v 0.743707 0.190000 0.070172
v 1.029828 0.190000 0.157648
v 1.321355 0.190000 0.090344
v 1.540172 0.190000 -0.113707
v 1.627648 0.190000 -0.399828
v 1.504007 0.010000 -0.797308
v 1.616680 0.010000 -0.585401
v 1.504007 0.190000 -0.797308
v 1.616680 0.190000 -0.585401
v 1.732816 0.010000 -0.878195
v 1.811687 0.010000 -0.729860
v 1.732816 0.190000 -0.878195
v 1.811687 0.190000 -0.729860
v 0.950245 0.010000 -1.001836
v 1.190099 0.010000 -0.993460
v 0.950245 0.190000 -1.001836
v 1.190099 0.190000 -0.993460
v 0.994599 0.010000 -1.240433
v 1.162497 0.010000 -1.234570
v 0.994599 0.190000 -1.240433
v 1.162497 0.190000 -1.234570
v 0.496238 0.010000 -0.624528
v 0.623419 0.010000 -0.828059
v 0.496238 0.190000 -0.624528
v 0.623419 0.190000 -0.828059
v 0.311783 0.010000 -0.782238
v 0.400810 0.010000 -0.924710
v 0.311783 0.190000 -0.782238
v 0.400810 0.190000 -0.924710
v 0.595993 0.010000 -0.042692
v 0.483320 0.010000 -0.254599
v 0.595993 0.190000 -0.042692
v 0.483320 0.190000 -0.254599
v 0.367184 0.010000 0.038195
v 0.288313 0.010000 -0.110140
v 0.367184 0.190000 0.038195
v 0.288313 0.190000 -0.110140
v 1.149755 0.010000 0.161836
v 0.909901 0.010000 0.153460
v 1.149755 0.190000 0.161836
v 0.909901 0.190000 0.153460
v 1.105401 0.010000 0.400433
v 0.937503 0.010000 0.394570
v 1.105401 0.190000 0.400433
v 0.937503 0.190000 0.394570
v 1.603762 0.010000 -0.215472
v 1.476581 0.010000 -0.011941
v 1.603762 0.190000 -0.215472
v 1.476581 0.190000 -0.011941
v 1.788217 0.010000 -0.057762
v 1.699190 0.010000 0.084710
v 1.788217 0.190000 -0.057762
v 1.699190 0.190000 0.084710
v 0.514117 0.020000 -0.196678
v 0.565196 0.020000 -0.100613
v 1.585883 0.020000 -0.643322
v 1.534804 0.020000 -0.739387
v 0.514117 0.180000 -0.196678
v 0.565196 0.180000 -0.100613
v 1.585883 0.180000 -0.643322
v 1.534804 0.180000 -0.739387
v 0.975461 0.020000 0.155749
v 1.084195 0.020000 0.159546
v 1.124539 0.020000 -0.995749
v 1.015805 0.020000 -0.999546
v 0.975461 0.180000 0.155749
v 1.084195 0.180000 0.159546
v 1.124539 0.180000 -0.995749
v 1.015805 0.180000 -0.999546
v 1.511344 0.020000 -0.067573
v 1.568999 0.020000 -0.159840
v 0.588656 0.020000 -0.772427
v 0.531001 0.020000 -0.680160
v 1.511344 0.180000 -0.067573
v 1.568999 0.180000 -0.159840
v 0.588656 0.180000 -0.772427
v 0.531001 0.180000 -0.680160
v -0.437724 0.205000 0.376518
v -0.481206 0.205000 0.301206
v -0.556518 0.205000 0.257724
v -0.643482 0.205000 0.257724
v -0.718794 0.205000 0.301206
v -0.762276 0.205000 0.376518
v -0.762276 0.205000 0.463482
v -0.718794 0.205000 0.538794
v -0.643482 0.205000 0.582276
v -0.556518 0.205000 0.582276
v -0.481206 0.205000 0.538794
v -0.437724 0.205000 0.463482
v -0.437724 0.355000 0.376518
v -0.481206 0.355000 0.301206
v -0.556518 0.355000 0.257724
v -0.643482 0.355000 0.257724
v -0.718794 0.355000 0.301206
v -0.762276 0.355000 0.376518
v -0.762276 0.355000 0.463482
v -0.718794 0.355000 0.538794
v -0.643482 0.355000 0.582276
v -0.556518 0.355000 0.582276
v -0.481206 0.355000 0.538794
v -0.437724 0.355000 0.463482
v -0.255164 0.205000 0.327602
v -0.347563 0.205000 0.167563
v -0.507602 0.205000 0.075164
v -0.692398 0.205000 0.075164
v -0.852437 0.205000 0.167563
v -0.944836 0.205000 0.327602
v -0.944836 0.205000 0.512398
v -0.852437 0.205000 0.672437
v -0.692398 0.205000 0.764836
v -0.507602 0.205000 0.764836
v -0.347563 0.205000 0.672437
v -0.255164 0.205000 0.512398
v -0.255164 0.355000 0.327602
v -0.347563 0.355000 0.167563
v -0.507602 0.355000 0.075164
v -0.692398 0.355000 0.075164
v -0.852437 0.355000 0.167563
v -0.944836 0.355000 0.327602
v -0.944836 0.355000 0.512398
v -0.852437 0.355000 0.672437
v -0.692398 0.355000 0.764836
v -0.507602 0.355000 0.764836
v -0.347563 0.355000 0.672437
v -0.255164 0.355000 0.512398
v -0.278458 0.205000 0.240668
v -0.231871 0.205000 0.414535
v -0.278458 0.355000 0.240668
v -0.231871 0.355000 0.414535
v -0.097603 0.205000 0.220161
v -0.064992 0.205000 0.341868
v -0.097603 0.355000 0.220161
v -0.064992 0.355000 0.341868
v -0.594535 0.205000 0.051871
v -0.420668 0.205000 0.098458
v -0.594535 0.355000 0.051871
v -0.420668 0.355000 0.098458
v -0.521868 0.205000 -0.115008
v -0.400161 0.205000 -0.082397
v -0.521868 0.355000 -0.115008
v -0.400161 0.355000 -0.082397
v -0.916077 0.205000 0.231202
v -0.788797 0.205000 0.103923
v -0.916077 0.355000 0.231202
v -0.788797 0.355000 0.103923
v -1.024264 0.205000 0.084831
v -0.935169 0.205000 -0.004264
v -1.024264 0.355000 0.084831
v -0.935169 0.355000 -0.004264
v -0.921542 0.205000 0.599332
v -0.968129 0.205000 0.425465
v -0.921542 0.355000 0.599332
v -0.968129 0.355000 0.425465
v -1.102397 0.205000 0.619839
v -1.135008 0.205000 0.498132
v -1.102397 0.355000 0.619839
v -1.135008 0.355000 0.498132
v -0.605465 0.205000 0.788129
v -0.779332 0.205000 0.741542
v -0.605465 0.355000 0.788129
v -0.779332 0.355000 0.741542
v -0.678132 0.205000 0.955008
v -0.799839 0.205000 0.922397
v -0.678132 0.355000 0.955008
v -0.799839 0.355000 0.922397
v -0.283923 0.205000 0.608797
v -0.411202 0.205000 0.736077
v -0.283923 0.355000 0.608797
v -0.411202 0.355000 0.736077
v -0.175736 0.205000 0.755169
v -0.264831 0.205000 0.844264
v -0.175736 0.355000 0.755169
v -0.264831 0.355000 0.844264
v -0.953532 0.215000 0.479943
v -0.936139 0.215000 0.544854
v -0.246468 0.215000 0.360057
v -0.263861 0.215000 0.295146
v -0.953532 0.345000 0.479943
v -0.936139 0.345000 0.544854
v -0.246468 0.345000 0.360057
v -0.263861 0.345000 0.295146
v -0.724854 0.215000 0.756139
v -0.659943 0.215000 0.773532
v -0.475147 0.215000 0.083861
v -0.540057 0.215000 0.066468
v -0.724854 0.345000 0.756139
v -0.659943 0.345000 0.773532
v -0.475147 0.345000 0.083861
v -0.540057 0.345000 0.066468
v -0.371322 0.215000 0.696196
v -0.323804 0.215000 0.648678
v -0.828678 0.215000 0.143804
v -0.876196 0.215000 0.191322
v -0.371322 0.345000 0.696196
v -0.323804 0.345000 0.648678
v -0.828678 0.345000 0.143804
v -0.876196 0.345000 0.191322
v -0.470000 0.000000 0.320000
v -0.230000 0.000000 0.320000
v -0.230000 0.000000 0.080000
v -0.470000 0.000000 0.080000
v -0.470000 0.380000 0.320000
v -0.230000 0.380000 0.320000
v -0.230000 0.380000 0.080000
v -0.470000 0.380000 0.080000
v 0.950000 0.000000 -0.320000
v 1.150000 0.000000 -0.320000
v 1.150000 0.000000 -0.520000
v 0.950000 0.000000 -0.520000
v 0.950000 0.320000 -0.320000
v 1.150000 0.320000 -0.320000
v 1.150000 0.320000 -0.520000
v 0.950000 0.320000 -0.520000
v -0.700000 0.200000 0.520000
v -0.500000 0.200000 0.520000
v -0.500000 0.200000 0.320000
v -0.700000 0.200000 0.320000
v -0.700000 0.460000 0.520000
v -0.500000 0.460000 0.520000
v -0.500000 0.460000 0.320000
v -0.700000 0.460000 0.320000
vn 0.9808 -0.0000 -0.1951
vn -0.9808 -0.0000 0.1951
vn -0.0000 1.0000 -0.0000
vn -0.0000 -1.0000 -0.0000
vn 0.8315 -0.0000 -0.5556
vn -0.8315 -0.0000 0.5556
vn 0.5556 -0.0000 -0.8315
vn -0.5556 -0.0000 0.8315
vn 0.1951 -0.0000 -0.9808
vn -0.1951 -0.0000 0.9808
vn -0.1951 -0.0000 -0.9808
vn 0.1951 -0.0000 0.9808
vn -0.5556 -0.0000 -0.8315
vn 0.5556 -0.0000 0.8315
vn -0.8315 -0.0000 -0.5556
vn 0.8315 -0.0000 0.5556
vn -0.9808 -0.0000 -0.1951
vn 0.9808 -0.0000 0.1951
vn -1.0000 -0.0000 -0.0000
vn -0.1386 -0.0000 0.9903
vn -0.1386 -0.0000 -0.9903
vn -0.7071 -0.0000 0.7071
vn 0.6022 -0.0000 0.7983
vn -0.7983 -0.0000 -0.6022
vn -0.0000 -0.0000 1.0000
vn 0.9903 -0.0000 0.1386
vn -0.9903 -0.0000 0.1386
vn 0.7071 -0.0000 0.7071
vn 0.7983 -0.0000 -0.6022
vn -0.6022 -0.0000 0.7983
vn 1.0000 -0.0000 -0.0000
vn 0.1386 -0.0000 -0.9903
vn 0.1386 -0.0000 0.9903
vn 0.7071 -0.0000 -0.7071
vn -0.6022 -0.0000 -0.7983
vn 0.7983 -0.0000 0.6022
vn -0.0000 -0.0000 -1.0000
vn -0.9903 -0.0000 -0.1386
vn 0.9903 -0.0000 -0.1386
vn -0.7071 -0.0000 -0.7071
vn -0.7983 -0.0000 0.6022
vn 0.6022 -0.0000 -0.7983
vn 0.7314 -0.0000 -0.6820
vn -0.7314 -0.0000 0.6820
vn 0.2924 -0.0000 -0.9563
vn -0.2924 -0.0000 0.9563
vn -0.2250 -0.0000 -0.9744
vn 0.2250 -0.0000 0.9744
vn -0.6820 -0.0000 -0.7314
vn 0.6820 -0.0000 0.7314
vn -0.9563 -0.0000 -0.2924
vn 0.9563 -0.0000 0.2924
vn -0.9744 -0.0000 0.2250
vn 0.9744 -0.0000 -0.2250
vn -0.8829 -0.0000 0.4695
vn 0.3333 -0.0000 0.9428
vn -0.5953 -0.0000 -0.8035
vn -0.0349 -0.0000 0.9994
vn 0.9832 -0.0000 0.1828
vn -0.9935 -0.0000 0.1137
vn 0.8480 -0.0000 0.5299
vn 0.6499 -0.0000 -0.7601
vn -0.3983 -0.0000 0.9173
vn 0.8829 -0.0000 -0.4695
vn -0.3333 -0.0000 -0.9428
vn 0.5953 -0.0000 0.8035
vn 0.0349 -0.0000 -0.9994
vn -0.9832 -0.0000 -0.1828
vn 0.9935 -0.0000 -0.1137
vn -0.8480 -0.0000 -0.5299
vn -0.6499 -0.0000 0.7601
vn 0.3983 -0.0000 -0.9173
vn 0.4695 -0.0000 0.8829
vn 0.9994 -0.0000 0.0349
vn 0.5299 -0.0000 -0.8480
vn 0.8660 -0.0000 -0.5000
vn -0.8660 -0.0000 0.5000
vn 0.5000 -0.0000 -0.8660
vn -0.5000 -0.0000 0.8660
vn -0.5000 -0.0000 -0.8660
vn 0.5000 -0.0000 0.8660
vn -0.8660 -0.0000 -0.5000
vn 0.8660 -0.0000 0.5000
vn -0.9659 -0.0000 0.2588
vn 0.1127 -0.0000 0.9936
vn -0.3992 -0.0000 -0.9168
vn -0.2588 -0.0000 0.9659
vn 0.9168 -0.0000 0.3992
vn -0.9936 -0.0000 -0.1127
vn 0.8042 -0.0000 -0.5944
vn -0.5944 -0.0000 0.8042
vn 0.9659 -0.0000 -0.2588
vn -0.1127 -0.0000 -0.9936
vn 0.3992 -0.0000 0.9168
vn 0.2588 -0.0000 -0.9659
vn -0.9168 -0.0000 -0.3992
vn 0.9936 -0.0000 0.1127
vn -0.8042 -0.0000 0.5944
vn 0.5944 -0.0000 -0.8042
vn 0.2588 -0.0000 0.9659
vn 0.9659 -0.0000 0.2588
vt 0.812500 0.312500
vt 0.437500 0.562500
vt 0.187500 0.812500
vt 0.687500 0.812500
vt 0.812500 0.812500
vt 0.000000 0.000000
s 0
usemtl GamePalette
f 34/1/1 49/1/1 33/1/1
f 1/1/2 18/1/2 2/1/2
f 17/1/3 50/1/3 18/1/3
f 34/1/4 1/1/4 2/1/4
f 35/1/5 50/1/5 34/1/5
f 2/1/6 19/1/6 3/1/6
f 50/1/3 19/1/3 18/1/3
f 35/1/4 2/1/4 3/1/4
f 36/1/7 51/1/7 35/1/7
f 3/1/8 20/1/8 4/1/8
f 51/1/3 20/1/3 19/1/3
f 36/1/4 3/1/4 4/1/4
f 37/1/9 52/1/9 36/1/9
f 4/1/10 21/1/10 5/1/10
f 52/1/3 21/1/3 20/1/3
f 37/1/4 4/1/4 5/1/4
f 38/1/11 53/1/11 37/1/11
f 5/1/12 22/1/12 6/1/12
f 21/1/3 54/1/3 22/1/3
f 38/1/4 5/1/4 6/1/4
f 39/1/13 54/1/13 38/1/13
f 6/1/14 23/1/14 7/1/14
f 54/1/3 23/1/3 22/1/3
f 39/1/4 6/1/4 7/1/4
f 40/1/15 55/1/15 39/1/15
f 7/1/16 24/1/16 8/1/16
f 55/1/3 24/1/3 23/1/3
f 8/1/4 39/1/4 7/1/4
f 41/1/17 56/1/17 40/1/17
f 8/1/18 25/1/18 9/1/18
f 56/1/3 25/1/3 24/1/3
f 9/1/4 40/1/4 8/1/4
f 42/1/2 57/1/2 41/1/2
f 9/1/1 26/1/1 10/1/1
f 25/1/3 58/1/3 26/1/3
f 42/1/4 9/1/4 10/1/4
f 43/1/6 58/1/6 42/1/6
f 10/1/5 27/1/5 11/1/5
f 58/1/3 27/1/3 26/1/3
f 43/1/4 10/1/4 11/1/4
f 44/1/8 59/1/8 43/1/8
f 11/1/7 28/1/7 12/1/7
f 59/1/3 28/1/3 27/1/3
f 44/1/4 11/1/4 12/1/4
f 45/1/10 60/1/10 44/1/10
f 12/1/9 29/1/9 13/1/9
f 60/1/3 29/1/3 28/1/3
f 13/1/4 44/1/4 12/1/4
f 46/1/12 61/1/12 45/1/12
f 13/1/11 30/1/11 14/1/11
f 29/1/3 62/1/3 30/1/3
f 46/1/4 13/1/4 14/1/4
f 47/1/14 62/1/14 46/1/14
f 14/1/13 31/1/13 15/1/13
f 62/1/3 31/1/3 30/1/3
f 47/1/4 14/1/4 15/1/4
f 48/1/16 63/1/16 47/1/16
f 15/1/15 32/1/15 16/1/15
f 63/1/3 32/1/3 31/1/3
f 48/1/4 15/1/4 16/1/4
f 33/1/18 64/1/18 48/1/18
f 16/1/17 17/1/17 1/1/17
f 64/1/3 17/1/3 32/1/3
f 1/1/4 48/1/4 16/1/4
f 70/1/19 71/1/19 69/1/19
f 69/1/20 67/1/20 65/1/20
f 66/1/21 72/1/21 70/1/21
f 71/1/4 68/1/4 67/1/4
f 65/1/3 70/1/3 69/1/3
f 78/1/22 79/1/22 77/1/22
f 77/1/23 75/1/23 73/1/23
f 74/1/24 80/1/24 78/1/24
f 75/1/4 80/1/4 76/1/4
f 73/1/3 78/1/3 77/1/3
f 86/1/25 87/1/25 85/1/25
f 85/1/26 83/1/26 81/1/26
f 82/1/27 88/1/27 86/1/27
f 87/1/4 84/1/4 83/1/4
f 81/1/3 86/1/3 85/1/3
f 94/1/28 95/1/28 93/1/28
f 93/1/29 91/1/29 89/1/29
f 90/1/30 96/1/30 94/1/30
f 91/1/4 96/1/4 92/1/4
f 89/1/3 94/1/3 93/1/3
f 102/1/31 103/1/31 101/1/31
f 101/1/32 99/1/32 97/1/32
f 98/1/33 104/1/33 102/1/33
f 103/1/4 100/1/4 99/1/4
f 97/1/3 102/1/3 101/1/3
f 110/1/34 111/1/34 109/1/34
f 109/1/35 107/1/35 105/1/35
f 106/1/36 112/1/36 110/1/36
f 107/1/4 112/1/4 108/1/4
f 105/1/3 110/1/3 109/1/3
f 118/1/37 119/1/37 117/1/37
f 117/1/38 115/1/38 113/1/38
f 114/1/39 120/1/39 118/1/39
f 119/1/4 116/1/4 115/1/4
f 113/1/3 118/1/3 117/1/3
f 126/1/40 127/1/40 125/1/40
f 125/1/41 123/1/41 121/1/41
f 122/1/42 128/1/42 126/1/42
f 127/1/4 124/1/4 123/1/4
f 125/1/3 122/1/3 126/1/3
f 136/2/4 134/2/4 133/2/4
f 130/2/3 132/2/3 129/2/3
f 132/2/25 133/2/25 129/2/25
f 131/2/25 134/2/25 130/2/25
f 144/2/4 142/2/4 141/2/4
f 137/2/3 139/2/3 140/2/3
f 140/2/28 141/2/28 137/2/28
f 139/2/28 142/2/28 138/2/28
f 152/2/4 150/2/4 149/2/4
f 146/2/3 148/2/3 145/2/3
f 148/2/31 149/2/31 145/2/31
f 147/2/31 150/2/31 146/2/31
f 160/2/4 158/2/4 157/2/4
f 153/2/3 155/2/3 156/2/3
f 156/2/34 157/2/34 153/2/34
f 155/2/34 158/2/34 154/2/34
f 186/3/43 197/3/43 185/3/43
f 161/3/44 174/3/44 162/3/44
f 197/3/3 174/3/3 173/3/3
f 186/3/4 161/3/4 162/3/4
f 187/3/45 198/3/45 186/3/45
f 162/3/46 175/3/46 163/3/46
f 198/3/3 175/3/3 174/3/3
f 163/3/4 186/3/4 162/3/4
f 188/3/47 199/3/47 187/3/47
f 163/3/48 176/3/48 164/3/48
f 199/3/3 176/3/3 175/3/3
f 188/3/4 163/3/4 164/3/4
f 189/3/49 200/3/49 188/3/49
f 164/3/50 177/3/50 165/3/50
f 200/3/3 177/3/3 176/3/3
f 189/3/4 164/3/4 165/3/4
f 190/3/51 201/3/51 189/3/51
f 165/3/52 178/3/52 166/3/52
f 201/3/3 178/3/3 177/3/3
f 190/3/4 165/3/4 166/3/4
f 191/3/53 202/3/53 190/3/53
f 166/3/54 179/3/54 167/3/54
f 202/3/3 179/3/3 178/3/3
f 191/3/4 166/3/4 167/3/4
f 192/3/44 203/3/44 191/3/44
f 167/3/43 180/3/43 168/3/43
f 179/3/3 204/3/3 180/3/3
f 192/3/4 167/3/4 168/3/4
f 193/3/46 204/3/46 192/3/46
f 168/3/45 181/3/45 169/3/45
f 204/3/3 181/3/3 180/3/3
f 169/3/4 192/3/4 168/3/4
f 194/3/48 205/3/48 193/3/48
f 169/3/47 182/3/47 170/3/47
f 181/3/3 206/3/3 182/3/3
f 194/3/4 169/3/4 170/3/4
f 195/3/50 206/3/50 194/3/50
f 170/3/49 183/3/49 171/3/49
f 206/3/3 183/3/3 182/3/3
f 195/3/4 170/3/4 171/3/4
f 196/3/52 207/3/52 195/3/52
f 171/3/51 184/3/51 172/3/51
f 207/3/3 184/3/3 183/3/3
f 196/3/4 171/3/4 172/3/4
f 185/3/54 208/3/54 196/3/54
f 172/3/53 173/3/53 161/3/53
f 184/3/3 197/3/3 173/3/3
f 185/3/4 172/3/4 161/3/4
f 214/3/55 215/3/55 213/3/55
f 213/3/56 211/3/56 209/3/56
f 210/3/57 216/3/57 214/3/57
f 215/3/4 212/3/4 211/3/4
f 209/3/3 214/3/3 213/3/3
f 222/3/58 223/3/58 221/3/58
f 221/3/59 219/3/59 217/3/59
f 218/3/60 224/3/60 222/3/60
f 223/3/4 220/3/4 219/3/4
f 217/3/3 222/3/3 221/3/3
f 230/3/61 231/3/61 229/3/61
f 229/3/62 227/3/62 225/3/62
f 226/3/63 232/3/63 230/3/63
f 231/3/4 228/3/4 227/3/4
f 225/3/3 230/3/3 229/3/3
f 238/3/64 239/3/64 237/3/64
f 237/3/65 235/3/65 233/3/65
f 234/3/66 240/3/66 238/3/66
f 235/3/4 240/3/4 236/3/4
f 233/3/3 238/3/3 237/3/3
f 246/3/67 247/3/67 245/3/67
f 245/3/68 243/3/68 241/3/68
f 242/3/69 248/3/69 246/3/69
f 247/3/4 244/3/4 243/3/4
f 245/3/3 242/3/3 246/3/3
f 254/3/70 255/3/70 253/3/70
f 253/3/71 251/3/71 249/3/71
f 250/3/72 256/3/72 254/3/72
f 251/3/4 256/3/4 252/3/4
f 249/3/3 254/3/3 253/3/3
f 261/4/4 263/4/4 262/4/4
f 257/4/3 259/4/3 260/4/3
f 260/4/73 261/4/73 257/4/73
f 259/4/73 262/4/73 258/4/73
f 272/4/4 270/4/4 269/4/4
f 266/4/3 268/4/3 265/4/3
f 268/4/74 269/4/74 265/4/74
f 267/4/74 270/4/74 266/4/74
f 280/4/4 278/4/4 277/4/4
f 274/4/3 276/4/3 273/4/3
f 276/4/75 277/4/75 273/4/75
f 275/4/75 278/4/75 274/4/75
f 306/5/76 317/5/76 305/5/76
f 281/5/77 294/5/77 282/5/77
f 317/5/3 294/5/3 293/5/3
f 306/5/4 281/5/4 282/5/4
f 307/5/78 318/5/78 306/5/78
f 282/5/79 295/5/79 283/5/79
f 318/5/3 295/5/3 294/5/3
f 283/5/4 306/5/4 282/5/4
f 308/5/37 319/5/37 307/5/37
f 283/5/25 296/5/25 284/5/25
f 295/5/3 320/5/3 296/5/3
f 284/5/4 307/5/4 283/5/4
f 309/5/80 320/5/80 308/5/80
f 284/5/81 297/5/81 285/5/81
f 296/5/3 321/5/3 297/5/3
f 309/5/4 284/5/4 285/5/4
f 310/5/82 321/5/82 309/5/82
f 285/5/83 298/5/83 286/5/83
f 321/5/3 298/5/3 297/5/3
f 286/5/4 309/5/4 285/5/4
f 311/5/19 322/5/19 310/5/19
f 286/5/31 299/5/31 287/5/31
f 322/5/3 299/5/3 298/5/3
f 311/5/4 286/5/4 287/5/4
f 312/5/77 323/5/77 311/5/77
f 287/5/76 300/5/76 288/5/76
f 299/5/3 324/5/3 300/5/3
f 312/5/4 287/5/4 288/5/4
f 313/5/79 324/5/79 312/5/79
f 288/5/78 301/5/78 289/5/78
f 324/5/3 301/5/3 300/5/3
f 313/5/4 288/5/4 289/5/4
f 314/5/25 325/5/25 313/5/25
f 289/5/37 302/5/37 290/5/37
f 325/5/3 302/5/3 301/5/3
f 314/5/4 289/5/4 290/5/4
f 315/5/81 326/5/81 314/5/81
f 290/5/80 303/5/80 291/5/80
f 326/5/3 303/5/3 302/5/3
f 315/5/4 290/5/4 291/5/4
f 316/5/83 327/5/83 315/5/83
f 291/5/82 304/5/82 292/5/82
f 327/5/3 304/5/3 303/5/3
f 316/5/4 291/5/4 292/5/4
f 305/5/31 328/5/31 316/5/31
f 292/5/19 293/5/19 281/5/19
f 328/5/3 293/5/3 304/5/3
f 305/5/4 292/5/4 281/5/4
f 334/5/84 335/5/84 333/5/84
f 333/5/85 331/5/85 329/5/85
f 330/5/86 336/5/86 334/5/86
f 335/5/4 332/5/4 331/5/4
f 329/5/3 334/5/3 333/5/3
f 342/5/87 343/5/87 341/5/87
f 341/5/88 339/5/88 337/5/88
f 338/5/89 344/5/89 342/5/89
f 343/5/4 340/5/4 339/5/4
f 337/5/3 342/5/3 341/5/3
f 350/5/28 351/5/28 349/5/28
f 349/5/90 347/5/90 345/5/90
f 346/5/91 352/5/91 350/5/91
f 347/5/4 352/5/4 348/5/4
f 345/5/3 350/5/3 349/5/3
f 358/5/92 359/5/92 357/5/92
f 357/5/93 355/5/93 353/5/93
f 354/5/94 360/5/94 358/5/94
f 359/5/4 356/5/4 355/5/4
f 353/5/3 358/5/3 357/5/3
f 366/5/95 367/5/95 365/5/95
f 365/5/96 363/5/96 361/5/96
f 362/5/97 368/5/97 366/5/97
f 363/5/4 368/5/4 364/5/4
f 361/5/3 366/5/3 365/5/3
f 374/5/40 375/5/40 373/5/40
f 373/5/98 371/5/98 369/5/98
f 370/5/99 376/5/99 374/5/99
f 375/5/4 372/5/4 371/5/4
f 373/5/3 370/5/3 374/5/3
f 381/6/4 383/6/4 382/6/4
f 378/6/3 380/6/3 377/6/3
f 380/6/100 381/6/100 377/6/100
f 379/6/100 382/6/100 378/6/100
f 392/6/4 390/6/4 389/6/4
f 386/6/3 388/6/3 385/6/3
f 388/6/101 389/6/101 385/6/101
f 387/6/101 390/6/101 386/6/101
f 397/6/4 399/6/4 398/6/4
f 394/6/3 396/6/3 393/6/3
f 396/6/34 397/6/34 393/6/34
f 395/6/34 398/6/34 394/6/34
f 402/5/3 404/5/3 401/5/3
f 408/5/4 406/5/4 405/5/4
f 405/5/37 402/5/37 401/5/37
f 407/5/25 404/5/25 403/5/25
f 408/5/31 401/5/31 404/5/31
f 406/5/19 403/5/19 402/5/19
f 410/5/3 412/5/3 409/5/3
f 416/5/4 414/5/4 413/5/4
f 413/5/37 410/5/37 409/5/37
f 415/5/25 412/5/25 411/5/25
f 416/5/31 409/5/31 412/5/31
f 414/5/19 411/5/19 410/5/19
f 418/3/3 420/3/3 417/3/3
f 424/3/4 422/3/4 421/3/4
f 421/3/37 418/3/37 417/3/37
f 423/3/25 420/3/25 419/3/25
f 424/3/31 417/3/31 420/3/31
f 422/3/19 419/3/19 418/3/19
f 34/1/1 50/1/1 49/1/1
f 1/1/2 17/1/2 18/1/2
f 17/1/3 49/1/3 50/1/3
f 34/1/4 33/1/4 1/1/4
f 35/1/5 51/1/5 50/1/5
f 2/1/6 18/1/6 19/1/6
f 50/1/3 51/1/3 19/1/3
f 35/1/4 34/1/4 2/1/4
f 36/1/7 52/1/7 51/1/7
f 3/1/8 19/1/8 20/1/8
f 51/1/3 52/1/3 20/1/3
f 36/1/4 35/1/4 3/1/4
f 37/1/9 53/1/9 52/1/9
f 4/1/10 20/1/10 21/1/10
f 52/1/3 53/1/3 21/1/3
f 37/1/4 36/1/4 4/1/4
f 38/1/11 54/1/11 53/1/11
f 5/1/12 21/1/12 22/1/12
f 21/1/3 53/1/3 54/1/3
f 38/1/4 37/1/4 5/1/4
f 39/1/13 55/1/13 54/1/13
f 6/1/14 22/1/14 23/1/14
f 54/1/3 55/1/3 23/1/3
f 39/1/4 38/1/4 6/1/4
f 40/1/15 56/1/15 55/1/15
f 7/1/16 23/1/16 24/1/16
f 55/1/3 56/1/3 24/1/3
f 8/1/4 40/1/4 39/1/4
f 41/1/17 57/1/17 56/1/17
f 8/1/18 24/1/18 25/1/18
f 56/1/3 57/1/3 25/1/3
f 9/1/4 41/1/4 40/1/4
f 42/1/2 58/1/2 57/1/2
f 9/1/1 25/1/1 26/1/1
f 25/1/3 57/1/3 58/1/3
f 42/1/4 41/1/4 9/1/4
f 43/1/6 59/1/6 58/1/6
f 10/1/5 26/1/5 27/1/5
f 58/1/3 59/1/3 27/1/3
f 43/1/4 42/1/4 10/1/4
f 44/1/8 60/1/8 59/1/8
f 11/1/7 27/1/7 28/1/7
f 59/1/3 60/1/3 28/1/3
f 44/1/4 43/1/4 11/1/4
f 45/1/10 61/1/10 60/1/10
f 12/1/9 28/1/9 29/1/9
f 60/1/3 61/1/3 29/1/3
f 13/1/4 45/1/4 44/1/4
f 46/1/12 62/1/12 61/1/12
f 13/1/11 29/1/11 30/1/11
f 29/1/3 61/1/3 62/1/3
f 46/1/4 45/1/4 13/1/4
f 47/1/14 63/1/14 62/1/14
f 14/1/13 30/1/13 31/1/13
f 62/1/3 63/1/3 31/1/3
f 47/1/4 46/1/4 14/1/4
f 48/1/16 64/1/16 63/1/16
f 15/1/15 31/1/15 32/1/15
f 63/1/3 64/1/3 32/1/3
f 48/1/4 47/1/4 15/1/4
f 33/1/18 49/1/18 64/1/18
f 16/1/17 32/1/17 17/1/17
f 64/1/3 49/1/3 17/1/3
f 1/1/4 33/1/4 48/1/4
f 70/1/19 72/1/19 71/1/19
f 69/1/20 71/1/20 67/1/20
f 66/1/21 68/1/21 72/1/21
f 71/1/4 72/1/4 68/1/4
f 65/1/3 66/1/3 70/1/3
f 78/1/22 80/1/22 79/1/22
f 77/1/23 79/1/23 75/1/23
f 74/1/24 76/1/24 80/1/24
f 75/1/4 79/1/4 80/1/4
f 73/1/3 74/1/3 78/1/3
f 86/1/25 88/1/25 87/1/25
f 85/1/26 87/1/26 83/1/26
f 82/1/27 84/1/27 88/1/27
f 87/1/4 88/1/4 84/1/4
f 81/1/3 82/1/3 86/1/3
f 94/1/28 96/1/28 95/1/28
f 93/1/29 95/1/29 91/1/29
f 90/1/30 92/1/30 96/1/30
f 91/1/4 95/1/4 96/1/4
f 89/1/3 90/1/3 94/1/3
f 102/1/31 104/1/31 103/1/31
f 101/1/32 103/1/32 99/1/32
f 98/1/33 100/1/33 104/1/33
f 103/1/4 104/1/4 100/1/4
f 97/1/3 98/1/3 102/1/3
f 110/1/34 112/1/34 111/1/34
f 109/1/35 111/1/35 107/1/35
f 106/1/36 108/1/36 112/1/36
f 107/1/4 111/1/4 112/1/4
f 105/1/3 106/1/3 110/1/3
f 118/1/37 120/1/37 119/1/37
f 117/1/38 119/1/38 115/1/38
f 114/1/39 116/1/39 120/1/39
f 119/1/4 120/1/4 116/1/4
f 113/1/3 114/1/3 118/1/3
f 126/1/40 128/1/40 127/1/40
f 125/1/41 127/1/41 123/1/41
f 122/1/42 124/1/42 128/1/42
f 127/1/4 128/1/4 124/1/4
f 125/1/3 121/1/3 122/1/3
f 136/2/4 135/2/4 134/2/4
f 130/2/3 131/2/3 132/2/3
f 132/2/25 136/2/25 133/2/25
f 131/2/25 135/2/25 134/2/25
f 144/2/4 143/2/4 142/2/4
f 137/2/3 138/2/3 139/2/3
f 140/2/28 144/2/28 141/2/28
f 139/2/28 143/2/28 142/2/28
f 152/2/4 151/2/4 150/2/4
f 146/2/3 147/2/3 148/2/3
f 148/2/31 152/2/31 149/2/31
f 147/2/31 151/2/31 150/2/31
f 160/2/4 159/2/4 158/2/4
f 153/2/3 154/2/3 155/2/3
f 156/2/34 160/2/34 157/2/34
f 155/2/34 159/2/34 158/2/34
f 186/3/43 198/3/43 197/3/43
f 161/3/44 173/3/44 174/3/44
f 197/3/3 198/3/3 174/3/3
f 186/3/4 185/3/4 161/3/4
f 187/3/45 199/3/45 198/3/45
f 162/3/46 174/3/46 175/3/46
f 198/3/3 199/3/3 175/3/3
f 163/3/4 187/3/4 186/3/4
f 188/3/47 200/3/47 199/3/47
f 163/3/48 175/3/48 176/3/48
f 199/3/3 200/3/3 176/3/3
f 188/3/4 187/3/4 163/3/4
f 189/3/49 201/3/49 200/3/49
f 164/3/50 176/3/50 177/3/50
f 200/3/3 201/3/3 177/3/3
f 189/3/4 188/3/4 164/3/4
f 190/3/51 202/3/51 201/3/51
f 165/3/52 177/3/52 178/3/52
f 201/3/3 202/3/3 178/3/3
f 190/3/4 189/3/4 165/3/4
f 191/3/53 203/3/53 202/3/53
f 166/3/54 178/3/54 179/3/54
f 202/3/3 203/3/3 179/3/3
f 191/3/4 190/3/4 166/3/4
f 192/3/44 204/3/44 203/3/44
f 167/3/43 179/3/43 180/3/43
f 179/3/3 203/3/3 204/3/3
f 192/3/4 191/3/4 167/3/4
f 193/3/46 205/3/46 204/3/46
f 168/3/45 180/3/45 181/3/45
f 204/3/3 205/3/3 181/3/3
f 169/3/4 193/3/4 192/3/4
f 194/3/48 206/3/48 205/3/48
f 169/3/47 181/3/47 182/3/47
f 181/3/3 205/3/3 206/3/3
f 194/3/4 193/3/4 169/3/4
f 195/3/50 207/3/50 206/3/50
f 170/3/49 182/3/49 183/3/49
f 206/3/3 207/3/3 183/3/3
f 195/3/4 194/3/4 170/3/4
f 196/3/52 208/3/52 207/3/52
f 171/3/51 183/3/51 184/3/51
f 207/3/3 208/3/3 184/3/3
f 196/3/4 195/3/4 171/3/4
f 185/3/54 197/3/54 208/3/54
f 172/3/53 184/3/53 173/3/53
f 184/3/3 208/3/3 197/3/3
f 185/3/4 196/3/4 172/3/4
f 214/3/55 216/3/55 215/3/55
f 213/3/56 215/3/56 211/3/56
f 210/3/57 212/3/57 216/3/57
f 215/3/4 216/3/4 212/3/4
f 209/3/3 210/3/3 214/3/3
f 222/3/58 224/3/58 223/3/58
f 221/3/59 223/3/59 219/3/59
f 218/3/60 220/3/60 224/3/60
f 223/3/4 224/3/4 220/3/4
f 217/3/3 218/3/3 222/3/3
f 230/3/61 232/3/61 231/3/61
f 229/3/62 231/3/62 227/3/62
f 226/3/63 228/3/63 232/3/63
f 231/3/4 232/3/4 228/3/4
f 225/3/3 226/3/3 230/3/3
f 238/3/64 240/3/64 239/3/64
f 237/3/65 239/3/65 235/3/65
f 234/3/66 236/3/66 240/3/66
f 235/3/4 239/3/4 240/3/4
f 233/3/3 234/3/3 238/3/3
f 246/3/67 248/3/67 247/3/67
f 245/3/68 247/3/68 243/3/68
f 242/3/69 244/3/69 248/3/69
f 247/3/4 248/3/4 244/3/4
f 245/3/3 241/3/3 242/3/3
f 254/3/70 256/3/70 255/3/70
f 253/3/71 255/3/71 251/3/71
f 250/3/72 252/3/72 256/3/72
f 251/3/4 255/3/4 256/3/4
f 249/3/3 250/3/3 254/3/3
f 261/4/4 264/4/4 263/4/4
f 257/4/3 258/4/3 259/4/3
f 260/4/73 264/4/73 261/4/73
f 259/4/73 263/4/73 262/4/73
f 272/4/4 271/4/4 270/4/4
f 266/4/3 267/4/3 268/4/3
f 268/4/74 272/4/74 269/4/74
f 267/4/74 271/4/74 270/4/74
f 280/4/4 279/4/4 278/4/4
f 274/4/3 275/4/3 276/4/3
f 276/4/75 280/4/75 277/4/75
f 275/4/75 279/4/75 278/4/75
f 306/5/76 318/5/76 317/5/76
f 281/5/77 293/5/77 294/5/77
f 317/5/3 318/5/3 294/5/3
f 306/5/4 305/5/4 281/5/4
f 307/5/78 319/5/78 318/5/78
f 282/5/79 294/5/79 295/5/79
f 318/5/3 319/5/3 295/5/3
f 283/5/4 307/5/4 306/5/4
f 308/5/37 320/5/37 319/5/37
f 283/5/25 295/5/25 296/5/25
f 295/5/3 319/5/3 320/5/3
f 284/5/4 308/5/4 307/5/4
f 309/5/80 321/5/80 320/5/80
f 284/5/81 296/5/81 297/5/81
f 296/5/3 320/5/3 321/5/3
f 309/5/4 308/5/4 284/5/4
f 310/5/82 322/5/82 321/5/82
f 285/5/83 297/5/83 298/5/83
f 321/5/3 322/5/3 298/5/3
f 286/5/4 310/5/4 309/5/4
f 311/5/19 323/5/19 322/5/19
f 286/5/31 298/5/31 299/5/31
f 322/5/3 323/5/3 299/5/3
f 311/5/4 310/5/4 286/5/4
f 312/5/77 324/5/77 323/5/77
f 287/5/76 299/5/76 300/5/76
f 299/5/3 323/5/3 324/5/3
f 312/5/4 311/5/4 287/5/4
f 313/5/79 325/5/79 324/5/79
f 288/5/78 300/5/78 301/5/78
f 324/5/3 325/5/3 301/5/3
f 313/5/4 312/5/4 288/5/4
f 314/5/25 326/5/25 325/5/25
f 289/5/37 301/5/37 302/5/37
f 325/5/3 326/5/3 302/5/3
f 314/5/4 313/5/4 289/5/4
f 315/5/81 327/5/81 326/5/81
f 290/5/80 302/5/80 303/5/80
f 326/5/3 327/5/3 303/5/3
f 315/5/4 314/5/4 290/5/4
f 316/5/83 328/5/83 327/5/83
f 291/5/82 303/5/82 304/5/82
f 327/5/3 328/5/3 304/5/3
f 316/5/4 315/5/4 291/5/4
f 305/5/31 317/5/31 328/5/31
f 292/5/19 304/5/19 293/5/19
f 328/5/3 317/5/3 293/5/3
f 305/5/4 316/5/4 292/5/4
f 334/5/84 336/5/84 335/5/84
f 333/5/85 335/5/85 331/5/85
f 330/5/86 332/5/86 336/5/86
f 335/5/4 336/5/4 332/5/4
f 329/5/3 330/5/3 334/5/3
f 342/5/87 344/5/87 343/5/87
f 341/5/88 343/5/88 339/5/88
f 338/5/89 340/5/89 344/5/89
f 343/5/4 344/5/4 340/5/4
f 337/5/3 338/5/3 342/5/3
f 350/5/28 352/5/28 351/5/28
f 349/5/90 351/5/90 347/5/90
f 346/5/91 348/5/91 352/5/91
f 347/5/4 351/5/4 352/5/4
f 345/5/3 346/5/3 350/5/3
f 358/5/92 360/5/92 359/5/92
f 357/5/93 359/5/93 355/5/93
f 354/5/94 356/5/94 360/5/94
f 359/5/4 360/5/4 356/5/4
f 353/5/3 354/5/3 358/5/3
f 366/5/95 368/5/95 367/5/95
f 365/5/96 367/5/96 363/5/96
f 362/5/97 364/5/97 368/5/97
f 363/5/4 367/5/4 368/5/4
f 361/5/3 362/5/3 366/5/3
f 374/5/40 376/5/40 375/5/40
f 373/5/98 375/5/98 371/5/98
f 370/5/99 372/5/99 376/5/99
f 375/5/4 376/5/4 372/5/4
f 373/5/3 369/5/3 370/5/3
f 381/6/4 384/6/4 383/6/4
f 378/6/3 379/6/3 380/6/3
f 380/6/100 384/6/100 381/6/100
f 379/6/100 383/6/100 382/6/100
f 392/6/4 391/6/4 390/6/4
f 386/6/3 387/6/3 388/6/3
f 388/6/101 392/6/101 389/6/101
f 387/6/101 391/6/101 390/6/101
f 397/6/4 400/6/4 399/6/4
f 394/6/3 395/6/3 396/6/3
f 396/6/34 400/6/34 397/6/34
f 395/6/34 399/6/34 398/6/34
f 402/5/3 403/5/3 404/5/3
f 408/5/4 407/5/4 406/5/4
f 405/5/37 406/5/37 402/5/37
f 407/5/25 408/5/25 404/5/25
f 408/5/31 405/5/31 401/5/31
f 406/5/19 407/5/19 403/5/19
f 410/5/3 411/5/3 412/5/3
f 416/5/4 415/5/4 414/5/4
f 413/5/37 414/5/37 410/5/37
f 415/5/25 416/5/25 412/5/25
f 416/5/31 413/5/31 409/5/31
f 414/5/19 415/5/19 411/5/19
f 418/3/3 419/3/3 420/3/3
f 424/3/4 423/3/4 422/3/4
f 421/3/37 422/3/37 418/3/37
f 423/3/25 424/3/25 420/3/25
f 424/3/31 421/3/31 417/3/31
f 422/3/19 423/3/19 419/3/19
