# Blender 5.0.1
# www.blender.org
mtllib planks.mtl
o Planks
v -0.800000 0.000000 0.480000
v 0.780000 0.000000 0.480000
v 0.780000 0.000000 0.140000
v -0.800000 0.000000 0.140000
v -0.800000 0.140000 0.480000
v 0.780000 0.140000 0.480000
v 0.780000 0.140000 0.140000
v -0.800000 0.140000 0.140000
v -0.760000 0.000000 -0.140000
v 0.820000 0.000000 -0.140000
v 0.820000 0.000000 -0.480000
v -0.760000 0.000000 -0.480000
v -0.760000 0.140000 -0.140000
v 0.820000 0.140000 -0.140000
v 0.820000 0.140000 -0.480000
v -0.760000 0.140000 -0.480000
v -0.480000 0.140000 0.780000
v -0.140000 0.140000 0.780000
v -0.140000 0.140000 -0.800000
v -0.480000 0.140000 -0.800000
v -0.480000 0.280000 0.780000
v -0.140000 0.280000 0.780000
v -0.140000 0.280000 -0.800000
v -0.480000 0.280000 -0.800000
v 0.140000 0.140000 0.820000
v 0.480000 0.140000 0.820000
v 0.480000 0.140000 -0.760000
v 0.140000 0.140000 -0.760000
v 0.140000 0.280000 0.820000
v 0.480000 0.280000 0.820000
v 0.480000 0.280000 -0.760000
v 0.140000 0.280000 -0.760000
vn -0.0000 1.0000 -0.0000
vn -0.0000 -1.0000 -0.0000
vn -0.0000 -0.0000 -1.0000
vn -0.0000 -0.0000 1.0000
vn 1.0000 -0.0000 -0.0000
vn -1.0000 -0.0000 -0.0000
vt 0.312500 0.687500
vt 0.437500 0.687500
vt 0.187500 0.687500
s 0
usemtl GamePalette
f 2/1/1 4/1/1 1/1/1
f 8/1/2 6/1/2 5/1/2
f 5/1/3 2/1/3 1/1/3
f 7/1/4 4/1/4 3/1/4
f 8/1/5 1/1/5 4/1/5
f 6/1/6 3/1/6 2/1/6
f 10/2/1 12/2/1 9/2/1
f 16/2/2 14/2/2 13/2/2
f 13/2/3 10/2/3 9/2/3
f 15/2/4 12/2/4 11/2/4
f 16/2/5 9/2/5 12/2/5
f 14/2/6 11/2/6 10/2/6
f 18/3/1 20/3/1 17/3/1
f 24/3/2 22/3/2 21/3/2
f 21/3/3 18/3/3 17/3/3
f 23/3/4 20/3/4 19/3/4
f 24/3/5 17/3/5 20/3/5
f 22/3/6 19/3/6 18/3/6
f 26/1/1 28/1/1 25/1/1
f 32/1/2 30/1/2 29/1/2
f 29/1/3 26/1/3 25/1/3
f 31/1/4 28/1/4 27/1/4
f 32/1/5 25/1/5 28/1/5
f 30/1/6 27/1/6 26/1/6
f 2/1/1 3/1/1 4/1/1
f 8/1/2 7/1/2 6/1/2
f 5/1/3 6/1/3 2/1/3
f 7/1/4 8/1/4 4/1/4
f 8/1/5 5/1/5 1/1/5
f 6/1/6 7/1/6 3/1/6
f 10/2/1 11/2/1 12/2/1
f 16/2/2 15/2/2 14/2/2
f 13/2/3 14/2/3 10/2/3
f 15/2/4 16/2/4 12/2/4
f 16/2/5 13/2/5 9/2/5
f 14/2/6 15/2/6 11/2/6
f 18/3/1 19/3/1 20/3/1
f 24/3/2 23/3/2 22/3/2
f 21/3/3 22/3/3 18/3/3
f 23/3/4 24/3/4 20/3/4
f 24/3/5 21/3/5 17/3/5
f 22/3/6 23/3/6 19/3/6
f 26/1/1 27/1/1 28/1/1
f 32/1/2 31/1/2 30/1/2
f 29/1/3 30/1/3 26/1/3
f 31/1/4 32/1/4 28/1/4
f 32/1/5 29/1/5 25/1/5
f 30/1/6 31/1/6 27/1/6
