# Blender 5.0.1
# www.blender.org
mtllib stone.mtl
o Stone
v 0.720000 0.040000 0.000000
v 0.529966 0.040000 -0.564873
v -0.151314 0.040000 -0.563508
v -0.738794 0.040000 -0.302417
v -0.684736 0.040000 0.280289
v -0.195818 0.040000 0.729246
v 0.436443 0.040000 0.465190
v 0.806752 0.450000 -0.129188
v 0.449773 0.450000 -0.736368
v -0.306904 0.450000 -0.631034
v -0.886963 0.450000 -0.215008
v -0.679337 0.450000 0.434778
v -0.043497 0.450000 0.861550
v 0.602710 0.450000 0.462934
v 0.516655 0.780000 -0.154647
v 0.206441 0.780000 -0.505404
v -0.271665 0.780000 -0.344203
v -0.616976 0.780000 -0.050148
v -0.404589 0.780000 0.340776
v 0.085184 0.780000 0.553208
v 0.443964 0.780000 0.222000
v 0.050000 0.950000 0.040000
v 0.050000 1.050000 0.040000
v 0.573017 0.840000 -0.171517
v 0.225497 0.840000 -0.552056
v -0.304265 0.840000 -0.385507
v -0.676684 0.840000 -0.055001
v -0.446443 0.840000 0.376029
v 0.092700 0.840000 0.602020
v 0.495191 0.840000 0.247615
v 0.591805 0.650000 -0.177141
v 0.231849 0.720000 -0.567607
v -0.315132 0.650000 -0.399275
v -0.696586 0.720000 -0.056618
v -0.460395 0.650000 0.387780
v 0.095206 0.720000 0.618291
v 0.512267 0.650000 0.256154
vn -0.0000 -1.0000 -0.0000
vn 0.9076 -0.2882 -0.3053
vn 0.7000 0.5836 -0.4116
vn 0.2508 0.9423 -0.2218
vn -0.0018 -0.3862 -0.9224
vn -0.1187 0.5091 -0.8525
vn -0.1093 0.9396 -0.3242
vn -0.3885 -0.2914 -0.8742
vn -0.4621 0.6094 -0.6443
vn -0.2083 0.9470 -0.2446
vn -0.9309 -0.3548 0.0864
vn -0.8069 0.5314 0.2578
vn -0.2625 0.9543 0.1426
vn -0.6532 -0.2594 0.7113
vn -0.4564 0.5737 0.6801
vn -0.1388 0.9372 0.3200
vn 0.3526 -0.4035 0.8443
vn 0.4521 0.5085 0.7329
vn 0.2648 0.9207 0.2868
vn 0.8076 -0.3248 0.4923
vn 0.7772 0.5694 0.2678
vn 0.3674 0.9274 0.0709
vn 0.2725 0.9294 -0.2489
vn 0.7326 0.1255 -0.6690
vn -0.1138 0.9252 -0.3619
vn -0.2982 0.1071 -0.9485
vn -0.2355 0.9349 -0.2654
vn -0.6590 0.1193 -0.7426
vn -0.2930 0.9432 0.1565
vn -0.8735 0.1386 0.4666
vn -0.1492 0.9225 0.3560
vn -0.3840 0.1162 0.9160
vn 0.2795 0.9062 0.3174
vn 0.6565 0.1148 0.7456
vn 0.3971 0.9148 0.0737
vn 0.9786 0.0961 0.1817
vn 0.8612 -0.0433 -0.5063
vn 0.5254 0.7127 -0.4647
vn -0.1348 -0.2106 -0.9682
vn -0.2425 0.6511 -0.7192
vn -0.5824 -0.0374 -0.8120
vn -0.4793 0.6734 -0.5629
vn -0.9476 -0.1016 0.3028
vn -0.6637 0.6553 0.3606
vn -0.5563 -0.0608 0.8288
vn -0.2796 0.7114 0.6447
vn 0.5140 -0.2039 0.8332
vn 0.5136 0.6532 0.5563
vn 0.9410 -0.0969 0.3243
vn 0.7379 0.6597 0.1424
vn 0.7403 0.0929 -0.6658
vn -0.3031 0.0861 -0.9491
vn -0.6561 0.0918 -0.7491
vn -0.8730 0.0937 0.4787
vn -0.3910 0.0854 0.9164
vn 0.6616 0.0929 0.7440
vn 0.9794 0.0915 0.1798
vn -0.1957 -0.9800 -0.0359
vn 0.2296 -0.9353 -0.2693
vn 0.2487 -0.8567 0.4519
vn -0.1703 -0.9852 -0.0196
vt 0.437500 0.812500
vt 0.312500 0.812500
vt 0.062500 0.937500
vt 0.187500 0.937500
s 0
usemtl GamePalette
f 6/1/1 4/1/1 2/1/1
f 2/1/2 8/1/2 1/1/2
f 9/2/3 15/2/3 8/2/3
f 15/2/4 16/2/4 22/2/4
f 3/1/5 9/1/5 2/1/5
f 10/2/6 16/2/6 9/2/6
f 16/2/7 17/2/7 22/2/7
f 4/1/8 10/1/8 3/1/8
f 11/2/9 17/2/9 10/2/9
f 17/2/10 18/2/10 22/2/10
f 5/1/11 11/1/11 4/1/11
f 12/2/12 18/2/12 11/2/12
f 18/2/13 19/2/13 22/2/13
f 6/1/14 12/1/14 5/1/14
f 13/2/15 19/2/15 12/2/15
f 19/2/16 20/2/16 22/2/16
f 7/1/17 13/1/17 6/1/17
f 14/2/18 20/2/18 13/2/18
f 20/2/19 21/2/19 22/2/19
f 1/1/20 14/1/20 7/1/20
f 8/2/21 21/2/21 14/2/21
f 21/2/22 15/2/22 22/2/22
f 23/3/23 24/3/23 25/3/23
f 24/4/24 32/4/24 25/4/24
f 23/3/25 25/3/25 26/3/25
f 32/4/26 26/4/26 25/4/26
f 23/3/27 26/3/27 27/3/27
f 26/4/28 34/4/28 27/4/28
f 23/3/29 27/3/29 28/3/29
f 34/4/30 28/4/30 27/4/30
f 23/3/31 28/3/31 29/3/31
f 28/4/32 36/4/32 29/4/32
f 23/3/33 29/3/33 30/3/33
f 36/4/34 30/4/34 29/4/34
f 23/3/35 30/3/35 24/3/35
f 37/4/36 24/4/36 30/4/36
f 36/4/1 34/4/1 32/4/1
f 1/1/1 7/1/1 6/1/1
f 6/1/1 5/1/1 4/1/1
f 4/1/1 3/1/1 2/1/1
f 2/1/1 1/1/1 6/1/1
f 2/1/37 9/1/37 8/1/37
f 9/2/38 16/2/38 15/2/38
f 3/1/39 10/1/39 9/1/39
f 10/2/40 17/2/40 16/2/40
f 4/1/41 11/1/41 10/1/41
f 11/2/42 18/2/42 17/2/42
f 5/1/43 12/1/43 11/1/43
f 12/2/44 19/2/44 18/2/44
f 6/1/45 13/1/45 12/1/45
f 13/2/46 20/2/46 19/2/46
f 7/1/47 14/1/47 13/1/47
f 14/2/48 21/2/48 20/2/48
f 1/1/49 8/1/49 14/1/49
f 8/2/50 15/2/50 21/2/50
f 24/4/51 31/4/51 32/4/51
f 32/4/52 33/4/52 26/4/52
f 26/4/53 33/4/53 34/4/53
f 34/4/54 35/4/54 28/4/54
f 28/4/55 35/4/55 36/4/55
f 36/4/56 37/4/56 30/4/56
f 37/4/57 31/4/57 24/4/57
f 31/4/58 37/4/58 36/4/58
f 36/4/59 35/4/59 34/4/59
f 34/4/60 33/4/60 32/4/60
f 32/4/61 31/4/61 36/4/61
