# Blender 5.0.1
# www.blender.org
mtllib stone_boulder.mtl
o Boulder
v 0.000000 0.000000 0.000000
v 0.846822 0.461273 0.508246
v -0.333670 0.475846 0.848349
v -1.075326 0.473879 0.000000
v -0.333670 0.475846 -0.848349
v 0.846822 0.461273 -0.508246
v 0.302022 1.127639 0.767884
v -0.817474 1.165794 0.490632
v -0.817474 1.165794 -0.490632
v 0.302022 1.127639 -0.767884
v 0.981854 1.132796 0.000000
v 0.000000 1.640000 0.000000
v -0.189252 0.111649 0.481169
v 0.495177 0.111582 0.297196
v 0.287245 0.369529 0.730287
v 0.930113 0.369762 0.000000
v 0.495177 0.111582 -0.297196
v -0.601011 0.109567 0.000000
v -0.782104 0.384320 0.469407
v -0.189252 0.111649 -0.481169
v -0.782104 0.384320 -0.469407
v 0.287245 0.369529 -0.730287
v 1.078351 0.808480 0.289438
v 1.078351 0.808480 -0.289438
v 0.000000 0.820000 0.950000
v 0.683909 0.829651 0.777612
v -1.109082 0.831520 0.297686
v -0.667998 0.810349 0.759520
v -0.667998 0.810349 -0.759520
v -1.109082 0.831520 -0.297686
v 0.683909 0.829651 -0.777612
v 0.000000 0.820000 -0.950000
v 0.800732 1.265827 0.480587
v -0.317353 1.313409 0.806835
v -1.026377 1.312661 0.000000
v -0.317353 1.313409 -0.806835
v 0.800732 1.265827 -0.480587
v 0.184396 1.497814 0.468822
v 0.608167 1.526516 0.000000
v -0.483065 1.498747 0.289926
v -0.483065 1.498747 -0.289926
v 0.184396 1.497814 -0.468822
vn 0.0673 -0.9658 0.2505
vn 0.6102 -0.7562 0.2362
vn -0.1772 -0.9718 0.1558
vn -0.1772 -0.9718 -0.1558
vn 0.0673 -0.9658 -0.2505
vn 0.8700 -0.4403 0.2219
vn 0.1100 -0.3782 0.9192
vn -0.8019 -0.4251 0.4198
vn -0.5584 -0.3596 -0.7476
vn 0.3933 -0.4230 -0.8163
vn 0.7699 -0.1181 0.6272
vn -0.2739 -0.0184 0.9616
vn -0.9956 -0.0940 -0.0000
vn -0.2739 -0.0184 -0.9616
vn 0.7699 -0.1181 -0.6272
vn 0.2328 0.6549 0.7190
vn -0.4946 0.7556 0.4295
vn -0.4907 0.7550 -0.4349
vn 0.2415 0.6551 -0.7159
vn 0.7228 0.6861 -0.0825
vn 0.1789 0.9589 -0.2204
vn 0.3245 0.8798 -0.3472
vn 0.2328 0.6549 -0.7190
vn -0.0843 0.9439 -0.3194
vn -0.0960 0.9268 -0.3631
vn -0.4946 0.7556 -0.4295
vn -0.2807 0.9598 -0.0000
vn -0.3240 0.9460 -0.0000
vn -0.4907 0.7550 0.4349
vn -0.0843 0.9439 0.3194
vn -0.0960 0.9268 0.3631
vn 0.2415 0.6551 0.7159
vn 0.1789 0.9589 0.2204
vn 0.3245 0.8798 0.3472
vn 0.7228 0.6861 0.0825
vn 0.8723 0.4434 -0.2060
vn 0.7649 0.2098 -0.6090
vn 0.3418 0.4647 -0.8168
vn 0.1694 0.3736 -0.9120
vn -0.2742 0.1012 -0.9563
vn -0.5721 0.3281 -0.7517
vn -0.7836 0.4187 -0.4590
vn -0.9855 0.1694 -0.0000
vn -0.7836 0.4187 0.4590
vn -0.5721 0.3281 0.7517
vn -0.2742 0.1012 0.9563
vn 0.1694 0.3736 0.9120
vn 0.3418 0.4647 0.8168
vn 0.7649 0.2098 0.6090
vn 0.8723 0.4434 0.2060
vn 0.2272 0.3212 -0.9194
vn 0.2372 -0.2995 -0.9241
vn 0.1100 -0.3782 -0.9192
vn -0.7006 0.2191 -0.6791
vn -0.7040 -0.2612 -0.6604
vn -0.8019 -0.4251 -0.4198
vn -0.7006 0.2191 0.6791
vn -0.7040 -0.2612 0.6604
vn -0.5584 -0.3596 0.7476
vn 0.2272 0.3212 0.9194
vn 0.2372 -0.2995 0.9241
vn 0.3933 -0.4230 0.8163
vn 0.9585 0.2852 -0.0000
vn 0.9474 -0.3201 -0.0000
vn 0.8700 -0.4403 -0.2219
vn 0.3552 -0.7183 -0.5983
vn 0.1499 -0.8161 -0.5581
vn 0.0133 -0.7073 -0.7068
vn -0.3476 -0.7305 -0.5878
vn -0.3979 -0.8504 -0.3442
vn -0.5937 -0.7730 -0.2234
vn -0.5937 -0.7730 0.2234
vn -0.3979 -0.8504 0.3442
vn -0.3476 -0.7305 0.5878
vn 0.6102 -0.7562 -0.2362
vn 0.5104 -0.8599 -0.0000
vn 0.2198 -0.9755 -0.0000
vn 0.0133 -0.7073 0.7068
vn 0.1499 -0.8161 0.5581
vn 0.3552 -0.7183 0.5983
vt 0.312500 0.812500
s 0
usemtl GamePalette
f 1/1/1 14/1/1 13/1/1
f 2/1/2 14/1/2 16/1/2
f 1/1/3 13/1/3 18/1/3
f 1/1/4 18/1/4 20/1/4
f 1/1/5 20/1/5 17/1/5
f 2/1/6 16/1/6 23/1/6
f 3/1/7 15/1/7 25/1/7
f 4/1/8 19/1/8 27/1/8
f 5/1/9 21/1/9 29/1/9
f 6/1/10 22/1/10 31/1/10
f 2/1/11 23/1/11 26/1/11
f 3/1/12 25/1/12 28/1/12
f 4/1/13 27/1/13 30/1/13
f 5/1/14 29/1/14 32/1/14
f 6/1/15 31/1/15 24/1/15
f 7/1/16 33/1/16 38/1/16
f 8/1/17 34/1/17 40/1/17
f 9/1/18 35/1/18 41/1/18
f 10/1/19 36/1/19 42/1/19
f 11/1/20 37/1/20 39/1/20
f 39/1/21 42/1/21 12/1/21
f 39/1/22 37/1/22 42/1/22
f 37/1/23 10/1/23 42/1/23
f 42/1/24 41/1/24 12/1/24
f 42/1/25 36/1/25 41/1/25
f 36/1/26 9/1/26 41/1/26
f 41/1/27 40/1/27 12/1/27
f 41/1/28 35/1/28 40/1/28
f 35/1/29 8/1/29 40/1/29
f 40/1/30 38/1/30 12/1/30
f 40/1/31 34/1/31 38/1/31
f 34/1/32 7/1/32 38/1/32
f 38/1/33 39/1/33 12/1/33
f 38/1/34 33/1/34 39/1/34
f 33/1/35 11/1/35 39/1/35
f 24/1/36 37/1/36 11/1/36
f 24/1/37 31/1/37 37/1/37
f 31/1/38 10/1/38 37/1/38
f 32/1/39 36/1/39 10/1/39
f 32/1/40 29/1/40 36/1/40
f 29/1/41 9/1/41 36/1/41
f 30/1/42 35/1/42 9/1/42
f 30/1/43 27/1/43 35/1/43
f 27/1/44 8/1/44 35/1/44
f 28/1/45 34/1/45 8/1/45
f 28/1/46 25/1/46 34/1/46
f 25/1/47 7/1/47 34/1/47
f 26/1/48 33/1/48 7/1/48
f 26/1/49 23/1/49 33/1/49
f 23/1/50 11/1/50 33/1/50
f 31/1/51 32/1/51 10/1/51
f 31/1/52 22/1/52 32/1/52
f 22/1/53 5/1/53 32/1/53
f 29/1/54 30/1/54 9/1/54
f 29/1/55 21/1/55 30/1/55
f 21/1/56 4/1/56 30/1/56
f 27/1/57 28/1/57 8/1/57
f 27/1/58 19/1/58 28/1/58
f 19/1/59 3/1/59 28/1/59
f 25/1/60 26/1/60 7/1/60
f 25/1/61 15/1/61 26/1/61
f 15/1/62 2/1/62 26/1/62
f 23/1/63 24/1/63 11/1/63
f 23/1/64 16/1/64 24/1/64
f 16/1/65 6/1/65 24/1/65
f 17/1/66 22/1/66 6/1/66
f 17/1/67 20/1/67 22/1/67
f 20/1/68 5/1/68 22/1/68
f 20/1/69 21/1/69 5/1/69
f 20/1/70 18/1/70 21/1/70
f 18/1/71 4/1/71 21/1/71
f 18/1/72 19/1/72 4/1/72
f 18/1/73 13/1/73 19/1/73
f 13/1/74 3/1/74 19/1/74
f 16/1/75 17/1/75 6/1/75
f 16/1/76 14/1/76 17/1/76
f 14/1/77 1/1/77 17/1/77
f 13/1/78 15/1/78 3/1/78
f 13/1/79 14/1/79 15/1/79
f 14/1/80 2/1/80 15/1/80
o SideRock
v 0.950000 0.014000 0.350000
v 1.224968 0.161041 0.499830
v 0.844974 0.161041 0.592432
v 0.610119 0.161041 0.350000
v 0.844974 0.161041 0.107568
v 1.224968 0.161041 0.200170
v 1.055026 0.398959 0.592432
v 0.675032 0.398959 0.499830
v 0.675032 0.398959 0.200170
v 1.055026 0.398959 0.107568
v 1.289881 0.398959 0.350000
v 0.950000 0.546000 0.350000
vn 0.1355 -0.8200 0.5561
vn 0.4716 -0.8818 -0.0000
vn -0.3706 -0.8566 0.3590
vn -0.3706 -0.8566 -0.3590
vn 0.1355 -0.8200 -0.5561
vn 0.9647 -0.2632 -0.0000
vn 0.2318 -0.2046 0.9510
vn -0.6981 -0.2354 0.6762
vn -0.6981 -0.2354 -0.6762
vn 0.2318 -0.2046 -0.9510
vn 0.6981 0.2354 0.6762
vn -0.2318 0.2046 0.9510
vn -0.9647 0.2632 -0.0000
vn -0.2318 0.2046 -0.9510
vn 0.6981 0.2354 -0.6762
vn 0.3706 0.8566 0.3590
vn -0.1355 0.8200 0.5561
vn -0.4716 0.8818 -0.0000
vn -0.1355 0.8200 -0.5561
vn 0.3706 0.8566 -0.3590
vt 0.437500 0.812500
s 0
usemtl GamePalette
f 43/2/81 44/2/81 45/2/81
f 44/2/82 43/2/82 48/2/82
f 43/2/83 45/2/83 46/2/83
f 43/2/84 46/2/84 47/2/84
f 43/2/85 47/2/85 48/2/85
f 44/2/86 48/2/86 53/2/86
f 45/2/87 44/2/87 49/2/87
f 46/2/88 45/2/88 50/2/88
f 47/2/89 46/2/89 51/2/89
f 48/2/90 47/2/90 52/2/90
f 44/2/91 53/2/91 49/2/91
f 45/2/92 49/2/92 50/2/92
f 46/2/93 50/2/93 51/2/93
f 47/2/94 51/2/94 52/2/94
f 48/2/95 52/2/95 53/2/95
f 49/2/96 53/2/96 54/2/96
f 50/2/97 49/2/97 54/2/97
f 51/2/98 50/2/98 54/2/98
f 52/2/99 51/2/99 54/2/99
f 53/2/100 52/2/100 54/2/100
