# Blender 5.0.1
# www.blender.org
mtllib bigfoot.mtl
o Bigfoot
v -0.800000 0.850000 0.520000
v 0.800000 0.850000 0.520000
v 0.800000 0.850000 -0.520000
v -0.800000 0.850000 -0.520000
v -0.800000 2.150000 0.520000
v 0.800000 2.150000 0.520000
v 0.800000 2.150000 -0.520000
v -0.800000 2.150000 -0.520000
v -0.720000 1.250000 -0.350000
v 0.720000 1.250000 -0.350000
v 0.720000 1.250000 -0.620000
v -0.720000 1.250000 -0.620000
v -0.720000 1.950000 -0.350000
v 0.720000 1.950000 -0.350000
v 0.720000 1.950000 -0.620000
v -0.720000 1.950000 -0.620000
v -0.650000 1.050000 0.620000
v 0.650000 1.050000 0.620000
v 0.650000 1.050000 0.350000
v -0.650000 1.050000 0.350000
v -0.650000 2.100000 0.620000
v 0.650000 2.100000 0.620000
v 0.650000 2.100000 0.350000
v -0.650000 2.100000 0.350000
v -0.400000 2.050000 0.280000
v 0.400000 2.050000 0.280000
v 0.400000 2.050000 -0.380000
v -0.400000 2.050000 -0.380000
v -0.400000 2.750000 0.280000
v 0.400000 2.750000 0.280000
v 0.400000 2.750000 -0.380000
v -0.400000 2.750000 -0.380000
v -0.380000 2.380000 -0.280000
v 0.380000 2.380000 -0.280000
v 0.380000 2.380000 -0.480000
v -0.380000 2.380000 -0.480000
v -0.380000 2.620000 -0.280000
v 0.380000 2.620000 -0.280000
v 0.380000 2.620000 -0.480000
v -0.380000 2.620000 -0.480000
v -0.280000 2.050000 -0.320000
v 0.280000 2.050000 -0.320000
v 0.280000 2.050000 -0.520000
v -0.280000 2.050000 -0.520000
v -0.280000 2.350000 -0.320000
v 0.280000 2.350000 -0.320000
v 0.280000 2.350000 -0.520000
v -0.280000 2.350000 -0.520000
v -1.150000 1.050000 0.280000
v -0.800000 1.050000 0.280000
v -0.800000 1.050000 -0.280000
v -1.150000 1.050000 -0.280000
v -1.150000 2.150000 0.280000
v -0.800000 2.150000 0.280000
v -0.800000 2.150000 -0.280000
v -1.150000 2.150000 -0.280000
v -1.220000 0.350000 -0.050000
v -0.850000 0.350000 -0.050000
v -0.850000 0.350000 -0.380000
v -1.220000 0.350000 -0.380000
v -1.220000 1.150000 -0.050000
v -0.850000 1.150000 -0.050000
v -0.850000 1.150000 -0.380000
v -1.220000 1.150000 -0.380000
v -1.250000 0.200000 -0.120000
v -0.820000 0.200000 -0.120000
v -0.820000 0.200000 -0.450000
v -1.250000 0.200000 -0.450000
v -1.250000 0.520000 -0.120000
v -0.820000 0.520000 -0.120000
v -0.820000 0.520000 -0.450000
v -1.250000 0.520000 -0.450000
v 0.800000 1.050000 0.280000
v 1.150000 1.050000 0.280000
v 1.150000 1.050000 -0.280000
v 0.800000 1.050000 -0.280000
v 0.800000 2.150000 0.280000
v 1.150000 2.150000 0.280000
v 1.150000 2.150000 -0.280000
v 0.800000 2.150000 -0.280000
v 0.850000 0.350000 -0.050000
v 1.220000 0.350000 -0.050000
v 1.220000 0.350000 -0.380000
v 0.850000 0.350000 -0.380000
v 0.850000 1.150000 -0.050000
v 1.220000 1.150000 -0.050000
v 1.220000 1.150000 -0.380000
v 0.850000 1.150000 -0.380000
v 0.820000 0.200000 -0.120000
v 1.250000 0.200000 -0.120000
v 1.250000 0.200000 -0.450000
v 0.820000 0.200000 -0.450000
v 0.820000 0.520000 -0.120000
v 1.250000 0.520000 -0.120000
v 1.250000 0.520000 -0.450000
v 0.820000 0.520000 -0.450000
v -0.680000 0.000000 0.350000
v -0.240000 0.000000 0.350000
v -0.240000 0.000000 -0.350000
v -0.680000 0.000000 -0.350000
v -0.680000 0.950000 0.350000
v -0.240000 0.950000 0.350000
v -0.240000 0.950000 -0.350000
v -0.680000 0.950000 -0.350000
v -0.740000 0.000000 0.250000
v -0.180000 0.000000 0.250000
v -0.180000 0.000000 -0.550000
v -0.740000 0.000000 -0.550000
v -0.740000 0.250000 0.250000
v -0.180000 0.250000 0.250000
v -0.180000 0.250000 -0.550000
v -0.740000 0.250000 -0.550000
v 0.240000 0.000000 0.350000
v 0.680000 0.000000 0.350000
v 0.680000 0.000000 -0.350000
v 0.240000 0.000000 -0.350000
v 0.240000 0.950000 0.350000
v 0.680000 0.950000 0.350000
v 0.680000 0.950000 -0.350000
v 0.240000 0.950000 -0.350000
v 0.180000 0.000000 0.250000
v 0.740000 0.000000 0.250000
v 0.740000 0.000000 -0.550000
v 0.180000 0.000000 -0.550000
v 0.180000 0.250000 0.250000
v 0.740000 0.250000 0.250000
v 0.740000 0.250000 -0.550000
v 0.180000 0.250000 -0.550000
v -0.220000 2.400000 -0.420000
v -0.080000 2.400000 -0.420000
v -0.080000 2.400000 -0.500000
v -0.220000 2.400000 -0.500000
v -0.220000 2.520000 -0.420000
v -0.080000 2.520000 -0.420000
v -0.080000 2.520000 -0.500000
v -0.220000 2.520000 -0.500000
v 0.080000 2.400000 -0.420000
v 0.220000 2.400000 -0.420000
v 0.220000 2.400000 -0.500000
v 0.080000 2.400000 -0.500000
v 0.080000 2.520000 -0.420000
v 0.220000 2.520000 -0.420000
v 0.220000 2.520000 -0.500000
v 0.080000 2.520000 -0.500000
vn -0.0000 1.0000 -0.0000
vn -0.0000 -1.0000 -0.0000
vn -0.0000 -0.0000 -1.0000
vn -0.0000 -0.0000 1.0000
vn 1.0000 -0.0000 -0.0000
vn -1.0000 -0.0000 -0.0000
vt 0.562500 0.687500
vt 0.687500 0.687500
vt 0.687500 0.562500
vt 0.937500 0.687500
vt 0.937500 0.562500
vt 0.937500 0.312500
s 0
usemtl GamePalette
f 2/1/1 4/1/1 1/1/1
f 8/1/2 6/1/2 5/1/2
f 5/1/3 2/1/3 1/1/3
f 7/1/4 4/1/4 3/1/4
f 8/1/5 1/1/5 4/1/5
f 6/1/6 3/1/6 2/1/6
f 10/2/1 12/2/1 9/2/1
f 16/2/2 14/2/2 13/2/2
f 13/2/3 10/2/3 9/2/3
f 15/2/4 12/2/4 11/2/4
f 16/2/5 9/2/5 12/2/5
f 14/2/6 11/2/6 10/2/6
f 18/3/1 20/3/1 17/3/1
f 24/3/2 22/3/2 21/3/2
f 21/3/3 18/3/3 17/3/3
f 23/3/4 20/3/4 19/3/4
f 24/3/5 17/3/5 20/3/5
f 22/3/6 19/3/6 18/3/6
f 26/1/1 28/1/1 25/1/1
f 32/1/2 30/1/2 29/1/2
f 29/1/3 26/1/3 25/1/3
f 31/1/4 28/1/4 27/1/4
f 32/1/5 25/1/5 28/1/5
f 30/1/6 27/1/6 26/1/6
f 34/4/1 36/4/1 33/4/1
f 40/4/2 38/4/2 37/4/2
f 37/4/3 34/4/3 33/4/3
f 39/4/4 36/4/4 35/4/4
f 40/4/5 33/4/5 36/4/5
f 38/4/6 35/4/6 34/4/6
f 42/5/1 44/5/1 41/5/1
f 48/5/2 46/5/2 45/5/2
f 45/5/3 42/5/3 41/5/3
f 47/5/4 44/5/4 43/5/4
f 48/5/5 41/5/5 44/5/5
f 46/5/6 43/5/6 42/5/6
f 50/2/1 52/2/1 49/2/1
f 56/2/2 54/2/2 53/2/2
f 53/2/3 50/2/3 49/2/3
f 55/2/4 52/2/4 51/2/4
f 56/2/5 49/2/5 52/2/5
f 54/2/6 51/2/6 50/2/6
f 58/1/1 60/1/1 57/1/1
f 64/1/2 62/1/2 61/1/2
f 61/1/3 58/1/3 57/1/3
f 63/1/4 60/1/4 59/1/4
f 64/1/5 57/1/5 60/1/5
f 62/1/6 59/1/6 58/1/6
f 66/4/1 68/4/1 65/4/1
f 72/4/2 70/4/2 69/4/2
f 69/4/3 66/4/3 65/4/3
f 71/4/4 68/4/4 67/4/4
f 72/4/5 65/4/5 68/4/5
f 70/4/6 67/4/6 66/4/6
f 74/2/1 76/2/1 73/2/1
f 80/2/2 78/2/2 77/2/2
f 77/2/3 74/2/3 73/2/3
f 79/2/4 76/2/4 75/2/4
f 80/2/5 73/2/5 76/2/5
f 78/2/6 75/2/6 74/2/6
f 82/1/1 84/1/1 81/1/1
f 88/1/2 86/1/2 85/1/2
f 85/1/3 82/1/3 81/1/3
f 87/1/4 84/1/4 83/1/4
f 88/1/5 81/1/5 84/1/5
f 86/1/6 83/1/6 82/1/6
f 90/4/1 92/4/1 89/4/1
f 96/4/2 94/4/2 93/4/2
f 93/4/3 90/4/3 89/4/3
f 95/4/4 92/4/4 91/4/4
f 96/4/5 89/4/5 92/4/5
f 94/4/6 91/4/6 90/4/6
f 98/1/1 100/1/1 97/1/1
f 104/1/2 102/1/2 101/1/2
f 101/1/3 98/1/3 97/1/3
f 103/1/4 100/1/4 99/1/4
f 104/1/5 97/1/5 100/1/5
f 102/1/6 99/1/6 98/1/6
f 106/4/1 108/4/1 105/4/1
f 112/4/2 110/4/2 109/4/2
f 109/4/3 106/4/3 105/4/3
f 111/4/4 108/4/4 107/4/4
f 112/4/5 105/4/5 108/4/5
f 110/4/6 107/4/6 106/4/6
f 114/1/1 116/1/1 113/1/1
f 120/1/2 118/1/2 117/1/2
f 117/1/3 114/1/3 113/1/3
f 119/1/4 116/1/4 115/1/4
f 120/1/5 113/1/5 116/1/5
f 118/1/6 115/1/6 114/1/6
f 122/4/1 124/4/1 121/4/1
f 128/4/2 126/4/2 125/4/2
f 125/4/3 122/4/3 121/4/3
f 127/4/4 124/4/4 123/4/4
f 128/4/5 121/4/5 124/4/5
f 126/4/6 123/4/6 122/4/6
f 130/6/1 132/6/1 129/6/1
f 136/6/2 134/6/2 133/6/2
f 133/6/3 130/6/3 129/6/3
f 135/6/4 132/6/4 131/6/4
f 136/6/5 129/6/5 132/6/5
f 134/6/6 131/6/6 130/6/6
f 138/6/1 140/6/1 137/6/1
f 144/6/2 142/6/2 141/6/2
f 141/6/3 138/6/3 137/6/3
f 143/6/4 140/6/4 139/6/4
f 144/6/5 137/6/5 140/6/5
f 142/6/6 139/6/6 138/6/6
f 2/1/1 3/1/1 4/1/1
f 8/1/2 7/1/2 6/1/2
f 5/1/3 6/1/3 2/1/3
f 7/1/4 8/1/4 4/1/4
f 8/1/5 5/1/5 1/1/5
f 6/1/6 7/1/6 3/1/6
f 10/2/1 11/2/1 12/2/1
f 16/2/2 15/2/2 14/2/2
f 13/2/3 14/2/3 10/2/3
f 15/2/4 16/2/4 12/2/4
f 16/2/5 13/2/5 9/2/5
f 14/2/6 15/2/6 11/2/6
f 18/3/1 19/3/1 20/3/1
f 24/3/2 23/3/2 22/3/2
f 21/3/3 22/3/3 18/3/3
f 23/3/4 24/3/4 20/3/4
f 24/3/5 21/3/5 17/3/5
f 22/3/6 23/3/6 19/3/6
f 26/1/1 27/1/1 28/1/1
f 32/1/2 31/1/2 30/1/2
f 29/1/3 30/1/3 26/1/3
f 31/1/4 32/1/4 28/1/4
f 32/1/5 29/1/5 25/1/5
f 30/1/6 31/1/6 27/1/6
f 34/4/1 35/4/1 36/4/1
f 40/4/2 39/4/2 38/4/2
f 37/4/3 38/4/3 34/4/3
f 39/4/4 40/4/4 36/4/4
f 40/4/5 37/4/5 33/4/5
f 38/4/6 39/4/6 35/4/6
f 42/5/1 43/5/1 44/5/1
f 48/5/2 47/5/2 46/5/2
f 45/5/3 46/5/3 42/5/3
f 47/5/4 48/5/4 44/5/4
f 48/5/5 45/5/5 41/5/5
f 46/5/6 47/5/6 43/5/6
f 50/2/1 51/2/1 52/2/1
f 56/2/2 55/2/2 54/2/2
f 53/2/3 54/2/3 50/2/3
f 55/2/4 56/2/4 52/2/4
f 56/2/5 53/2/5 49/2/5
f 54/2/6 55/2/6 51/2/6
f 58/1/1 59/1/1 60/1/1
f 64/1/2 63/1/2 62/1/2
f 61/1/3 62/1/3 58/1/3
f 63/1/4 64/1/4 60/1/4
f 64/1/5 61/1/5 57/1/5
f 62/1/6 63/1/6 59/1/6
f 66/4/1 67/4/1 68/4/1
f 72/4/2 71/4/2 70/4/2
f 69/4/3 70/4/3 66/4/3
f 71/4/4 72/4/4 68/4/4
f 72/4/5 69/4/5 65/4/5
f 70/4/6 71/4/6 67/4/6
f 74/2/1 75/2/1 76/2/1
f 80/2/2 79/2/2 78/2/2
f 77/2/3 78/2/3 74/2/3
f 79/2/4 80/2/4 76/2/4
f 80/2/5 77/2/5 73/2/5
f 78/2/6 79/2/6 75/2/6
f 82/1/1 83/1/1 84/1/1
f 88/1/2 87/1/2 86/1/2
f 85/1/3 86/1/3 82/1/3
f 87/1/4 88/1/4 84/1/4
f 88/1/5 85/1/5 81/1/5
f 86/1/6 87/1/6 83/1/6
f 90/4/1 91/4/1 92/4/1
f 96/4/2 95/4/2 94/4/2
f 93/4/3 94/4/3 90/4/3
f 95/4/4 96/4/4 92/4/4
f 96/4/5 93/4/5 89/4/5
f 94/4/6 95/4/6 91/4/6
f 98/1/1 99/1/1 100/1/1
f 104/1/2 103/1/2 102/1/2
f 101/1/3 102/1/3 98/1/3
f 103/1/4 104/1/4 100/1/4
f 104/1/5 101/1/5 97/1/5
f 102/1/6 103/1/6 99/1/6
f 106/4/1 107/4/1 108/4/1
f 112/4/2 111/4/2 110/4/2
f 109/4/3 110/4/3 106/4/3
f 111/4/4 112/4/4 108/4/4
f 112/4/5 109/4/5 105/4/5
f 110/4/6 111/4/6 107/4/6
f 114/1/1 115/1/1 116/1/1
f 120/1/2 119/1/2 118/1/2
f 117/1/3 118/1/3 114/1/3
f 119/1/4 120/1/4 116/1/4
f 120/1/5 117/1/5 113/1/5
f 118/1/6 119/1/6 115/1/6
f 122/4/1 123/4/1 124/4/1
f 128/4/2 127/4/2 126/4/2
f 125/4/3 126/4/3 122/4/3
f 127/4/4 128/4/4 124/4/4
f 128/4/5 125/4/5 121/4/5
f 126/4/6 127/4/6 123/4/6
f 130/6/1 131/6/1 132/6/1
f 136/6/2 135/6/2 134/6/2
f 133/6/3 134/6/3 130/6/3
f 135/6/4 136/6/4 132/6/4
f 136/6/5 133/6/5 129/6/5
f 134/6/6 135/6/6 131/6/6
f 138/6/1 139/6/1 140/6/1
f 144/6/2 143/6/2 142/6/2
f 141/6/3 142/6/3 138/6/3
f 143/6/4 144/6/4 140/6/4
f 144/6/5 141/6/5 137/6/5
f 142/6/6 143/6/6 139/6/6
