# Blender 5.0.1
# www.blender.org
mtllib wolf.mtl
o Wolf
v -0.360000 0.580000 0.000000
v 0.360000 0.580000 0.000000
v 0.360000 0.580000 -0.650000
v -0.360000 0.580000 -0.650000
v -0.360000 1.300000 0.000000
v 0.360000 1.300000 0.000000
v 0.360000 1.300000 -0.650000
v -0.360000 1.300000 -0.650000
v -0.300000 0.950000 -0.250000
v 0.300000 0.950000 -0.250000
v 0.300000 0.950000 -0.720000
v -0.300000 0.950000 -0.720000
v -0.300000 1.450000 -0.250000
v 0.300000 1.450000 -0.250000
v 0.300000 1.450000 -0.720000
v -0.300000 1.450000 -0.720000
v -0.360000 0.850000 -0.150000
v -0.480000 0.800000 -0.250000
v -0.360000 1.200000 -0.450000
v -0.360000 0.650000 0.050000
v -0.440000 0.600000 -0.050000
v -0.360000 1.000000 -0.250000
v 0.360000 0.850000 -0.150000
v 0.360000 1.200000 -0.450000
v 0.480000 0.800000 -0.250000
v 0.360000 0.650000 0.050000
v 0.360000 1.000000 -0.250000
v 0.440000 0.600000 -0.050000
v -0.240000 0.460000 -0.100000
v 0.240000 0.460000 -0.100000
v 0.240000 0.460000 -0.600000
v -0.240000 0.460000 -0.600000
v -0.240000 0.800000 -0.100000
v 0.240000 0.800000 -0.100000
v 0.240000 0.800000 -0.600000
v -0.240000 0.800000 -0.600000
v -0.280000 0.550000 0.750000
v 0.280000 0.550000 0.750000
v 0.280000 0.550000 0.000000
v -0.280000 0.550000 0.000000
v -0.280000 1.180000 0.750000
v 0.280000 1.180000 0.750000
v 0.280000 1.180000 0.000000
v -0.280000 1.180000 0.000000
v -0.080000 1.180000 0.650000
v 0.080000 1.180000 0.650000
v 0.000000 1.320000 0.650000
v -0.080000 1.300000 -0.450000
v 0.080000 1.300000 -0.450000
v 0.000000 1.420000 -0.450000
v -0.250000 0.880000 -0.650000
v 0.250000 0.880000 -0.650000
v 0.250000 0.880000 -1.100000
v -0.250000 0.880000 -1.100000
v -0.250000 1.400000 -0.650000
v 0.250000 1.400000 -0.650000
v 0.250000 1.400000 -1.100000
v -0.250000 1.400000 -1.100000
v -0.250000 1.150000 -0.680000
v -0.360000 0.950000 -0.800000
v -0.250000 0.850000 -1.020000
v -0.250000 1.350000 -0.680000
v -0.320000 1.250000 -0.800000
v -0.250000 1.150000 -1.020000
v 0.250000 1.150000 -0.680000
v 0.250000 0.850000 -1.020000
v 0.360000 0.950000 -0.800000
v 0.250000 1.350000 -0.680000
v 0.250000 1.150000 -1.020000
v 0.320000 1.250000 -0.800000
v -0.150000 0.900000 -1.080000
v 0.150000 0.900000 -1.080000
v 0.150000 0.900000 -1.550000
v -0.150000 0.900000 -1.550000
v -0.150000 1.120000 -1.080000
v 0.150000 1.120000 -1.080000
v 0.150000 1.120000 -1.550000
v -0.150000 1.120000 -1.550000
v -0.060000 0.980000 -1.550000
v 0.060000 0.980000 -1.550000
v 0.000000 1.120000 -1.550000
v -0.060000 0.980000 -1.620000
v 0.060000 0.980000 -1.620000
v 0.000000 1.100000 -1.620000
v -0.130000 0.700000 -1.050000
v 0.130000 0.700000 -1.050000
v 0.130000 0.700000 -1.480000
v -0.130000 0.700000 -1.480000
v -0.130000 0.850000 -1.050000
v 0.130000 0.850000 -1.050000
v 0.130000 0.850000 -1.480000
v -0.130000 0.850000 -1.480000
v -0.110000 0.850000 -1.100000
v 0.110000 0.850000 -1.100000
v 0.110000 0.850000 -1.450000
v -0.110000 0.850000 -1.450000
v -0.110000 0.900000 -1.100000
v 0.110000 0.900000 -1.100000
v 0.110000 0.900000 -1.450000
v -0.110000 0.900000 -1.450000
v -0.140000 0.900000 -1.400000
v -0.100000 0.900000 -1.400000
v -0.120000 0.900000 -1.480000
v -0.120000 0.740000 -1.440000
v 0.100000 0.900000 -1.400000
v 0.140000 0.900000 -1.400000
v 0.120000 0.900000 -1.480000
v 0.120000 0.740000 -1.440000
v -0.120000 0.850000 -1.360000
v -0.080000 0.850000 -1.360000
v -0.100000 0.850000 -1.440000
v -0.100000 0.980000 -1.400000
v 0.080000 0.850000 -1.360000
v 0.120000 0.850000 -1.360000
v 0.100000 0.850000 -1.440000
v 0.100000 0.980000 -1.400000
v -0.080000 1.120000 -1.080000
v 0.080000 1.120000 -1.080000
v 0.000000 1.180000 -1.080000
v -0.050000 1.120000 -1.540000
v 0.050000 1.120000 -1.540000
v 0.000000 1.150000 -1.540000
v -0.240000 1.400000 -0.720000
v -0.080000 1.400000 -0.720000
v -0.080000 1.400000 -0.950000
v -0.240000 1.400000 -0.950000
v -0.160000 1.760000 -0.820000
v -0.200000 1.410000 -0.880000
v -0.120000 1.410000 -0.880000
v -0.160000 1.620000 -0.800000
v -0.160000 1.450000 -0.900000
v 0.080000 1.400000 -0.720000
v 0.240000 1.400000 -0.720000
v 0.240000 1.400000 -0.950000
v 0.080000 1.400000 -0.950000
v 0.160000 1.760000 -0.820000
v 0.120000 1.410000 -0.880000
v 0.200000 1.410000 -0.880000
v 0.160000 1.620000 -0.800000
v 0.160000 1.450000 -0.900000
v -0.220000 1.220000 -1.020000
v -0.120000 1.150000 -1.020000
v -0.160000 1.180000 -1.140000
v -0.200000 1.200000 -1.020000
v -0.100000 1.130000 -1.020000
v -0.140000 1.160000 -1.140000
v 0.120000 1.150000 -1.020000
v 0.220000 1.220000 -1.020000
v 0.160000 1.180000 -1.140000
v 0.100000 1.130000 -1.020000
v 0.200000 1.200000 -1.020000
v 0.140000 1.160000 -1.140000
v -0.340000 0.100000 -0.280000
v -0.180000 0.100000 -0.280000
v -0.180000 0.100000 -0.520000
v -0.340000 0.100000 -0.520000
v -0.340000 0.650000 -0.280000
v -0.180000 0.650000 -0.280000
v -0.180000 0.650000 -0.520000
v -0.340000 0.650000 -0.520000
v -0.340000 0.000000 -0.280000
v -0.180000 0.000000 -0.280000
v -0.260000 0.120000 -0.280000
v -0.340000 0.000000 -0.580000
v -0.180000 0.000000 -0.580000
v -0.260000 0.100000 -0.580000
v 0.180000 0.100000 -0.280000
v 0.340000 0.100000 -0.280000
v 0.340000 0.100000 -0.520000
v 0.180000 0.100000 -0.520000
v 0.180000 0.650000 -0.280000
v 0.340000 0.650000 -0.280000
v 0.340000 0.650000 -0.520000
v 0.180000 0.650000 -0.520000
v 0.180000 0.000000 -0.280000
v 0.340000 0.000000 -0.280000
v 0.260000 0.120000 -0.280000
v 0.180000 0.000000 -0.580000
v 0.340000 0.000000 -0.580000
v 0.260000 0.100000 -0.580000
v -0.320000 0.100000 0.720000
v -0.160000 0.100000 0.720000
v -0.160000 0.100000 0.420000
v -0.320000 0.100000 0.420000
v -0.320000 0.700000 0.720000
v -0.160000 0.700000 0.720000
v -0.160000 0.700000 0.420000
v -0.320000 0.700000 0.420000
v -0.320000 0.000000 0.680000
v -0.160000 0.000000 0.680000
v -0.240000 0.120000 0.680000
v -0.320000 0.000000 0.380000
v -0.160000 0.000000 0.380000
v -0.240000 0.100000 0.380000
v 0.160000 0.100000 0.720000
v 0.320000 0.100000 0.720000
v 0.320000 0.100000 0.420000
v 0.160000 0.100000 0.420000
v 0.160000 0.700000 0.720000
v 0.320000 0.700000 0.720000
v 0.320000 0.700000 0.420000
v 0.160000 0.700000 0.420000
v 0.160000 0.000000 0.680000
v 0.320000 0.000000 0.680000
v 0.240000 0.120000 0.680000
v 0.160000 0.000000 0.380000
v 0.320000 0.000000 0.380000
v 0.240000 0.100000 0.380000
v -0.120000 0.750000 0.980000
v 0.120000 0.750000 0.980000
v 0.120000 0.750000 0.720000
v -0.120000 0.750000 0.720000
v -0.120000 1.020000 0.980000
v 0.120000 1.020000 0.980000
v 0.120000 1.020000 0.720000
v -0.120000 1.020000 0.720000
v -0.140000 0.700000 0.980000
v 0.140000 0.700000 0.980000
v 0.000000 1.050000 0.980000
v -0.100000 0.550000 1.300000
v 0.100000 0.550000 1.300000
v 0.000000 0.880000 1.300000
v -0.100000 0.550000 1.300000
v 0.100000 0.550000 1.300000
v 0.100000 0.880000 1.300000
v -0.100000 0.880000 1.300000
v 0.000000 0.680000 1.550000
vn -0.0000 1.0000 -0.0000
vn -0.0000 -1.0000 -0.0000
vn -0.0000 -0.0000 -1.0000
vn -0.0000 -0.0000 1.0000
vn 1.0000 -0.0000 -0.0000
vn -1.0000 -0.0000 -0.0000
vn 0.6706 -0.4828 -0.5633
vn -0.8048 0.3863 0.4507
vn 0.6749 -0.4499 -0.5849
vn -0.7625 0.4575 0.4575
vn -0.6706 -0.4828 -0.5633
vn 0.8048 0.3863 0.4507
vn 0.7625 0.4575 0.4575
vn -0.6749 -0.4499 -0.5849
vn -0.0000 -0.9941 -0.1084
vn 0.8670 0.4954 0.0540
vn -0.8670 0.4954 0.0540
vn 0.5400 -0.6311 0.5569
vn -0.3405 0.8104 -0.4767
vn -0.8165 0.1089 0.5670
vn -0.8944 -0.0000 -0.4472
vn -0.5400 -0.6311 0.5569
vn 0.3405 0.8104 -0.4767
vn 0.8944 -0.0000 -0.4472
vn 0.8165 0.1089 0.5670
vn 0.9134 0.3914 -0.1118
vn -0.9134 0.3914 -0.1118
vn -0.0000 0.2425 -0.9701
vn -0.9684 0.0605 0.2421
vn 0.9684 0.0605 0.2421
vn -0.0000 0.2941 0.9558
vn 0.9675 0.0744 -0.2419
vn -0.9675 0.0744 -0.2419
vn 0.5995 0.7994 -0.0391
vn -0.5995 0.7994 -0.0391
vn -0.0000 -0.2676 -0.9635
vn -0.9762 -0.2169 -0.0000
vn -0.0000 -0.3396 0.9406
vn 0.9762 -0.2169 -0.0000
vn -0.0000 0.3560 -0.9345
vn -0.0000 0.4472 0.8944
vn -0.6841 -0.3698 0.6287
vn 0.6841 -0.3698 0.6287
vn 0.5734 0.8192 0.0137
vn -0.5734 -0.8192 -0.0137
vn 0.7059 0.7059 -0.0588
vn -0.7022 -0.7023 -0.1170
vn -0.5734 0.8192 0.0137
vn 0.5734 -0.8192 -0.0137
vn 0.7022 -0.7022 -0.1170
vn -0.7059 0.7059 -0.0588
vn 0.8315 0.5543 -0.0370
vn -0.8315 0.5543 -0.0370
vn -0.0000 0.9055 0.4244
vn -0.9109 -0.3644 -0.1936
vn 0.9109 -0.3644 -0.1936
vn -0.0000 0.8872 -0.4614
vn -0.9285 -0.0000 -0.3714
vn -0.0000 -0.7809 -0.6247
vn 0.9285 -0.0000 -0.3714
vn 0.7984 -0.4258 -0.4258
vn -0.7071 0.4243 0.5657
vn 0.7071 0.4243 0.5657
vn -0.7984 -0.4258 -0.4258
vn 0.8310 0.5540 0.0504
vn -0.8310 0.5540 0.0504
vn -0.8638 -0.0000 0.5039
vn -0.9280 0.1237 -0.3515
vn 0.9280 0.1237 -0.3515
vn 0.8638 -0.0000 0.5039
vn 0.8944 0.4472 -0.0000
vn -0.8944 0.4472 -0.0000
vn 0.5137 0.8562 -0.0558
vn -0.5137 0.8562 -0.0558
vn -0.7022 -0.7022 -0.1170
vn 0.7809 0.6247 -0.0000
vn -0.7809 0.6247 -0.0000
vn -0.9272 -0.2810 -0.2476
vn 0.9272 -0.2810 -0.2476
vt 0.437500 0.812500
vt 0.062500 0.812500
vt 0.062500 0.937500
vt 0.687500 0.812500
vt 0.937500 0.812500
vt 0.562500 0.187500
vt 0.000000 0.000000
vt 0.062500 0.187500
vt 0.812500 0.187500
s 0
usemtl GamePalette
f 2/1/1 4/1/1 1/1/1
f 8/1/2 6/1/2 5/1/2
f 5/1/3 2/1/3 1/1/3
f 7/1/4 4/1/4 3/1/4
f 8/1/5 1/1/5 4/1/5
f 6/1/6 3/1/6 2/1/6
f 10/1/1 12/1/1 9/1/1
f 16/1/2 14/1/2 13/1/2
f 13/1/3 10/1/3 9/1/3
f 15/1/4 12/1/4 11/1/4
f 16/1/5 9/1/5 12/1/5
f 14/1/6 11/1/6 10/1/6
f 17/2/7 18/2/7 19/2/7
f 20/2/8 22/2/8 21/2/8
f 17/2/9 21/2/9 18/2/9
f 18/2/10 22/2/10 19/2/10
f 22/2/5 17/2/5 19/2/5
f 23/2/11 24/2/11 25/2/11
f 26/2/12 28/2/12 27/2/12
f 23/2/6 27/2/6 24/2/6
f 27/2/13 25/2/13 24/2/13
f 28/2/14 23/2/14 25/2/14
f 30/3/1 32/3/1 29/3/1
f 36/3/2 34/3/2 33/3/2
f 33/3/3 30/3/3 29/3/3
f 35/3/4 32/3/4 31/3/4
f 36/3/5 29/3/5 32/3/5
f 34/3/6 31/3/6 30/3/6
f 38/1/1 40/1/1 37/1/1
f 44/1/2 42/1/2 41/1/2
f 41/1/3 38/1/3 37/1/3
f 43/1/4 40/1/4 39/1/4
f 44/1/5 37/1/5 40/1/5
f 42/1/6 39/1/6 38/1/6
f 45/4/4 46/4/4 47/4/4
f 48/4/3 50/4/3 49/4/3
f 48/4/15 46/4/15 45/4/15
f 49/4/16 47/4/16 46/4/16
f 47/4/17 48/4/17 45/4/17
f 52/1/1 54/1/1 51/1/1
f 58/1/2 56/1/2 55/1/2
f 55/1/3 52/1/3 51/1/3
f 57/1/4 54/1/4 53/1/4
f 58/1/5 51/1/5 54/1/5
f 56/1/6 53/1/6 52/1/6
f 59/2/18 60/2/18 61/2/18
f 62/2/19 64/2/19 63/2/19
f 59/2/20 63/2/20 60/2/20
f 60/2/21 64/2/21 61/2/21
f 64/2/5 59/2/5 61/2/5
f 65/2/22 66/2/22 67/2/22
f 68/2/23 70/2/23 69/2/23
f 65/2/6 69/2/6 66/2/6
f 69/2/24 67/2/24 66/2/24
f 70/2/25 65/2/25 67/2/25
f 72/1/1 74/1/1 71/1/1
f 78/1/2 76/1/2 75/1/2
f 75/1/3 72/1/3 71/1/3
f 77/1/4 74/1/4 73/1/4
f 78/1/5 71/1/5 74/1/5
f 76/1/6 73/1/6 72/1/6
f 79/5/4 80/5/4 81/5/4
f 82/5/3 84/5/3 83/5/3
f 82/5/2 80/5/2 79/5/2
f 80/5/26 84/5/26 81/5/26
f 84/5/27 79/5/27 81/5/27
f 86/2/1 88/2/1 85/2/1
f 92/2/2 90/2/2 89/2/2
f 89/2/3 86/2/3 85/2/3
f 91/2/4 88/2/4 87/2/4
f 92/2/5 85/2/5 88/2/5
f 90/2/6 87/2/6 86/2/6
f 94/6/1 96/6/1 93/6/1
f 100/6/2 98/6/2 97/6/2
f 97/6/3 94/6/3 93/6/3
f 99/6/4 96/6/4 95/6/4
f 100/6/5 93/6/5 96/6/5
f 98/6/6 95/6/6 94/6/6
f 101/7/2 103/7/2 102/7/2
f 101/7/28 102/7/28 104/7/28
f 102/7/29 103/7/29 104/7/29
f 103/7/30 101/7/30 104/7/30
f 105/7/2 107/7/2 106/7/2
f 105/7/28 106/7/28 108/7/28
f 106/7/29 107/7/29 108/7/29
f 107/7/30 105/7/30 108/7/30
f 109/7/2 111/7/2 110/7/2
f 109/7/31 110/7/31 112/7/31
f 110/7/32 111/7/32 112/7/32
f 111/7/33 109/7/33 112/7/33
f 113/7/2 115/7/2 114/7/2
f 113/7/31 114/7/31 116/7/31
f 114/7/32 115/7/32 116/7/32
f 115/7/33 113/7/33 116/7/33
f 117/4/4 118/4/4 119/4/4
f 120/4/3 122/4/3 121/4/3
f 120/4/2 118/4/2 117/4/2
f 121/4/34 119/4/34 118/4/34
f 119/4/35 120/4/35 117/4/35
f 124/1/1 126/1/1 123/1/1
f 123/1/36 127/1/36 124/1/36
f 124/1/37 127/1/37 125/1/37
f 125/1/38 127/1/38 126/1/38
f 126/1/39 127/1/39 123/1/39
f 128/8/40 130/8/40 129/8/40
f 128/8/41 129/8/41 131/8/41
f 129/8/42 130/8/42 131/8/42
f 130/8/43 128/8/43 131/8/43
f 133/1/1 135/1/1 132/1/1
f 132/1/36 136/1/36 133/1/36
f 133/1/37 136/1/37 134/1/37
f 134/1/38 136/1/38 135/1/38
f 135/1/39 136/1/39 132/1/39
f 137/8/40 139/8/40 138/8/40
f 137/8/41 138/8/41 140/8/41
f 138/8/42 139/8/42 140/8/42
f 139/8/43 137/8/43 140/8/43
f 141/9/44 142/9/44 143/9/44
f 144/9/45 146/9/45 145/9/45
f 144/9/4 142/9/4 141/9/4
f 142/9/46 146/9/46 143/9/46
f 143/9/47 144/9/47 141/9/47
f 147/9/48 148/9/48 149/9/48
f 150/9/49 152/9/49 151/9/49
f 147/9/4 151/9/4 148/9/4
f 151/9/50 149/9/50 148/9/50
f 152/9/51 147/9/51 149/9/51
f 154/1/1 156/1/1 153/1/1
f 160/1/2 158/1/2 157/1/2
f 157/1/3 154/1/3 153/1/3
f 159/1/4 156/1/4 155/1/4
f 160/1/5 153/1/5 156/1/5
f 158/1/6 155/1/6 154/1/6
f 161/4/4 162/4/4 163/4/4
f 164/4/3 166/4/3 165/4/3
f 164/4/2 162/4/2 161/4/2
f 162/4/52 166/4/52 163/4/52
f 166/4/53 161/4/53 163/4/53
f 168/1/1 170/1/1 167/1/1
f 174/1/2 172/1/2 171/1/2
f 171/1/3 168/1/3 167/1/3
f 173/1/4 170/1/4 169/1/4
f 174/1/5 167/1/5 170/1/5
f 172/1/6 169/1/6 168/1/6
f 175/4/4 176/4/4 177/4/4
f 178/4/3 180/4/3 179/4/3
f 178/4/2 176/4/2 175/4/2
f 176/4/52 180/4/52 177/4/52
f 180/4/53 175/4/53 177/4/53
f 182/1/1 184/1/1 181/1/1
f 188/1/2 186/1/2 185/1/2
f 185/1/3 182/1/3 181/1/3
f 187/1/4 184/1/4 183/1/4
f 188/1/5 181/1/5 184/1/5
f 186/1/6 183/1/6 182/1/6
f 189/4/4 190/4/4 191/4/4
f 192/4/3 194/4/3 193/4/3
f 192/4/2 190/4/2 189/4/2
f 190/4/52 194/4/52 191/4/52
f 194/4/53 189/4/53 191/4/53
f 196/1/1 198/1/1 195/1/1
f 202/1/2 200/1/2 199/1/2
f 199/1/3 196/1/3 195/1/3
f 201/1/4 198/1/4 197/1/4
f 202/1/5 195/1/5 198/1/5
f 200/1/6 197/1/6 196/1/6
f 203/4/4 204/4/4 205/4/4
f 206/4/3 208/4/3 207/4/3
f 206/4/2 204/4/2 203/4/2
f 204/4/52 208/4/52 205/4/52
f 208/4/53 203/4/53 205/4/53
f 210/1/1 212/1/1 209/1/1
f 216/1/2 214/1/2 213/1/2
f 213/1/3 210/1/3 209/1/3
f 215/1/4 212/1/4 211/1/4
f 216/1/5 209/1/5 212/1/5
f 214/1/6 211/1/6 210/1/6
f 217/2/4 218/2/4 219/2/4
f 220/2/3 222/2/3 221/2/3
f 220/2/54 218/2/54 217/2/54
f 218/2/55 222/2/55 219/2/55
f 222/2/56 217/2/56 219/2/56
f 224/3/4 226/3/4 223/3/4
f 223/3/57 227/3/57 224/3/57
f 224/3/58 227/3/58 225/3/58
f 225/3/59 227/3/59 226/3/59
f 226/3/60 227/3/60 223/3/60
f 2/1/1 3/1/1 4/1/1
f 8/1/2 7/1/2 6/1/2
f 5/1/3 6/1/3 2/1/3
f 7/1/4 8/1/4 4/1/4
f 8/1/5 5/1/5 1/1/5
f 6/1/6 7/1/6 3/1/6
f 10/1/1 11/1/1 12/1/1
f 16/1/2 15/1/2 14/1/2
f 13/1/3 14/1/3 10/1/3
f 15/1/4 16/1/4 12/1/4
f 16/1/5 13/1/5 9/1/5
f 14/1/6 15/1/6 11/1/6
f 17/2/61 20/2/61 21/2/61
f 18/2/62 21/2/62 22/2/62
f 22/2/5 20/2/5 17/2/5
f 23/2/6 26/2/6 27/2/6
f 27/2/63 28/2/63 25/2/63
f 28/2/64 26/2/64 23/2/64
f 30/3/1 31/3/1 32/3/1
f 36/3/2 35/3/2 34/3/2
f 33/3/3 34/3/3 30/3/3
f 35/3/4 36/3/4 32/3/4
f 36/3/5 33/3/5 29/3/5
f 34/3/6 35/3/6 31/3/6
f 38/1/1 39/1/1 40/1/1
f 44/1/2 43/1/2 42/1/2
f 41/1/3 42/1/3 38/1/3
f 43/1/4 44/1/4 40/1/4
f 44/1/5 41/1/5 37/1/5
f 42/1/6 43/1/6 39/1/6
f 48/4/15 49/4/15 46/4/15
f 49/4/65 50/4/65 47/4/65
f 47/4/66 50/4/66 48/4/66
f 52/1/1 53/1/1 54/1/1
f 58/1/2 57/1/2 56/1/2
f 55/1/3 56/1/3 52/1/3
f 57/1/4 58/1/4 54/1/4
f 58/1/5 55/1/5 51/1/5
f 56/1/6 57/1/6 53/1/6
f 59/2/67 62/2/67 63/2/67
f 60/2/68 63/2/68 64/2/68
f 64/2/5 62/2/5 59/2/5
f 65/2/6 68/2/6 69/2/6
f 69/2/69 70/2/69 67/2/69
f 70/2/70 68/2/70 65/2/70
f 72/1/1 73/1/1 74/1/1
f 78/1/2 77/1/2 76/1/2
f 75/1/3 76/1/3 72/1/3
f 77/1/4 78/1/4 74/1/4
f 78/1/5 75/1/5 71/1/5
f 76/1/6 77/1/6 73/1/6
f 82/5/2 83/5/2 80/5/2
f 80/5/71 83/5/71 84/5/71
f 84/5/72 82/5/72 79/5/72
f 86/2/1 87/2/1 88/2/1
f 92/2/2 91/2/2 90/2/2
f 89/2/3 90/2/3 86/2/3
f 91/2/4 92/2/4 88/2/4
f 92/2/5 89/2/5 85/2/5
f 90/2/6 91/2/6 87/2/6
f 94/6/1 95/6/1 96/6/1
f 100/6/2 99/6/2 98/6/2
f 97/6/3 98/6/3 94/6/3
f 99/6/4 100/6/4 96/6/4
f 100/6/5 97/6/5 93/6/5
f 98/6/6 99/6/6 95/6/6
f 120/4/2 121/4/2 118/4/2
f 121/4/73 122/4/73 119/4/73
f 119/4/74 122/4/74 120/4/74
f 124/1/1 125/1/1 126/1/1
f 133/1/1 134/1/1 135/1/1
f 144/9/4 145/9/4 142/9/4
f 142/9/46 145/9/46 146/9/46
f 143/9/75 146/9/75 144/9/75
f 147/9/4 150/9/4 151/9/4
f 151/9/50 152/9/50 149/9/50
f 152/9/51 150/9/51 147/9/51
f 154/1/1 155/1/1 156/1/1
f 160/1/2 159/1/2 158/1/2
f 157/1/3 158/1/3 154/1/3
f 159/1/4 160/1/4 156/1/4
f 160/1/5 157/1/5 153/1/5
f 158/1/6 159/1/6 155/1/6
f 164/4/2 165/4/2 162/4/2
f 162/4/76 165/4/76 166/4/76
f 166/4/77 164/4/77 161/4/77
f 168/1/1 169/1/1 170/1/1
f 174/1/2 173/1/2 172/1/2
f 171/1/3 172/1/3 168/1/3
f 173/1/4 174/1/4 170/1/4
f 174/1/5 171/1/5 167/1/5
f 172/1/6 173/1/6 169/1/6
f 178/4/2 179/4/2 176/4/2
f 176/4/76 179/4/76 180/4/76
f 180/4/77 178/4/77 175/4/77
f 182/1/1 183/1/1 184/1/1
f 188/1/2 187/1/2 186/1/2
f 185/1/3 186/1/3 182/1/3
f 187/1/4 188/1/4 184/1/4
f 188/1/5 185/1/5 181/1/5
f 186/1/6 187/1/6 183/1/6
f 192/4/2 193/4/2 190/4/2
f 190/4/76 193/4/76 194/4/76
f 194/4/77 192/4/77 189/4/77
f 196/1/1 197/1/1 198/1/1
f 202/1/2 201/1/2 200/1/2
f 199/1/3 200/1/3 196/1/3
f 201/1/4 202/1/4 198/1/4
f 202/1/5 199/1/5 195/1/5
f 200/1/6 201/1/6 197/1/6
f 206/4/2 207/4/2 204/4/2
f 204/4/76 207/4/76 208/4/76
f 208/4/77 206/4/77 203/4/77
f 210/1/1 211/1/1 212/1/1
f 216/1/2 215/1/2 214/1/2
f 213/1/3 214/1/3 210/1/3
f 215/1/4 216/1/4 212/1/4
f 216/1/5 213/1/5 209/1/5
f 214/1/6 215/1/6 211/1/6
f 220/2/54 221/2/54 218/2/54
f 218/2/78 221/2/78 222/2/78
f 222/2/79 220/2/79 217/2/79
f 224/3/4 225/3/4 226/3/4
